<svg width="560" height="459" viewBox="0 0 560 459" fill="none" xmlns="http://www.w3.org/2000/svg">
<g filter="url(#filter0_d_155_5208)">
<path opacity="0.2" d="M235.574 230.173L232.399 228.301L224.815 232.854C223.116 231.022 220.729 229.88 218.081 229.88C216.521 229.88 215.055 230.282 213.762 230.977C212.296 230.512 210.98 230.615 209.953 231.235L208.171 232.314C208.154 232.326 208.132 232.331 208.116 232.343L206.35 233.416L200.171 237.153C200.127 237.176 200.082 237.194 200.043 237.217L196.08 239.628L191.388 242.463C191.344 242.486 191.294 242.504 191.25 242.532L187.286 244.943C187.291 244.938 187.297 244.938 187.302 244.938L183.411 247.291C183.416 247.286 183.422 247.286 183.427 247.28C182.867 247.613 182.395 248.095 182.023 248.709L139.225 276.723C133.962 275.087 123.78 272.825 114.903 276.207C113.177 276.867 111.661 277.607 110.329 278.405C102.751 282.929 101.18 288.813 100.913 290.087C100.68 290.179 100.452 290.271 100.23 290.363C91.8194 293.859 89.9596 296.965 89.9596 299.031V299.025L89.9485 302.401C89.943 303.939 90.9756 304.898 91.0922 305.007L101.64 307.458L101.646 308.4C101.651 308.865 101.968 309.416 102.351 309.646L103.433 310.294L100.774 319.129C100.802 319.267 101.085 320.593 102.329 321.345L105.149 323.038C105.138 323.033 105.132 323.027 105.121 323.021C106.42 323.825 108.796 323.991 113.082 321.431C114.026 320.868 115.059 320.168 116.191 319.313L117.229 321.006C117.657 321.184 125.768 324.588 136.172 316.104C145.526 308.463 148.474 294.226 149.007 291.207L192.577 267.745C193.42 267.734 194.175 267.498 194.808 267.05C194.736 267.102 194.669 267.159 194.597 267.2L208.177 258.996L211.391 257.056C211.391 257.056 211.397 257.056 211.397 257.05L215.427 254.616C215.399 254.634 215.377 254.656 215.349 254.674L219.469 252.182C219.497 252.165 219.524 252.142 219.552 252.119L221.156 251.149C222.25 250.489 223.016 249.255 223.316 247.544C225.798 245.804 227.43 242.865 227.43 239.536C227.43 238.141 227.136 236.815 226.619 235.615L235.574 230.173Z" fill="#1E1B1C"/>
<g opacity="0.2">
<path d="M477.221 332.47C480.908 334.669 480.93 338.239 477.266 340.438L456.708 352.838C453.044 355.042 447.087 355.042 443.401 352.838L141.934 174.903C138.248 172.698 138.226 169.133 141.89 166.935L162.448 154.535C166.112 152.336 172.069 152.331 175.755 154.535L477.221 332.47Z" fill="#1E1B1C"/>
</g>
<path d="M211.841 132.072C210.125 132.416 207.91 131.779 205.179 130.149C202.658 128.645 200.454 126.779 198.556 124.552C197.001 122.715 195.652 120.637 194.52 118.312C194.281 117.818 194.048 117.319 193.831 116.808C191.788 112.026 190.778 106.647 190.795 100.665C190.811 94.2645 192.066 89.9074 194.575 87.5996C194.919 87.2839 195.275 87.0141 195.647 86.7902L156.491 110.321C156.113 110.545 155.758 110.815 155.419 111.13C152.91 113.438 151.655 117.795 151.639 124.196C151.622 130.178 152.638 135.562 154.675 140.338C154.892 140.849 155.12 141.349 155.358 141.842C156.491 144.167 157.834 146.251 159.394 148.082C161.287 150.31 163.491 152.176 166.012 153.68C168.743 155.31 170.958 155.947 172.674 155.603C173.101 155.517 173.484 155.373 173.823 155.166L212.979 131.636C212.651 131.837 212.263 131.986 211.841 132.072Z" fill="#258DC0"/>
<path d="M163.469 122.336L202.625 98.811L246.2 124.827L207.044 148.352L163.469 122.336Z" fill="#185E87"/>
<path d="M207.044 148.352L246.2 124.822C246.267 126.785 246.322 128.243 246.35 129.207C246.383 130.166 246.4 131.01 246.4 131.739C246.383 137.112 245.939 141.762 245.062 145.683C244.19 149.615 242.924 152.79 241.265 155.218C239.299 157.945 237.067 160.063 234.553 161.573L195.397 185.104C197.906 183.594 200.143 181.476 202.109 178.749C203.769 176.32 205.034 173.146 205.906 169.214C206.783 165.299 207.233 160.649 207.244 155.27C207.244 154.541 207.227 153.697 207.194 152.738C207.166 151.774 207.111 150.321 207.044 148.352Z" fill="#258DC0"/>
<path d="M239.244 101.584C235.585 93.0188 231.094 85.3608 225.776 78.6099C225.098 77.7546 224.415 76.9222 223.722 76.107C217.948 69.3102 211.452 63.7475 204.241 59.4421C198.278 55.8829 192.727 53.7704 187.586 53.0873C182.445 52.4156 177.909 53.1906 173.979 55.4122C173.84 55.4926 173.707 55.5672 173.573 55.6533L134.417 79.1782C134.551 79.0979 134.69 79.0175 134.823 78.9429C138.753 76.7213 143.289 75.9405 148.43 76.6122C153.571 77.2953 159.122 79.4079 165.079 82.967C172.291 87.2725 178.786 92.8351 184.566 99.632C185.26 100.447 185.942 101.285 186.614 102.135C191.933 108.886 196.424 116.538 200.083 125.109C200.738 126.641 201.365 128.209 201.97 129.804L241.126 106.274C240.526 104.684 239.899 103.122 239.244 101.584Z" fill="#258DC0"/>
<path d="M165.079 82.9728C173.157 87.7948 180.341 94.1956 186.614 102.141C192.887 110.097 198.006 119.316 201.97 129.81L176.671 125.861C175.35 122.474 173.762 119.569 171.891 117.175C170.031 114.787 167.894 112.87 165.49 111.435C161.282 108.92 157.929 108.823 155.425 111.125C152.916 113.432 151.661 117.789 151.644 124.19C151.628 130.803 152.866 136.687 155.369 141.837C157.879 146.992 161.426 150.93 166.023 153.674C168.754 155.304 170.97 155.941 172.685 155.597C174.389 155.247 175.411 153.961 175.744 151.716L163.408 144.351L163.469 122.336L207.044 148.352C207.111 150.316 207.161 151.774 207.2 152.738C207.233 153.697 207.25 154.541 207.25 155.27C207.233 160.643 206.789 165.293 205.912 169.214C205.04 173.146 203.774 176.32 202.114 178.749C198.067 184.369 192.86 187.4 186.492 187.853C180.124 188.307 172.896 186.12 164.818 181.298C158.861 177.738 153.321 173.243 148.213 167.824C143.1 162.4 138.576 156.2 134.634 149.242C130.731 142.296 127.789 135.258 125.79 128.122C123.792 120.987 122.809 113.949 122.826 106.986C122.842 99.9879 123.875 94.121 125.923 89.3793C127.966 84.6318 130.937 81.1587 134.823 78.9486C138.753 76.727 143.289 75.9463 148.43 76.6179C153.571 77.2953 159.122 79.4136 165.079 82.9728Z" fill="#FAFAFA"/>
<path d="M294.527 113.237C288.62 109.712 283.096 107.623 277.961 106.963C272.831 106.308 268.285 107.1 264.332 109.357C264.143 109.46 263.96 109.569 263.777 109.678C222.711 134.351 222.828 134.213 224.565 133.255C244.668 121.796 282.48 150.258 293.744 190.287C298.363 206.677 299.185 230.316 284.884 238.91L324.651 215.012C348.928 200.425 334.76 137.262 294.527 113.237Z" fill="#258DC0"/>
<path d="M293.745 190.287C297.02 201.918 298.425 217.664 293.611 228.629C277.067 266.155 212.44 216.878 212.59 161.096C212.74 104.707 277.856 133.915 293.745 190.287Z" fill="#FAFAFA"/>
<path d="M323.052 265.19L362.818 241.292L360.364 251.603L320.598 275.495L323.052 265.19Z" fill="#185E87"/>
<path d="M327.843 245.782L367.609 221.889L379.384 228.916L339.618 252.814L327.843 245.782Z" fill="#185E87"/>
<path d="M333.572 217.98C333.172 226.574 331.052 233.789 327.843 245.782L367.609 221.889C370.901 209.587 372.939 202.589 373.333 194.088L333.572 217.98Z" fill="#185E87"/>
<path d="M318.538 180.603L358.305 156.705L389.81 175.517L350.049 199.409L318.538 180.603Z" fill="#34A1D2"/>
<path d="M350.049 199.409L389.81 175.517L417.086 285.466L377.319 309.359L350.049 199.409Z" fill="#185E87"/>
<path d="M350.049 199.409L377.325 309.359L346.891 291.19L344.392 277.923L323.052 265.185L320.598 275.489L290.225 257.355L318.544 180.597L350.049 199.409ZM327.843 245.782L339.612 252.808C336.437 236.82 334.399 227.274 334.05 218.267L333.567 217.98C333.172 226.574 331.052 233.795 327.843 245.782Z" fill="#FAFAFA"/>
<path d="M410.091 298.537L449.857 274.645L477.377 291.069L437.61 314.967L410.091 298.537Z" fill="#258DC0"/>
<path d="M437.61 314.967L477.377 291.069L477.293 321.408L437.527 345.306L437.61 314.967Z" fill="#185E87"/>
<path d="M410.263 235.362L450.029 211.464L449.857 274.645L410.091 298.538L410.263 235.362Z" fill="#185E87"/>
<path d="M381.927 218.445L421.694 194.547L450.029 211.464L410.263 235.362L381.927 218.445Z" fill="#34A1D2"/>
<path d="M410.263 235.362L410.091 298.538L437.61 314.967L437.527 345.306L381.672 311.959L381.927 218.445L410.263 235.362Z" fill="#FAFAFA"/>
<path d="M254.7 159.96C260.457 163.398 266.208 169.438 270.577 177.262C279.321 192.917 279.271 209.863 270.477 215.046C266.081 217.635 260.312 216.803 254.55 213.365C248.793 209.932 243.041 203.887 238.672 196.062C229.939 180.414 229.984 163.467 238.777 158.278C243.174 155.683 248.943 156.521 254.7 159.96ZM242.186 193.99C245.595 200.092 250.075 204.8 254.566 207.48C259.058 210.161 263.554 210.81 266.98 208.789C273.842 204.748 273.875 191.533 267.063 179.329C263.654 173.232 259.174 168.519 254.683 165.838C250.192 163.157 245.695 162.509 242.269 164.524C235.419 168.571 235.38 181.786 242.186 193.99Z" fill="#EE181D"/>
<path d="M254.739 145.023C263.716 150.384 272.681 159.805 279.493 172.003C293.117 196.401 293.045 222.831 279.332 230.913C272.476 234.955 263.488 233.652 254.511 228.296C245.534 222.934 236.568 213.514 229.756 201.315C216.132 176.917 216.204 150.488 229.917 142.405C236.773 138.369 245.761 139.667 254.739 145.023ZM233.27 199.243C239.122 209.719 246.822 217.808 254.528 222.412C262.239 227.016 269.956 228.129 275.84 224.656C287.621 217.721 287.682 195.029 275.979 174.07C270.133 163.594 262.433 155.511 254.722 150.907C247.016 146.303 239.294 145.189 233.409 148.657C221.64 155.603 221.573 178.295 233.27 199.243Z" fill="#EE181D"/>
<path d="M257.603 179.151C258.564 180.155 259.341 181.2 260.074 182.377C268.079 195.385 258.53 203.984 250.014 192.199C241.459 180.362 248.521 169.667 257.603 179.151Z" fill="#EE181D"/>
<path d="M97.5543 300.765L94.3011 298.807C92.8632 297.94 92.5356 296.408 92.5023 296.247L95.7556 298.205C95.7889 298.365 96.1109 299.904 97.5543 300.765Z" fill="#FF434D"/>
<path d="M101.119 280.386L97.8597 278.428L140.774 252.808L144.033 254.766L101.119 280.386Z" fill="#747474"/>
<path d="M95.7556 298.21L92.5023 296.253L97.8597 278.428L101.118 280.386L95.7556 298.21Z" fill="#ED263A"/>
<path d="M101.118 280.386L144.033 254.766C143.139 256.207 126.162 283.618 111.989 295.145C110.001 296.764 108.247 297.992 106.709 298.911C97.1102 304.64 95.8222 298.532 95.75 298.21L101.118 280.386Z" fill="#C60E28"/>
<path d="M81.3324 276.057L81.3213 279.95C81.1881 279.823 80 278.715 80 276.936L80.0111 273.044C80.0111 274.823 81.1992 275.931 81.3324 276.057Z" fill="#FF434D"/>
<path d="M98.9867 280.162L98.9756 284.054L81.3213 279.95L81.3324 276.057L98.9867 280.162Z" fill="#ED263A"/>
<path d="M141.623 254.542L141.612 258.434L98.9756 284.054L98.9867 280.162L141.623 254.542Z" fill="#686868"/>
<path d="M141.623 254.542L98.9866 280.162L81.3323 276.057C81.0103 275.759 74.9312 270.093 91.8694 263.049C108.541 256.126 139.969 254.622 141.623 254.542Z" fill="#C60E28"/>
<path d="M255.249 187.773C255.249 186.9 254.661 185.838 253.928 185.402C253.539 185.172 253.195 185.167 252.956 185.333L252.951 185.327L196.918 222.136L199.116 225.253L254.8 188.686C254.85 188.663 254.9 188.628 254.938 188.594L254.944 188.588C255.133 188.416 255.249 188.146 255.249 187.773Z" fill="#878787"/>
<path d="M238.689 204.398C238.689 210.557 233.859 215.552 227.902 215.552C221.945 215.552 217.115 210.557 217.115 204.398C217.115 198.238 221.945 193.244 227.902 193.244C233.859 193.238 238.689 198.232 238.689 204.398Z" fill="#9E9E9E"/>
<path d="M225.01 195.46C222.472 193.944 220.174 193.806 218.514 194.805L187.869 213.33C189.529 212.331 191.827 212.475 194.364 213.985C195.791 214.84 197.146 216.034 198.345 217.452L228.99 198.927C227.791 197.509 226.442 196.315 225.01 195.46Z" fill="#D3D3D3"/>
<path d="M198.35 217.452L228.996 198.927C230.422 200.603 231.638 202.589 232.526 204.667L201.881 223.192C200.993 221.114 199.777 219.128 198.35 217.452Z" fill="#E2E2E2"/>
<path d="M201.881 223.192L232.526 204.667C233.531 207.015 234.114 209.478 234.109 211.751C234.098 214.725 233.087 216.82 231.449 217.802L200.804 236.327C202.442 235.345 203.458 233.25 203.463 230.276C203.469 227.997 202.881 225.535 201.881 223.192Z" fill="#D3D3D3"/>
<path d="M194.37 213.984C199.405 216.992 203.474 224.289 203.463 230.276C203.447 236.264 199.35 238.675 194.314 235.667C189.273 232.659 185.198 225.368 185.215 219.381C185.226 213.393 189.329 210.976 194.37 213.984Z" fill="#A0A0A0"/>
<path d="M210.958 217.819C210.07 215.741 208.854 213.761 207.427 212.079C206.222 210.666 204.873 209.467 203.447 208.611C200.91 207.096 198.583 206.837 196.923 207.836L192.349 210.62C194.009 209.622 196.307 209.765 198.844 211.275C200.271 212.13 201.626 213.324 202.825 214.742C204.252 216.424 205.467 218.405 206.356 220.483C207.361 222.825 207.943 225.293 207.938 227.567C207.927 230.54 206.916 232.636 205.279 233.617L210.031 230.747C211.669 229.765 212.535 227.877 212.546 224.903C212.546 222.624 211.963 220.161 210.958 217.819Z" fill="#9E9E9E"/>
<path d="M221.112 211.682C220.224 209.604 219.008 207.618 217.581 205.942C216.382 204.53 215.027 203.33 213.601 202.475C211.064 200.959 208.737 200.701 207.077 201.7L202.503 204.484C204.163 203.485 206.461 203.628 208.998 205.138C210.431 205.994 211.78 207.188 212.979 208.606C214.406 210.287 215.621 212.268 216.51 214.346C217.515 216.694 218.098 219.157 218.092 221.43C218.086 224.404 217.07 226.499 215.433 227.481L220.185 224.61C221.823 223.629 222.689 221.74 222.7 218.766C222.694 216.493 222.111 214.03 221.112 211.682Z" fill="#9E9E9E"/>
<path d="M230.428 206.062C229.539 203.984 228.324 201.998 226.897 200.322C225.698 198.91 224.343 197.71 222.916 196.855C220.379 195.339 218.053 195.081 216.393 196.08L211.819 198.864C213.479 197.865 215.777 198.008 218.314 199.518C219.746 200.374 221.095 201.568 222.295 202.986C223.721 204.668 224.937 206.648 225.825 208.726C226.83 211.068 227.413 213.537 227.408 215.81C227.397 218.784 226.386 220.879 224.748 221.861L229.501 218.99C231.138 218.009 232.004 216.12 232.016 213.146C232.016 210.867 231.433 208.405 230.428 206.062Z" fill="#9E9E9E"/>
<path d="M94.3177 285.311L98.9201 288.061C95.9444 286.287 93.5183 281.993 93.4739 278.417L93.5016 283.87C93.5127 284.404 93.8736 285.041 94.3177 285.311Z" fill="#C60E28"/>
<path d="M193.787 214.576C193.559 214.444 193.332 214.323 193.104 214.214C190.95 213.169 189.029 213.192 187.613 214.099L94.984 274.731C95.8667 274.163 97.0714 274.151 98.4149 274.806C98.5537 274.875 98.6981 274.949 98.8424 275.03C99.6918 275.523 100.502 276.218 101.23 277.05L197.601 217.808C196.446 216.476 195.153 215.356 193.787 214.576Z" fill="#ED263A"/>
<path d="M201.265 223.715C200.377 221.556 199.111 219.495 197.623 217.785L101.252 277.028C102.185 278.101 102.973 279.387 103.528 280.736C103.994 281.873 104.3 283.049 104.383 284.175L202.636 229.214C202.503 227.417 202.014 225.529 201.265 223.715Z" fill="#FF434D"/>
<path d="M202.636 229.214L104.383 284.18C104.394 284.358 104.405 284.536 104.405 284.714C104.427 286.591 103.789 287.906 102.745 288.492L200.016 236.114C201.681 235.179 202.708 233.078 202.675 230.07C202.669 229.788 202.658 229.501 202.636 229.214Z" fill="#C60E28"/>
<path d="M93.5071 283.87L93.4794 278.417C93.4349 274.8 95.8499 273.273 98.87 275.013C99.4196 275.328 99.9582 275.736 100.458 276.207L94.5508 283.537C94.4731 283.468 94.3954 283.405 94.3121 283.359C93.8569 283.101 93.496 283.325 93.5071 283.87Z" fill="#FF434D"/>
<path d="M94.5453 283.537L100.452 276.207C101.946 277.602 103.178 279.576 103.85 281.614L95.056 284.347C94.9561 284.042 94.7674 283.744 94.5453 283.537Z" fill="#FF434D"/>
<path d="M94.3349 285.317L94.3177 285.311C94.3235 285.311 94.3292 285.317 94.3349 285.317Z" fill="#1DCC00"/>
<path d="M103.85 281.614L95.0562 284.347C95.1062 284.502 95.1395 284.662 95.1395 284.812C95.145 285.351 94.7842 285.581 94.3345 285.317L98.9201 288.055C98.9535 288.072 98.9868 288.089 99.0145 288.112C102.035 289.852 104.444 288.331 104.405 284.708C104.394 283.709 104.2 282.653 103.85 281.614Z" fill="#ED263A"/>
<path d="M106.781 251.206L103.528 249.249C105.066 248.33 106.815 247.469 108.808 246.712C122.998 241.31 140.069 248.382 140.968 248.755L144.222 250.713C143.322 250.34 126.251 243.267 112.061 248.669C110.068 249.427 108.319 250.288 106.781 251.206Z" fill="#FF434D"/>
<path d="M101.307 276.333L98.0485 274.375L92.6079 263.009L95.8612 264.961L101.307 276.333Z" fill="#ED263A"/>
<path d="M95.8612 264.961L92.6079 263.003C92.6745 262.601 93.9292 254.978 103.522 249.243L106.776 251.201C97.1825 256.936 95.9278 264.559 95.8612 264.961Z" fill="#FF434D"/>
<path d="M106.781 251.206C108.319 250.288 110.068 249.427 112.061 248.669C126.251 243.261 143.322 250.34 144.222 250.713L101.307 276.333L95.8666 264.961C95.9276 264.559 97.1823 256.935 106.781 251.206Z" fill="#C60E28"/>
<path d="M111.628 294.531L111.5 298.423L104.905 287.648L105.027 283.756L111.628 294.531Z" fill="#ED263A"/>
<path d="M148.408 259.513L148.28 263.405C148.124 264.393 145.16 283.13 133.357 292.768C121.354 302.556 111.989 298.635 111.495 298.429L111.622 294.536C112.116 294.743 121.482 298.67 133.485 288.882C145.288 279.238 148.252 260.495 148.408 259.513Z" fill="#FF434D"/>
<path d="M148.408 259.513C148.252 260.5 145.288 279.238 133.485 288.876C121.482 298.664 112.116 294.743 111.622 294.531L105.021 283.761L148.408 259.513Z" fill="#C60E28"/>
<path opacity="0.18" d="M261.078 401.776C261.078 401.776 274.047 401.776 276.506 396.92C278.966 392.063 283.118 389.824 277.128 387.821C271.143 385.817 256.604 384.199 255.038 388.131C253.473 392.063 261.078 401.776 261.078 401.776Z" fill="#2B2B2B"/>
<path opacity="0.18" d="M227.619 370.656C227.619 370.656 223.921 371.96 222.722 375.232C219.93 382.832 232.315 386.053 236.512 383.435C242.614 379.629 238.017 378.699 240.16 377.729C241.159 377.275 244.473 377.534 244.59 372.872C244.657 370.1 236.496 365.932 227.619 370.656Z" fill="#2B2B2B"/>
<path d="M228.762 378.269L226.864 379.267V377.528L228.762 378.269Z" fill="#282827"/>
<path d="M249.276 331.465C249.065 333.555 245.079 334.359 244.235 332.642C243.263 330.696 242.641 326.758 241.298 324.56C239.76 322.028 235.058 318.291 235.058 318.291C235.058 318.291 231.05 313.555 232.948 310.914C234.025 309.404 237.229 309.003 239.849 313.078C240.859 314.646 246.794 322.189 246.794 322.189L249.226 330.346C249.22 330.34 249.376 330.438 249.276 331.465Z" fill="#141413"/>
<path d="M226.808 313.01C226.808 313.01 228.54 310.271 230 309.806C231.455 309.336 236.013 309.898 236.013 309.898C236.013 309.898 238.117 315.553 238.117 315.926C238.117 316.305 236.335 326.11 236.335 326.11L230.544 320.691L226.808 313.01Z" fill="#EDEDED"/>
<path d="M233.703 373.825H230.045V375.559H233.703V373.825Z" fill="#282827"/>
<path d="M235.069 369.371L236.329 370.484C236.329 370.484 242.148 373.406 242.519 373.544C242.769 373.636 243.18 373.957 243.175 374.428C243.169 374.612 243.158 374.727 243.047 374.893C242.647 375.496 241.82 375.766 241.048 375.909C239.377 376.225 235.719 375.519 235.719 375.519C235.313 375.318 232.932 374.893 232.743 374.738C232.743 374.738 232.01 374.715 231.855 375.031C231.799 375.146 231.894 375.668 231.91 375.777L229.701 374.887C229.59 374.83 229.368 373.745 229.307 373.263L228.912 370.065L235.069 369.371Z" fill="#231F20"/>
<path d="M243.058 374.64C242.536 375.323 241.748 375.576 240.987 375.737C238.489 376.253 234.969 374.836 234.969 374.836C234.214 374.52 232.893 374.33 232.576 374.353C232.576 374.353 231.821 374.439 231.849 375.025C231.86 375.146 231.805 375.059 231.827 375.197C231.821 375.128 231.827 375.071 231.843 375.036C231.999 374.715 232.776 375.318 232.776 375.318C233.026 375.025 232.726 374.864 234.225 375.191C234.225 375.191 238.083 376.609 240.543 376.334C241.32 376.248 242.63 375.765 243.085 375.025C243.163 374.893 243.258 374.577 243.163 374.353C243.152 374.394 243.08 374.606 243.058 374.64Z" fill="#282827"/>
<path d="M231.832 374.91L229.44 373.963C229.44 373.963 229.651 374.91 229.684 374.893L231.894 375.783C231.888 375.703 231.844 375.111 231.832 374.91Z" fill="#282827"/>
<path d="M238.306 338.997L236.862 369.371C236.862 370.731 237.012 371.03 236.579 371.431C234.947 372.93 229.739 375.444 229.223 372.488L227.113 337.746L238.306 338.997Z" fill="#141413"/>
<path d="M231.005 373.578L234.841 376.914C234.841 376.914 236.784 378.521 237.495 378.952C237.817 379.147 238.039 379.577 238.067 379.996C238.083 380.266 238.011 380.53 237.834 380.72C237.384 381.219 236.462 381.604 235.696 381.782C233.448 382.316 231.155 380.858 231.155 380.858C230.777 380.616 228.229 378.911 228.04 378.756C227.513 378.32 227.03 378.148 226.841 378.441C226.841 378.441 226.864 379.164 226.864 379.273L224.732 377.752C224.732 377.752 224.593 376.931 224.593 376.443V373.217L231.005 373.578Z" fill="#231F20"/>
<path d="M234.814 341.259L233.087 374.072C233.076 375.054 232.66 375.364 231.893 375.783C227.213 378.337 224.815 376.317 224.815 376.317C224.438 376.093 224.471 375.835 224.437 375.496L223.627 340.013L234.814 341.259Z" fill="#383736"/>
<path d="M237.306 310.082C236.673 308.865 235.191 308.704 234.186 308.744C235.347 309.72 236.768 312.745 236.768 316.919C236.768 319.095 235.941 324.611 235.88 324.479C235.824 324.359 231.916 315.857 230.411 314.301C228.501 312.326 228.313 310.696 228.363 310.696C228.718 310.415 228.912 310.26 229.023 310.174H229.012C229.012 310.174 222.744 314.537 222.811 316.305L223.244 342.436C223.211 342.172 223.172 343.986 224.338 344.204C224.338 344.204 228.107 345.817 229.945 346.041C232.815 346.397 238.328 342.803 238.328 342.803C239.116 342.166 239.183 341.265 239.183 340.501L239.488 320.92C239.488 315.271 238.761 312.912 237.306 310.082Z" fill="#282827"/>
<path d="M237.306 310.082C236.674 308.865 235.191 308.704 234.186 308.744C235.347 309.72 236.768 312.745 236.768 316.919C236.768 319.095 235.918 324.255 235.857 324.129C235.802 324.009 231.916 315.857 230.411 314.301C228.501 312.326 228.313 310.696 228.363 310.696C228.718 310.415 228.912 310.26 229.023 310.174H229.012C229.012 310.174 222.578 314.416 222.761 315.742L223.25 342.442C223.216 342.177 223.177 343.991 224.343 344.21C224.343 344.21 228.113 345.823 229.95 346.047C232.821 346.403 238.333 342.809 238.333 342.809C239.122 342.172 239.188 341.27 239.188 340.507L239.494 320.926C239.488 315.271 238.761 312.912 237.306 310.082Z" fill="#282827"/>
<path d="M234.514 312.126C232.177 314.359 230.55 311.735 229.151 309.887L229.084 303.411L234.619 305.323L234.514 312.126Z" fill="#E8C5AC"/>
<path d="M231.233 299.961C232.51 299.961 232.648 301.23 232.648 301.23V303.871C232.648 303.871 232.587 304.445 232.11 304.548C231.388 304.697 231.066 304.048 230.744 303.325C230.722 303.285 230.311 302.223 230.283 302.16C229.934 301.259 230.028 299.961 231.233 299.961Z" fill="#FFE8D9"/>
<path d="M236.074 344.112L236.09 324.715C236.09 324.715 235.807 324.313 235.691 324.066V344.319C235.824 344.25 235.952 344.181 236.074 344.112Z" fill="#383736"/>
<path d="M234.753 316.075C234.697 315.845 234.697 315.668 234.736 315.392L234.891 314.554L233.742 312.734L233.181 312.849L232.87 314.91L233.626 315.69C233.803 315.851 233.975 316.293 233.97 316.534L234.514 322.413L235.835 324.135L236.59 321.775L234.753 316.075Z" fill="#160B01"/>
<path d="M235.197 309.898L235.607 308.98C235.607 308.98 236.041 309.249 236.135 309.336C236.446 309.611 236.907 310.65 236.907 310.65L238.478 314.043C238.661 314.605 238.528 314.984 238.206 315.34L237.273 316.546L238.233 317.585C238.783 318.021 238.666 318.739 238.417 319.209L235.735 324.456C235.735 324.456 236.168 320.627 236.274 318.411C236.524 313.193 235.197 309.898 235.197 309.898Z" fill="#7A797A"/>
<path d="M233.703 312.459C233.381 312.717 233.62 313.084 233.798 313.337L234.869 314.904C235.213 315.369 235.369 314.847 235.38 314.353V310.788C235.185 308.555 234.475 308.83 234.475 308.83C234.475 308.83 234.369 309.026 234.403 309.491C234.464 310.26 234.808 311.569 233.703 312.459Z" fill="white"/>
<path d="M229.145 308.314C229.145 308.314 229.034 308.698 229.273 309.221C230.239 311.322 233.259 312.539 233.259 312.539C233.62 312.682 233.598 312.866 233.542 313.498L233.17 315.794C233.109 316.402 232.804 316.339 232.571 316.087C232.571 316.087 230.234 313.968 229.578 313.262C228.035 311.592 227.991 311.689 228.601 309.6C228.968 308.343 229.145 308.314 229.145 308.314Z" fill="white"/>
<path d="M228.568 309.605L227.68 310.702C227.68 310.702 227.419 311.04 227.363 311.161C227.18 311.569 227.385 312.022 227.385 312.022L228.907 315.885C229.118 316.666 229.39 316.925 229.956 316.97L231.96 317.229L231.205 318.807C230.861 319.485 230.977 319.663 231.272 320.047L236.063 324.766C236.063 324.766 235.174 321.144 232.415 316.494C231.41 314.801 228.568 309.605 228.568 309.605Z" fill="#7A797A"/>
<path d="M233.925 296.138L229.001 296.161L228.923 305.34C228.99 305.972 228.968 306.54 229.068 307.074C229.179 307.659 229.44 308.199 230.122 308.744C230.122 308.744 231.438 309.783 232.832 310.363C233.52 310.65 236.784 311.706 237.628 308.406C237.867 307.476 238.006 306.04 238.05 305.507L238.661 300.145L238.894 296.632L233.925 296.138Z" fill="#FFE1CC"/>
<path d="M238.444 294.513C239.821 295.311 239.394 297.062 239.027 299.358C238.927 299.99 238.594 300.455 238.617 300.478C238.639 300.501 238.678 299.267 238.705 298.543C238.75 297.464 237.584 296.769 237.073 296.988C236.085 297.407 232.948 298.807 232.599 299.02C231.594 299.634 231.422 301.092 231.472 301.884V302.682C231.472 303.101 231.538 303.578 231.144 303.532C230.722 303.48 230.755 303.319 230.639 302.872C230.639 302.872 230.067 301.437 228.962 301.597C228.018 301.741 228.723 304.026 228.785 304.146L229.09 307.16C228.984 307.126 228.624 306.965 228.163 305.926C227.308 304.008 226.764 302.832 226.519 302.252C223.716 295.529 228.951 290.495 235.102 292.424C236.246 292.785 238.444 294.513 238.444 294.513Z" fill="#684005"/>
<path d="M229.145 301.511C230.422 301.511 230.567 302.774 230.567 302.774V305.421C230.567 305.421 230.506 305.995 230.028 306.098C229.301 306.253 228.99 305.593 228.662 304.875C228.64 304.835 228.229 303.767 228.202 303.704C227.846 302.803 227.941 301.511 229.145 301.511Z" fill="#FFE8D9"/>
<path d="M223.605 345.536C223.599 346.403 224.732 346.971 225.492 346.971C225.759 346.977 226.175 349.083 227.269 349.009C227.269 349.009 227.269 348.44 227.236 347.453C227.236 347.373 227.358 346.535 226.864 345.932C225.548 344.353 225.392 344.055 224.632 344.049C223.866 344.055 223.61 344.669 223.605 345.536Z" fill="#FFE8D9"/>
<path d="M218.886 357.447C218.886 357.597 218.952 357.769 219.041 357.901L218.886 357.447Z" fill="#6D320A"/>
<path d="M218.891 355.708C215.782 351.431 215.31 346.931 215.283 346.689V347.505L215.377 348.004C215.621 349.451 216.449 353.061 218.886 356.397L218.891 355.708Z" fill="#6D320A"/>
<path d="M226.747 362.143C226.747 362.292 226.808 362.459 226.903 362.591L226.747 362.143Z" fill="#6D320A"/>
<path d="M231.699 369.411L235.78 366.959C235.952 366.862 236.052 366.644 236.057 366.339L231.971 368.791C231.971 369.095 231.866 369.313 231.699 369.411Z" fill="#723919"/>
<path d="M232.004 356.672L231.999 357.493L231.916 357.884C231.405 360.082 230.111 361.454 228.368 361.822C228.368 361.822 224.732 361.282 223.61 360.61C222.428 359.899 220.585 358.171 220.379 358.05L218.886 356.403C216.449 353.067 215.622 349.451 215.377 348.01L215.283 347.51L215.255 358.814C215.255 359.428 215.666 360.18 216.188 360.484L231.033 369.348C231.549 369.658 231.971 369.405 231.971 368.797L232.004 356.672Z" fill="#8C532C"/>
<path d="M232.005 356.804L236.091 354.353V354.215L232.005 356.672V356.804Z" fill="#5C361D"/>
<path d="M232.005 356.804C231.56 359.244 230.217 360.765 228.363 361.15C228.363 361.173 228.363 361.196 228.363 361.219V361.816C230.106 361.454 231.399 360.077 231.91 357.878L231.993 357.488L232.005 356.804Z" fill="#6D320A"/>
<path d="M215.288 346.689C215.316 346.925 215.788 351.431 218.897 355.708V355.564C218.897 355.318 219.063 355.22 219.269 355.341L220.135 355.863C220.346 355.983 220.507 356.288 220.507 356.529L220.501 357.614C221.378 358.498 222.389 359.324 223.577 360.031C224.698 360.702 225.77 361.081 226.747 361.202L226.753 360.254C226.753 360.013 226.919 359.91 227.13 360.031L227.996 360.553C228.185 360.662 228.34 360.92 228.368 361.15C230.222 360.765 231.566 359.244 232.01 356.804V356.672L226.78 353.549L226.02 353.096L221.312 350.289L220.546 349.835L215.288 346.689Z" fill="#A5683D"/>
<path d="M219.369 344.238L215.288 346.69L232.01 356.672L232.004 357.493L231.977 368.791C231.977 369.095 231.871 369.313 231.705 369.411L235.785 366.96C235.957 366.862 236.057 366.644 236.063 366.34L236.096 354.221L219.369 344.238Z" fill="#6D3B18"/>
<path d="M226.725 361.15C225.742 361.029 224.671 360.651 223.549 359.979C222.367 359.273 221.351 358.452 220.479 357.568L220.091 357.671L220.174 357.975C221.045 358.854 222.367 359.944 223.549 360.656C224.671 361.322 225.742 361.707 226.725 361.827V361.15Z" fill="#6D320A"/>
<path d="M228.029 362.212V363.125C228.029 363.234 227.991 363.309 227.93 363.343L228.096 363.245C228.157 363.211 228.196 363.136 228.196 363.027V362.115L228.029 362.212Z" fill="#75460D"/>
<path d="M228.029 362.212L228.196 362.114L226.864 361.317L226.703 361.42L228.029 362.212Z" fill="#EB921A"/>
<path d="M226.703 361.42V362.333C226.703 362.551 226.847 362.809 227.03 362.924L227.702 363.326C227.885 363.435 228.029 363.343 228.035 363.131V362.218L226.703 361.42Z" fill="#D87A13"/>
<path d="M228.113 360.496L227.241 359.979C227.136 359.916 227.047 359.91 226.975 359.945L226.647 360.145C226.714 360.1 226.808 360.111 226.914 360.174L227.785 360.691C227.974 360.806 228.157 361.098 228.157 361.362V362.465L228.485 362.269V361.167C228.479 360.903 228.301 360.605 228.113 360.496Z" fill="#89550F"/>
<path d="M226.908 360.174C226.703 360.048 226.536 360.145 226.536 360.392L226.531 361.5L228.152 362.459V361.357C228.152 361.11 227.985 360.811 227.78 360.685L226.908 360.174Z" fill="#F99B1C"/>
<path d="M220.074 357.574L220.068 358.481C220.068 358.59 220.035 358.664 219.974 358.699L220.135 358.601C220.196 358.567 220.229 358.486 220.229 358.383L220.235 357.47L220.074 357.574Z" fill="#75460D"/>
<path d="M220.074 357.574L220.246 357.47L218.914 356.678L218.753 356.781L220.074 357.574Z" fill="#EB921A"/>
<path d="M218.753 356.781L218.747 357.694C218.747 357.907 218.897 358.171 219.075 358.28L219.746 358.682C219.93 358.791 220.074 358.704 220.074 358.486L220.079 357.579L218.753 356.781Z" fill="#D87A13"/>
<path d="M220.152 355.852L219.286 355.335C219.18 355.266 219.086 355.266 219.014 355.312L218.692 355.501C218.758 355.461 218.853 355.467 218.958 355.53L219.824 356.047C219.869 356.07 219.902 356.104 219.935 356.139C219.946 356.15 219.952 356.156 219.957 356.162C220.091 356.305 220.196 356.523 220.196 356.718V357.826L220.524 357.631L220.529 356.529C220.524 356.265 220.346 355.966 220.152 355.852Z" fill="#89550F"/>
<path d="M218.958 355.53C218.747 355.41 218.581 355.507 218.581 355.754L218.575 356.862L220.191 357.826V356.718C220.196 356.472 220.024 356.173 219.819 356.047L218.958 355.53Z" fill="#F99B1C"/>
<mask id="mask0_155_5208" style="mask-type:luminance" maskUnits="userSpaceOnUse" x="229" y="351" width="1" height="1">
<path d="M229.784 351.747L229.778 351.362C229.778 351.431 229.734 351.5 229.639 351.558V351.948C229.739 351.891 229.784 351.816 229.784 351.747Z" fill="white"/>
</mask>
<g mask="url(#mask0_155_5208)">
<path d="M229.639 351.552V351.942C229.734 351.89 229.784 351.816 229.784 351.741L229.778 351.357C229.784 351.431 229.739 351.5 229.639 351.552Z" fill="#F99B1C"/>
</g>
<mask id="mask1_155_5208" style="mask-type:luminance" maskUnits="userSpaceOnUse" x="226" y="351" width="2" height="2">
<path d="M226.964 351.948V352.344C226.964 352.413 227.008 352.488 227.102 352.533V352.149C227.008 352.091 226.964 352.017 226.964 351.948Z" fill="white"/>
</mask>
<g mask="url(#mask1_155_5208)">
<path d="M226.964 351.948V352.344C226.964 352.413 227.008 352.488 227.102 352.533V352.149C227.008 352.091 226.964 352.017 226.964 351.948Z" fill="#EA921A"/>
</g>
<path d="M227.102 352.143V352.533L227.552 352.803V352.413L227.102 352.143Z" fill="#EA921A"/>
<path d="M228.207 352.413V352.803L229.639 351.942V351.552L228.207 352.413Z" fill="#FFC585"/>
<mask id="mask2_155_5208" style="mask-type:luminance" maskUnits="userSpaceOnUse" x="227" y="352" width="2" height="1">
<path d="M227.552 352.413V352.803C227.73 352.912 228.018 352.912 228.207 352.803V352.413C228.018 352.522 227.73 352.522 227.552 352.413Z" fill="white"/>
</mask>
<g mask="url(#mask2_155_5208)">
<path d="M227.552 352.413V352.803C227.73 352.912 228.018 352.912 228.207 352.803V352.413C228.018 352.522 227.73 352.522 227.552 352.413Z" fill="#F99B1C"/>
</g>
<path d="M227.102 351.753C226.919 351.862 226.919 352.034 227.102 352.149L227.558 352.413C227.735 352.522 228.024 352.522 228.213 352.413L229.645 351.552C229.828 351.443 229.828 351.27 229.651 351.161L229.201 350.892C229.018 350.782 228.723 350.782 228.546 350.892L227.102 351.753Z" fill="#FFB255"/>
<mask id="mask3_155_5208" style="mask-type:luminance" maskUnits="userSpaceOnUse" x="224" y="348" width="1" height="1">
<path d="M224.338 348.452V348.062C224.338 348.136 224.293 348.205 224.199 348.263V348.653C224.293 348.596 224.338 348.521 224.338 348.452Z" fill="white"/>
</mask>
<g mask="url(#mask3_155_5208)">
<path d="M224.199 348.263V348.653C224.293 348.601 224.338 348.521 224.338 348.452V348.062C224.338 348.136 224.293 348.205 224.199 348.263Z" fill="#F99B1C"/>
</g>
<mask id="mask4_155_5208" style="mask-type:luminance" maskUnits="userSpaceOnUse" x="221" y="348" width="1" height="2">
<path d="M221.523 348.653V349.043C221.523 349.112 221.567 349.187 221.656 349.239V348.848C221.567 348.796 221.523 348.722 221.523 348.653Z" fill="white"/>
</mask>
<g mask="url(#mask4_155_5208)">
<path d="M221.523 348.653V349.043C221.523 349.112 221.567 349.187 221.656 349.239V348.848C221.567 348.796 221.523 348.722 221.523 348.653Z" fill="#EA921A"/>
</g>
<path d="M221.656 348.848V349.239L222.106 349.508V349.118L221.656 348.848Z" fill="#EA921A"/>
<path d="M222.761 349.118V349.508L224.199 348.653V348.263L222.761 349.118Z" fill="#FFC585"/>
<mask id="mask5_155_5208" style="mask-type:luminance" maskUnits="userSpaceOnUse" x="222" y="349" width="1" height="1">
<path d="M222.106 349.118V349.508C222.283 349.617 222.578 349.617 222.761 349.508V349.118C222.578 349.227 222.283 349.227 222.106 349.118Z" fill="white"/>
</mask>
<g mask="url(#mask5_155_5208)">
<path d="M222.106 349.118V349.508C222.283 349.617 222.578 349.617 222.761 349.508V349.118C222.578 349.227 222.283 349.227 222.106 349.118Z" fill="#F99B1C"/>
</g>
<path d="M221.656 348.458C221.473 348.573 221.473 348.739 221.656 348.848L222.106 349.118C222.283 349.227 222.578 349.227 222.761 349.118L224.199 348.263C224.382 348.148 224.382 347.976 224.204 347.872L223.755 347.602C223.571 347.493 223.283 347.493 223.099 347.602L221.656 348.458Z" fill="#FFB255"/>
<path d="M224.282 347.43L223.627 347.82C223.316 348.01 223.088 348.349 222.983 348.808L223.638 348.418C223.749 347.953 223.971 347.608 224.282 347.43Z" fill="#8C532C"/>
<mask id="mask6_155_5208" style="mask-type:luminance" maskUnits="userSpaceOnUse" x="222" y="347" width="3" height="2">
<path d="M224.282 347.43L223.627 347.82C223.316 348.01 223.088 348.349 222.983 348.808L223.638 348.418C223.749 347.953 223.971 347.608 224.282 347.43Z" fill="white"/>
</mask>
<g mask="url(#mask6_155_5208)">
<path d="M222.989 348.813L223.644 348.423C223.749 347.958 223.971 347.614 224.288 347.436L223.633 347.826C223.322 348.01 223.088 348.348 222.989 348.813Z" fill="#8C532C"/>
</g>
<path d="M223.755 346.483C225.57 345.392 228.679 348.446 229.112 351.69L228.457 352.08C228.024 348.836 224.926 345.788 223.1 346.879L223.755 346.483Z" fill="#8C532C"/>
<path d="M225.348 347.103C223.788 346.173 222.489 346.747 222.228 348.354L222.994 348.808C223.244 347.683 224.21 347.304 225.348 347.987C226.492 348.67 227.452 350.191 227.696 351.615L228.457 352.074C228.201 350.157 226.908 348.039 225.348 347.103Z" fill="#A5683D"/>
<path d="M222.567 344.365L224.765 344.347L225.592 345.765L225.581 347.482C225.581 347.482 225.559 347.947 225.97 348.481C226.131 348.693 226.414 349.043 226.414 349.043C226.414 349.043 226.725 350.742 225.42 350.564C224.998 350.501 224.671 350.208 224.671 350.208C224.116 350.197 223.227 349.795 222.639 349.634C221.245 349.256 221.279 347.304 221.279 347.304L221.223 346.437C221.201 345.478 221.556 344.37 222.567 344.365Z" fill="#FFE8D9"/>
<path d="M223.233 346.012C222.383 346.115 221.795 345.84 221.795 345.84C221.795 345.84 221.007 345.53 220.901 344.807C220.601 342.642 219.985 333.102 220.046 330.381C220.113 327.395 221.417 319.588 221.417 319.588C221.417 319.588 221.917 313.922 225.087 314.054C227.73 314.169 228.085 316.706 227.985 319.1C227.913 320.989 226.103 331.253 226.103 331.253L225.981 344.583C225.981 344.588 225.215 345.765 223.233 346.012Z" fill="#383736"/>
<path d="M265.72 390.737C265.72 390.737 265.231 391.552 264.015 391.811C263.266 391.977 260.795 392.293 260.795 392.293C259.568 392.448 258.081 392.855 257.847 394.095C257.847 394.095 257.764 394.721 257.809 394.928C257.958 395.622 258.614 395.904 259.413 396.196C259.413 396.196 260.868 396.725 262.106 396.966C263.704 397.276 264.598 397.224 265.753 397.046C265.753 397.046 267.208 396.782 267.802 396.782C268.451 396.776 268.346 397.27 268.418 397.901L270.494 398.464C272.57 398.74 273.758 397 273.703 396.512L273.581 391.489L265.72 390.737Z" fill="#545454"/>
<path d="M267.063 396.673C266.502 396.736 264.893 397.035 263.238 396.839C261.678 396.65 259.163 395.709 259.163 395.709C258.458 395.444 257.859 395.002 257.809 394.583C257.797 394.75 257.786 394.905 257.809 394.997C257.953 395.697 258.614 395.967 259.407 396.26C259.407 396.26 260.856 396.794 262.1 397.029C263.704 397.339 264.593 397.287 265.747 397.098C265.747 397.098 267.419 396.851 267.48 396.845C267.868 396.782 268.251 396.891 268.257 396.96C268.246 396.931 268.096 396.57 267.063 396.673Z" fill="#383736"/>
<path d="M270.377 397.62L268.318 397.069C268.34 397.276 268.39 397.769 268.412 397.97L270.488 398.533C272.565 398.808 273.753 397.069 273.697 396.581L273.664 395.548C273.72 396.024 272.454 397.896 270.377 397.62Z" fill="#383736"/>
<path d="M270.111 386.041C270.111 386.041 269.944 387.287 268.778 387.39C268.057 387.459 267.019 387.488 267.019 387.488C265.792 387.253 264.243 387.27 263.965 388.223C263.965 388.223 263.832 388.596 263.854 388.797C263.915 389.497 263.676 388.912 264.604 389.761C264.604 389.761 266.358 391.127 267.446 391.656C268.812 392.321 269.511 392.344 269.955 392.299C269.955 392.299 270.838 392.121 271.388 392.189C272.004 392.27 271.843 393.068 271.843 393.693L273.725 394.497C275.646 395.02 277.139 393.303 277.139 392.821V387.821L270.111 386.041Z" fill="#545454"/>
<path d="M270.705 392.006C270.178 391.994 269.562 391.897 267.985 391.449C266.669 391.07 264.726 389.669 264.726 389.669C264.265 389.319 263.888 388.877 263.888 388.464C263.86 388.625 263.854 388.78 263.849 388.871C263.804 389.509 264.343 389.853 264.787 390.18C264.787 390.18 266.297 391.351 267.435 391.736C268.901 392.235 269.129 392.19 269.789 392.212C269.789 392.212 270.627 392.253 271.188 392.281C271.432 392.287 271.782 392.442 271.782 392.511C271.766 392.471 271.682 392.023 270.705 392.006Z" fill="#383736"/>
<path d="M273.714 393.935L271.854 393.137C271.849 393.343 271.832 393.562 271.832 393.757L273.714 394.566C275.635 395.089 277.129 393.378 277.129 392.896V392.27C277.129 392.746 275.635 394.457 273.714 393.935Z" fill="#383736"/>
<path d="M276.446 360.237C276.407 361.11 275.241 361.627 274.475 361.586C274.208 361.569 273.964 363.194 273.548 363.785C273.103 364.405 272.482 363.992 272.382 363.797C272.31 363.642 273.126 361.294 273.314 360.697C273.931 358.699 274.719 358.665 275.491 358.705C276.257 358.745 276.484 359.371 276.446 360.237Z" fill="#FFE8D9"/>
<path d="M276.312 358.458C277.178 358.464 278.849 356.764 278.849 356.764C278.849 356.764 278.883 356.546 278.949 356.156C279.305 353.986 280.892 346.569 280.976 343.837C281.064 340.829 280.176 332.706 280.176 332.706C280.176 332.706 279.715 325.455 274.996 326.345C272.376 326.839 273.709 330.409 273.686 332.815C273.664 334.709 274.608 344.336 274.608 344.336L274.025 356.162C274.019 356.162 274.63 358.441 276.312 358.458Z" fill="#282827"/>
<path d="M277.478 358.831L275.269 358.693L274.308 361.357L274.286 361.799L274.452 365.358C274.452 365.358 274.402 367.08 276.162 367.189C277.312 367.258 276.29 367.201 276.29 367.201C277.867 367.298 278.089 365.553 278.089 365.553L278.716 361.007C278.788 360.031 278.488 358.894 277.478 358.831Z" fill="#FFE8D9"/>
<path d="M273.564 358.774C273.553 359.17 274.397 359.962 275.535 360.082C277.006 360.237 277.7 359.956 277.7 359.956C278.383 359.721 278.755 359.445 278.821 358.952C278.821 358.952 279.044 357.115 279.088 356.535C279.116 356.162 278.944 356.162 278.944 356.162C278.944 356.162 278.916 356.454 278.849 356.563C278.627 356.954 277.994 357.476 276.545 357.511C274.269 357.562 274.019 356.173 274.019 356.173C273.686 356.173 273.575 356.322 273.586 356.718L273.564 358.774Z" fill="#E4EFF4"/>
<path d="M266.347 311.873L262.267 312.384L263.971 323.234C264.404 326.351 265.72 326.718 266.636 326.649C268.546 326.506 270.444 325.903 271.46 325.162C273.425 323.722 273.22 319.37 273.214 319.077L273.298 311.724L266.347 311.873Z" fill="#FFE1CC"/>
<path d="M274.414 332.367L274.397 326.5L273.62 319.91L267.663 321.322L268.351 327.677C268.351 328.578 267.735 328.831 267.269 329.594L264.748 333.762C264.143 334.761 262.877 336.362 262.877 339.169V354.629L275.074 356.385V335.863C275.069 334.663 274.847 333.475 274.414 332.367Z" fill="#FFE1CC"/>
<path d="M263.094 310.845C261.417 311.706 261.972 314.359 261.972 314.359C261.972 314.29 263.666 316.207 263.666 316.299C263.666 316.345 264.765 320.007 264.765 320.007C264.781 320.426 265.37 321 265.614 320.369C265.892 319.657 265.37 319.175 265.636 318.802C265.908 318.429 266.736 318.234 267.702 320.507L268.251 322.286C269.145 324.278 270.794 324.278 271.96 323.922C271.96 323.922 273.52 323.389 274.069 322.746C274.336 322.436 275.085 318.917 275.396 317.86C276.568 313.957 274.913 306.632 267.141 309.049C265.059 309.703 263.094 310.845 263.094 310.845Z" fill="#3A2009"/>
<path d="M267.396 356.391L267.657 390.76C267.657 390.76 269.828 392.85 273.431 392.85C275.446 392.85 277.417 391.506 277.473 390.921L278.672 355.788L267.396 356.391Z" fill="#282827"/>
<path d="M264.67 359.899L265.259 390.358C265.242 390.347 265.192 391.11 264.881 391.288C264.576 391.466 264.587 392.109 264.743 392.54C264.948 393.102 266.874 396.265 270.933 396.053C272.165 395.984 273.62 395.502 273.681 394.951L275.707 359.916L264.67 359.899Z" fill="#383736"/>
<path d="M273.498 324.64C274.214 324.468 274.391 324.588 274.53 325.042C274.663 325.49 274.663 325.507 274.824 325.943C274.963 326.299 274.802 326.322 274.802 326.322C274.802 326.322 271.227 327.344 268.568 329.215C266.675 330.541 266.53 330.668 266.53 330.668L266.974 329.169C267.319 327.889 268.751 326.626 270.883 325.65C270.888 325.656 272.626 324.852 273.498 324.64Z" fill="#E4EFF4"/>
<path d="M265.675 318.435C265.675 318.435 266.547 318.538 266.869 319.56C267.096 320.272 266.869 320.886 266.741 321.07C266.397 321.557 266.014 321.672 266.014 321.672C266.014 321.672 265.964 319.933 265.942 319.617C265.908 319.296 265.675 318.435 265.675 318.435Z" fill="#EFCFBD"/>
<path d="M265.253 318.308C265.253 318.308 264.759 318.297 265.131 319.014C265.509 319.732 265.609 320.168 265.636 320.576C265.664 320.955 265.614 322.08 265.614 322.08C265.614 322.08 265.942 322.533 266.219 321.833C266.347 321.506 266.419 320.874 266.375 320.076C266.353 319.755 265.781 318.124 265.253 318.308Z" fill="#FFE8D9"/>
<path d="M245.706 394.055C245.706 394.205 245.767 394.371 245.861 394.509L245.706 394.055Z" fill="#6D320A"/>
<path d="M245.712 392.299C242.592 388.005 242.109 383.469 242.086 383.234L242.081 384.055L242.175 384.56C242.425 386.013 243.258 389.646 245.712 392.999V392.299Z" fill="#6D320A"/>
<path d="M253.611 398.774C253.611 398.923 253.673 399.09 253.767 399.222L253.611 398.774Z" fill="#6D320A"/>
<path d="M258.597 406.087L262.7 403.619C262.866 403.516 262.972 403.303 262.977 402.993L258.875 405.462C258.869 405.766 258.764 405.984 258.597 406.087Z" fill="#723919"/>
<path d="M258.902 393.274L258.897 394.09L258.813 394.486C258.297 396.702 256.998 398.085 255.238 398.441C255.238 398.441 251.585 397.901 250.458 397.23C249.265 396.518 247.416 394.778 247.205 394.652L245.706 392.993C243.252 389.641 242.425 386.007 242.17 384.554L242.075 384.049L242.047 395.421C242.047 396.036 242.464 396.793 242.986 397.098L257.92 406.013C258.441 406.323 258.863 406.076 258.863 405.456L258.902 393.274Z" fill="#8C532C"/>
<path d="M258.902 393.406L263.01 390.938V390.8L258.902 393.274V393.406Z" fill="#5C361D"/>
<path d="M258.902 393.407C258.458 395.858 257.103 397.396 255.238 397.769C255.238 397.798 255.238 397.815 255.238 397.838V398.435C256.998 398.074 258.297 396.69 258.813 394.48L258.897 394.084L258.902 393.407Z" fill="#6D320A"/>
<path d="M242.086 383.234C242.108 383.469 242.591 388.005 245.711 392.299V392.155C245.711 391.908 245.878 391.811 246.089 391.937L246.966 392.454C247.177 392.58 247.344 392.884 247.344 393.131L247.338 394.222C248.221 395.111 249.237 395.944 250.436 396.65C251.557 397.322 252.634 397.706 253.623 397.827L253.628 396.874C253.628 396.627 253.8 396.529 254.006 396.65L254.883 397.172C255.072 397.287 255.227 397.54 255.255 397.769C257.12 397.39 258.475 395.858 258.919 393.406V393.274L253.656 390.134L252.89 389.675L248.16 386.851L247.388 386.397L242.086 383.234Z" fill="#A5683D"/>
<path d="M246.189 380.766L242.086 383.234L258.902 393.274L258.897 394.09L258.869 405.462C258.869 405.772 258.763 405.984 258.591 406.087L262.694 403.619C262.86 403.516 262.966 403.303 262.972 402.993L263.005 390.8L246.189 380.766Z" fill="#6D3B18"/>
<path d="M253.595 397.775C252.607 397.654 251.535 397.27 250.403 396.598C249.215 395.886 248.193 395.06 247.316 394.17L246.927 394.273L247.016 394.578C247.893 395.462 249.215 396.564 250.408 397.27C251.535 397.947 252.607 398.332 253.6 398.452L253.595 397.775Z" fill="#6D320A"/>
<path d="M254.905 398.843V399.761C254.905 399.87 254.866 399.945 254.805 399.979L254.966 399.882C255.027 399.847 255.061 399.773 255.061 399.664V398.745L254.905 398.843Z" fill="#75460D"/>
<path d="M254.905 398.843L255.066 398.739L253.734 397.947L253.567 398.045L254.905 398.843Z" fill="#EB921A"/>
<path d="M253.567 398.045V398.963C253.567 399.176 253.711 399.44 253.895 399.555L254.572 399.957C254.755 400.066 254.905 399.974 254.905 399.761V398.843L253.567 398.045Z" fill="#D87A13"/>
<path d="M254.983 397.115L254.106 396.598C254 396.529 253.906 396.529 253.839 396.57L253.512 396.771C253.578 396.725 253.673 396.73 253.778 396.793L254.655 397.316C254.844 397.431 255.027 397.723 255.027 397.988V399.101L255.349 398.9L255.355 397.787C255.355 397.528 255.177 397.23 254.983 397.115Z" fill="#89550F"/>
<path d="M253.778 396.788C253.567 396.667 253.401 396.765 253.401 397.006L253.395 398.119L255.022 399.09V397.976C255.022 397.729 254.855 397.431 254.65 397.304L253.778 396.788Z" fill="#F99B1C"/>
<path d="M246.905 394.176V395.088C246.905 395.198 246.866 395.278 246.805 395.307L246.966 395.209C247.027 395.175 247.066 395.094 247.066 394.991V394.072L246.905 394.176Z" fill="#75460D"/>
<path d="M246.905 394.176L247.072 394.078L245.728 393.28L245.567 393.378L246.905 394.176Z" fill="#EB921A"/>
<path d="M245.567 393.378V394.296C245.567 394.514 245.711 394.778 245.895 394.887L246.572 395.289C246.75 395.398 246.9 395.312 246.905 395.094V394.181L245.567 393.378Z" fill="#D87A13"/>
<path d="M246.977 392.442L246.1 391.92C245.995 391.857 245.906 391.851 245.834 391.897L245.506 392.092C245.578 392.057 245.667 392.063 245.773 392.126L246.65 392.643C246.689 392.666 246.728 392.7 246.766 392.729C246.772 392.741 246.772 392.741 246.789 392.752C246.922 392.896 247.033 393.119 247.027 393.315L247.022 394.428L247.349 394.227L247.355 393.114C247.355 392.861 247.177 392.563 246.977 392.442Z" fill="#89550F"/>
<path d="M245.778 392.126C245.573 392 245.406 392.098 245.401 392.345V393.458L247.022 394.428L247.027 393.315C247.033 393.068 246.861 392.764 246.655 392.643L245.778 392.126Z" fill="#F99B1C"/>
<mask id="mask7_155_5208" style="mask-type:luminance" maskUnits="userSpaceOnUse" x="256" y="387" width="1" height="2">
<path d="M256.665 388.315V387.924C256.665 387.993 256.621 388.068 256.526 388.119V388.515C256.615 388.464 256.665 388.389 256.665 388.315Z" fill="white"/>
</mask>
<g mask="url(#mask7_155_5208)">
<path d="M256.526 388.119V388.515C256.615 388.458 256.665 388.389 256.665 388.315V387.924C256.665 387.993 256.615 388.068 256.526 388.119Z" fill="#F99B1C"/>
</g>
<mask id="mask8_155_5208" style="mask-type:luminance" maskUnits="userSpaceOnUse" x="253" y="388" width="1" height="2">
<path d="M253.834 388.516V388.912C253.834 388.98 253.878 389.049 253.967 389.107V388.716C253.878 388.659 253.834 388.59 253.834 388.516Z" fill="white"/>
</mask>
<g mask="url(#mask8_155_5208)">
<path d="M253.834 388.516V388.912C253.834 388.98 253.878 389.049 253.967 389.107V388.716C253.878 388.659 253.834 388.59 253.834 388.516Z" fill="#EA921A"/>
</g>
<path d="M253.967 388.716L253.972 389.107L254.422 389.377V388.986L253.967 388.716Z" fill="#EA921A"/>
<path d="M255.077 388.986V389.377L256.526 388.515V388.119L255.077 388.986Z" fill="#FFC585"/>
<mask id="mask9_155_5208" style="mask-type:luminance" maskUnits="userSpaceOnUse" x="254" y="388" width="2" height="2">
<path d="M254.422 388.986V389.377C254.6 389.486 254.899 389.486 255.077 389.377V388.986C254.899 389.095 254.6 389.095 254.422 388.986Z" fill="white"/>
</mask>
<g mask="url(#mask9_155_5208)">
<path d="M254.422 388.986V389.377C254.6 389.486 254.899 389.486 255.077 389.377V388.986C254.899 389.095 254.6 389.095 254.422 388.986Z" fill="#F99B1C"/>
</g>
<path d="M253.973 388.32C253.795 388.429 253.789 388.602 253.973 388.716L254.428 388.986C254.611 389.095 254.905 389.095 255.083 388.986L256.526 388.125C256.71 388.016 256.71 387.838 256.526 387.735L256.077 387.459C255.893 387.35 255.599 387.35 255.416 387.459L253.973 388.32Z" fill="#FFB255"/>
<mask id="mask10_155_5208" style="mask-type:luminance" maskUnits="userSpaceOnUse" x="251" y="384" width="1" height="2">
<path d="M251.191 385.002V384.606C251.191 384.681 251.141 384.756 251.052 384.813V385.209C251.141 385.152 251.191 385.077 251.191 385.002Z" fill="white"/>
</mask>
<g mask="url(#mask10_155_5208)">
<path d="M251.047 384.813V385.209C251.141 385.152 251.185 385.077 251.185 385.008V384.612C251.191 384.681 251.141 384.756 251.047 384.813Z" fill="#F99B1C"/>
</g>
<mask id="mask11_155_5208" style="mask-type:luminance" maskUnits="userSpaceOnUse" x="248" y="385" width="1" height="1">
<path d="M248.354 385.209V385.605C248.354 385.674 248.398 385.749 248.493 385.795V385.404C248.404 385.347 248.354 385.278 248.354 385.209Z" fill="white"/>
</mask>
<g mask="url(#mask11_155_5208)">
<path d="M248.354 385.209V385.605C248.354 385.674 248.398 385.749 248.493 385.795V385.404C248.404 385.347 248.354 385.278 248.354 385.209Z" fill="#EA921A"/>
</g>
<path d="M248.493 385.398V385.789L248.948 386.064V385.674L248.493 385.398Z" fill="#EA921A"/>
<path d="M249.603 385.674V386.064L251.052 385.209L251.047 384.813L249.603 385.674Z" fill="#FFC585"/>
<mask id="mask12_155_5208" style="mask-type:luminance" maskUnits="userSpaceOnUse" x="248" y="385" width="2" height="2">
<path d="M248.948 385.674V386.064C249.126 386.173 249.42 386.173 249.603 386.064L249.598 385.674C249.42 385.783 249.126 385.783 248.948 385.674Z" fill="white"/>
</mask>
<g mask="url(#mask12_155_5208)">
<path d="M248.948 385.674V386.064C249.126 386.173 249.42 386.173 249.603 386.064L249.598 385.674C249.42 385.783 249.126 385.783 248.948 385.674Z" fill="#F99B1C"/>
</g>
<path d="M248.493 385.008C248.31 385.117 248.31 385.295 248.493 385.398L248.948 385.674C249.126 385.783 249.426 385.783 249.603 385.674L251.052 384.813C251.235 384.698 251.235 384.526 251.058 384.417L250.608 384.141C250.425 384.032 250.131 384.032 249.947 384.141L248.493 385.008Z" fill="#FFB255"/>
<path d="M251.136 383.975L250.48 384.371C250.17 384.56 249.936 384.899 249.831 385.364L250.492 384.974C250.592 384.503 250.819 384.164 251.136 383.975Z" fill="#8C532C"/>
<mask id="mask13_155_5208" style="mask-type:luminance" maskUnits="userSpaceOnUse" x="249" y="383" width="3" height="3">
<path d="M251.136 383.975L250.48 384.371C250.17 384.56 249.936 384.899 249.831 385.364L250.492 384.974C250.592 384.503 250.819 384.164 251.136 383.975Z" fill="white"/>
</mask>
<g mask="url(#mask13_155_5208)">
<path d="M249.831 385.364L250.492 384.974C250.597 384.503 250.819 384.164 251.136 383.975L250.48 384.371C250.164 384.56 249.936 384.899 249.831 385.364Z" fill="#8C532C"/>
</g>
<path d="M250.603 383.022C252.429 381.925 255.555 384.991 255.988 388.257L255.333 388.653C254.894 385.398 251.78 382.327 249.948 383.424L250.603 383.022Z" fill="#8C532C"/>
<path d="M252.207 383.648C250.636 382.712 249.331 383.292 249.065 384.91L249.831 385.364C250.086 384.239 251.052 383.86 252.201 384.537C253.351 385.226 254.311 386.765 254.561 388.188L255.333 388.648C255.077 386.719 253.773 384.583 252.207 383.648Z" fill="#A5683D"/>
<path d="M264.77 362.93C264.77 362.93 268.945 364.836 271.827 363.785C274.719 362.735 277.695 360.146 277.695 360.146L277.328 358.354C277.328 358.354 266.952 360.697 265.57 360.22C264.199 359.732 264.77 362.93 264.77 362.93Z" fill="#282827"/>
<path d="M264.354 332.562C262.705 333.894 262.206 335.111 262.206 339.514L262.611 359.572C262.611 360.341 262.566 362.379 266.364 362.987C267.557 363.177 269.267 363.722 271.96 362.792C273.065 362.419 278.833 359.663 278.833 358.056L279.016 336.121C278.933 333.527 278.777 330.335 278.372 328.963C277.456 325.834 274.797 326.213 274.797 326.213C274.797 326.213 270.167 327.7 267.802 329.56C266.658 330.455 266.697 330.628 264.354 332.562Z" fill="#383736"/>
<path d="M245.984 332.103C245.984 332.103 246.755 331.713 247.605 331.81C248.449 331.908 249.487 333.469 249.487 333.469L249.664 333.871L250.525 336.684C250.525 336.684 251.263 338.819 249.853 339.531C248.821 340.048 249.742 339.589 249.742 339.589C248.326 340.289 247.51 338.796 247.51 338.796L245.29 334.847C244.873 333.974 244.723 332.642 245.984 332.103Z" fill="#FFE8D9"/>
<path d="M250.536 338.779L250.375 339.52L248.082 341.213L245.906 339.91C245.906 339.91 243.885 338.727 243.913 337.223C243.946 334.474 245.023 334.095 245.023 334.095C245.112 334.152 246.805 336.104 247.194 336.23C247.388 336.299 249.031 337.04 249.031 337.04C250.036 337.493 250.536 337.883 250.536 338.779Z" fill="#E8C7B1"/>
<path d="M244.945 334.095C244.796 334.95 246.1 335.949 246.855 336.081C247.116 336.127 247 337.757 247.283 338.423C247.583 339.123 248.049 338.572 248.182 338.406C248.288 338.28 248.543 336.247 248.493 335.627C248.326 333.549 247.238 333.193 246.483 333.056C245.734 332.912 245.101 333.239 244.945 334.095Z" fill="#FFE8D9"/>
<path d="M249.081 338.98C248.31 338.636 248.26 337.338 248.571 336.615C248.671 336.362 247.294 335.564 246.916 334.95C246.516 334.301 247.105 333.859 247.316 333.836C247.477 333.814 249.303 335.427 249.775 335.817C251.358 337.109 251.108 337.878 250.802 338.607C250.497 339.324 249.847 339.324 249.081 338.98Z" fill="#E8C7B1"/>
<path d="M262.367 334.893C263.532 332.717 267.124 331.798 267.796 335.622C268.057 337.114 267.763 338.624 266.686 340.398C264.154 344.565 260.257 349.347 258.342 349.99C255.727 350.869 247.277 342.688 247.516 341.242C247.771 339.732 250.253 337.47 251.719 339.164C253.068 340.737 256.393 343.923 257.043 343.986C257.409 344.026 260.868 337.7 262.367 334.893Z" fill="#565452"/>
<path d="M238.072 380.1C237.606 380.84 236.446 381.219 235.685 381.426C233.032 382.155 231.088 380.525 231.088 380.525C230.361 380.06 228.318 378.716 228.113 378.596C228.113 378.596 226.936 377.683 226.869 378.395C226.858 378.515 226.841 378.544 226.841 378.676C226.847 378.613 226.886 378.561 226.897 378.527C227.041 378.056 228.229 378.957 228.229 378.957C228.396 379.141 230.716 380.766 231.094 381.013C231.094 381.013 233.254 382.729 235.774 381.954C236.524 381.724 237.473 381.414 237.934 380.68C238.067 380.484 238.089 380.065 238.072 380.1Z" fill="#545454"/>
<path d="M226.869 378.395C226.869 378.395 225.853 377.815 225.509 377.637C224.704 377.218 224.61 376.908 224.61 376.908C224.61 376.908 224.671 377.832 224.704 377.815C224.704 377.815 224.726 378.073 225.187 378.355C225.609 378.613 226.864 379.262 226.864 379.262V378.395H226.869Z" fill="#545454"/>
<path d="M171.164 232.538C171.98 232.59 172.446 233.761 172.402 234.53C172.385 234.794 173.906 235.052 174.45 235.483C175.028 235.936 174.628 236.551 174.445 236.643C174.3 236.711 173.529 236.327 172.08 235.856C170.203 235.248 169.465 234.582 169.515 233.812C169.565 233.049 170.348 232.481 171.164 232.538Z" fill="#F2C8A5"/>
<path d="M168.849 233.003C168.96 230.603 171.042 230.557 171.042 230.557C171.042 230.557 174.245 231.2 175.216 231.683C175.866 232.004 176.749 232.572 177.132 232.997C177.626 233.548 177.47 234.025 177.282 234.283C176.399 235.5 174.956 235.167 174.956 235.167L172.607 234.76C169.287 234.467 168.799 234.019 168.849 233.003Z" fill="#F2C8A5"/>
<path d="M171.286 232.429C170.992 233.956 169.426 234.978 169.393 234.978C167.638 234.869 160.543 232.113 159.067 231.189C156.824 229.783 156.102 228.037 156.102 228.037C156.102 228.037 152.832 218.812 152.455 213.227C152.244 210.115 155.819 209.673 157.385 212.532C158.989 215.46 160.682 225.626 160.954 225.816C161.854 226.447 161.937 227.268 161.937 227.268L170.936 230.282C170.931 230.288 171.647 230.557 171.286 232.429Z" fill="#434647"/>
<path d="M171.897 261.643L170.559 262.705L170.32 261.35L171.897 261.643Z" fill="#020200"/>
<path d="M172.985 257.67L177.087 260.133C177.087 260.133 178.819 261.092 179.43 261.321C179.708 261.425 179.941 261.729 180.019 262.05C180.069 262.257 180.052 262.469 179.941 262.647C179.658 263.101 178.997 263.537 178.431 263.79C176.749 264.536 174.772 263.75 174.772 263.75C174.445 263.612 171.575 262.228 171.402 262.131C170.931 261.867 170.531 261.804 170.425 262.062C170.425 262.062 170.542 262.624 170.559 262.705L168.688 261.844C168.688 261.844 168.466 261.23 168.399 260.851L167.949 258.342L172.985 257.67Z" fill="#231F20"/>
<path d="M180.041 262.131C179.785 262.774 178.93 263.244 178.375 263.514C176.416 264.473 174.678 263.497 174.678 263.497C174.045 263.244 171.619 262.056 171.441 261.999C171.441 261.999 170.398 261.465 170.448 262.027C170.459 262.125 170.448 262.142 170.464 262.251C170.459 262.194 170.486 262.148 170.486 262.125C170.536 261.74 171.586 262.263 171.586 262.263C171.741 262.372 174.428 263.738 174.756 263.876C174.756 263.876 176.676 264.892 178.525 263.91C179.075 263.623 179.769 263.239 180.024 262.602C180.091 262.429 180.052 262.102 180.041 262.131Z" fill="#282827"/>
<path d="M170.442 262.028C170.442 262.028 169.576 261.729 169.282 261.637C168.599 261.43 168.477 261.207 168.477 261.207C168.477 261.207 168.654 261.913 168.682 261.895C168.682 261.895 168.738 262.091 169.137 262.246C169.498 262.383 170.564 262.705 170.564 262.705L170.442 262.028Z" fill="#282827"/>
<path d="M161.854 265.632L160.516 266.695L160.277 265.34L161.854 265.632Z" fill="#020200"/>
<path d="M162.942 261.66L167.05 264.123C167.05 264.123 168.782 265.081 169.393 265.311C169.67 265.414 169.904 265.713 169.981 266.034C170.031 266.241 170.015 266.453 169.904 266.631C169.626 267.085 168.96 267.521 168.394 267.774C166.711 268.52 164.735 267.734 164.735 267.734C164.407 267.596 161.537 266.212 161.365 266.115C160.893 265.851 160.494 265.788 160.388 266.046C160.388 266.046 160.505 266.608 160.521 266.689L158.65 265.828C158.65 265.828 158.428 265.208 158.362 264.835L157.912 262.326L162.942 261.66Z" fill="#231F20"/>
<path d="M169.998 266.12C169.743 266.763 168.888 267.234 168.333 267.504C166.373 268.468 164.635 267.487 164.635 267.487C164.002 267.234 161.576 266.046 161.399 265.983C161.399 265.983 160.355 265.449 160.405 266.011C160.416 266.103 160.399 266.126 160.421 266.235C160.416 266.178 160.444 266.132 160.444 266.109C160.494 265.724 161.543 266.247 161.543 266.247C161.698 266.356 164.385 267.728 164.713 267.86C164.713 267.86 166.634 268.876 168.482 267.894C169.032 267.602 169.726 267.223 169.981 266.585C170.048 266.419 170.009 266.092 169.998 266.12Z" fill="#282827"/>
<path d="M160.399 266.017C160.399 266.017 159.533 265.719 159.239 265.627C158.556 265.42 158.434 265.196 158.434 265.196C158.434 265.196 158.611 265.902 158.639 265.891C158.639 265.891 158.695 266.086 159.094 266.235C159.455 266.373 160.521 266.695 160.521 266.695L160.399 266.017Z" fill="#282827"/>
<path d="M153.498 230.144L169.148 237.854C169.148 237.854 171.241 238.531 171.763 242.05C172.113 244.404 173.99 254.903 174.378 258.29C174.556 259.84 171.153 261.62 168.071 259.192C167.794 258.973 166.561 250.454 166.173 248.227C165.823 246.235 165.745 245.799 165.745 245.799C165.468 243.962 164.618 243.445 163.369 242.957L151.899 238.566C151.899 238.566 151.489 237.532 151.489 234.065C151.494 232.923 153.498 230.144 153.498 230.144Z" fill="#3A3E3F"/>
<path d="M149.113 233.887C149.113 233.887 155.441 239.76 160.249 244.318C161.237 245.253 162.031 247.257 162.276 249.364C162.603 252.165 163.63 260.868 164.108 261.861C164.591 262.866 160.466 265.265 157.873 262.808C157.618 262.561 156.296 253.262 156.274 252.98C156.274 252.98 156.08 251.419 156.013 250.885C155.775 249.054 153.215 247.624 152.477 247.245C150.067 246 146.814 243.577 144.927 242.303C142.834 240.891 142.6 238.525 142.628 237.458C142.684 234.909 149.113 233.887 149.113 233.887Z" fill="#4F5354"/>
<path d="M141.862 234.593C141.862 234.593 140.48 219.122 142.068 215.443C142.329 214.834 150.001 210.058 150.001 210.058C150.001 210.058 150.451 209.581 150.434 209.587L153.382 209.22C153.382 209.22 156.43 210.379 157.49 211.717C158.456 212.934 158.828 214.151 158.562 218.634L157.623 230.546C158.112 231.459 160.272 233.083 161.06 233.589C161.06 233.589 162.081 240.483 150.567 241.637C145.288 242.165 142.739 239.243 142.739 239.243C142.279 238.503 141.846 234.387 141.862 234.593Z" fill="#4F5354"/>
<path d="M152.244 202.073C153.254 202.136 153.304 203.146 153.304 203.146L153.182 205.242C153.182 205.242 153.104 205.695 152.721 205.752C152.138 205.839 151.922 205.299 151.7 204.713C151.689 204.679 151.411 203.818 151.394 203.766C151.156 203.037 151.289 202.015 152.244 202.073Z" fill="#FFE8D9"/>
<path d="M151.405 242.458C152.077 242.94 153.149 242.309 153.565 241.677C153.715 241.459 155.064 242.222 155.747 242.228C156.469 242.24 156.524 241.499 156.435 241.31C156.363 241.16 155.525 240.977 154.104 240.426C152.26 239.714 151.283 239.765 150.867 240.403C150.451 241.034 150.734 241.981 151.405 242.458Z" fill="#F2C8A5"/>
<path d="M149.407 241.396C150.417 239.237 152.349 240.041 152.349 240.041C152.349 240.041 155.053 241.935 155.764 242.774C156.235 243.33 156.835 244.214 157.024 244.76C157.268 245.472 156.946 245.839 156.674 246C155.397 246.757 154.198 245.873 154.198 245.873L152.194 244.542C149.251 242.923 148.974 242.309 149.407 241.396Z" fill="#F2C8A5"/>
<path d="M151.55 241.941C150.7 243.227 149.379 243.526 149.346 243.508C147.775 242.699 141.651 237.245 140.641 235.793C139.114 233.589 139.114 231.694 139.114 231.694C139.114 231.694 139.614 221.884 141.385 216.591C142.373 213.646 145.832 214.691 146.181 217.957C146.542 221.304 144.238 231.338 144.416 231.625C145.004 232.573 144.766 233.359 144.766 233.359L151.9 239.788C151.894 239.788 152.588 240.368 151.55 241.941Z" fill="#686C6D"/>
<path d="M148.868 210.643C148.868 210.643 147.364 211.051 148.707 214.162C150.051 217.274 151.061 218.456 151.683 220.385C152.305 222.314 153.221 225.357 153.221 225.357C153.221 225.357 155.02 221.332 155.675 217.607C156.33 213.887 155.48 211.602 155.48 211.602C155.48 211.602 149.618 209.289 148.868 210.643Z" fill="#9CDBD9"/>
<path d="M154.226 213.043C152.777 217.102 149.285 211.855 149.64 210.023C149.712 209.645 150.329 204.823 150.329 204.823L154.675 206.493L154.226 213.043Z" fill="#E0B392"/>
<path d="M153.77 217.544C153.754 217.325 153.782 217.159 153.865 216.918L154.142 216.177L153.393 214.312L152.86 214.317L152.238 216.149L152.799 216.992C152.938 217.176 153.021 217.607 152.971 217.831L152.499 223.307L153.149 225.471L154.503 223.095L153.77 217.544Z" fill="#10423F"/>
<path d="M150.073 210.351C150.817 212.291 152.988 214.048 152.988 214.048C153.293 214.243 153.293 214.306 153.138 214.869L152.355 217.13C152.244 217.452 152.072 217.532 151.9 217.262C151.9 217.262 149.984 214.823 149.501 214.059C148.363 212.262 148.502 211.97 149.096 210.035C149.49 208.766 149.701 208.519 149.834 208.588C149.862 208.6 149.634 209.214 150.073 210.351Z" fill="#C1F4F1"/>
<path d="M153.404 214.048C153.132 214.323 153.171 214.547 153.282 214.805L154.154 216.608C154.387 217.096 154.437 216.866 154.531 216.418L155.214 212.819C155.403 210.747 154.703 210.873 154.703 210.873C154.703 210.873 154.376 210.62 154.331 211.051C154.259 211.757 154.365 213.077 153.404 214.048Z" fill="#C1F4F1"/>
<path d="M154.953 212.377L155.48 211.608C155.48 211.608 155.83 211.935 155.902 212.027C156.141 212.337 156.391 213.37 156.391 213.37L156.924 217.268C156.996 217.819 156.602 217.98 156.174 218.428L155.752 218.824L156.18 219.472C156.607 219.972 156.297 220.414 155.952 221.028L153.038 225.787C153.038 225.787 154.065 222.36 154.526 220.351C155.614 215.626 154.953 212.377 154.953 212.377Z" fill="#7A797A"/>
<path d="M155.608 200.345L151.827 199.92L150.995 206.969C150.995 207.457 150.928 207.894 150.956 208.313C150.989 208.772 150.934 209.409 151.417 209.886C151.417 209.886 151.977 210.316 152.71 210.965C153.165 211.372 153.748 211.797 154.431 212.102C154.881 212.302 156.008 211.924 156.008 211.924C156.741 211.711 156.63 211.705 157.379 209.65C157.379 209.65 158.612 205.896 158.995 204.754C160.088 201.522 158.939 200.638 158.939 200.638L155.608 200.345Z" fill="#EDC3A4"/>
<path d="M159.772 202.314C159.738 202.417 159.289 204.122 159.139 204.311C159.139 204.311 160.027 201.516 158.556 201.82C158.528 201.826 157.457 202.406 156.796 202.756C156.424 202.951 155.686 203.169 155.636 203.077C155.575 202.962 155.98 202.199 155.197 202.101C154.214 201.975 153.421 203.117 153.154 204.541C152.949 205.638 152.788 206.539 152.782 206.55C152.71 206.677 151.561 205.069 151.483 205.006C151.35 204.897 150.928 205.528 150.928 205.528C150.956 205.528 150.084 207.515 150.012 207.262C149.712 206.223 149.268 204.363 149.201 204.065C148.147 199.22 152.366 194.093 159.261 200.006C159.811 200.477 160.26 200.689 159.772 202.314Z" fill="#49260A"/>
<path d="M157.246 210.052C157.246 210.052 157.24 209.604 157.212 209.329C157.19 209.088 157.09 208.852 156.574 208.738C156.357 208.686 155.758 208.646 155.525 208.646C155.13 208.646 154.736 208.738 154.392 209.094C153.826 209.679 152.827 211.068 152.827 211.068L153.787 211.803C153.787 211.803 154.847 209.863 155.192 209.587C155.369 209.444 156.146 209.404 156.602 209.524C156.79 209.576 156.946 209.713 156.963 210.012C156.985 210.454 157.001 210.735 157.001 210.735L157.246 210.052Z" fill="#49260A"/>
<path d="M150.961 207.159C150.961 207.159 150.645 208.554 150.645 209.139C150.645 209.725 151.039 210.081 151.8 210.816C152.66 211.648 153.504 212.366 153.982 212.515C154.787 212.767 156.33 212.423 156.657 211.958C156.807 211.746 157.063 210.552 157.063 210.552C157.063 210.552 156.63 211.39 156.341 211.361C156.236 211.35 156.152 211.04 156.152 211.04C156.152 211.04 156.03 210.638 155.686 211.045C155.414 211.361 155.247 211.55 155.153 211.568C154.409 211.705 153.693 211.281 152.982 210.735C152.155 210.092 151.261 209.013 151.211 208.669C151.128 208.158 150.961 207.159 150.961 207.159Z" fill="#49260A"/>
<path d="M158.489 238.979C158.512 238.979 158.617 238.916 158.584 238.904C158.051 238.663 156.241 236.866 154.448 234.995C154.42 234.874 154.287 234.427 153.904 234.059C153.509 233.68 153.476 233.497 153.315 231.924C153.154 230.391 153.249 225.758 153.249 225.712L153.054 225.707C153.054 225.753 152.96 230.397 153.121 231.947C153.282 233.491 153.31 233.772 153.776 234.209C154.17 234.587 154.27 235.064 154.27 235.07L154.276 235.098L154.298 235.121C155.691 236.579 158.09 238.801 158.489 238.979Z" fill="#383736"/>
<path d="M149.163 209.782L148.069 210.856C148.069 210.856 147.791 211.091 147.641 211.66C147.48 212.285 147.664 213.141 147.664 213.141L148.213 216.746C148.274 217.492 148.48 217.779 148.996 217.922L150.789 218.514L149.84 219.823C149.412 220.385 149.49 220.563 149.696 220.976L153.299 226.137C153.299 226.137 153.088 222.67 151.328 217.928C150.945 216.901 149.723 213.703 149.285 211.82C148.979 210.523 149.163 209.782 149.163 209.782Z" fill="#7A797A"/>
<path d="M151.328 203.64C152.199 203.611 152.271 204.817 152.271 204.817L152.183 206.918C152.183 206.918 152.055 207.578 151.633 207.578C151.15 207.578 150.845 207.199 150.639 206.579C150.628 206.545 150.317 205.666 150.301 205.615C150.095 204.84 150.301 203.674 151.328 203.64Z" fill="#EDC3A4"/>
</g>
<defs>
<filter id="filter0_d_155_5208" x="-26" y="-13.5" width="600" height="498" filterUnits="userSpaceOnUse" color-interpolation-filters="sRGB">
<feFlood flood-opacity="0" result="BackgroundImageFix"/>
<feColorMatrix in="SourceAlpha" type="matrix" values="0 0 0 0 0 0 0 0 0 0 0 0 0 0 0 0 0 0 127 0" result="hardAlpha"/>
<feOffset dx="-6" dy="6"/>
<feGaussianBlur stdDeviation="10"/>
<feComposite in2="hardAlpha" operator="out"/>
<feColorMatrix type="matrix" values="0 0 0 0 0 0 0 0 0 0 0 0 0 0 0 0 0 0 0.1 0"/>
<feBlend mode="normal" in2="BackgroundImageFix" result="effect1_dropShadow_155_5208"/>
<feBlend mode="normal" in="SourceGraphic" in2="effect1_dropShadow_155_5208" result="shape"/>
</filter>
</defs>
</svg>
