<svg width="20" height="20" viewBox="0 0 20 20" fill="none" xmlns="http://www.w3.org/2000/svg">
<path d="M15.84 7.43271C15.9532 6.96678 16.0108 6.48969 16.0108 6.01076C16.0108 2.69723 13.3154 0 10 0C6.68646 0 3.98923 2.69537 3.98923 6.01076C3.98923 6.48784 4.04678 6.96678 4.16001 7.43271C4.32151 8.40728 4.54056 9.19436 4.81529 9.76981C5.4056 11.0098 7.89122 15.1049 9.031 16.9705C7.48839 17.1673 6.77186 17.83 6.77186 18.4555C6.77186 19.1999 7.78169 20 9.99814 20C12.2146 20 13.2226 19.1999 13.2226 18.4555C13.2226 17.83 12.506 17.1673 10.9634 16.9705C12.1051 15.1049 14.5907 11.0098 15.181 9.76981C15.4594 9.19436 15.6803 8.40728 15.84 7.43271ZM12.2963 18.4555C12.2332 18.6319 11.4572 19.0718 10 19.0718C8.52608 19.0718 7.74828 18.6208 7.70187 18.4611C7.74271 18.307 8.37757 17.9284 9.5749 17.8522C9.58789 17.8745 9.59903 17.8912 9.6046 17.9005C9.68999 18.0379 9.8385 18.1214 10 18.1214C10.1615 18.1214 10.31 18.0379 10.3954 17.9005C10.401 17.8912 10.4121 17.8745 10.4251 17.8522C11.6076 17.9284 12.2406 18.2978 12.2963 18.4555ZM14.936 7.22851C14.9322 7.23965 14.9304 7.25264 14.9285 7.26378C14.7837 8.14739 14.5833 8.87693 14.3475 9.37071C13.7516 10.6237 11.0303 15.0919 10.0019 16.7719C8.97345 15.0919 6.25209 10.6237 5.65621 9.37071C5.42045 8.87693 5.21997 8.14739 5.07518 7.26378C5.07332 7.25079 5.07146 7.23965 5.06775 7.22851C4.96936 6.8294 4.91925 6.42101 4.91925 6.01076C4.91925 3.20957 7.19881 0.928155 10.0019 0.928155C12.803 0.928155 15.0845 3.20772 15.0845 6.01076C15.0826 6.42101 15.0325 6.8294 14.936 7.22851Z" fill="white"/>
<path d="M10.0019 2.63232C8.22351 2.63232 6.77557 4.07841 6.77557 5.85676C6.77557 7.63512 8.22165 9.08119 10.0019 9.08119C11.7802 9.08119 13.2263 7.63512 13.2263 5.85676C13.2263 4.07841 11.7802 2.63232 10.0019 2.63232ZM10.0019 8.15488C8.73585 8.15488 7.70373 7.12462 7.70373 5.85861C7.70373 4.5926 8.73399 3.56234 10.0019 3.56234C11.2679 3.56234 12.2981 4.5926 12.2981 5.85861C12.2981 7.12462 11.2679 8.15488 10.0019 8.15488Z" fill="white"/>
</svg>
