<svg width="20" height="20" viewBox="0 0 20 20" fill="none" xmlns="http://www.w3.org/2000/svg">
<path d="M2.14174 1.61608C2.06276 1.70468 1.98764 1.79714 1.9183 1.89538C1.29036 2.45205 0.7934 3.67519 1.08618 5.18148C2.33821 11.7074 7.83559 16.679 14.454 17.2722C14.5966 17.2857 14.7391 17.2915 14.8797 17.2915C15.6406 17.2915 16.3571 17.1047 16.9292 16.7522C17.2046 16.5923 17.4512 16.3939 17.6592 16.1628L18.2274 15.5348C19.335 14.3097 19.2406 12.4105 18.0156 11.301L17.0563 10.4342C16.5035 9.93534 15.7908 9.65989 15.0473 9.65989C14.2017 9.65989 13.3907 10.0201 12.8244 10.6461L12.2562 11.2741C12.0347 11.5187 11.8556 11.7961 11.7265 12.0965C9.4613 11.1431 7.60252 9.44223 6.45258 7.26948C6.86864 7.09997 7.24425 6.83801 7.54859 6.50285L8.11681 5.87491C8.65422 5.28164 8.92774 4.51309 8.88729 3.71371C8.84684 2.91434 8.4982 2.17853 7.90493 1.64112L6.94569 0.774331C6.39287 0.275445 5.68016 0 4.93665 0C4.09105 0 3.28012 0.360199 2.71382 0.986214L2.14174 1.61608ZM3.28205 1.50436C3.70389 1.03822 4.30487 0.772402 4.93473 0.772402C5.48755 0.772402 6.01726 0.976584 6.42754 1.34834L7.38678 2.21513C7.82788 2.61385 8.08792 3.1609 8.11681 3.75609C8.14763 4.35129 7.94346 4.92144 7.54473 5.36254L6.9765 5.99049C6.70491 6.2929 6.35627 6.51248 5.9691 6.62998L5.79574 6.68199C5.68787 6.71474 5.59927 6.79371 5.55304 6.89772C5.50873 7.00174 5.51067 7.12116 5.56075 7.22325L5.64165 7.38505C6.89946 9.9103 9.03754 11.8731 11.661 12.9094L11.8113 12.9691C11.9095 13.0076 12.0193 13.0038 12.1156 12.9595C12.2119 12.9152 12.2851 12.8323 12.3179 12.7322L12.3679 12.5819C12.4662 12.2911 12.6203 12.0272 12.8264 11.798L13.3946 11.17C13.8164 10.7039 14.4193 10.4362 15.0473 10.4362C15.6001 10.4362 16.1298 10.6403 16.5401 11.0121L17.4993 11.8789C18.4104 12.7014 18.4798 14.1133 17.6573 15.0244L17.0891 15.6523C16.933 15.8237 16.75 15.9721 16.5362 16.0973C15.9911 16.4324 15.2784 16.5788 14.5253 16.5114C8.2478 15.9489 3.03357 11.2317 1.84511 5.04279C1.5947 3.74453 2.06661 2.79106 2.44607 2.46746C2.45763 2.45783 2.46919 2.44628 2.48074 2.43279L2.50771 2.40389C2.51927 2.39041 2.52891 2.37886 2.53854 2.36345C2.59247 2.28447 2.65218 2.20935 2.71575 2.13808L3.28205 1.50436Z" fill="white"/>
</svg>
