<svg width="49" height="49" viewBox="0 0 49 49" fill="none" xmlns="http://www.w3.org/2000/svg">
<path d="M36.5594 30.9355C34.4102 30.9355 32.2609 30.9397 30.1117 30.9355C27.2376 30.9293 25.4163 29.1142 25.4372 26.2339C25.4455 25.1729 25.3996 24.0784 25.6335 23.057C26.0993 21.0206 27.4507 19.7256 29.4683 19.1533C30.3059 18.9152 31.1497 18.6938 31.9936 18.4786C32.2546 18.4118 32.3946 18.2969 32.3445 18.0149C32.3424 18.0003 32.3445 17.9815 32.3445 17.9669C32.4405 16.9476 32.2567 16.0767 31.5382 15.2266C30.567 14.082 30.2349 12.6366 30.1597 11.1223C30.1117 10.1636 29.8756 9.21534 29.7524 8.25872C29.6145 7.18096 29.5832 6.10321 29.8819 5.03798C30.1555 4.05839 30.7633 3.4109 31.722 3.0788C31.8661 3.02867 32.0144 2.94512 32.121 2.83651C34.2305 0.714411 36.7286 0.181797 39.5525 1.02771C40.106 1.19272 40.647 1.41621 41.1775 1.64805C41.9148 1.9718 42.6521 2.06996 43.4416 1.85065C44.1142 1.66267 44.4776 1.94255 44.5611 2.64644C44.8034 4.69752 44.4108 6.62746 43.4688 8.45924C43.3497 8.69108 43.2912 8.97305 43.2766 9.23623C43.2223 10.22 43.2766 11.2142 43.1429 12.1854C42.957 13.5598 42.3158 14.7629 41.4072 15.8051C41.167 16.0808 41.0438 16.3461 41.0668 16.7116C41.1002 17.2254 40.9122 17.875 41.1608 18.2176C41.4093 18.558 42.0798 18.5935 42.5665 18.7543C43.1784 18.9569 43.8071 19.1199 44.4045 19.3559C46.489 20.183 47.738 22.0712 47.7088 24.3061C47.6963 25.2272 47.7318 26.1524 47.6503 27.0673C47.4644 29.1706 45.7057 30.8582 43.5857 30.9084C41.2443 30.9627 38.8987 30.9209 36.5552 30.9209V30.9376L36.5594 30.9355ZM36.7056 29.44C38.8549 29.44 41.0062 29.44 43.1555 29.44C45.1669 29.44 46.4827 28.1242 46.4932 26.1023C46.4953 25.553 46.4974 25.0037 46.4932 24.4523C46.4744 22.608 45.4133 21.1689 43.6505 20.6133C42.8046 20.3459 41.9461 20.1141 41.1044 19.8342C40.7848 19.7277 40.6177 19.8175 40.4193 20.0619C39.4919 21.2044 38.5457 22.3302 37.6058 23.4601C36.9834 24.2079 36.6095 24.2121 35.9871 23.4664C35.0347 22.3239 34.0801 21.1856 33.1423 20.0305C32.9481 19.7924 32.781 19.7402 32.4907 19.8363C31.6489 20.1141 30.7884 20.3417 29.9446 20.6154C28.3572 21.1313 27.3734 22.2111 27.1374 23.8695C27.0309 24.6152 27.0872 25.3859 27.0852 26.1441C27.081 28.3142 28.2005 29.44 30.3539 29.44C32.4719 29.44 34.5898 29.44 36.7077 29.44H36.7056ZM41.6704 10.291C41.9962 9.33648 41.4574 8.7057 40.5049 8.29632C40.3733 8.23993 40.2647 8.11669 40.1311 8.07701C39.964 8.02688 39.7572 7.9684 39.6068 8.0227C37.7291 8.7057 35.8722 8.67646 34.0321 7.89529C33.8044 7.79921 33.6645 7.79086 33.5016 8.00808C32.9376 8.75583 32.3465 9.48478 31.7826 10.2346C31.6844 10.3662 31.6197 10.5521 31.6113 10.7171C31.5487 12.1082 31.9309 13.3655 32.7705 14.4809C34.8091 17.1899 38.268 17.2421 40.3817 14.5979C41.355 13.3802 41.754 11.9808 41.6704 10.291Z" fill="url(#paint0_linear_297_128)"/>
<path d="M7.51045 15.1305C7.51045 14.6125 7.5021 14.178 7.51045 13.7436C7.53761 12.4987 8.35428 11.6862 9.59496 11.6821C11.4539 11.6758 13.3128 11.6758 15.1717 11.6821C16.3665 11.6862 17.181 12.4841 17.2145 13.6747C17.227 14.1404 17.2166 14.6062 17.2166 15.1305C18.0959 15.1305 18.9146 15.12 19.7355 15.1347C20.1365 15.143 20.5522 15.1451 20.9365 15.2454C22.0874 15.544 22.9897 16.6427 22.998 17.8374C23.0231 21.3297 23.021 24.822 22.998 28.3142C22.9897 29.5319 21.9746 30.6097 20.7443 30.8102C20.5062 30.8499 20.2618 30.8687 20.0216 30.8708C14.8981 30.875 9.77249 30.875 4.64896 30.8708C3.19315 30.8708 2.14254 30.1188 1.8188 28.8406C1.74361 28.5482 1.73316 28.2328 1.73107 27.9278C1.72481 24.6465 1.72481 21.3631 1.72899 18.0818C1.73107 16.2229 2.8151 15.1451 4.68865 15.1326C5.60558 15.1263 6.52459 15.1326 7.50836 15.1326L7.51045 15.1305ZM21.6571 22.2508H20.3349C20.1741 23.8653 19.5768 24.3959 17.9706 24.3959C17.8244 24.3959 17.6802 24.3959 17.534 24.3959C16.0197 24.3959 15.4036 23.8382 15.2427 22.3197C15.2407 22.2926 15.2093 22.2696 15.1926 22.2445H9.65344C9.49679 23.8528 8.89316 24.3959 7.29741 24.3959C7.00708 24.3959 6.71467 24.4042 6.42434 24.3938C5.43222 24.3562 4.68865 23.6565 4.5863 22.6706C4.57168 22.5307 4.56332 22.3886 4.55288 22.2466H3.22657C3.22657 24.2768 3.21195 26.2631 3.23492 28.2516C3.24328 28.991 3.76127 29.4379 4.5487 29.44C9.72028 29.4442 14.8918 29.4463 20.0634 29.44C20.9072 29.44 21.6341 28.7967 21.6487 27.9592C21.6821 26.0689 21.6592 24.1786 21.6592 22.2529L21.6571 22.2508ZM15.6375 15.1764C15.6375 14.6751 15.6459 14.2094 15.6354 13.7436C15.6271 13.4094 15.4182 13.2507 15.0986 13.2507C13.2251 13.2465 11.3515 13.236 9.47799 13.2695C9.29836 13.2716 8.99968 13.5389 8.97253 13.7164C8.90151 14.1864 8.94746 14.6731 8.94746 15.1785H15.6375V15.1764Z" fill="url(#paint1_linear_297_128)"/>
<path d="M48.7516 41.7236C48.739 45.7339 45.5684 48.8752 41.5519 48.8544C37.6147 48.8335 34.4358 45.6044 34.4566 41.6463C34.4775 37.7238 37.6816 34.5573 41.6229 34.5657C45.5893 34.574 48.7641 37.7635 48.7516 41.7236ZM40.5159 42.4421C40.2298 42.1204 39.9979 41.8343 39.7368 41.5732C39.3483 41.1847 38.9118 41.1638 38.5922 41.4959C38.281 41.8176 38.304 42.2228 38.6758 42.6071C39.0914 43.0374 39.5133 43.4572 39.9415 43.8749C40.3822 44.3031 40.7185 44.3094 41.153 43.8875C41.6396 43.4154 42.1137 42.9309 42.5921 42.4525C43.2542 41.7904 43.9351 41.1471 44.5638 40.4537C44.7288 40.272 44.8311 39.9106 44.7726 39.6809C44.7183 39.472 44.4176 39.2151 44.2045 39.1921C43.9643 39.1671 43.6447 39.3258 43.4568 39.5054C42.4918 40.4349 41.5602 41.3957 40.518 42.4421H40.5159Z" fill="url(#paint2_linear_297_128)"/>
<path d="M24.7729 34.5657C28.731 34.5782 31.935 37.799 31.9058 41.7403C31.8765 45.6984 28.6641 48.869 24.704 48.8544C20.7856 48.8377 17.5899 45.6211 17.5962 41.6944C17.6025 37.7426 20.8128 34.5532 24.775 34.5657H24.7729ZM23.6743 42.4129C23.3798 42.0996 23.1249 41.8093 22.8471 41.5419C22.4733 41.1806 22.0493 41.1743 21.736 41.4959C21.4373 41.8051 21.4477 42.2165 21.7882 42.5737C22.1788 42.9831 22.584 43.3779 22.985 43.7768C23.5406 44.3282 23.856 44.3303 24.4137 43.7768C25.4684 42.7283 26.519 41.6756 27.5676 40.6208C27.6804 40.508 27.7994 40.389 27.8767 40.2511C28.0521 39.9315 28.0041 39.6245 27.7388 39.3697C27.4736 39.1169 27.1665 39.0731 26.8532 39.2715C26.7049 39.3655 26.5838 39.5013 26.4585 39.6266C25.5457 40.5372 24.6371 41.4521 23.6722 42.4171L23.6743 42.4129Z" fill="url(#paint3_linear_297_128)"/>
<path d="M0.751465 41.6755C0.770263 37.707 3.95968 34.5468 7.92817 34.5635C11.8862 34.5803 15.061 37.7822 15.0464 41.7423C15.0318 45.7338 11.8382 48.8773 7.82165 48.8543C3.90537 48.8313 0.734756 45.6106 0.753554 41.6755H0.751465ZM6.80237 42.4274C6.49951 42.0953 6.24469 41.7799 5.95437 41.5021C5.60556 41.17 5.18156 41.1826 4.88079 41.4938C4.58837 41.7966 4.58002 42.1977 4.89541 42.5298C5.35074 43.0102 5.82278 43.4739 6.29691 43.9334C6.62274 44.2488 7.00706 44.2968 7.3329 43.9751C8.54433 42.7909 9.74741 41.5982 10.9254 40.3826C11.3306 39.9628 11.0925 39.2401 10.5328 39.1858C10.2758 39.1607 9.93121 39.3153 9.73697 39.5033C8.76991 40.4265 7.83627 41.3893 6.80237 42.4253V42.4274Z" fill="url(#paint4_linear_297_128)"/>
<path d="M41.0486 25.7556C41.742 25.7556 42.4355 25.7493 43.1289 25.7576C43.649 25.7639 43.9477 26.0521 43.9435 26.5096C43.9393 26.9461 43.6532 27.2364 43.1582 27.2406C41.7546 27.2531 40.3531 27.2552 38.9495 27.2406C38.4691 27.2364 38.1328 26.873 38.1474 26.4511C38.1621 26.0271 38.4649 25.7639 38.9683 25.7576C39.6617 25.7493 40.3552 25.7576 41.0486 25.7576V25.7556Z" fill="url(#paint5_linear_297_128)"/>
<defs>
<linearGradient id="paint0_linear_297_128" x1="36.5732" y1="0.644287" x2="36.5732" y2="30.9376" gradientUnits="userSpaceOnUse">
<stop stop-color="#1D86C4"/>
<stop offset="1" stop-color="#87BC48"/>
</linearGradient>
<linearGradient id="paint1_linear_297_128" x1="12.3711" y1="11.6774" x2="12.3711" y2="30.8739" gradientUnits="userSpaceOnUse">
<stop stop-color="#1D86C4"/>
<stop offset="1" stop-color="#87BC48"/>
</linearGradient>
<linearGradient id="paint2_linear_297_128" x1="41.6041" y1="34.5657" x2="41.6041" y2="48.8545" gradientUnits="userSpaceOnUse">
<stop stop-color="#1D86C4"/>
<stop offset="1" stop-color="#87BC48"/>
</linearGradient>
<linearGradient id="paint3_linear_297_128" x1="24.7511" y1="34.5657" x2="24.7511" y2="48.8544" gradientUnits="userSpaceOnUse">
<stop stop-color="#1D86C4"/>
<stop offset="1" stop-color="#87BC48"/>
</linearGradient>
<linearGradient id="paint4_linear_297_128" x1="7.89895" y1="34.5635" x2="7.89895" y2="48.8544" gradientUnits="userSpaceOnUse">
<stop stop-color="#1D86C4"/>
<stop offset="1" stop-color="#87BC48"/>
</linearGradient>
<linearGradient id="paint5_linear_297_128" x1="41.0453" y1="25.7533" x2="41.0453" y2="27.2508" gradientUnits="userSpaceOnUse">
<stop stop-color="#1D86C4"/>
<stop offset="1" stop-color="#87BC48"/>
</linearGradient>
</defs>
</svg>
