<svg width="49" height="51" viewBox="0 0 49 51" fill="none" xmlns="http://www.w3.org/2000/svg">
<path d="M0.807926 50.5097C0.807926 49.0215 0.793523 47.562 0.815127 46.1025C0.822328 45.5216 1.2064 45.2216 1.86412 45.2192C4.30775 45.2144 6.75139 45.2192 9.19503 45.2192C9.93197 45.2192 10.6689 45.2192 11.473 45.2192C11.473 43.983 11.473 42.7875 11.473 41.5897C11.473 39.9886 11.5739 39.8878 13.1581 39.8878H22.1406C22.1406 38.51 22.1406 37.1825 22.1406 35.8551C22.1406 34.8013 22.3878 34.5565 23.4512 34.5565C26.5406 34.5565 29.6323 34.5565 32.8081 34.5565C32.8081 34.3596 32.8081 34.182 32.8081 34.0068C32.8081 32.7657 32.8033 31.5271 32.8081 30.2861C32.8129 29.5564 33.1321 29.2275 33.8523 29.2251C36.7208 29.2203 39.5893 29.2203 42.4602 29.2251C43.1203 29.2251 43.4684 29.5612 43.4684 30.2093C43.4732 36.9281 43.4684 43.6445 43.4684 50.3633C43.4684 50.3993 43.454 50.4329 43.4372 50.5097H0.807926Z" fill="url(#paint0_linear_297_137)"/>
<path d="M7.56032 15.5955C6.3241 15.9819 5.52476 16.7045 5.15029 17.8471C4.82143 18.8456 4.57899 19.873 4.25973 20.8764C4.01009 21.6661 3.32356 22.1294 2.53862 22.1102C1.75608 22.091 1.08156 21.5797 0.882323 20.7924C0.81271 20.5163 0.798308 20.1947 0.870321 19.921C1.14637 18.848 1.41042 17.7654 1.78248 16.7237C2.80267 13.8503 4.86944 12.2325 7.89398 11.894C10.7793 11.5699 13.6742 11.3227 16.5619 11.013C18.091 10.8498 19.1184 10.0024 19.5961 8.54299C19.8889 7.64763 20.1146 6.73066 20.3738 5.8257C20.6859 4.7335 21.61 4.1406 22.5822 4.40224C23.6096 4.68069 24.1113 5.63847 23.8016 6.76427C23.528 7.76285 23.2832 8.77103 22.9351 9.7432C21.9077 12.6165 19.8361 14.2056 16.814 14.5657C16.6844 14.5801 16.5571 14.5897 16.4275 14.6065C16.3171 14.6209 16.2091 14.6449 16.041 14.6761C15.8178 16.0059 15.5898 17.3502 15.3641 18.6944C15.0425 20.6076 14.7376 22.5255 14.3944 24.4362C14.3127 24.8899 14.3968 25.1324 14.836 25.3364C15.741 25.7541 16.6172 26.2366 17.5053 26.6903C18.235 27.0647 18.5879 27.6552 18.5855 28.481C18.5783 31.0542 18.5855 33.6251 18.5807 36.1984C18.5783 37.3194 17.815 38.1187 16.7852 38.1067C15.7794 38.0971 15.0329 37.3026 15.0305 36.2128C15.0233 34.122 15.0185 32.0312 15.0377 29.9404C15.0401 29.5588 14.9345 29.3523 14.5816 29.1747C12.6012 28.1785 10.6353 27.1511 8.66212 26.1357C7.05143 25.3076 6.35291 23.8913 6.62416 22.0982C6.94821 19.9642 7.24107 17.8279 7.56273 15.5955H7.56032Z" fill="url(#paint1_linear_297_137)"/>
<path d="M36.8022 16.7836C36.8022 17.1821 36.807 17.5278 36.8022 17.8758C36.7926 18.3343 37.0038 18.5647 37.4695 18.5623C37.9136 18.5575 38.3576 18.5575 38.8017 18.5623C39.2674 18.5671 39.4762 18.3319 39.469 17.8758C39.4642 17.5302 39.469 17.1821 39.469 16.7836C40.9261 16.7836 42.328 16.7428 43.7298 16.7956C45.3021 16.8532 46.4279 16.2315 47.1864 14.8561C47.6473 14.0183 48.185 13.2238 48.7635 12.2924C48.7827 12.5805 48.8019 12.7317 48.8019 12.8853C48.8019 16.4764 48.8043 20.0674 48.8019 23.6585C48.8019 24.9763 48.101 25.67 46.7712 25.67C41.0125 25.67 35.2539 25.67 29.4976 25.67C28.175 25.67 27.4717 24.9691 27.4717 23.6537C27.4717 20.0626 27.4717 16.4716 27.4717 12.8805V12.3188C27.6229 12.5157 27.7141 12.6141 27.7837 12.7269C28.3094 13.5766 28.8207 14.4336 29.3584 15.2762C29.9945 16.2747 30.9211 16.774 32.0997 16.7812C33.4704 16.7908 34.841 16.7812 36.2093 16.7836C36.3893 16.7836 36.5693 16.7836 36.8046 16.7836H36.8022Z" fill="url(#paint2_linear_297_137)"/>
<path d="M47.2347 9.66878C46.8722 10.2593 46.577 10.7418 46.2817 11.2219C45.7776 12.0404 45.288 12.8686 44.7599 13.6727C44.635 13.8647 44.383 14.0928 44.1838 14.0952C42.6331 14.1312 41.0824 14.1144 39.4669 14.1144C39.4669 13.7111 39.4669 13.3486 39.4669 12.9838C39.4669 12.5493 39.2485 12.3381 38.8164 12.3381C38.3723 12.3381 37.9282 12.3429 37.4841 12.3381C37.0257 12.3309 36.7952 12.5421 36.8 13.0078C36.8048 13.3558 36.8 13.7039 36.8 14.1168C35.5998 14.1168 34.4404 14.1312 33.281 14.1144C31.4063 14.0832 31.992 14.424 30.9646 12.8109C30.3309 11.8172 29.7284 10.8018 29.061 9.71679H33.6891C33.6891 9.42874 33.7035 9.1983 33.6891 8.96785C33.4226 5.48483 34.7789 4.07097 38.3411 4.33982C38.6916 4.36623 39.0444 4.33982 39.3949 4.34462C41.2384 4.36383 42.5611 5.69366 42.5779 7.5468C42.5851 8.22852 42.5779 8.91264 42.5779 9.66878H47.2323H47.2347ZM39.911 9.66158C39.911 8.92225 39.9158 8.22372 39.911 7.52519C39.9086 7.18913 39.731 7.0115 39.3925 7.0115C38.5595 7.0091 37.7266 6.9875 36.896 7.02831C36.716 7.03791 36.404 7.26355 36.3944 7.40517C36.3439 8.15171 36.3703 8.90304 36.3703 9.66398H39.9134L39.911 9.66158Z" fill="url(#paint3_linear_297_137)"/>
<path d="M8.80615 5.22797C8.80615 2.77473 10.8081 0.782369 13.2638 0.78957C15.7194 0.796772 17.7022 2.79873 17.6902 5.25917C17.6781 7.68601 15.6906 9.66637 13.2614 9.67357C10.8081 9.67837 8.80615 7.68361 8.80615 5.23037V5.22797Z" fill="url(#paint4_linear_297_137)"/>
<path d="M9.20005 29.4219C10.2274 29.95 11.1996 30.4373 12.155 30.9558C12.2606 31.0134 12.3542 31.2679 12.3182 31.3903C11.4205 34.4196 10.5203 37.4466 9.58172 40.4639C9.28647 41.4145 8.3191 41.8634 7.40213 41.5801C6.46356 41.2897 5.94027 40.3559 6.22592 39.3837C7.19809 36.0879 8.19187 32.8017 9.20246 29.4243L9.20005 29.4219Z" fill="url(#paint5_linear_297_137)"/>
<path d="M39.9108 9.66155H36.3678C36.3678 8.90061 36.3413 8.14928 36.3918 7.40274C36.4014 7.26112 36.7134 7.03547 36.8934 7.02587C37.724 6.98507 38.5569 7.00667 39.3899 7.00907C39.7284 7.00907 39.906 7.1891 39.9084 7.52276C39.9132 8.22129 39.9084 8.91981 39.9084 9.65915L39.9108 9.66155Z" fill="url(#paint6_linear_297_137)"/>
<defs>
<linearGradient id="paint0_linear_297_137" x1="22.1369" y1="29.2215" x2="22.1369" y2="50.5097" gradientUnits="userSpaceOnUse">
<stop stop-color="#1D86C4"/>
<stop offset="1" stop-color="#87BC48"/>
</linearGradient>
<linearGradient id="paint1_linear_297_137" x1="12.3576" y1="4.34082" x2="12.3576" y2="38.1068" gradientUnits="userSpaceOnUse">
<stop stop-color="#1D86C4"/>
<stop offset="1" stop-color="#87BC48"/>
</linearGradient>
<linearGradient id="paint2_linear_297_137" x1="38.1373" y1="12.2924" x2="38.1373" y2="25.67" gradientUnits="userSpaceOnUse">
<stop stop-color="#1D86C4"/>
<stop offset="1" stop-color="#87BC48"/>
</linearGradient>
<linearGradient id="paint3_linear_297_137" x1="38.1479" y1="4.3078" x2="38.1479" y2="14.1247" gradientUnits="userSpaceOnUse">
<stop stop-color="#1D86C4"/>
<stop offset="1" stop-color="#87BC48"/>
</linearGradient>
<linearGradient id="paint4_linear_297_137" x1="13.2482" y1="0.789551" x2="13.2482" y2="9.67358" gradientUnits="userSpaceOnUse">
<stop stop-color="#1D86C4"/>
<stop offset="1" stop-color="#87BC48"/>
</linearGradient>
<linearGradient id="paint5_linear_297_137" x1="9.23701" y1="29.4219" x2="9.23701" y2="41.6641" gradientUnits="userSpaceOnUse">
<stop stop-color="#1D86C4"/>
<stop offset="1" stop-color="#87BC48"/>
</linearGradient>
<linearGradient id="paint6_linear_297_137" x1="38.1358" y1="7.00122" x2="38.1358" y2="9.66155" gradientUnits="userSpaceOnUse">
<stop stop-color="#1D86C4"/>
<stop offset="1" stop-color="#87BC48"/>
</linearGradient>
</defs>
</svg>
