<svg width="122" height="120" viewBox="0 0 122 120" fill="none" xmlns="http://www.w3.org/2000/svg">
<path d="M0.988281 110.634C0.988281 76.887 0.988281 43.1399 0.988281 9.39277C1.03833 9.28641 1.11967 9.18631 1.13218 9.07369C1.87044 3.79953 6.4126 -0.0982177 12.1935 0.00188504C16.2915 0.0707056 20.3957 0.0143986 24.4999 0.0143986C52.8665 0.0143986 81.2269 -0.00436985 109.593 0.0581943C111.377 0.0581943 113.316 0.371015 114.918 1.10927C119.185 3.07379 121.011 6.68374 121.011 11.3135C121.011 43.7718 121.011 76.2301 121.011 108.688C121.011 108.964 121.011 109.233 121.005 109.508C120.855 112.987 119.554 115.958 116.632 117.892C115.149 118.874 113.316 119.318 111.639 120H10.3667C10.2228 119.944 10.0914 119.856 9.94122 119.831C7.2447 119.412 5.06747 118.117 3.33444 116.015C2.02685 114.432 1.445 112.561 0.994538 110.622L0.988281 110.634ZM99.8147 77.5877C100.753 77.5877 101.604 77.5877 102.461 77.5877C105.389 77.5877 106.709 76.2864 106.709 73.3959C106.709 69.0602 106.722 64.7245 106.709 60.3888C106.672 50.1471 99.0138 42.4767 88.7783 42.4329C85.769 42.4204 82.7659 42.4329 79.7566 42.4329C79.3812 42.4329 79.0121 42.4016 78.5804 42.3766C78.5804 38.9106 78.5929 35.5509 78.5804 32.1974C78.5679 29.8262 77.1477 28.3747 74.7952 28.3747C56.2387 28.3622 37.6884 28.3622 19.1319 28.3747C16.7107 28.3747 15.303 29.8137 15.2967 32.2662C15.2905 46.0929 15.2905 59.9133 15.2967 73.74C15.2967 76.1613 16.7357 77.5564 19.1882 77.5815C20.3957 77.594 21.6032 77.5815 22.9358 77.5815C22.2226 79.9714 22.135 82.255 22.9483 84.5449C23.7804 86.8785 25.2069 88.7429 27.3153 90.0005C31.0754 92.2465 34.9731 92.2966 38.5894 89.8753C42.9563 86.9536 44.2076 82.7117 42.8562 77.6253H79.8567C78.4928 82.7055 79.7503 86.9473 84.1173 89.8691C87.7335 92.2903 91.6938 92.3404 95.3789 89.9754C99.9023 87.0725 101.166 82.7806 99.8209 77.569L99.8147 77.5877Z" fill="url(#paint0_linear_297_110)"/>
<path d="M71.4731 70.4992H22.3853V35.4883H71.4731V70.4992Z" fill="url(#paint1_linear_297_110)"/>
<path d="M78.6615 49.5152H85.6124C85.6124 51.4609 85.6124 53.3629 85.6124 55.2586C85.6124 56.7413 85.5999 58.2241 85.6124 59.7069C85.6374 62.0718 87.0514 63.5045 89.4038 63.517C92.4069 63.5358 95.41 63.517 98.4193 63.517C98.8009 63.517 99.1763 63.517 99.6143 63.517V70.4617H78.6553V49.5089L78.6615 49.5152Z" fill="url(#paint2_linear_297_110)"/>
<path d="M36.3808 81.0726C36.3996 82.9808 34.8167 84.5949 32.9085 84.6137C30.994 84.6325 29.3861 83.0496 29.3674 81.1414C29.3486 79.2332 30.9315 77.619 32.8397 77.6003C34.7541 77.5815 36.362 79.1644 36.3808 81.0726Z" fill="url(#paint3_linear_297_110)"/>
<path d="M89.867 84.6075C87.9525 84.6263 86.3446 83.0434 86.3258 81.1352C86.3071 79.227 87.89 77.6128 89.7982 77.594C91.7126 77.5753 93.3205 79.1581 93.3393 81.0663C93.3581 82.9746 91.7752 84.5887 89.867 84.6075Z" fill="url(#paint4_linear_297_110)"/>
<path d="M92.7012 56.4347V50.1595C95.7543 51.3107 97.7626 53.3816 99.0076 56.4347H92.7012Z" fill="url(#paint5_linear_297_110)"/>
<defs>
<linearGradient id="paint0_linear_297_110" x1="60.9999" y1="0" x2="60.9999" y2="120" gradientUnits="userSpaceOnUse">
<stop stop-color="#1D86C4"/>
<stop offset="1" stop-color="#87BC48"/>
</linearGradient>
<linearGradient id="paint1_linear_297_110" x1="46.9292" y1="35.4883" x2="46.9292" y2="70.4992" gradientUnits="userSpaceOnUse">
<stop stop-color="#1D86C4"/>
<stop offset="1" stop-color="#87BC48"/>
</linearGradient>
<linearGradient id="paint2_linear_297_110" x1="89.1348" y1="49.5089" x2="89.1348" y2="70.4617" gradientUnits="userSpaceOnUse">
<stop stop-color="#1D86C4"/>
<stop offset="1" stop-color="#87BC48"/>
</linearGradient>
<linearGradient id="paint3_linear_297_110" x1="32.8741" y1="77.6001" x2="32.8741" y2="84.6139" gradientUnits="userSpaceOnUse">
<stop stop-color="#1D86C4"/>
<stop offset="1" stop-color="#87BC48"/>
</linearGradient>
<linearGradient id="paint4_linear_297_110" x1="89.8326" y1="77.5939" x2="89.8326" y2="84.6077" gradientUnits="userSpaceOnUse">
<stop stop-color="#1D86C4"/>
<stop offset="1" stop-color="#87BC48"/>
</linearGradient>
<linearGradient id="paint5_linear_297_110" x1="95.8544" y1="50.1595" x2="95.8544" y2="56.4347" gradientUnits="userSpaceOnUse">
<stop stop-color="#1D86C4"/>
<stop offset="1" stop-color="#87BC48"/>
</linearGradient>
</defs>
</svg>
