<svg width="120" height="120" viewBox="0 0 120 120" fill="none" xmlns="http://www.w3.org/2000/svg">
<path d="M59.9206 119.998C46.8502 119.998 33.7799 120.003 20.7095 119.998C8.67622 119.993 0.00233615 111.349 -0.00262602 99.3601C-0.0075882 73.1201 -0.0075882 46.8752 -0.00262602 20.6352C-0.00262602 8.70614 8.66133 0.0124054 20.5557 0.00744326C46.8552 -0.00248109 73.1498 -0.00248109 99.4493 0.00744326C111.349 0.00744326 120.003 8.70117 120.003 20.6402C120.008 46.8801 120.008 73.1251 120.003 99.3651C120.003 111.369 111.334 119.993 99.2905 119.998C86.1655 120.003 73.0456 119.998 59.9206 119.998ZM30.2716 82.1314C29.9739 82.1662 29.7754 82.2009 29.5719 82.2059C27.0462 82.2952 26.6443 82.717 26.6393 85.2973C26.6393 86.9646 26.6393 88.6319 26.6393 90.2942C26.6393 92.8845 27.1256 93.3559 29.7655 93.3559C42.5232 93.3559 55.281 93.3559 68.0387 93.3559C75.3827 93.3559 82.7218 93.3559 90.0658 93.3559C92.9687 93.3559 93.3607 92.9539 93.3607 89.9866C93.3607 88.6319 93.3607 87.2772 93.3607 85.9275C93.3607 82.5284 93.2664 82.4242 89.9666 82.1612C89.8822 82.1562 89.8078 82.0471 89.7284 81.9826C89.5795 79.8852 88.3406 78.6712 86.0117 78.3403V49.0784C88.1223 48.698 89.4042 47.4376 89.8574 45.2972C93.2763 44.9846 93.3607 44.8903 93.3607 41.4317C93.3607 41.1191 93.3409 40.8064 93.3607 40.4938C93.4848 38.9754 92.8099 38.0971 91.356 37.591C81.3919 34.1174 71.4527 30.5695 61.4787 27.1307C60.5905 26.823 59.4095 26.833 58.5163 27.1406C48.8847 30.4603 39.2829 33.8644 29.6761 37.2486C27.645 37.9631 26.6294 39.4071 26.6294 41.5805C26.6294 44.8556 26.7981 45.0392 29.9739 45.2625C30.0632 45.2674 30.1426 45.3568 30.222 45.4014C30.4602 47.4491 31.7123 48.6731 33.9783 49.0734V78.3403C31.656 78.6778 30.4172 79.9415 30.2617 82.1314H30.2716Z" fill="url(#paint0_linear_297_102)"/>
<path d="M56.3726 48.9841H63.6322V78.4049H56.3726V48.9841Z" fill="url(#paint1_linear_297_102)"/>
<path d="M41.6001 78.39V48.9692H48.7655V78.39H41.6001Z" fill="url(#paint2_linear_297_102)"/>
<path d="M78.3651 78.4197H71.2295V48.994H78.3651V78.4197Z" fill="url(#paint3_linear_297_102)"/>
<path d="M63.7017 35.9237C63.7017 37.8837 62.0046 39.6056 60.0445 39.6354C58.0398 39.6651 56.2584 37.8639 56.3031 35.8542C56.3477 33.8892 58.0795 32.202 60.0346 32.2268C61.9996 32.2467 63.7017 33.9636 63.7017 35.9237Z" fill="url(#paint4_linear_297_102)"/>
<defs>
<linearGradient id="paint0_linear_297_102" x1="60" y1="0" x2="60" y2="120" gradientUnits="userSpaceOnUse">
<stop stop-color="#1D86C4"/>
<stop offset="1" stop-color="#87BC48"/>
</linearGradient>
<linearGradient id="paint1_linear_297_102" x1="60.0024" y1="48.9841" x2="60.0024" y2="78.4049" gradientUnits="userSpaceOnUse">
<stop stop-color="#1D86C4"/>
<stop offset="1" stop-color="#87BC48"/>
</linearGradient>
<linearGradient id="paint2_linear_297_102" x1="45.1828" y1="48.9692" x2="45.1828" y2="78.39" gradientUnits="userSpaceOnUse">
<stop stop-color="#1D86C4"/>
<stop offset="1" stop-color="#87BC48"/>
</linearGradient>
<linearGradient id="paint3_linear_297_102" x1="74.7973" y1="48.994" x2="74.7973" y2="78.4197" gradientUnits="userSpaceOnUse">
<stop stop-color="#1D86C4"/>
<stop offset="1" stop-color="#87BC48"/>
</linearGradient>
<linearGradient id="paint4_linear_297_102" x1="60.002" y1="32.2266" x2="60.002" y2="39.6357" gradientUnits="userSpaceOnUse">
<stop stop-color="#1D86C4"/>
<stop offset="1" stop-color="#87BC48"/>
</linearGradient>
</defs>
</svg>
