<svg width="120" height="120" viewBox="0 0 120 120" fill="none" xmlns="http://www.w3.org/2000/svg">
<path d="M60.0024 65C60.0024 73.285 46.5724 80 30.0024 80C13.4324 80 0.00244141 73.285 0.00244141 65C0.00244141 56.715 13.4324 50 30.0024 50C46.5724 50 60.0024 56.715 60.0024 65ZM60.0024 92.5V102.5C60.0024 112.475 47.1074 120 30.0024 120C12.8974 120 0.00244141 112.475 0.00244141 102.5V92.5C0.00244141 102.355 12.5024 110 30.0024 110C47.5024 110 60.0024 102.355 60.0024 92.5ZM60.0024 72.5V82.5C60.0024 92.475 47.1074 100 30.0024 100C12.8974 100 0.00244141 92.475 0.00244141 82.5V72.5C0.00244141 82.355 12.5024 90 30.0024 90C47.5024 90 60.0024 82.355 60.0024 72.5ZM90.0024 30H50.0024V40H90.0024V30ZM95.0024 0H45.0024C31.2174 0 20.0024 11.215 20.0024 25V40.695C23.1674 40.24 26.5124 40 30.0024 40C33.4924 40 36.8374 40.24 40.0024 40.695V30C40.0024 24.485 44.4874 20 50.0024 20H90.0024C95.5174 20 100.002 24.485 100.002 30V40C100.002 45.515 95.5174 50 90.0024 50H62.6574C65.9324 52.87 68.2174 56.25 69.2974 60H74.9974C77.7624 60 79.9974 62.24 79.9974 65V70C79.9974 72.76 77.7624 75 74.9974 75H69.9974V85H94.9974C97.7624 85 99.9974 87.24 99.9974 90C99.9974 92.76 97.7624 95 94.9974 95H69.9974V102.5C69.9974 109.325 66.9124 115.345 61.5624 120H94.9974C108.782 120 119.997 108.785 119.997 95V25C119.997 11.215 108.787 0 95.0024 0ZM100.002 70C100.002 72.76 97.7674 75 95.0024 75C92.2374 75 90.0024 72.76 90.0024 70V65C90.0024 62.24 92.2374 60 95.0024 60C97.7674 60 100.002 62.24 100.002 65V70Z" fill="url(#paint0_linear_297_77)"/>
<defs>
<linearGradient id="paint0_linear_297_77" x1="59.9999" y1="0" x2="59.9999" y2="120" gradientUnits="userSpaceOnUse">
<stop stop-color="#1D86C4"/>
<stop offset="1" stop-color="#87BC48"/>
</linearGradient>
</defs>
</svg>
