<svg width="120" height="120" viewBox="0 0 120 120" fill="none" xmlns="http://www.w3.org/2000/svg">
<path d="M62.8147 0C71.046 0.397616 80.1911 0.670606 89.3066 1.31747C104.149 2.36196 117.158 14.9966 118.606 29.7381C119.846 42.355 120.077 55.0252 119.757 67.6955C119.579 74.6508 119.241 81.6002 118.861 88.5437C118.03 103.712 105.87 117.124 90.725 118.656C80.2742 119.712 69.7166 119.943 59.2006 119.997C49.7112 120.044 40.204 119.552 30.7325 118.94C16.2522 118.009 3.32075 106.187 1.48103 91.7483C0.424683 83.4577 0.151693 75.0307 0.116085 66.6629C0.0745435 55.3873 0.430616 44.0997 0.929119 32.8359C1.6294 17.0441 12.371 4.70017 27.8542 1.70915C31.1598 1.06822 34.584 0.931726 37.9667 0.795231C45.9428 0.46883 53.9248 0.278925 62.8207 0.00593492L62.8147 0ZM95.615 83.0423V81.5349C95.615 71.2741 95.615 61.0192 95.615 50.7583C95.615 46.794 94.1433 44.7644 90.3689 43.5537C82.1021 40.8951 73.8352 38.2542 65.5684 35.5955C61.9423 34.4264 58.3163 34.3255 54.6606 35.5005C46.1861 38.2245 37.6997 40.9247 29.2192 43.6487C26.0382 44.6694 24.1867 47.0314 24.2045 49.969C24.2223 52.9066 26.0798 55.2092 29.2904 56.2418C37.6878 58.9361 46.0852 61.6067 54.4767 64.3188C58.168 65.5116 61.8237 65.476 65.509 64.2832C72.4999 62.0162 79.4968 59.7848 86.4936 57.5474C87.7874 57.132 89.093 56.7463 90.5766 56.2834V83.0423H95.615ZM36.9875 64.0636C36.9875 66.7045 36.9341 69.1554 36.9994 71.6005C37.1893 79.0662 43.379 85.3805 50.8685 85.5645C56.8861 85.7069 62.9037 85.612 68.9273 85.5882C71.3427 85.5764 73.58 84.8286 75.6452 83.612C78.4582 81.9504 80.5057 79.6062 81.7697 76.5796C83.4433 72.5619 82.7014 68.3721 82.8557 64.1051C82.1733 64.3128 81.7104 64.4434 81.2475 64.5918C76.5414 66.0932 71.8293 67.5769 67.1351 69.1139C62.3103 70.6925 57.5211 70.6806 52.7022 69.0961C47.551 67.3988 42.3702 65.7846 36.9994 64.0695L36.9875 64.0636Z" fill="url(#paint0_linear_297_79)"/>
<defs>
<linearGradient id="paint0_linear_297_79" x1="59.9998" y1="0" x2="59.9998" y2="120" gradientUnits="userSpaceOnUse">
<stop stop-color="#1D86C4"/>
<stop offset="1" stop-color="#87BC48"/>
</linearGradient>
</defs>
</svg>
