<svg width="120" height="120" viewBox="0 0 120 120" fill="none" xmlns="http://www.w3.org/2000/svg">
<path d="M21.5578 0.00989857C47.1786 0.00989857 72.7946 0.00989857 98.4155 0.00989857C98.6778 0.0791843 98.9302 0.183114 99.1974 0.217756C110.922 1.7074 119.914 11.6845 119.948 23.5225C120.018 47.8072 120.018 72.0869 119.948 96.3715C119.914 109.358 109.353 119.919 96.3616 119.953C72.1166 120.023 47.8715 120.008 23.6314 119.953C12.9812 119.934 3.75133 112.777 0.890817 102.508C0.514694 101.167 0.29199 99.7814 0 98.4155C0 72.7946 0 47.1786 0 21.5578C0.0742347 21.2608 0.173214 20.9688 0.217755 20.667C1.66286 11.7291 6.49801 5.3746 14.837 1.84102C16.9552 0.945256 19.3109 0.598827 21.5578 0V0.00989857ZM79.7578 89.9379C79.5648 89.4726 79.4312 89.1163 79.2728 88.7699C74.5069 78.4364 69.7411 68.1029 64.9554 57.7794C64.609 57.0321 64.5248 56.4778 65.0296 55.676C66.544 53.2609 65.9204 50.0738 63.7429 48.2773C61.5208 46.4413 58.4178 46.4462 56.2056 48.2922C54.0429 50.0936 53.449 53.2857 54.9387 55.7057C55.3841 56.4283 55.4039 56.9479 55.0475 57.6952C50.0837 68.0238 45.1545 78.3671 40.2204 88.7056C40.0422 89.0817 39.8839 89.4677 39.676 89.9379H79.7578ZM44.4765 66.0739C36.7462 56.6114 38.8248 44.3082 46.3076 37.5875C53.9736 30.7035 65.4503 30.5748 73.2994 37.251C80.8119 43.6401 83.5685 56.1957 75.467 66.158C75.9421 66.6925 76.4271 67.2369 76.9171 67.7862C83.9644 60.5211 85.6322 46.4363 76.2341 36.7759C67.2418 27.5312 52.1623 27.7143 43.3531 37.1817C34.2272 46.9906 36.276 60.9071 43.0413 67.7318C43.5214 67.1725 44.0014 66.6182 44.4716 66.0689L44.4765 66.0739ZM73.2746 63.6687C78.382 58.0021 79.2382 47.4904 72.1166 40.448C65.2424 33.6531 54.0082 33.9005 47.436 40.9182C40.646 48.1635 41.9624 58.5267 46.6541 63.5152C48.2575 62.1642 48.2476 62.1691 47.2479 60.4815C45.2189 57.0717 44.6547 53.4193 45.4712 49.5492C47.1391 41.6457 55.0921 36.5581 63.149 38.2259C71.0228 39.8542 76.3479 47.8814 74.5564 55.7008C74.0516 57.8981 72.9678 59.9619 72.1512 62.085C72.0423 62.0652 71.9334 62.0503 71.8295 62.0305C72.2947 62.5502 72.755 63.0748 73.2796 63.6637L73.2746 63.6687ZM69.167 59.1453C72.4531 54.3002 71.5524 47.9012 67.2171 44.2687C62.7531 40.5272 56.1858 40.7846 52.093 44.8625C48.2575 48.6831 47.6389 55.1614 50.7469 58.9671C51.8505 58.1011 52.3701 57.2944 51.702 55.676C50.2124 52.0682 51.6822 47.8814 54.8743 45.6197C58.1258 43.3184 62.4661 43.4372 65.5542 45.9117C68.6028 48.3516 69.7114 52.5631 68.1277 56.1561C67.712 57.0964 67.7021 57.7249 68.4989 58.3633C68.7364 58.5514 68.8997 58.8335 69.162 59.1453H69.167Z" fill="url(#paint0_linear_297_95)"/>
<path d="M76.1254 87.597H43.3779C48.0844 77.7337 52.7414 67.9743 57.3093 58.403H62.6443C67.0341 67.9099 71.5376 77.6594 76.1254 87.597Z" fill="url(#paint1_linear_297_95)"/>
<path d="M63.4907 52.8056C63.4759 54.7258 61.8971 56.2748 59.967 56.2649C58.0468 56.255 56.4731 54.6714 56.483 52.7611C56.4929 50.8755 58.131 49.2522 60.0066 49.272C61.8922 49.2869 63.5056 50.925 63.4907 52.8106V52.8056Z" fill="url(#paint2_linear_297_95)"/>
<defs>
<linearGradient id="paint0_linear_297_95" x1="60.0002" y1="0" x2="60.0002" y2="120" gradientUnits="userSpaceOnUse">
<stop stop-color="#1D86C4"/>
<stop offset="1" stop-color="#87BC48"/>
</linearGradient>
<linearGradient id="paint1_linear_297_95" x1="59.7516" y1="58.403" x2="59.7516" y2="87.597" gradientUnits="userSpaceOnUse">
<stop stop-color="#1D86C4"/>
<stop offset="1" stop-color="#87BC48"/>
</linearGradient>
<linearGradient id="paint2_linear_297_95" x1="59.9869" y1="49.2719" x2="59.9869" y2="56.265" gradientUnits="userSpaceOnUse">
<stop stop-color="#1D86C4"/>
<stop offset="1" stop-color="#87BC48"/>
</linearGradient>
</defs>
</svg>
