<svg width="120" height="120" viewBox="0 0 120 120" fill="none" xmlns="http://www.w3.org/2000/svg">
<path d="M119.984 60.1294C119.984 72.5216 119.996 84.9197 119.984 97.3118C119.972 109.222 111.558 118.606 99.7131 119.932C98.8925 120.021 98.054 119.997 97.2275 119.997C72.3956 119.997 47.5637 119.997 22.7318 119.979C9.852 119.973 0.0108074 110.126 0.0108074 97.2405C0.00486107 72.4086 0.00486107 47.5767 0.0108074 22.7447C0.0108074 9.86498 9.85794 0.0237846 22.7437 0.0178383C47.5339 0.00594561 72.3183 0 97.1086 0C109.197 0 118.48 8.22379 119.913 20.2057C120.02 21.1095 119.99 22.0371 119.99 22.9529C119.99 35.345 119.99 47.7432 119.99 60.1353L119.984 60.1294ZM32.5016 80.5551C32.5016 83.9564 32.5432 87.3636 32.4778 90.7649C32.46 91.9066 32.9416 92.3169 33.9822 92.4121C35.1953 92.525 36.4143 92.6618 37.6095 92.8997C42.1228 93.8035 46.3209 95.7123 50.6796 97.1097C57.1611 99.1849 63.6902 99.3812 70.2906 97.8113C74.8693 96.7232 79.0258 94.5468 83.325 92.7391C90.0859 89.9027 96.8172 87.0068 103.548 84.1169C105.862 83.1239 106.89 80.9475 106.123 78.8009C105.374 76.7018 103.126 75.7504 100.706 76.5175C100.54 76.571 100.373 76.6245 100.213 76.684C92.4764 79.4015 84.7402 82.1308 76.9921 84.8126C75.3152 85.3954 73.6919 86.1862 71.8366 86.1743C66.9963 86.1387 62.1501 86.1684 57.3038 86.1565C56.7865 86.1565 56.2513 86.1089 55.7518 85.9841C55.1512 85.8295 54.7766 85.3954 54.7706 84.7472C54.7706 84.0991 55.1334 83.6531 55.7399 83.5044C56.281 83.3736 56.8578 83.326 57.4227 83.326C62.4414 83.3142 67.4601 83.4034 72.4788 83.2785C75.226 83.2071 76.7186 82.1368 76.9802 80.335C77.3429 77.8138 75.785 75.911 73.1508 75.7802C71.5393 75.7029 69.9219 75.7266 68.3105 75.7564C63.3155 75.8515 58.6358 74.6503 54.1879 72.4324C52.077 71.3799 49.9065 70.482 47.6172 69.8635C42.9434 68.6029 38.1804 68.9597 33.4352 68.9419C32.4421 68.9419 32.5254 69.6911 32.5254 70.3392C32.5254 73.7406 32.5254 77.1478 32.5254 80.5491L32.5016 80.5551ZM43.4667 48.1237C45.3873 48.088 47.4448 48.6113 48.9551 46.8155C49.7519 45.8641 50.4239 46.0306 51.292 46.9047C58.6952 54.3733 66.146 61.7884 73.5789 69.2213C75.006 70.6485 75.3925 70.6544 76.784 69.263C84.5618 61.4911 92.3218 53.7073 100.106 45.9474C103.108 42.9564 104.631 39.3945 104.5 35.1369C104.321 29.143 101.479 24.7487 96.1215 22.2928C90.6627 19.7894 85.4121 20.5803 80.7086 24.4513C79.0555 25.8131 77.5986 27.3829 76.1061 28.9111C75.4104 29.6247 74.9347 29.583 74.2865 28.8873C73.2162 27.7397 72.0804 26.6515 70.9625 25.5455C66.1103 20.7349 58.2671 20.1521 52.5705 24.1778C46.8382 28.2332 44.763 35.9099 47.7242 42.0941C48.6043 43.9316 48.4437 44.4132 46.6717 45.3706C46.2257 45.6144 45.75 45.6144 45.2743 45.6144C43.6153 45.6144 41.9563 45.6144 40.3032 45.6203C39.5421 45.6203 38.8761 45.8106 38.8107 46.7204C38.7453 47.6659 39.3577 48.0761 40.1843 48.1178C41.2725 48.1772 42.3666 48.1297 43.4548 48.1297L43.4667 48.1237ZM29.8317 79.6036H29.8436C29.8436 74.8941 29.8555 70.1787 29.8376 65.4692C29.8317 63.5902 28.9397 62.4247 27.2748 61.9846C25.1995 61.4376 23.2788 62.0144 22.375 63.5069C21.8101 64.4345 21.7685 65.493 21.7685 66.5455C21.7685 75.2688 21.7685 83.998 21.7685 92.7213C21.7685 93.4646 21.816 94.2019 22.0182 94.9214C22.2798 95.8669 22.8507 96.5983 23.7308 96.9551C27.2391 98.3703 29.9625 96.3545 29.8614 93.2148C29.7128 88.6837 29.8258 84.1407 29.8258 79.6036H29.8317Z" fill="url(#paint0_linear_297_75)"/>
<path d="M81.6658 38.5323C79.8759 38.5323 78.0861 38.5977 76.3022 38.5085C75.0713 38.449 74.2626 38.9366 73.5252 39.8583C71.4202 42.4747 69.2379 45.0257 67.1329 47.6421C66.5145 48.4092 66.2112 48.32 65.7474 47.5232C63.8268 44.1992 61.8704 40.8989 59.9141 37.5928C59.0697 36.1716 58.3799 36.0527 57.0955 37.0873C55.2283 38.5977 53.3553 40.0902 51.5297 41.6482C50.8043 42.2725 50.394 42.3379 49.8291 41.4282C45.292 34.1379 50.7329 23.7319 59.3254 23.3037C63.1608 23.1134 66.4372 24.2968 69.1368 27.0618C70.6888 28.6554 72.2706 30.2253 73.8523 31.7832C75.0356 32.9487 75.5291 32.9546 76.6946 31.807C78.4666 30.0588 80.1613 28.2392 81.9869 26.5504C85.8044 23.0183 90.2701 22.2393 94.9618 24.273C99.5464 26.259 101.99 29.9696 102.193 35.0477C102.341 38.6274 101.009 41.6184 98.5236 44.1159C91.1086 51.5726 83.6637 58.9996 76.2606 66.4682C75.4518 67.2828 74.9702 67.2947 74.1555 66.4741C67.1508 59.4099 60.1103 52.3754 53.052 45.3646C52.2671 44.5857 52.2195 44.1278 53.1531 43.4499C54.4553 42.5044 55.6624 41.4222 56.9112 40.3994C58.1539 39.3886 58.2312 39.3945 59.034 40.7384C60.9368 43.9197 62.8218 47.1129 64.7306 50.2941C65.8426 52.1553 66.5383 52.1851 67.9238 50.4963C70.2785 47.6361 72.669 44.7997 74.9999 41.9158C75.6302 41.1368 76.32 40.7919 77.3428 40.8097C80.7025 40.8633 84.0621 40.8276 87.4218 40.8276C87.8975 40.8276 88.3911 40.8751 88.8133 40.5719C89.2057 40.2805 89.3306 39.8762 89.2236 39.4123C89.069 38.7404 88.5516 38.5382 87.9392 38.5323C85.846 38.5263 83.7529 38.5323 81.6539 38.5323V38.5204L81.6658 38.5323Z" fill="url(#paint1_linear_297_75)"/>
<defs>
<linearGradient id="paint0_linear_297_75" x1="60.0001" y1="0" x2="60.0001" y2="120" gradientUnits="userSpaceOnUse">
<stop stop-color="#1D86C4"/>
<stop offset="1" stop-color="#87BC48"/>
</linearGradient>
<linearGradient id="paint1_linear_297_75" x1="75.1971" y1="23.1673" x2="75.1971" y2="67.0844" gradientUnits="userSpaceOnUse">
<stop stop-color="#1D86C4"/>
<stop offset="1" stop-color="#87BC48"/>
</linearGradient>
</defs>
</svg>
