<svg width="60" height="60" viewBox="0 0 60 60" fill="none" xmlns="http://www.w3.org/2000/svg">
<path d="M8.17149 10.4731C7.95212 10.7192 7.74345 10.9761 7.55083 11.249C5.80654 12.7953 4.42611 16.1929 5.2394 20.377C8.71726 38.5047 23.9877 52.3145 42.3723 53.9624C42.7682 53.9999 43.1642 54.016 43.5547 54.016C45.6682 54.016 47.6586 53.497 49.2477 52.5178C50.0128 52.0737 50.6977 51.5226 51.2756 50.8805L52.854 49.1363C55.9306 45.7333 55.6684 40.4576 52.2654 37.3757L49.6009 34.968C48.0653 33.5822 46.0856 32.8171 44.0202 32.8171C41.6713 32.8171 39.4187 33.8176 37.8457 35.5565L36.2673 37.3008C35.6519 37.9803 35.1543 38.7508 34.7959 39.5855C28.5036 36.937 23.3403 32.2124 20.1461 26.177C21.3018 25.7062 22.3451 24.9785 23.1905 24.0475L24.7689 22.3032C26.2617 20.6552 27.0215 18.5204 26.9091 16.2999C26.7968 14.0794 25.8283 12.0355 24.1804 10.5427L21.5158 8.13493C19.9802 6.74913 18.0005 5.98401 15.9351 5.98401C13.5862 5.98401 11.3337 6.98456 9.76061 8.72349L8.17149 10.4731ZM11.339 10.1628C12.5108 8.86796 14.1802 8.12957 15.9298 8.12957C17.4654 8.12957 18.9368 8.69674 20.0765 9.7294L22.7411 12.1371C23.9663 13.2447 24.6887 14.7643 24.7689 16.4176C24.8545 18.0709 24.2874 19.6547 23.1798 20.88L21.6014 22.6242C20.847 23.4643 19.8785 24.0742 18.8031 24.4006L18.3215 24.5451C18.0219 24.6361 17.7757 24.8554 17.6473 25.1444C17.5243 25.4333 17.5296 25.765 17.6687 26.0486L17.8935 26.498C21.3874 33.5126 27.3265 38.9648 34.614 41.8434L35.0313 42.0093C35.3042 42.1163 35.6092 42.1056 35.8767 41.9826C36.1442 41.8595 36.3475 41.6294 36.4385 41.3512L36.5776 40.9339C36.8505 40.1259 37.2785 39.3929 37.851 38.7562L39.4295 37.0119C40.6012 35.7171 42.276 34.9733 44.0202 34.9733C45.5559 34.9733 47.0273 35.5405 48.1669 36.5731L50.8315 38.9809C53.3623 41.2656 53.5549 45.1875 51.2702 47.7184L49.6918 49.4626C49.2584 49.9388 48.7501 50.3508 48.1562 50.6986C46.642 51.6296 44.6623 52.0363 42.5702 51.849C25.1328 50.2866 10.6488 37.1831 7.34752 19.9918C6.65195 16.3855 7.96281 13.737 9.01687 12.8381C9.04898 12.8113 9.08108 12.7792 9.11318 12.7418L9.18809 12.6615C9.2202 12.624 9.24697 12.5919 9.27372 12.5491C9.42354 12.3298 9.5894 12.1211 9.76596 11.9231L11.339 10.1628Z" fill="#87BD49"/>
</svg>
