<svg width="60" height="60" viewBox="0 0 60 60" fill="none" xmlns="http://www.w3.org/2000/svg">
<path d="M47.52 22.2981C47.8597 20.9003 48.0324 19.4691 48.0324 18.0323C48.0324 8.09169 39.9463 0 30.0001 0C20.0595 0 11.9678 8.08612 11.9678 18.0323C11.9678 19.4635 12.1404 20.9003 12.4801 22.2981C12.9646 25.2218 13.6218 27.5831 14.446 29.3094C16.2169 33.0295 23.6737 45.3147 27.0931 50.9115C22.4653 51.5018 20.3157 53.4899 20.3157 55.3667C20.3157 57.5998 23.3452 60 29.9945 60C36.6439 60 39.6678 57.5998 39.6678 55.3667C39.6678 53.4899 37.5182 51.5018 32.8904 50.9115C36.3153 45.3147 43.7721 33.0295 45.5431 29.3094C46.3784 27.5831 47.0411 25.2218 47.52 22.2981ZM36.8889 55.3667C36.6995 55.8957 34.3717 57.2155 30.0001 57.2155C25.5783 57.2155 23.2449 55.8623 23.1057 55.3833C23.2282 54.9211 25.1328 53.7851 28.7248 53.5567C28.7638 53.6236 28.7972 53.6737 28.8139 53.7015C29.0701 54.1136 29.5156 54.3642 30.0001 54.3642C30.4846 54.3642 30.9301 54.1136 31.1863 53.7015C31.203 53.6737 31.2364 53.6236 31.2754 53.5567C34.8228 53.7851 36.7218 54.8933 36.8889 55.3667ZM44.808 21.6855C44.7968 21.7189 44.7913 21.7579 44.7857 21.7913C44.3513 24.4422 43.7499 26.6308 43.0426 28.1121C41.255 31.8712 33.0909 45.2757 30.0057 50.3156C26.9205 45.2757 18.7563 31.8712 16.9687 28.1121C16.2615 26.6308 15.66 24.4422 15.2256 21.7913C15.2201 21.7524 15.2145 21.7189 15.2033 21.6855C14.9082 20.4882 14.7578 19.263 14.7578 18.0323C14.7578 9.62873 21.5965 2.78447 30.0057 2.78447C38.4092 2.78447 45.2535 9.62316 45.2535 18.0323C45.2479 19.263 45.0975 20.4882 44.808 21.6855Z" fill="#89BD46"/>
<path d="M30.0058 7.89697C24.6707 7.89697 20.3269 12.2352 20.3269 17.5703C20.3269 22.9054 24.6651 27.2436 30.0058 27.2436C35.3408 27.2436 39.6791 22.9054 39.6791 17.5703C39.6791 12.2352 35.3408 7.89697 30.0058 7.89697ZM30.0058 24.4646C26.2077 24.4646 23.1114 21.3739 23.1114 17.5758C23.1114 13.7778 26.2022 10.687 30.0058 10.687C33.8038 10.687 36.8946 13.7778 36.8946 17.5758C36.8946 21.3739 33.8038 24.4646 30.0058 24.4646Z" fill="#89BD46"/>
</svg>
