<svg width="60" height="60" viewBox="0 0 60 60" fill="none" xmlns="http://www.w3.org/2000/svg">
<path d="M1.23546 26.2564C0.463297 26.9639 0 27.8584 0 28.8351V50.7921C0 53.0558 2.49562 54.8996 5.55956 54.8996H6.31321L6.44909 55L6.58501 54.8996H53.415L53.5509 55L53.6868 54.8996H54.4404C57.5044 54.8996 60 53.0558 60 50.7921V28.8351C60 27.8584 59.5367 26.9639 58.7645 26.2564C58.7707 25.9735 58.6286 25.686 58.3321 25.4669L31.0471 5.30806C30.4911 4.89731 29.5089 4.89731 28.9591 5.30806L1.67406 25.4669C1.37137 25.686 1.22928 25.9735 1.23546 26.2564ZM9.05592 53.0786L22.9981 42.7778L28.9529 47.1775C29.2309 47.3828 29.6077 47.4969 29.9969 47.4969C30.3861 47.4969 30.7629 47.3828 31.0409 47.1775L36.9958 42.7778L50.9379 53.0786H9.05592ZM13.5283 33.3077V25.6403H46.9659V32.938L30.0031 45.4751L13.5283 33.3077ZM57.5291 28.8351V50.7921C57.5291 51.892 56.4666 52.8139 55.0644 53.0284L39.0961 41.2307L57.214 27.8447C57.4055 28.1459 57.5291 28.4791 57.5291 28.8351ZM29.9969 7.62653L55.1941 26.2428L48.7388 31.012V24.9831C48.7388 24.6226 48.3435 24.3305 47.8493 24.3305H12.6387C12.1507 24.3305 11.7492 24.6226 11.7492 24.9831V31.3772L4.79976 26.2428L29.9969 7.62653ZM2.47092 28.8351C2.47092 28.4791 2.59447 28.1459 2.79215 27.8447L20.9101 41.2307L4.94183 53.0284C3.53341 52.8139 2.4771 51.8965 2.4771 50.7921V28.8351H2.47092Z" fill="#89BD47"/>
</svg>
