<svg width="470" height="353" viewBox="0 0 470 353" fill="none" xmlns="http://www.w3.org/2000/svg">
<g filter="url(#filter0_d_155_6725)">
<path d="M412.293 312.949C465.533 258.509 442.483 174.039 339.333 154.769C236.183 135.499 213.943 20.0686 120.133 44.1385C26.333 68.2185 -9.28696 245.499 86.983 312.949H412.293Z" fill="#FFF8F8"/>
<path d="M405.738 298.982H412.298V134.712H405.738V298.982Z" fill="#3B364D"/>
<path d="M164.753 312.949C164.753 315.329 143.883 317.259 118.133 317.259C92.3829 317.259 71.5129 315.329 71.5129 312.949C71.5129 310.569 92.3829 308.639 118.133 308.639C143.883 308.639 164.753 310.569 164.753 312.949Z" fill="#FFE5E2"/>
<path d="M291.023 326.479C341.071 326.479 381.643 322.485 381.643 317.559C381.643 312.632 341.071 308.639 291.023 308.639C240.975 308.639 200.403 312.632 200.403 317.559C200.403 322.485 240.975 326.479 291.023 326.479Z" fill="#FFE5E2"/>
<path d="M169.903 145.639H43.5029C37.5629 145.639 32.7429 140.819 32.7429 134.879V25.2786C32.7429 19.3386 37.5629 14.5186 43.5029 14.5186H169.903C175.843 14.5186 180.663 19.3386 180.663 25.2786V134.879C180.653 140.819 175.843 145.639 169.903 145.639Z" fill="#AAB2C8"/>
<path d="M170.623 25.3586H42.7729V134.799H170.623V25.3586Z" fill="#E0E7FF"/>
<path d="M106.703 25.3586V134.799" stroke="#AAB2C8" stroke-miterlimit="10"/>
<path d="M170.633 80.0786H42.7729" stroke="#AAB2C8" stroke-miterlimit="10"/>
<path opacity="0.54" d="M98.713 25.3586L55.833 134.719H74.793L118.133 25.3586H98.713Z" fill="white"/>
<path opacity="0.54" d="M131.863 25.3586L88.9829 134.719H107.953L151.293 25.3586H131.863Z" fill="white"/>
<path d="M436.723 128.839H310.823V140.579H436.723V128.839Z" fill="#773C4D"/>
<path d="M436.723 128.839H356.423V140.579H436.723V128.839Z" fill="#965363"/>
<path d="M402.303 128.839H338.083C335.843 128.839 334.033 127.029 334.033 124.789V114.029C334.033 111.789 335.843 109.979 338.083 109.979H402.303V128.839Z" fill="#61648A"/>
<path d="M403.393 113.969H338.983V124.859H403.393V113.969Z" fill="#EDF1FC"/>
<path d="M384.803 113.969H338.823V124.859H384.803V113.969Z" fill="#E0E7FF"/>
<path d="M391.753 109.979H327.533C325.293 109.979 323.483 108.169 323.483 105.929V95.1685C323.483 92.9285 325.293 91.1185 327.533 91.1185H391.753V109.979Z" fill="#FFC55A"/>
<path d="M392.693 95.1086H328.283V105.999H392.693V95.1086Z" fill="#EDF1FC"/>
<path d="M374.583 95.1086H328.283V105.999H374.583V95.1086Z" fill="#E0E7FF"/>
<path d="M406.313 91.1286H342.093C339.853 91.1286 338.043 89.3186 338.043 87.0786V76.3186C338.043 74.0786 339.853 72.2686 342.093 72.2686H406.313V91.1286Z" fill="#AF2F48"/>
<path d="M407.473 76.2485H343.063V87.1385H407.473V76.2485Z" fill="#EDF1FC"/>
<path d="M386.253 76.2485H342.843V87.1385H386.253V76.2485Z" fill="#E0E7FF"/>
<path d="M334.793 225.969C334.883 239.999 333.553 253.369 329.933 265.409C329.933 265.419 329.923 265.429 329.923 265.439C319.763 299.129 291.503 322.349 225.433 320.199C135.763 317.279 119.473 233.899 111.953 155.939C105.843 92.6786 124.863 46.1286 181.943 30.8086C195.213 27.2486 210.553 25.3686 228.113 25.3686C308.803 25.3586 334.453 172.619 334.793 225.969Z" fill="#FFC55A"/>
<path d="M329.923 265.429C319.763 299.119 291.503 322.339 225.433 320.189C135.763 317.269 119.473 233.889 111.953 155.929C105.843 92.6686 124.863 46.1186 181.943 30.7986C132.923 60.6786 120.743 115.129 140.783 197.949C160.813 280.769 211.363 304.859 244.093 304.909C276.823 304.969 317.903 294.289 329.923 265.429Z" fill="#F49947"/>
<path d="M205.383 103.539C141.423 114.929 169.323 206.289 183.463 231.879C197.603 257.459 203.623 287.759 236.293 289.109C268.963 290.459 310.703 275.639 314.743 264.869C318.783 254.099 300.303 197.949 300.303 197.949C300.303 197.949 297.743 141.129 280.043 126.199C262.343 111.269 226.633 99.7586 205.383 103.539Z" fill="#F49947"/>
<path d="M291.023 257.629C279.343 279.469 239.513 287.149 225.873 283.689C217.843 281.649 208.203 274.359 199.443 263.889C193.843 254.029 189.363 242.539 183.473 231.879C181.253 227.869 178.713 222.259 176.233 215.589C171.363 192.129 171.503 164.269 180.663 154.779C193.103 141.909 205.173 132.839 206.043 124.869C206.713 118.609 199.613 110.359 201.043 104.489C202.433 104.129 203.883 103.819 205.393 103.559C222.893 100.439 250.203 107.699 269.193 118.699C271.023 125.619 271.183 134.889 275.473 137.899C282.083 142.499 292.293 171.359 294.883 184.919C297.453 198.449 291.023 257.629 291.023 257.629Z" fill="#F27C49"/>
<path d="M377.903 292.269C378.423 300.489 402.203 289.999 405.343 285.449C405.343 285.449 392.323 322.869 385.543 322.869C378.763 322.869 360.283 303.379 360.283 303.379L362.503 292.269H377.903Z" fill="#AF2F48"/>
<path d="M385.543 322.869C378.163 326.029 396.603 279.509 405.343 280.559C414.083 281.609 395.073 318.789 385.543 322.869Z" fill="#D35473"/>
<path d="M380.723 238.399C380.243 262.449 373.993 292.279 373.993 292.279H358.593C358.593 292.279 349.133 271.979 344.693 251.549C343.573 246.429 342.783 241.289 342.533 236.469C342.533 236.469 318.673 243.689 295.583 239.349C285.983 237.549 275.103 234.499 265.673 231.549C252.443 227.419 242.063 223.479 242.063 223.479L242.843 222.489L259.683 201.189L305.003 194.369L310.313 193.569L342.533 203.559C371.113 206.649 381.213 214.339 380.723 238.399Z" fill="#31344C"/>
<path opacity="0.54" d="M344.693 251.549C343.573 246.429 342.783 241.289 342.533 236.469C342.533 236.469 318.673 243.689 295.583 239.349C285.983 237.549 275.103 234.499 265.673 231.549L242.843 222.489L240.843 221.699L237.063 205.939L285.803 188.909L305.003 194.369L337.243 203.539C329.453 217.539 345.133 234.089 348.573 239.069C352.013 244.049 361.803 236.009 368.013 239.069C374.213 242.129 349.633 240.669 344.693 251.549Z" fill="#232433"/>
<path d="M353.793 305.739C360.873 321.119 371.363 328.469 376.963 326.019L374.513 300.489L364.373 296.119L353.793 305.739Z" fill="#AF2F48"/>
<path d="M376.963 326.019C364.503 328.099 366.823 303.979 367.523 292.269C368.223 280.559 378.013 281.609 379.063 290.699C380.103 299.789 385.353 324.619 376.963 326.019Z" fill="#D35473"/>
<path d="M364.373 296.119L353.793 305.739C310.493 293.229 285.003 253.789 285.003 253.789C260.953 281.689 234.013 287.949 212.333 253.789C212.333 253.789 213.703 238.609 231.283 226.899C234.693 224.619 238.713 222.469 243.463 220.599C262.263 213.159 287.263 211.709 302.673 211.619C311.973 211.569 320.683 216.099 326.043 223.689C335.103 236.499 343.743 252.389 350.523 266.019C358.863 282.779 364.373 296.119 364.373 296.119Z" fill="#383952"/>
<path opacity="0.54" d="M364.373 296.119L353.793 305.739C310.493 293.229 285.003 253.789 285.003 253.789C260.953 281.689 234.013 287.949 212.333 253.789C212.333 253.789 213.703 238.609 231.283 226.899L249.433 223.539C228.253 265.129 279.173 255.429 288.353 247.849C297.543 240.259 306.213 232.659 310.313 232.239C314.413 231.819 292.773 247.809 308.043 266.019C323.303 284.229 358.523 295.579 350.533 266.019C358.863 282.779 364.373 296.119 364.373 296.119Z" fill="#232433"/>
<path d="M258.853 88.9786H258.213C258.213 88.9786 251.803 113.529 240.863 122.679C238.893 124.329 236.773 125.479 234.523 125.899C219.763 128.629 206.913 111.819 204.483 100.289C203.123 93.8386 205.523 89.8785 207.903 87.6585C209.773 85.8785 211.633 85.1886 211.633 85.1886C211.633 85.1886 212.603 66.9986 218.933 67.3286C225.023 67.6386 224.003 70.0585 223.923 70.2385C224.313 69.7185 237.573 52.0886 246.683 54.0086C255.943 55.9586 249.443 69.5886 249.443 69.5886C249.443 69.5886 261.133 57.7486 265.023 64.5586C268.923 71.3786 257.393 79.6585 257.393 79.6585C257.393 79.6585 267.293 79.4986 268.273 83.0786C269.243 86.6386 267.783 90.0586 258.853 88.9786Z" fill="#6D3744"/>
<path d="M240.853 122.679C238.883 124.329 236.763 125.479 234.513 125.899C219.753 128.629 206.903 111.819 204.473 100.289C203.113 93.8386 205.513 89.8786 207.893 87.6586C210.093 90.5086 213.023 96.2286 219.733 88.9786H222.843L240.853 122.679Z" fill="#542633"/>
<path d="M280.043 195.719L212.663 258.179C209.383 255.229 206.533 252.159 204.073 248.959H204.063C199.483 243.049 196.193 236.739 193.853 230.159C192.103 225.219 190.883 220.129 190.083 214.939C188.233 203.099 188.493 190.729 189.233 178.439C190.983 149.659 199.683 130.439 234.233 129.959C234.233 129.959 250.073 125.529 261.793 131.849C271.013 136.809 277.023 173.479 279.163 188.909C279.753 193.089 280.043 195.719 280.043 195.719Z" fill="#61648A"/>
<path opacity="0.36" d="M265.693 167.269C230.223 180.569 215.533 154.769 215.533 154.769L204.063 195.999L228.603 203.559L271.333 199.109L265.693 167.269Z" fill="#383952"/>
<path opacity="0.36" d="M280.043 195.719L212.663 258.179C209.383 255.229 206.533 252.159 204.073 248.959C215.793 248.069 240.973 220.039 234.363 218.579C228.443 217.279 208.073 231.139 193.863 230.159C192.113 225.219 190.893 220.129 190.093 214.939L211.743 195.989L279.173 188.899C279.753 193.089 280.043 195.719 280.043 195.719Z" fill="#383952"/>
<path d="M242.063 187.419C249.973 182.069 259.193 186.529 262.453 188.909C265.723 191.289 262.453 197.529 262.453 197.529C262.453 197.529 258.883 195.449 257.703 195.149C256.513 194.849 250.783 199.309 239.383 197.529C227.993 195.739 242.063 187.419 242.063 187.419Z" fill="#F4B8AB"/>
<path d="M195.823 150.099C211.343 138.529 220.133 148.699 219.383 168.699C218.633 188.699 218.633 188.699 218.633 188.699C218.633 188.699 238.423 182.379 243.273 182.379C243.273 182.379 243.693 196.069 243.273 200.979C243.273 200.979 219.343 224.139 203.553 225.899C187.763 227.649 190.923 196.419 189.513 182.039C188.103 167.639 190.433 154.119 195.823 150.099Z" fill="#61648A"/>
<path d="M259.723 198.449L271.493 150.759C272.693 145.899 277.053 142.479 282.063 142.479H349.613C354.053 142.479 357.293 146.659 356.193 150.959L342.563 200.819L259.723 198.449Z" fill="#C3C9F4"/>
<path d="M264.453 198.449L276.223 150.759C277.423 145.899 281.783 142.479 286.793 142.479H354.343C358.783 142.479 362.023 146.659 360.923 150.959L347.293 200.819L264.453 198.449Z" fill="#E0E7FF"/>
<path d="M327.783 203.199H241.843C240.533 203.199 239.463 202.139 239.463 200.819C239.463 199.509 240.523 198.439 241.843 198.439H327.783C329.093 198.439 330.163 199.499 330.163 200.819C330.163 202.139 329.103 203.199 327.783 203.199Z" fill="#C3C9F4"/>
<path d="M348.043 203.199H262.103C260.793 203.199 259.723 202.139 259.723 200.819C259.723 199.509 260.783 198.439 262.103 198.439H348.043C349.353 198.439 350.423 199.499 350.423 200.819C350.423 202.139 349.363 203.199 348.043 203.199Z" fill="#E0E7FF"/>
<path d="M319.313 171.519C318.183 177.719 315.373 182.399 313.033 181.969C310.703 181.539 309.723 176.169 310.863 169.969C311.993 163.769 314.803 159.089 317.143 159.519C319.463 159.949 320.443 165.319 319.313 171.519Z" fill="#C3C9F4"/>
<path d="M262.703 92.9686C264.203 114.929 260.703 124.659 248.233 125.899V131.009C248.233 134.799 245.163 137.869 241.373 137.869C237.583 137.869 234.513 134.799 234.513 131.009V125.899C234.513 125.899 224.533 121.659 222.533 115.419C220.533 109.179 222.533 114.419 222.533 114.419L221.643 88.9686H263.023L262.703 92.9686Z" fill="#F4B8AB"/>
<path d="M223.163 104.859C220.023 99.1385 216.333 101.539 215.593 104.859C214.853 108.179 221.503 116.269 223.163 113.429C224.823 110.579 223.163 104.859 223.163 104.859Z" fill="#F4B8AB"/>
<path d="M216.283 86.1586C222.963 94.2786 241.903 98.4986 248.753 96.5486C255.603 94.5986 245.863 88.2686 245.863 88.2686C245.863 88.2686 258.573 97.0386 264.393 94.1086C270.213 91.1886 254.523 84.0386 254.523 84.0386L216.283 86.1586Z" fill="#6D3744"/>
<path d="M238.973 103.539C238.973 104.709 238.763 105.669 238.503 105.669C238.243 105.669 238.033 104.719 238.033 103.539C238.033 102.369 238.243 101.409 238.503 101.409C238.763 101.409 238.973 102.359 238.973 103.539Z" stroke="#191918" stroke-width="2" stroke-miterlimit="10"/>
<path d="M252.463 103.539C252.463 104.709 252.253 105.669 251.993 105.669C251.733 105.669 251.523 104.719 251.523 103.539C251.523 102.369 251.733 101.409 251.993 101.409C252.253 101.409 252.463 102.359 252.463 103.539Z" stroke="#191918" stroke-width="2" stroke-miterlimit="10"/>
<path d="M247.033 115.399C240.573 115.549 235.563 110.899 235.563 110.899" stroke="#E56A85" stroke-miterlimit="10" stroke-linecap="round"/>
<path opacity="0.53" d="M248.233 125.899C242.703 126.399 236.303 126.189 236.303 126.189L248.233 131.009V125.899Z" fill="#DD6595"/>
<path opacity="0.53" d="M222.833 106.399C220.033 103.459 218.663 104.669 218.853 107.719C219.043 110.769 222.713 112.959 223.913 112.079C225.093 111.209 222.833 106.399 222.833 106.399Z" fill="#DD6595"/>
<path d="M113.433 259.299C101.023 254.739 94.1831 256.509 90.3931 251.449C90.3931 251.449 100.523 249.679 106.093 251.449L113.433 259.299Z" fill="#7C9E1E"/>
<path d="M106.083 251.449C91.003 243.569 86.533 234.629 82.703 228.449C78.873 222.269 76.743 217.159 75.253 216.739C73.763 216.309 81.433 217.799 88.673 225.039C95.913 232.279 98.893 233.339 104.643 239.089C110.393 244.839 115.503 253.299 116.143 259.289H113.443L106.083 251.449Z" fill="#B7AC15"/>
<path d="M110.383 249.319C102.233 236.819 109.553 229.639 99.733 215.459C88.233 198.849 91.853 182.239 93.553 171.809C93.553 171.809 91.003 183.949 101.013 195.769C111.023 207.589 120.813 212.159 121.663 229.779C122.513 247.399 119.103 259.299 119.103 259.299H113.413L110.383 249.319Z" fill="#7C9E1E"/>
<path d="M117.803 259.299C115.073 247.589 120.393 227.599 120.823 207.799C121.253 187.999 110.173 173.299 126.573 154.779C126.573 154.779 123.163 158.189 127.853 171.809C132.533 185.439 142.973 199.699 137.863 218.019C132.753 236.329 121.743 251.329 121.813 259.299H117.803Z" fill="#B7AC15"/>
<path d="M121.803 259.299C120.103 245.249 134.443 223.339 146.583 218.439C146.583 218.439 147.863 229.209 139.983 237.979C132.103 246.759 126.243 259.289 126.243 259.289H121.803V259.299Z" fill="#A88F14"/>
<path d="M126.243 259.299C126.773 249.959 134.873 246.679 143.173 244.279C143.173 244.279 133.163 254.379 131.463 259.299H126.243Z" fill="#426313"/>
<path opacity="0.36" d="M130.143 260.359C131.553 253.279 134.753 251.059 134.163 250.659C133.583 250.259 129.953 256.209 128.123 259.299C128.123 259.299 125.693 251.229 129.333 244.279C132.973 237.329 136.403 232.069 136.403 232.069C136.403 232.069 124.683 245.609 124.073 252.459C124.073 252.459 122.863 245.579 124.883 236.699C126.903 227.819 132.163 219.329 130.243 208.819C128.323 198.309 126.243 187.089 126.243 187.089C126.243 187.089 127.113 197.779 128.123 207.039C129.133 216.299 126.383 221.149 123.713 231.059C121.043 240.969 122.533 255.059 121.383 254.989C120.233 254.919 118.413 257.539 118.413 257.539C118.413 257.539 117.193 242.379 115.373 229.439C113.553 216.499 113.763 214.759 105.873 207.039C97.993 199.319 96.983 194.599 96.983 194.599C96.983 194.599 102.303 205.179 106.723 212.049C111.133 218.919 112.553 221.949 112.553 234.079C112.553 246.209 113.163 253.029 114.173 254.969C115.183 256.919 106.693 243.439 100.023 238.859C93.353 234.279 87.893 228.009 87.283 226.999C86.673 225.989 93.753 238.719 99.003 242.159C104.263 245.599 113.423 257.319 113.423 257.319L98.403 253.279L115.383 260.359H130.143Z" fill="#426313"/>
<path d="M143.533 263.069L135.543 309.099C135.443 309.659 135.253 310.169 134.983 310.639C134.173 312.029 132.663 312.949 130.963 312.949H102.213C99.933 312.949 97.993 311.299 97.623 309.049L90.133 263.019C89.673 260.189 91.853 257.629 94.723 257.629H138.943C141.833 257.629 144.023 260.219 143.533 263.069Z" fill="#3A3852"/>
<path opacity="0.54" d="M134.983 310.639C134.173 312.029 132.663 312.949 130.963 312.949H102.213C99.933 312.949 97.993 311.299 97.623 309.049L90.133 263.019C89.673 260.189 91.853 257.629 94.723 257.629H109.933C95.833 279.529 119.353 304.979 134.983 310.639Z" fill="#232433"/>
<path d="M183.463 231.869C189.353 242.539 193.843 254.019 199.433 263.879C193.303 256.569 187.603 247.699 183.173 237.979C180.333 231.759 177.963 223.949 176.223 215.579C178.703 222.249 181.253 227.859 183.463 231.869Z" fill="#FFC55A"/>
</g>
<defs>
<filter id="filter0_d_155_6725" x="-26" y="0.518555" width="510" height="351.963" filterUnits="userSpaceOnUse" color-interpolation-filters="sRGB">
<feFlood flood-opacity="0" result="BackgroundImageFix"/>
<feColorMatrix in="SourceAlpha" type="matrix" values="0 0 0 0 0 0 0 0 0 0 0 0 0 0 0 0 0 0 127 0" result="hardAlpha"/>
<feOffset dx="-6" dy="6"/>
<feGaussianBlur stdDeviation="10"/>
<feComposite in2="hardAlpha" operator="out"/>
<feColorMatrix type="matrix" values="0 0 0 0 0 0 0 0 0 0 0 0 0 0 0 0 0 0 0.1 0"/>
<feBlend mode="normal" in2="BackgroundImageFix" result="effect1_dropShadow_155_6725"/>
<feBlend mode="normal" in="SourceGraphic" in2="effect1_dropShadow_155_6725" result="shape"/>
</filter>
</defs>
</svg>
