<svg width="20" height="20" viewBox="0 0 20 20" fill="none" xmlns="http://www.w3.org/2000/svg">
<path d="M2.77437 7.22719C2.5804 7.46771 2.46402 7.77185 2.46402 8.10392V15.5693C2.46402 16.339 3.09092 16.9659 3.86058 16.9659H4.0499L4.08403 17L4.11817 16.9659H15.8819L15.916 17L15.9501 16.9659H16.1394C16.9091 16.9659 17.536 16.339 17.536 15.5693V8.10392C17.536 7.77185 17.4196 7.46771 17.2256 7.22719C17.2272 7.13098 17.1915 7.03322 17.117 6.95874L10.263 0.104742C10.1234 -0.034914 9.87665 -0.034914 9.73854 0.104742L2.88454 6.95874C2.80851 7.03322 2.77281 7.13098 2.77437 7.22719ZM4.73886 16.3467L8.24113 12.8445L9.73699 14.3403C9.80682 14.4102 9.90147 14.449 9.99923 14.449C10.097 14.449 10.1916 14.4102 10.2615 14.3403L11.7573 12.8445L15.2596 16.3467H4.73886ZM5.86232 9.62462V7.01771H14.2618V9.49893L10.0008 13.7615L5.86232 9.62462ZM16.9153 8.10392V15.5693C16.9153 15.9433 16.6484 16.2567 16.2962 16.3297L12.2849 12.3184L16.8362 7.76719C16.8843 7.86961 16.9153 7.98288 16.9153 8.10392ZM9.99923 0.89302L16.3288 7.22254L14.7072 8.84409V6.79426C14.7072 6.67167 14.6079 6.57236 14.4837 6.57236H5.63887C5.51628 6.57236 5.41542 6.67167 5.41542 6.79426V8.96824L3.66972 7.22254L9.99923 0.89302ZM3.08471 8.10392C3.08471 7.98288 3.11575 7.86961 3.16541 7.76719L7.71664 12.3184L3.70541 16.3297C3.35161 16.2567 3.08627 15.9448 3.08627 15.5693V8.10392H3.08471Z" fill="white"/>
</svg>
