<svg width="25" height="26" viewBox="0 0 25 26" fill="none" xmlns="http://www.w3.org/2000/svg">
<path d="M12.5 0.5C5.59657 0.5 0 6.09657 0 13C0 19.9034 5.59657 25.5 12.5 25.5C19.4034 25.5 25 19.9034 25 13C25 6.09404 19.4034 0.5 12.5 0.5ZM17.3003 6.82458H15.5612C14.1962 6.82458 13.9333 7.47423 13.9333 8.42468V10.5228H17.1866L16.7619 13.8089H13.9307V22.2391H10.5384V13.8089H7.70223V10.5228H10.5384V8.09858C10.5384 5.28766 12.2573 3.75582 14.7649 3.75582C15.9656 3.75582 16.9995 3.84429 17.3003 3.88474V6.82458Z" fill="#00C4FF"/>
</svg>
