<svg width="25" height="26" viewBox="0 0 25 26" fill="none" xmlns="http://www.w3.org/2000/svg">
<path d="M12.5 0.5C5.59657 0.5 0 6.09655 0 13C0 19.9034 5.59657 25.5 12.5 25.5C19.4034 25.5 25 19.9034 25 13C25 6.09402 19.4034 0.5 12.5 0.5ZM20.3362 13.589C20.3362 14.8579 20.1795 16.1269 20.1795 16.1269C20.1795 16.1269 20.0253 17.2063 19.5551 17.6815C18.9585 18.3059 18.2912 18.3084 17.9853 18.3463C15.7912 18.5056 12.4975 18.5106 12.4975 18.5106C12.4975 18.5106 8.42265 18.4727 7.16886 18.3539C6.82002 18.2882 6.03641 18.3084 5.43984 17.684C4.96967 17.2088 4.818 16.1294 4.818 16.1294C4.818 16.1294 4.66128 14.8605 4.66128 13.5915V12.4034C4.66128 11.1345 4.818 9.86803 4.818 9.86803C4.818 9.86803 4.96967 8.78868 5.43984 8.31346C6.03641 7.68909 6.70374 7.68656 7.00961 7.64864C9.20374 7.48939 12.4924 7.48939 12.4924 7.48939H12.5C12.5 7.48939 15.7912 7.48939 17.9828 7.64864C18.2887 7.68403 18.956 7.68909 19.5526 8.31346C20.0228 8.78868 20.177 9.86803 20.177 9.86803C20.177 9.86803 20.3337 11.137 20.3337 12.4034V13.589H20.3362Z" fill="white"/>
<path d="M10.8818 15.0295L15.1159 12.8354L10.8818 10.6261V15.0295Z" fill="white"/>
</svg>
