<svg width="25" height="26" viewBox="0 0 25 26" fill="none" xmlns="http://www.w3.org/2000/svg">
<path d="M18.3873 8.6825C18.2508 8.32861 18.0864 8.07834 17.821 7.81292C17.5556 7.5475 17.3054 7.38573 16.954 7.2467C16.6886 7.14306 16.2867 7.01919 15.5511 6.98633C14.7548 6.95094 14.5147 6.94084 12.5 6.94084C10.4828 6.94084 10.2452 6.94841 9.44894 6.98633C8.71335 7.01919 8.31396 7.14306 8.04601 7.2467C7.69464 7.3832 7.44186 7.5475 7.17897 7.81292C6.91355 8.07582 6.75178 8.32861 6.61275 8.6825C6.50911 8.94792 6.38776 9.3473 6.35238 10.0854C6.31699 10.8817 6.30941 11.1218 6.30941 13.1365C6.30941 15.1537 6.31699 15.3913 6.35238 16.1875C6.38524 16.9231 6.50911 17.3225 6.61275 17.5905C6.74925 17.9419 6.91355 18.1946 7.17897 18.4575C7.44439 18.7229 7.69464 18.8847 8.04601 19.0212C8.31143 19.1248 8.71335 19.2487 9.44894 19.2816C10.2452 19.317 10.4828 19.3246 12.5 19.3246C14.5172 19.3246 14.7548 19.317 15.5511 19.2816C16.2867 19.2487 16.686 19.1248 16.954 19.0212C17.3054 18.8847 17.5581 18.7204 17.821 18.4575C18.0864 18.1921 18.2482 17.9419 18.3873 17.5905C18.4909 17.3251 18.6122 16.9231 18.6476 16.1875C18.683 15.3913 18.6906 15.1512 18.6906 13.1365C18.6906 11.1193 18.683 10.8817 18.6476 10.0854C18.6148 9.34983 18.4909 8.95045 18.3873 8.6825ZM12.5 17.0167C10.3589 17.0167 8.62234 15.2801 8.62234 13.139C8.62234 10.998 10.3589 9.26135 12.5 9.26135C14.6411 9.26135 16.3776 10.998 16.3776 13.139C16.3802 15.2801 14.6436 17.0167 12.5 17.0167ZM16.5319 10.0121C16.0313 10.0121 15.6244 9.60513 15.6244 9.10463C15.6244 8.60412 16.0313 8.19715 16.5319 8.19715C17.0324 8.19715 17.4368 8.60412 17.4368 9.10463C17.4393 9.60766 17.0324 10.0121 16.5319 10.0121ZM15.0177 13.1365C15.0177 14.5268 13.8903 15.6542 12.5 15.6542C11.1097 15.6542 9.9823 14.5268 9.9823 13.1365C9.9823 11.7462 11.1097 10.6188 12.5 10.6188C13.8903 10.6188 15.0177 11.7462 15.0177 13.1365ZM12.5 0.5C5.59656 0.5 0 6.09655 0 13C0 19.9034 5.59656 25.5 12.5 25.5C19.4034 25.5 25 19.9034 25 13C25 6.09655 19.4034 0.5 12.5 0.5ZM20.0076 16.2507C19.9722 17.0546 19.8433 17.6031 19.6562 18.0834C19.4641 18.5814 19.2063 19.001 18.7841 19.4206C18.3645 19.8402 17.9424 20.0981 17.4469 20.2927C16.9666 20.4798 16.4181 20.6061 15.6143 20.6441C14.8079 20.6795 14.5526 20.6896 12.5 20.6896C10.45 20.6896 10.1921 20.682 9.38574 20.6441C8.5819 20.6061 8.03337 20.4798 7.55308 20.2927C7.05511 20.1006 6.6355 19.8428 6.21588 19.4206C5.79626 19.001 5.53842 18.5788 5.34378 18.0834C5.15673 17.6031 5.03033 17.0546 4.99242 16.2507C4.9545 15.4444 4.94692 15.1891 4.94692 13.1365C4.94692 11.0864 4.95703 10.8286 4.99242 10.0222C5.0278 9.21838 5.15673 8.66985 5.34378 8.18956C5.5359 7.69411 5.79374 7.27199 6.21588 6.85238C6.6355 6.43276 7.05763 6.17491 7.55308 5.98279C8.03337 5.79574 8.5819 5.66934 9.38574 5.63143C10.1921 5.59351 10.4474 5.58594 12.5 5.58594C14.55 5.58594 14.8079 5.59351 15.6143 5.63143C16.4181 5.66934 16.9666 5.79574 17.4469 5.98279C17.9449 6.17491 18.3645 6.43276 18.7841 6.85238C19.2037 7.27199 19.4616 7.69411 19.6562 8.18956C19.8433 8.66985 19.9697 9.21838 20.0076 10.0222C20.0455 10.8286 20.0531 11.0839 20.0531 13.1365C20.0531 15.1891 20.0455 15.4469 20.0076 16.2507Z" fill="white"/>
</svg>
