<svg width="25" height="26" viewBox="0 0 25 26" fill="none" xmlns="http://www.w3.org/2000/svg">
<path d="M12.5 0.5C5.59657 0.5 0 6.09658 0 13C0 19.9035 5.59657 25.5 12.5 25.5C19.4034 25.5 25 19.9035 25 13C25 6.09658 19.4034 0.5 12.5 0.5ZM8.72851 19.2968H5.68251V9.51163H8.72851V19.2968ZM7.20678 8.17192C6.23104 8.17192 5.44237 7.38069 5.44237 6.40748C5.44237 5.43428 6.23104 4.64561 7.20678 4.64561C8.17998 4.64561 8.96866 5.4368 8.96866 6.40748C8.96866 7.38321 8.17998 8.17192 7.20678 8.17192ZM20.1188 19.2968H17.0804V14.5394C17.0804 13.4045 17.0576 11.9434 15.498 11.9434C13.9156 11.9434 13.6729 13.1795 13.6729 14.456V19.2968H10.6345V9.51163H13.5516V10.8489H13.592C13.999 10.0804 14.9899 9.26897 16.4712 9.26897C19.5475 9.26897 20.1163 11.2963 20.1163 13.9302V19.2968H20.1188Z" fill="white"/>
</svg>
