<svg width="25" height="26" viewBox="0 0 25 26" fill="none" xmlns="http://www.w3.org/2000/svg">
<path d="M12.6188 6.04854C9.04197 6.04854 6.12993 8.95803 6.12993 12.5323C6.12993 13.7583 6.47119 14.9515 7.12084 15.9828L7.27503 16.228L6.62032 18.6218L9.07483 17.9772L9.31244 18.1188C10.3084 18.7103 11.451 19.0212 12.6138 19.0212H12.6163C16.1906 19.0212 19.1001 16.1117 19.1026 12.5374C19.1026 10.8059 18.4302 9.17542 17.2042 7.94943C15.9808 6.72345 14.3529 6.04854 12.6188 6.04854ZM16.4358 15.3205C16.274 15.7755 15.4929 16.1926 15.1188 16.2482C14.7826 16.2988 14.3579 16.319 13.8903 16.1724C13.6072 16.0814 13.2432 15.9626 12.7781 15.7604C10.8215 14.9161 9.54499 12.9469 9.44641 12.818C9.34782 12.6891 8.65016 11.7614 8.65016 10.8008C8.65016 9.84277 9.15319 9.37007 9.33267 9.17543C9.51214 8.98079 9.72195 8.93022 9.8534 8.93022C9.98231 8.93022 10.1138 8.93023 10.2275 8.93782C10.3463 8.94287 10.5081 8.89232 10.6648 9.27149C10.8266 9.66077 11.2184 10.6213 11.2664 10.7199C11.3145 10.8185 11.3473 10.9322 11.2841 11.0612C11.2184 11.1901 11.1855 11.2735 11.0895 11.3873C10.9909 11.501 10.8847 11.6426 10.7963 11.7285C10.6977 11.8246 10.5966 11.9307 10.7103 12.1254C10.8241 12.32 11.2159 12.9596 11.7947 13.4752C12.5405 14.14 13.1673 14.3448 13.362 14.4434C13.5566 14.542 13.6704 14.5243 13.7841 14.3953C13.8979 14.2664 14.272 13.8266 14.4009 13.632C14.5298 13.4373 14.6613 13.4702 14.8408 13.5334C15.0202 13.5991 15.9783 14.0693 16.1729 14.1678C16.3675 14.2664 16.499 14.3144 16.547 14.3953C16.5976 14.4737 16.5976 14.8655 16.4358 15.3205ZM12.5 0.5C5.59656 0.5 0 6.09656 0 13C0 19.9034 5.59656 25.5 12.5 25.5C19.4034 25.5 25 19.9034 25 13C25 6.09404 19.4034 0.5 12.5 0.5ZM12.6163 20.3382H12.6138C11.3069 20.3382 10.0253 20.0096 8.88524 19.3878L4.74723 20.4722L5.85441 16.4302C5.1719 15.2472 4.81295 13.9049 4.81295 12.5298C4.81548 8.22749 8.31649 4.72901 12.6163 4.72901C14.7043 4.72901 16.6633 5.54296 18.137 7.01667C19.6107 8.49291 20.4221 10.452 20.4196 12.5374C20.4196 16.8397 16.9186 20.3382 12.6163 20.3382Z" fill="white"/>
</svg>
