<svg width="162" height="160" viewBox="0 0 162 160" fill="none" xmlns="http://www.w3.org/2000/svg">
<g filter="url(#filter0_d_189_13949)">
<g opacity="0.3">
<path d="M111.841 43.551H105.513L105.476 43.618L102.349 49.0343L105.513 54.5139H111.841L111.879 54.4469L115.006 49.0306L111.841 43.551ZM105.662 43.819H111.685L114.697 49.0343L111.685 54.2496H105.662L102.65 49.0343L105.662 43.819Z" fill="url(#paint0_linear_189_13949)"/>
<path d="M130.369 54.2496H124.04L124.003 54.3166L120.876 59.7329L124.04 65.2125H130.369L130.406 65.1455L133.533 59.7292L130.369 54.2496ZM124.193 54.5139H130.216L133.227 59.7292L130.216 64.9445H124.193L121.181 59.7292L124.193 54.5139Z" fill="url(#paint1_linear_189_13949)"/>
<path d="M121.103 48.9003H114.775L114.738 48.9673L111.611 54.3799L114.775 59.8594H121.103L121.14 59.7924L124.267 54.3761L121.103 48.9003ZM114.927 49.1646H120.951L123.962 54.3799L120.951 59.5951H114.927L111.916 54.3799L114.927 49.1646Z" fill="url(#paint2_linear_189_13949)"/>
<path d="M114.738 38.2687L111.648 43.618L111.879 43.752L114.965 38.4027L114.738 38.2687Z" fill="url(#paint3_linear_189_13949)"/>
<path d="M86.9413 75.71L83.8553 81.0593L84.0824 81.1895L87.1721 75.844L86.9413 75.71Z" fill="url(#paint4_linear_189_13949)"/>
<path d="M133.265 38.2687L130.179 43.618L130.406 43.752L133.495 38.4027L133.265 38.2687Z" fill="url(#paint5_linear_189_13949)"/>
<path d="M121.103 59.5989H114.775L114.738 59.6659L111.611 65.0822L114.775 70.5655H121.103L121.14 70.4985L124.267 65.0822L121.103 59.5989ZM114.927 59.8632H120.951L123.962 65.0785L120.951 70.2938H114.927L111.916 65.0785L114.927 59.8632Z" fill="url(#paint6_linear_189_13949)"/>
<path d="M130.369 43.551H124.04L124.003 43.618L120.876 49.0343L124.04 54.5139H130.369L130.406 54.4469L133.533 49.0306L130.369 43.551ZM124.193 43.819H130.216L133.227 49.0343L130.216 54.2496H124.193L121.181 49.0343L124.193 43.819Z" fill="url(#paint7_linear_189_13949)"/>
<path d="M111.841 54.2496H105.513L105.476 54.3166L102.349 59.7329L105.513 65.2125H111.841L111.879 65.1455L115.006 59.7292L111.841 54.2496ZM105.662 54.5139H111.685L114.697 59.7292L111.685 64.9445H105.662L102.65 59.7292L105.662 54.5139Z" fill="url(#paint8_linear_189_13949)"/>
<path d="M102.576 48.9003H96.2477L96.2105 48.9673L93.0836 54.3799L96.2477 59.8594H102.576L102.613 59.7924L105.74 54.3761L102.576 48.9003ZM96.4004 49.1646H102.423L105.435 54.3799L102.423 59.5951H96.4004L93.3888 54.3799L96.4004 49.1646Z" fill="url(#paint9_linear_189_13949)"/>
<path d="M93.3478 43.6179L93.1207 43.7519L96.2067 49.1012L96.4375 48.9672L93.3478 43.6179Z" fill="url(#paint10_linear_189_13949)"/>
<path d="M102.613 81.0593L102.382 81.1896L105.472 86.5389L105.703 86.4049L102.613 81.0593Z" fill="url(#paint11_linear_189_13949)"/>
<path d="M102.576 59.5989H96.2477L96.2105 59.6659L93.0836 65.0822L96.2477 70.5655H102.576L102.613 70.4985L105.74 65.0822L102.576 59.5989ZM96.4004 59.8632H102.423L105.435 65.0785L102.423 70.2938H96.4004L93.3888 65.0785L96.4004 59.8632Z" fill="url(#paint12_linear_189_13949)"/>
<path d="M102.576 70.2937H96.2477L96.2105 70.3607L93.0836 75.777L96.2477 81.2566H102.576L102.613 81.1896L105.74 75.777L102.576 70.2937ZM96.4004 70.5617H102.423L105.435 75.777L102.423 80.9923H96.4004L93.3888 75.777L96.4004 70.5617Z" fill="url(#paint13_linear_189_13949)"/>
<path d="M93.3104 64.9445H86.9821L86.9449 65.0115L83.818 70.4278L86.9821 75.9074H93.3104L93.3477 75.8404L96.4746 70.4278L93.3104 64.9445ZM87.1347 65.2125H93.1578L96.1694 70.4278L93.1578 75.6431H87.1347L84.1232 70.4278L87.1347 65.2125Z" fill="url(#paint14_linear_189_13949)"/>
<path d="M111.841 64.9445H105.513L105.476 65.0115L102.349 70.4278L105.513 75.9074H111.841L111.879 75.8404L115.006 70.4278L111.841 64.9445ZM105.662 65.2125H111.685L114.697 70.4278L111.685 75.6431H105.662L102.65 70.4278L105.662 65.2125Z" fill="url(#paint15_linear_189_13949)"/>
<path d="M96.3221 82.5074C97.0852 82.5074 97.7031 81.8894 97.7031 81.1263C97.7031 80.3632 97.0852 79.7452 96.3221 79.7452C95.5589 79.7452 94.941 80.3632 94.941 81.1263C94.941 81.8894 95.5589 82.5074 96.3221 82.5074Z" fill="url(#paint16_linear_189_13949)"/>
<path d="M105.587 66.4595C106.351 66.4595 106.969 65.8416 106.969 65.0784C106.969 64.3153 106.351 63.6974 105.587 63.6974C104.824 63.6974 104.206 64.3153 104.206 65.0784C104.206 65.8416 104.824 66.4595 105.587 66.4595Z" fill="url(#paint17_linear_189_13949)"/>
<path d="M124.115 45.066C124.878 45.066 125.496 44.448 125.496 43.6849C125.496 42.9218 124.878 42.3038 124.115 42.3038C123.352 42.3038 122.734 42.9218 122.734 43.6849C122.734 44.448 123.352 45.066 124.115 45.066Z" fill="url(#paint18_linear_189_13949)"/>
<path d="M133.38 39.7167C134.143 39.7167 134.761 39.0988 134.761 38.3357C134.761 37.5725 134.143 36.9546 133.38 36.9546C132.617 36.9546 131.999 37.5725 131.999 38.3357C131.999 39.0988 132.617 39.7167 133.38 39.7167Z" fill="url(#paint19_linear_189_13949)"/>
<path d="M93.2325 45.066C93.9956 45.066 94.6135 44.448 94.6135 43.6849C94.6135 42.9218 93.9956 42.3038 93.2325 42.3038C92.4693 42.3038 91.8514 42.9218 91.8514 43.6849C91.8514 44.448 92.4693 45.066 93.2325 45.066Z" fill="url(#paint20_linear_189_13949)"/>
<path d="M83.9707 82.5074C84.7339 82.5074 85.3518 81.8894 85.3518 81.1263C85.3518 80.3632 84.7339 79.7452 83.9707 79.7452C83.2076 79.7452 82.5897 80.3632 82.5897 81.1263C82.5897 81.8894 83.2076 82.5074 83.9707 82.5074Z" fill="url(#paint21_linear_189_13949)"/>
<path d="M87.0567 66.4595C87.8198 66.4595 88.4377 65.8416 88.4377 65.0784C88.4377 64.3153 87.8198 63.6974 87.0567 63.6974C86.2936 63.6974 85.6756 64.3153 85.6756 65.0784C85.6756 65.8416 86.2936 66.4595 87.0567 66.4595Z" fill="url(#paint22_linear_189_13949)"/>
<path d="M114.853 39.7167C115.616 39.7167 116.234 39.0988 116.234 38.3357C116.234 37.5725 115.616 36.9546 114.853 36.9546C114.09 36.9546 113.472 37.5725 113.472 38.3357C113.468 39.0988 114.09 39.7167 114.853 39.7167Z" fill="url(#paint23_linear_189_13949)"/>
<path d="M121.025 71.8088C121.788 71.8088 122.406 71.1908 122.406 70.4277C122.406 69.6646 121.788 69.0466 121.025 69.0466C120.262 69.0466 119.644 69.6646 119.644 70.4277C119.644 71.1908 120.266 71.8088 121.025 71.8088Z" fill="url(#paint24_linear_189_13949)"/>
<path d="M114.849 61.1139C115.612 61.1139 116.23 60.496 116.23 59.7329C116.23 58.9697 115.612 58.3518 114.849 58.3518C114.086 58.3518 113.468 58.9697 113.468 59.7329C113.468 60.4923 114.09 61.1139 114.849 61.1139Z" fill="url(#paint25_linear_189_13949)"/>
</g>
<g opacity="0.3">
<path d="M50.7471 102.691L47.6201 97.2748L47.5829 97.2078H41.2546L38.0904 102.687L41.2174 108.104L41.2546 108.171H47.5829L50.7471 102.691ZM38.3919 102.691L41.4035 97.4758H47.4266L50.4381 102.691L47.4266 107.906H41.4035L38.3919 102.691Z" fill="#3B69FA"/>
<path d="M69.2742 91.9925L66.1472 86.5762L66.11 86.5092H59.7817L56.6175 91.9887L59.7445 97.4051L59.7817 97.4721H66.11L69.2742 91.9925ZM56.9228 91.9925L59.9343 86.7772H65.9574L68.9689 91.9925L65.9574 97.2078H59.9343L56.9228 91.9925Z" fill="#3B69FA"/>
<path d="M60.0088 97.3418L56.8819 91.9255L56.8446 91.8585H50.5163L47.3521 97.3381L50.4791 102.751L50.5163 102.818H56.8446L60.0088 97.3418ZM47.6574 97.3418L50.6689 92.1265H56.692L59.7035 97.3418L56.692 102.557H50.6689L47.6574 97.3418Z" fill="#3B69FA"/>
<path d="M47.6134 107.974L50.7019 113.323L50.473 113.455L47.3845 108.107L47.6134 107.974Z" fill="#3B69FA"/>
<path d="M19.8328 70.5294L22.9207 75.8776L22.6918 76.0097L19.6039 70.6616L19.8328 70.5294Z" fill="#3B69FA"/>
<path d="M66.1521 107.981L69.24 113.329L69.0111 113.462L65.9232 108.113L66.1521 107.981Z" fill="#3B69FA"/>
<path d="M60.0088 86.6469L56.8819 81.2306L56.8446 81.1636H50.5163L47.3521 86.6469L50.4791 92.0632L50.5163 92.1302H56.8446L60.0088 86.6469ZM47.6574 86.6469L50.6689 81.4316H56.692L59.7035 86.6469L56.692 91.8622H50.6689L47.6574 86.6469Z" fill="#3B69FA"/>
<path d="M69.2742 102.691L66.1472 97.2748L66.11 97.2078H59.7817L56.6175 102.687L59.7445 108.104L59.7817 108.171H66.11L69.2742 102.691ZM56.9228 102.691L59.9343 97.4758H65.9574L68.9689 102.691L65.9574 107.906H59.9343L56.9228 102.691Z" fill="#3B69FA"/>
<path d="M50.7471 91.9925L47.6201 86.5762L47.5829 86.5092H41.2546L38.0904 91.9887L41.2174 97.4051L41.2546 97.4721H47.5829L50.7471 91.9925ZM38.3919 91.9925L41.4035 86.7772H47.4266L50.4381 91.9925L47.4266 97.2078H41.4035L38.3919 91.9925Z" fill="#3B69FA"/>
<path d="M41.4817 97.3418L38.3547 91.9255L38.3175 91.8585H31.9892L28.825 97.3381L31.952 102.751L31.9892 102.818H38.3175L41.4817 97.3418ZM29.1266 97.3418L32.1381 92.1265H38.1612L41.1727 97.3418L38.1612 102.557H32.1381L29.1266 97.3418Z" fill="#3B69FA"/>
<path d="M31.9536 102.617L32.1824 102.749L29.0902 108.095L28.8614 107.963L31.9536 102.617Z" fill="#3B69FA"/>
<path d="M41.2225 65.1831L41.4514 65.3152L38.366 70.6646L38.1371 70.5325L41.2225 65.1831Z" fill="#3B69FA"/>
<path d="M41.4817 86.6469L38.3547 81.2306L38.3175 81.1636H31.9892L28.825 86.6469L31.952 92.0632L31.9892 92.1302H38.3175L41.4817 86.6469ZM29.1266 86.6469L32.1381 81.4316H38.1612L41.1727 86.6469L38.1612 91.8622H32.1381L29.1266 86.6469Z" fill="#3B69FA"/>
<path d="M41.4817 75.9482L38.3547 70.5356L38.3175 70.4686H31.9892L28.825 75.9482L31.952 81.3645L31.9892 81.4315H38.3175L41.4817 75.9482ZM29.1266 75.9482L32.1381 70.7329H38.1612L41.1727 75.9482L38.1612 81.1635H32.1381L29.1266 75.9482Z" fill="#3B69FA"/>
<path d="M32.2161 81.2976L29.0891 75.885L29.0519 75.818H22.7236L19.5594 81.2976L22.6863 86.7139L22.7236 86.7809H29.0519L32.2161 81.2976ZM19.8647 81.2976L22.8762 76.0823H28.8993L31.9108 81.2976L28.8993 86.5129H22.8762L19.8647 81.2976Z" fill="#3B69FA"/>
<path d="M50.7471 81.2976L47.6201 75.885L47.5829 75.818H41.2546L38.0904 81.2976L41.2174 86.7139L41.2546 86.7809H47.5829L50.7471 81.2976ZM38.3919 81.2976L41.4035 76.0823H47.4266L50.4381 81.2976L47.4266 86.5129H41.4035L38.3919 81.2976Z" fill="#3B69FA"/>
<path d="M32.0635 69.2179C32.8266 69.2179 33.4446 69.8358 33.4446 70.599C33.4446 71.3621 32.8266 71.98 32.0635 71.98C31.3004 71.98 30.6825 71.3621 30.6825 70.599C30.6825 69.8358 31.3004 69.2179 32.0635 69.2179Z" fill="#3B69FA"/>
<path d="M41.3289 85.2621C42.092 85.2621 42.71 85.88 42.71 86.6431C42.71 87.4063 42.092 88.0242 41.3289 88.0242C40.5658 88.0242 39.9478 87.4063 39.9478 86.6431C39.9478 85.88 40.5658 85.2621 41.3289 85.2621Z" fill="#3B69FA"/>
<path d="M59.856 106.659C60.6191 106.659 61.2371 107.277 61.2371 108.04C61.2371 108.803 60.6191 109.421 59.856 109.421C59.0929 109.421 58.4749 108.803 58.4749 108.04C58.4749 107.277 59.0929 106.659 59.856 106.659Z" fill="#3B69FA"/>
<path d="M69.1216 112.005C69.8847 112.005 70.5027 112.623 70.5027 113.386C70.5027 114.149 69.8847 114.767 69.1216 114.767C68.3585 114.767 67.7406 114.149 67.7406 113.386C67.7406 112.623 68.3585 112.005 69.1216 112.005Z" fill="#3B69FA"/>
<path d="M28.9739 106.659C29.737 106.659 30.355 107.277 30.355 108.04C30.355 108.803 29.737 109.421 28.9739 109.421C28.2108 109.421 27.5929 108.803 27.5929 108.04C27.5929 107.277 28.2108 106.659 28.9739 106.659Z" fill="#3B69FA"/>
<path d="M19.7122 69.2179C20.4753 69.2179 21.0933 69.8358 21.0933 70.599C21.0933 71.3621 20.4753 71.98 19.7122 71.98C18.9491 71.98 18.3311 71.3621 18.3311 70.599C18.3311 69.8358 18.9491 69.2179 19.7122 69.2179Z" fill="#3B69FA"/>
<path d="M22.7981 85.2621C23.5613 85.2621 24.1792 85.88 24.1792 86.6431C24.1792 87.4063 23.5613 88.0242 22.7981 88.0242C22.035 88.0242 21.4171 87.4063 21.4171 86.6431C21.4171 85.88 22.035 85.2621 22.7981 85.2621Z" fill="#3B69FA"/>
<path d="M50.5943 112.005C51.3574 112.005 51.9753 112.623 51.9753 113.386C51.9753 114.149 51.3574 114.767 50.5943 114.767C49.8311 114.767 49.2132 114.149 49.2132 113.386C49.2095 112.623 49.8311 112.005 50.5943 112.005Z" fill="#3B69FA"/>
<path d="M56.7664 79.9128C57.5295 79.9128 58.1475 80.5308 58.1475 81.2939C58.1475 82.057 57.5295 82.675 56.7664 82.675C56.0033 82.675 55.3853 82.057 55.3853 81.2939C55.3853 80.5345 56.007 79.9128 56.7664 79.9128Z" fill="#3B69FA"/>
<path d="M50.5906 90.6113C51.3537 90.6113 51.9717 91.2293 51.9717 91.9924C51.9717 92.7555 51.3537 93.3735 50.5906 93.3735C49.8275 93.3735 49.2095 92.7555 49.2095 91.9924C49.2095 91.2293 49.8312 90.6113 50.5906 90.6113Z" fill="#3B69FA"/>
</g>
<g opacity="0.3">
<path d="M29.7555 14.5077L32.8824 19.924L32.9196 19.991H39.2479L42.4121 14.5114L39.2852 9.09508L39.2479 9.02808H32.9196L29.7555 14.5077ZM42.1069 14.5077L39.0953 19.7229H33.0722L30.0607 14.5077L33.0722 9.29238H39.0953L42.1069 14.5077Z" fill="#3B69FA"/>
<path d="M11.2284 25.2025L14.3553 30.6188L14.3925 30.6858H20.7208L23.885 25.2062L20.7581 19.7899L20.7208 19.7229H14.3925L11.2284 25.2025ZM23.5798 25.2025L20.5682 30.4178H14.5451L11.5336 25.2025L14.5451 19.9872H20.5682L23.5798 25.2025Z" fill="#3B69FA"/>
<path d="M20.4901 19.8532L23.617 25.2695L23.6542 25.3365H29.9826L33.1467 19.8569L30.0198 14.4443L29.9826 14.3773H23.6542L20.4901 19.8532ZM32.8452 19.8532L29.8337 25.0685H23.8106L20.799 19.8532L23.8106 14.6379H29.8337L32.8452 19.8532Z" fill="#3B69FA"/>
<path d="M30.0185 3.744L33.1069 9.09216L32.878 9.22434L29.7896 3.87618L30.0185 3.744Z" fill="#3B69FA"/>
<path d="M57.8247 41.1799L60.9126 46.5281L60.6837 46.6602L57.5959 41.3121L57.8247 41.1799Z" fill="#3B69FA"/>
<path d="M11.4915 3.75072L14.5793 9.09888L14.3505 9.23103L11.2626 3.88287L11.4915 3.75072Z" fill="#3B69FA"/>
<path d="M20.4901 30.5518L23.617 35.9681L23.6542 36.0351H29.9826L33.1467 30.5518L30.0198 25.1355L29.9826 25.0685H23.6542L20.4901 30.5518ZM32.8452 30.5518L29.8337 35.7671H23.8106L20.799 30.5518L23.8106 25.3365H29.8337L32.8452 30.5518Z" fill="#3B69FA"/>
<path d="M11.2284 14.5077L14.3553 19.924L14.3925 19.991H20.7208L23.885 14.5114L20.7581 9.09508L20.7208 9.02808H14.3925L11.2284 14.5077ZM23.5798 14.5077L20.5682 19.7229H14.5451L11.5336 14.5077L14.5451 9.29238H20.5682L23.5798 14.5077Z" fill="#3B69FA"/>
<path d="M29.7555 25.2025L32.8824 30.6188L32.9196 30.6858H39.2479L42.4121 25.2062L39.2852 19.7899L39.2479 19.7229H32.9196L29.7555 25.2025ZM42.1069 25.2025L39.0953 30.4178H33.0722L30.0607 25.2025L33.0722 19.9872H39.0953L42.1069 25.2025Z" fill="#3B69FA"/>
<path d="M39.0208 19.8532L42.1478 25.2695L42.185 25.3365H48.5133L51.6775 19.8569L48.5506 14.4443L48.5133 14.3773H42.185L39.0208 19.8532ZM51.3722 19.8532L48.3607 25.0685H42.3376L39.3261 19.8532L42.3376 14.6379H48.3607L51.3722 19.8532Z" fill="#3B69FA"/>
<path d="M51.4101 9.09017L51.6389 9.22253L48.5461 14.5682L48.3173 14.4359L51.4101 9.09017Z" fill="#3B69FA"/>
<path d="M42.1451 46.5337L42.374 46.6658L39.288 52.0152L39.0591 51.8831L42.1451 46.5337Z" fill="#3B69FA"/>
<path d="M39.0208 30.5518L42.1478 35.9681L42.185 36.0351H48.5133L51.6775 30.5518L48.5506 25.1355L48.5133 25.0685H42.185L39.0208 30.5518ZM51.3722 30.5518L48.3607 35.7671H42.3376L39.3261 30.5518L42.3376 25.3365H48.3607L51.3722 30.5518Z" fill="#3B69FA"/>
<path d="M39.0208 41.2504L42.1478 46.663L42.185 46.73H48.5133L51.6775 41.2504L48.5506 35.8341L48.5133 35.7671H42.185L39.0208 41.2504ZM51.3722 41.2504L48.3607 46.4657H42.3376L39.3261 41.2504L42.3376 36.0351H48.3607L51.3722 41.2504Z" fill="#3B69FA"/>
<path d="M48.2865 35.901L51.4134 41.3136L51.4506 41.3806H57.779L60.9431 35.901L57.8162 30.4847L57.779 30.4177H51.4506L48.2865 35.901ZM60.6379 35.901L57.6263 41.1163H51.6032L48.5917 35.901L51.6032 30.6857H57.6263L60.6379 35.901Z" fill="#3B69FA"/>
<path d="M29.7555 35.901L32.8824 41.3136L32.9196 41.3806H39.2479L42.4121 35.901L39.2852 30.4847L39.2479 30.4177H32.9196L29.7555 35.901ZM42.1069 35.901L39.0953 41.1163H33.0722L30.0607 35.901L33.0722 30.6857H39.0953L42.1069 35.901Z" fill="#3B69FA"/>
<path d="M48.439 47.9808C47.6759 47.9808 47.0579 47.3628 47.0579 46.5997C47.0579 45.8366 47.6759 45.2186 48.439 45.2186C49.2021 45.2186 49.8201 45.8366 49.8201 46.5997C49.8201 47.3591 49.2021 47.9808 48.439 47.9808Z" fill="#3B69FA"/>
<path d="M39.1736 31.9329C38.4105 31.9329 37.7926 31.315 37.7926 30.5518C37.7926 29.7887 38.4105 29.1708 39.1736 29.1708C39.9367 29.1708 40.5547 29.7887 40.5547 30.5518C40.5547 31.315 39.9367 31.9329 39.1736 31.9329Z" fill="#3B69FA"/>
<path d="M20.6465 10.5394C19.8834 10.5394 19.2655 9.92141 19.2655 9.15829C19.2655 8.39516 19.8834 7.77722 20.6465 7.77722C21.4096 7.77722 22.0276 8.39516 22.0276 9.15829C22.0276 9.92141 21.4059 10.5394 20.6465 10.5394Z" fill="#3B69FA"/>
<path d="M11.3811 5.19011C10.618 5.19011 10.0001 4.57216 10.0001 3.80904C10.0001 3.04592 10.618 2.42798 11.3811 2.42798C12.1443 2.42798 12.7622 3.04592 12.7622 3.80904C12.7622 4.57216 12.1443 5.19011 11.3811 5.19011Z" fill="#3B69FA"/>
<path d="M51.5249 10.5394C50.7618 10.5394 50.1439 9.92141 50.1439 9.15829C50.1439 8.39516 50.7618 7.77722 51.5249 7.77722C52.2881 7.77722 52.906 8.39516 52.906 9.15829C52.906 9.92141 52.2881 10.5394 51.5249 10.5394Z" fill="#3B69FA"/>
<path d="M60.7903 47.9808C60.0272 47.9808 59.4093 47.3628 59.4093 46.5997C59.4093 45.8366 60.0272 45.2186 60.7903 45.2186C61.5534 45.2186 62.1714 45.8366 62.1714 46.5997C62.1714 47.3591 61.5534 47.9808 60.7903 47.9808Z" fill="#3B69FA"/>
<path d="M57.7044 31.9329C56.9413 31.9329 56.3233 31.315 56.3233 30.5518C56.3233 29.7887 56.9413 29.1708 57.7044 29.1708C58.4675 29.1708 59.0854 29.7887 59.0854 30.5518C59.0854 31.315 58.4675 31.9329 57.7044 31.9329Z" fill="#3B69FA"/>
<path d="M29.9082 5.19011C29.1451 5.19011 28.5272 4.57216 28.5272 3.80904C28.5272 3.04592 29.1451 2.42798 29.9082 2.42798C30.6714 2.42798 31.2893 3.04592 31.2893 3.80904C31.2893 4.57216 30.6714 5.19011 29.9082 5.19011Z" fill="#3B69FA"/>
<path d="M23.7325 37.2821C22.9693 37.2821 22.3514 36.6642 22.3514 35.9011C22.3514 35.138 22.9693 34.52 23.7325 34.52C24.4956 34.52 25.1135 35.138 25.1135 35.9011C25.1135 36.6642 24.4956 37.2821 23.7325 37.2821Z" fill="#3B69FA"/>
<path d="M29.9082 26.5835C29.1451 26.5835 28.5272 25.9656 28.5272 25.2025C28.5272 24.4394 29.1451 23.8214 29.9082 23.8214C30.6713 23.8214 31.2893 24.4394 31.2893 25.2025C31.293 25.9656 30.6713 26.5835 29.9082 26.5835Z" fill="#3B69FA"/>
</g>
<path d="M99.5533 55.437C99.3038 55.2844 98.9577 55.2955 98.5742 55.5152L90.4665 60.2726C89.7183 60.7044 89.1041 61.7616 89.1041 62.6252V72.4341C89.1041 72.8995 89.2828 73.2159 89.5657 73.3462L91.345 74.2545L101.065 68.6372L101.325 56.3379L99.5533 55.437Z" fill="#7F48F3"/>
<path opacity="0.4" d="M98.5742 55.5152L90.4665 60.2726C90.0384 60.5183 89.6587 60.9687 89.4093 61.4675L91.2818 62.2567L101.325 56.3379L99.557 55.437C99.3039 55.2844 98.9577 55.2955 98.5742 55.5152Z" fill="#CFD1D2"/>
<path d="M100.376 56.4385L92.2684 61.1959C91.5202 61.6277 90.906 62.6849 90.906 63.5486V73.3575C90.906 74.2211 91.5202 74.5785 92.2684 74.1504L100.372 69.4749C101.124 69.0468 101.735 67.9896 101.735 67.1259V57.224C101.739 56.3603 101.124 56.0067 100.376 56.4385Z" fill="#9057FA"/>
<path d="M98.2989 60.9316C98.3175 60.9204 98.351 60.913 98.3696 60.913C98.4329 60.913 98.4924 60.9762 98.4924 61.0358C98.4924 61.0879 98.4626 61.1438 98.4143 61.1698L97.7032 61.6165C97.6846 61.6277 97.6511 61.6389 97.6325 61.6389C97.5692 61.6389 97.5097 61.5756 97.5097 61.5123C97.5097 61.4602 97.5395 61.4081 97.5841 61.382L98.2989 60.9316Z" fill="white"/>
<path d="M98.2951 62.2903C98.3137 62.2791 98.3473 62.2679 98.3696 62.2679C98.4329 62.2679 98.4924 62.3312 98.4924 62.3945C98.4924 62.4429 98.4626 62.4987 98.4143 62.5285L97.7107 62.9715C97.6921 62.9864 97.6549 62.9976 97.6325 62.9976C97.5692 62.9976 97.5097 62.9343 97.5097 62.871C97.5097 62.8189 97.5395 62.7668 97.5841 62.737L98.2951 62.2903Z" fill="white"/>
<path d="M98.2915 63.6527C98.3101 63.6415 98.3436 63.6304 98.3659 63.6304C98.4292 63.6304 98.4888 63.6937 98.4888 63.7569C98.4888 63.8091 98.459 63.8649 98.4106 63.891L97.6996 64.3377C97.681 64.3488 97.6475 64.36 97.6289 64.36C97.5656 64.36 97.506 64.2967 97.506 64.2371C97.506 64.1888 97.5321 64.1366 97.5805 64.1031L98.2915 63.6527Z" fill="white"/>
<path d="M98.2915 65.0115C98.3101 65.0003 98.3436 64.9891 98.3659 64.9891C98.4292 64.9891 98.4888 65.0524 98.4888 65.112C98.4888 65.1641 98.459 65.2199 98.4106 65.246L97.7033 65.689C97.6847 65.7001 97.6512 65.715 97.6289 65.715C97.5656 65.715 97.506 65.6517 97.506 65.5885C97.506 65.5401 97.5321 65.488 97.5805 65.4545L98.2915 65.0115Z" fill="white"/>
<path d="M98.2951 66.3739C98.3137 66.3627 98.3473 66.3516 98.3696 66.3516C98.4329 66.3516 98.4924 66.4148 98.4924 66.4781C98.4924 66.5265 98.4626 66.5786 98.4143 66.6121L97.7107 67.0551C97.6921 67.07 97.6549 67.0812 97.6325 67.0812C97.5692 67.0812 97.5097 67.0179 97.5097 66.9583C97.5097 66.9099 97.5357 66.8578 97.5841 66.8243L98.2951 66.3739Z" fill="white"/>
<path d="M94.8853 62.8934C94.8666 62.9045 94.8331 62.9157 94.8108 62.9157C94.7475 62.9157 94.688 62.8524 94.688 62.7891C94.688 62.737 94.7177 62.6849 94.7624 62.6589L95.4734 62.2122C95.492 62.201 95.5255 62.1898 95.5441 62.1898C95.6074 62.1898 95.667 62.2531 95.667 62.3164C95.667 62.3685 95.6372 62.4169 95.5925 62.4504L94.8853 62.8934Z" fill="white"/>
<path d="M95.4808 63.5672C95.5515 63.5262 95.6707 63.5932 95.6707 63.6751C95.6707 63.7273 95.6372 63.7868 95.5962 63.8092L94.8852 64.2596C94.8666 64.2707 94.8368 64.2782 94.8145 64.2782C94.7512 64.2782 94.6916 64.2149 94.6916 64.1516C94.6916 64.0995 94.7214 64.0511 94.7661 64.0176L95.4808 63.5672Z" fill="white"/>
<path d="M95.4734 64.9333C95.492 64.9222 95.5255 64.911 95.5478 64.911C95.6111 64.911 95.6707 64.9743 95.6707 65.0376C95.6707 65.0897 95.6409 65.1455 95.5962 65.1716L94.8889 65.6183C94.8703 65.6295 94.8368 65.6406 94.8145 65.6406C94.7512 65.6406 94.6916 65.5774 94.6916 65.5141C94.6916 65.462 94.7251 65.4061 94.7661 65.3801L95.4734 64.9333Z" fill="white"/>
<path d="M95.4734 66.292C95.492 66.2808 95.5255 66.2697 95.5478 66.2697C95.6111 66.2697 95.6707 66.3329 95.6707 66.3925C95.6707 66.4446 95.6409 66.4967 95.5962 66.5265L94.8852 66.9769C94.8666 66.9881 94.8368 66.9955 94.8145 66.9955C94.7512 66.9955 94.6916 66.9323 94.6916 66.869C94.6916 66.8206 94.7214 66.7685 94.7661 66.735L95.4734 66.292Z" fill="white"/>
<path d="M95.4771 67.6508C95.5478 67.6061 95.6707 67.6731 95.6707 67.755C95.6707 67.8071 95.6409 67.863 95.5962 67.889L94.8815 68.3432C94.8666 68.3506 94.8368 68.3618 94.8182 68.3618C94.7549 68.3618 94.6953 68.2985 94.6953 68.2352C94.6953 68.1794 94.7289 68.1273 94.7698 68.1049L95.4771 67.6508Z" fill="white"/>
<path d="M96.9402 62.2493V68.0564C96.9402 68.2426 96.7876 68.4883 96.6014 68.6074L96.5865 68.6185C96.4004 68.7339 96.2478 68.6781 96.2478 68.4957V62.6848L96.9402 62.2493Z" fill="white"/>
<path d="M95.5927 69.9066C95.5927 70.4575 96.0394 70.625 96.5941 70.2751C97.145 69.9252 97.5955 69.1956 97.5955 68.6446C97.5955 68.09 97.1488 67.9262 96.5941 68.2761C96.0432 68.6223 95.5927 69.3556 95.5927 69.9066Z" fill="white"/>
<path d="M96.5865 60.1126L96.6014 60.1052C96.7876 59.9861 96.9402 60.0419 96.9402 60.228V62.2531L96.2515 62.6886V60.6636C96.2515 60.4812 96.4004 60.2318 96.5865 60.1126Z" fill="#EBB941"/>
<path d="M46.6411 18.7477C46.2242 18.4834 45.6397 18.502 44.9883 18.8668L21.9867 31.9292C20.7136 32.6439 19.6601 34.4233 19.6452 35.8826L19.4628 54.0895C19.4553 54.8787 19.7532 55.4147 20.2259 55.6344L23.2151 57.2016L48.9565 42.7097L49.6191 20.2963L46.6411 18.7477Z" fill="#65AF93"/>
<path opacity="0.3" d="M44.9882 18.8668L21.9866 31.9292C21.2607 32.3387 20.6056 33.0906 20.1775 33.9357L23.3267 35.2981L49.6228 20.3037L46.6448 18.7477C46.2241 18.4834 45.6397 18.502 44.9882 18.8668Z" fill="#CFD1D2"/>
<path d="M48.0147 20.4525L25.0131 33.5149C23.74 34.2297 22.6865 36.009 22.6716 37.4683L22.4892 55.6752C22.4743 57.1345 23.5054 57.7487 24.7823 57.0377L42.4793 47.065L44.9175 49.0268L45.4722 45.401L47.7764 44.1167C49.0533 43.4057 50.1068 41.6301 50.1216 40.1708L50.3078 21.8075C50.3189 20.3483 49.2878 19.7378 48.0147 20.4525Z" fill="#7AD1B8"/>
<path d="M26.2528 44.6566C26.7293 44.3662 27.1313 44.4704 27.2913 44.865L31.4792 42.3076C31.5797 42.2444 31.6728 42.263 31.7063 42.3523L32.2349 43.6999L33.5862 36.7797C33.6122 36.6382 33.709 36.493 33.817 36.426C33.9212 36.359 34.0217 36.3813 34.0515 36.4856L35.2837 40.7367L36.0133 38.399C36.0542 38.2687 36.1398 38.1496 36.2441 38.09C36.3446 38.0342 36.4302 38.0565 36.4637 38.1458L37.3869 40.6213L38.5669 34.9333C38.593 34.7955 38.6861 34.6578 38.794 34.5871C38.7977 34.5834 38.7977 34.5834 38.8015 34.5834C38.9057 34.5201 38.9988 34.5424 39.0323 34.6355L40.2384 38.0677L41.5003 34.4084C41.5413 34.2893 41.6269 34.1776 41.7162 34.1218H41.7199C41.813 34.0659 41.8949 34.0771 41.9359 34.1515L42.7064 35.5698L45.4537 33.8947C45.5839 33.2693 46.012 32.603 46.522 32.2903C47.1325 31.918 47.6313 32.1935 47.6313 32.9045C47.6313 33.6155 47.1325 34.5015 46.522 34.8737C45.9748 35.205 45.5244 35.0226 45.4313 34.4717L42.5538 36.2287C42.4607 36.2846 42.3751 36.2734 42.3342 36.2027L41.7088 35.0524L40.4096 38.8196C40.3649 38.9462 40.2756 39.0616 40.1751 39.1174C40.0783 39.1695 39.9964 39.1435 39.9629 39.0541L38.8275 35.8155L37.6549 41.4738C37.6251 41.6115 37.5358 41.7493 37.4316 41.8163C37.4279 41.82 37.4241 41.82 37.4241 41.8237C37.3199 41.887 37.2306 41.8684 37.1971 41.7753L36.218 39.1546L35.4661 41.5669C35.4251 41.7009 35.3283 41.8237 35.2278 41.8795C35.1273 41.9317 35.0417 41.9056 35.0119 41.8088L33.843 37.7699L32.5215 44.5449C32.4955 44.6789 32.4061 44.8204 32.2982 44.8911C32.1977 44.9581 32.0972 44.9469 32.0599 44.8539L31.3191 42.974L27.3621 45.3862C27.3137 46.0749 26.8372 46.8827 26.2602 47.2363C25.6497 47.6085 25.1509 47.3331 25.1509 46.6221C25.1472 45.9148 25.6423 45.0288 26.2528 44.6566ZM46.5183 34.3116C46.8608 34.1031 47.14 33.6043 47.14 33.206C47.14 32.804 46.8608 32.6514 46.5183 32.8598C46.1758 33.0683 45.8929 33.5671 45.8929 33.9691C45.8966 34.3675 46.1758 34.5238 46.5183 34.3116ZM26.2528 46.6742C26.5952 46.4657 26.8744 45.9669 26.8744 45.5686C26.8744 45.1666 26.5952 45.0102 26.2528 45.2224C25.9103 45.4309 25.6274 45.9297 25.6274 46.3317C25.6311 46.73 25.9103 46.8864 26.2528 46.6742Z" fill="white"/>
<path d="M36.0503 59.6621C35.8009 59.5095 35.4547 59.5206 35.0713 59.7403L26.9636 64.4977C26.2154 64.9295 25.6012 65.9867 25.6012 66.8503V76.6592C25.6012 77.1246 25.7798 77.441 26.0627 77.5675L27.8421 78.4758L37.5617 72.8585L37.8223 60.5592L36.0503 59.6621Z" fill="#A8006C"/>
<path opacity="0.4" d="M35.0713 59.744L26.9636 64.5015C26.5355 64.7471 26.1558 65.1976 25.9064 65.6964L27.7788 66.4819L37.8223 60.563L36.0541 59.6622C35.8009 59.5095 35.4547 59.5207 35.0713 59.744Z" fill="#BABCBE"/>
<path d="M36.8732 60.6635L28.7655 65.4209C28.0173 65.8527 27.403 66.9099 27.403 67.7735V77.5825C27.403 78.4461 28.0173 78.8034 28.7655 78.3754L36.8695 73.6998C37.6214 73.2717 38.2319 72.2145 38.2319 71.3509V61.4489C38.2356 60.5853 37.6214 60.2317 36.8732 60.6635Z" fill="#CA1E49"/>
<path d="M30.3846 70.2305L31.8699 69.352V67.7624C31.8699 67.3679 32.1715 66.8616 32.5437 66.6457L33.6009 66.0203C33.9732 65.8007 34.2747 65.9458 34.2747 66.3442V67.9337L35.7637 67.0552C36.136 66.8355 36.4375 66.9807 36.4375 67.379V68.507C36.4375 68.9015 36.136 69.4078 35.7637 69.6274L34.2747 70.506V72.0955C34.2747 72.4901 33.9695 72.9963 33.6009 73.2123L32.5437 73.8339C32.1715 74.0535 31.8699 73.9084 31.8699 73.5101V71.9205L30.3846 72.799C30.0124 73.0187 29.7109 72.8735 29.7109 72.4752V71.3473C29.7109 70.9527 30.0161 70.4501 30.3846 70.2305Z" fill="white"/>
<path d="M107.832 12.5533C107.449 12.315 106.917 12.3374 106.325 12.6761L93.8392 20.0021C92.6852 20.6647 91.7434 22.2952 91.7434 23.6241V38.7302C91.7434 39.4487 92.0189 39.9363 92.4544 40.1336L95.1905 41.5333L110.155 32.8821L110.553 13.9418L107.832 12.5533Z" fill="#EFCB30"/>
<path opacity="0.4" d="M106.328 12.6762L93.8431 20.0021C93.1842 20.3818 92.596 21.0742 92.2126 21.8448L95.0939 23.0584L110.561 13.9418L107.836 12.5533C107.449 12.3188 106.917 12.3374 106.328 12.6762Z" fill="#CFD1D2"/>
<path d="M109.098 14.0945L96.6126 21.4204C95.4586 22.0831 94.5168 23.7135 94.5168 25.0425V40.1486C94.5168 41.4775 95.4624 42.0285 96.6163 41.3696L109.094 34.1702C110.248 33.5113 111.194 31.8845 111.194 30.5556V15.308C111.198 13.9754 110.252 13.4319 109.098 14.0945Z" fill="#F6E035"/>
<path d="M100.223 29.5282L106.183 26.0885V25.4631L100.223 28.9028V29.5282Z" fill="white"/>
<path d="M100.223 31.2852L106.183 27.8455V27.2239L100.223 30.6635V31.2852Z" fill="white"/>
<path d="M100.223 32.9901L106.183 29.5504V28.925L100.223 32.3647V32.9901Z" fill="white"/>
<path d="M101.135 24.5473V23.8028L105.275 21.413V22.1575L107.918 20.6312V31.3968L98.4888 36.8392V26.0736L101.135 24.5473ZM104.769 22.2133L101.642 24.0187V25.3067L104.769 23.5013V22.2133ZM98.995 36.0426L107.412 31.1846V21.4279L105.271 22.6637V23.7135L101.132 26.1034V25.0536L98.9913 26.2895V36.0426H98.995Z" fill="white"/>
<path d="M122.19 122.707C122.19 123.433 121.699 124.092 121.055 124.42L116.673 126.984L114.734 127.386C111.73 128.269 95.3767 116.878 95.3767 116.878C96.6349 116.077 105.8 113.993 105.8 113.993C106.444 113.665 122.19 122.707 122.19 122.707Z" fill="url(#paint26_linear_189_13949)"/>
<path d="M101.597 84.4431C101.969 84.4431 102.308 84.1862 102.394 83.8065C104.854 73.0186 106.34 59.2936 104.419 53.9331C101.921 46.9571 98.4032 44.3438 92.287 44.9134C91.8366 44.9543 91.5053 45.3526 91.55 45.8031C91.5909 46.2535 91.9892 46.5848 92.4397 46.5401C96.9775 46.1158 100.305 47.2958 102.881 54.4803C104.222 58.2178 103.946 69.6385 100.801 83.438C100.7 83.8773 100.975 84.3165 101.415 84.417C101.474 84.4357 101.538 84.4431 101.597 84.4431Z" fill="url(#paint27_linear_189_13949)"/>
<path d="M101.281 84.0188C101.34 84.0337 101.404 84.0412 101.463 84.0412C101.835 84.0412 102.174 83.7843 102.26 83.4046C104.672 72.814 106.146 59.4054 104.385 53.8439C104.396 53.8737 104.408 53.9034 104.419 53.9332C106.34 59.29 104.854 73.015 102.394 83.8066C102.308 84.1863 101.969 84.4432 101.597 84.4432C101.538 84.4432 101.474 84.4358 101.415 84.4246C101.054 84.3427 100.808 84.03 100.786 83.6764C100.897 83.8439 101.069 83.9704 101.281 84.0188Z" fill="url(#paint28_linear_189_13949)"/>
<path d="M92.3056 46.1419C96.8434 45.7175 100.171 46.8976 102.747 54.0821C102.785 54.1826 102.818 54.2906 102.852 54.4022C100.283 47.2922 96.9588 46.1196 92.4433 46.5439C91.9929 46.5886 91.5946 46.2573 91.5536 45.8069C91.5536 45.7957 91.5536 45.7883 91.5536 45.7771C91.71 46.0191 91.9929 46.1717 92.3056 46.1419Z" fill="url(#paint29_linear_189_13949)"/>
<path d="M91.386 44.1466L86.5653 44.7236C86.5653 44.7236 85.8804 44.7571 85.6384 45.9409C85.4523 46.8492 85.4597 49.749 86.9413 49.8905C88.3261 50.0245 92.2459 47.7761 92.2459 47.7761C92.2459 47.7761 92.9681 45.0065 91.386 44.1466Z" fill="#353535"/>
<path d="M85.8878 47.5564C86.0442 48.8296 86.6584 49.7565 87.2614 49.6299C87.8645 49.4996 88.2256 48.3642 88.073 47.0911C87.9166 45.818 87.3024 44.8911 86.6993 45.0177C86.0926 45.1442 85.7315 46.2833 85.8878 47.5564Z" fill="#1B1B1B"/>
<path d="M87.7827 81.4576C87.7827 83.7619 86.1038 86.4979 84.049 87.5365L57.1127 101.183C52.4371 103.953 28.6985 86.3676 28.6985 86.3676C32.7002 83.8289 53.379 70.3644 53.379 70.3644C55.4301 69.3295 87.7827 81.4576 87.7827 81.4576Z" fill="url(#paint30_linear_189_13949)"/>
<path d="M82.0908 86.3938C84.1419 85.3552 85.6868 82.0645 85.6868 79.7602L86.6658 15.2522C86.6658 15.2522 85.3815 14.2508 84.1977 13.3909C83.0102 12.531 81.7632 13.2941 81.7632 13.2941L54.838 26.8293C52.7832 27.8642 51.0968 30.5928 51.0968 32.8933V96.9062C51.0968 96.9062 50.9442 98.9388 52.0796 99.7205C53.215 100.502 53.7547 100.804 53.7547 100.804L82.0908 86.3938Z" fill="url(#paint31_linear_189_13949)"/>
<path opacity="0.2" d="M54.0266 31.4192L51.9345 29.8706C51.4171 30.8459 51.097 31.9068 51.097 32.8933V96.9062C51.097 96.9062 50.9444 98.9387 52.0797 99.7205C53.2151 100.502 53.7549 100.804 53.7549 100.804L54.0266 31.4192Z" fill="#ACACF0"/>
<path d="M52.2136 53.3487C52.2136 53.4529 52.1317 53.5646 52.0275 53.5944L51.9158 53.6279C51.8153 53.6577 51.7297 53.5981 51.7297 53.4902V48.863C51.7297 48.7588 51.8116 48.6471 51.9158 48.6174L52.0275 48.5801C52.1317 48.5504 52.2136 48.6136 52.2136 48.7179V53.3487Z" fill="url(#paint32_linear_189_13949)"/>
<path d="M87.4587 81.2938C87.4587 83.5981 85.7799 86.3341 83.725 87.3727L56.7887 101.02C54.7338 102.058 53.0513 101.027 53.0513 98.7265V34.7099C53.0513 32.4093 54.7338 29.6807 56.7924 28.6458L83.7176 15.1144C85.7762 14.0795 87.4587 15.1181 87.4587 17.4187V81.2938Z" fill="url(#paint33_linear_189_13949)"/>
<path d="M71.6378 19.332C71.7458 19.2725 71.9059 19.2948 71.9915 19.3804L72.0883 19.4772C72.1739 19.5665 72.159 19.6857 72.051 19.7452L65.3244 23.2333C65.2164 23.2928 65.0601 23.2705 64.9707 23.1811L64.874 23.0844C64.7884 22.9987 64.8032 22.8759 64.9112 22.8163L71.6378 19.332Z" fill="url(#paint34_linear_189_13949)"/>
<path d="M71.5821 88.9512C71.9991 88.9512 72.4458 88.8283 72.9074 88.5864C74.4262 87.7898 75.6211 85.9657 75.6211 84.4357C75.6211 83.3078 74.9622 82.5819 73.9459 82.5819C73.529 82.5819 73.0823 82.7048 72.6207 82.9467C71.1019 83.7433 69.9107 85.5711 69.9107 87.1011C69.9107 87.652 70.0671 88.1211 70.3723 88.4486C70.6664 88.7762 71.087 88.9512 71.5821 88.9512ZM73.9422 83.2036C74.6123 83.2036 74.9957 83.6503 74.9957 84.432C74.9957 85.7312 73.9273 87.3468 72.617 88.0317C72.2522 88.2253 71.8948 88.3258 71.5821 88.3258C71.2694 88.3258 71.0051 88.2216 70.8227 88.028C70.6292 87.8158 70.5287 87.4919 70.5287 87.0974C70.5287 85.8019 71.597 84.1826 72.9074 83.4977C73.2722 83.3078 73.6295 83.2036 73.9422 83.2036Z" fill="#BABCBE"/>
<path d="M85.3369 75.081L55.3593 89.8446V37.3046L85.3369 22.5372V75.081Z" fill="url(#paint35_linear_189_13949)"/>
<path d="M66.4934 48.0924C66.6162 47.977 66.7539 47.9212 66.8842 47.9137C66.8358 46.3502 67.1336 45.1106 67.7144 44.4853C68.5966 43.536 69.114 43.8822 70.0372 43.3759C70.9641 42.8957 71.4778 42.0879 72.3601 42.1512C72.9408 42.1922 73.2386 43.1302 73.1902 44.7458C73.3205 44.6193 73.4545 44.5411 73.5811 44.5299C73.9645 44.5001 74.1134 45.1218 73.9124 45.9147C73.7188 46.6853 73.2684 47.333 72.8887 47.4C72.8664 47.5228 72.844 47.6494 72.8217 47.776C72.1702 51.2007 70.0335 52.6153 70.0335 52.6153C70.0335 52.6153 67.8968 53.3524 67.2453 50.5791C67.223 50.4748 67.2006 50.3743 67.1783 50.2738C66.8023 50.5865 66.3519 50.3892 66.1546 49.8159C65.961 49.2203 66.1062 48.4498 66.4934 48.0924Z" fill="#A0FFFF"/>
<path d="M73.3913 44.3475C73.3913 44.3475 73.6146 44.1986 73.8343 44.3773C73.8343 44.3773 74.5267 43.0074 74.2586 41.228C73.9906 39.4487 73.3354 39.8916 73.3354 39.8916C73.3354 39.8916 73.0972 38.6595 72.1591 38.6818C71.221 38.7042 69.021 38.9833 67.5878 41.1089C66.1584 43.2382 66.4264 44.5113 66.4264 44.5113C66.4264 44.5113 64.9895 46.1046 65.9983 48.7625C65.9983 48.7625 66.043 48.0589 66.6795 47.7723C66.6795 47.7723 66.6274 45.4085 67.5767 44.3103C68.5259 43.2122 69.2034 43.603 70.2532 42.9255C71.3067 42.248 72.3527 41.2206 72.9297 42.0917C73.5141 42.9627 73.3913 44.3475 73.3913 44.3475Z" fill="#A0FFFF"/>
<path d="M71.8575 50.8621C71.8575 50.8621 70.8673 52.5484 70.0372 53.0062C69.2071 53.4641 68.3136 52.768 68.3136 52.768L68.135 53.6837L70.0781 54.1602L72.0474 51.6103L71.8575 50.8621Z" fill="#A0FFFF"/>
<path d="M61.4194 62.8002C61.5981 61.4154 62.5362 60.1534 62.5362 60.1534L64.8293 57.57L64.9298 58.7389C64.7027 59.0143 64.1332 59.8147 64.0364 60.9985C63.9694 61.8211 63.7572 65.7931 64.0364 66.1691C64.2151 66.4073 64.7623 66.2696 65.1122 66.1505C65.1643 66.3478 65.3505 66.3887 65.5366 66.2361C65.7302 66.0797 65.8493 65.7819 65.8009 65.5697C65.7562 65.3576 65.5626 65.3166 65.3691 65.473C65.2686 65.5549 65.1904 65.674 65.142 65.8005C64.7735 65.9234 64.3528 66.0053 64.2523 65.8713C64.0885 65.6516 64.163 62.5694 64.297 60.9054C64.3975 59.6844 65.0675 58.9548 65.1159 58.8989C65.1867 58.8357 65.92 58.1954 66.3816 58.9101C66.4523 59.0181 66.5379 59.1521 66.6422 59.3084C66.9809 59.8221 67.4909 60.5927 67.8855 61.2925C68.5295 62.4354 68.4923 62.7332 68.4811 62.7816C68.3769 63.0905 68.1535 63.4069 67.9748 63.6266C67.8967 63.5186 67.7441 63.5186 67.5952 63.6415C67.4016 63.7978 67.2825 64.0956 67.3309 64.3078C67.3755 64.52 67.5691 64.5609 67.7627 64.4046C67.8929 64.2966 67.9897 64.1254 68.0232 63.9616C68.2429 63.7047 68.5667 63.2692 68.7231 62.8188C68.8906 62.3274 68.4067 61.3335 66.873 59.0181C66.7725 58.8654 66.6831 58.7314 66.6124 58.6235C66.1657 57.9311 65.4919 58.2884 65.1867 58.5081L65.0787 57.2908L67.1708 54.9344L67.8967 53.9182L70.0446 54.7557L72.1888 51.7628L72.9147 52.0532L74.3441 52.2281C74.5377 52.8312 74.9062 54.3537 74.6717 56.684C74.6605 56.6877 74.6494 56.6952 74.6345 56.6989C74.1394 56.9483 73.7374 57.6519 73.7374 58.2773C73.7374 58.8989 74.1394 59.2042 74.6345 58.9548C75.1296 58.7054 75.5279 58.0018 75.5279 57.3764C75.5279 56.8888 75.2785 56.5947 74.936 56.6133C75.1594 54.484 74.8951 53.0248 74.6866 52.2691L74.7797 52.2803L77.5567 52.619C77.5567 52.619 78.4948 52.9354 78.6734 54.1415C78.8521 55.3476 79.3286 61.7206 79.3286 61.7206L70.0446 66.3887L60.7606 71.0568C60.7643 71.0382 61.2408 64.185 61.4194 62.8002ZM70.6328 56.818L70.8561 58.7351L72.9221 52.4887L72.1962 52.1984L70.3201 54.9456L70.9454 54.8563L71.1241 55.8353L70.6328 56.818ZM69.5123 57.3801L69.0209 56.8962L69.1996 55.7348L69.825 55.195L67.9451 54.3351L67.2192 55.3514L69.2852 59.5169L69.5123 57.3801Z" fill="#A0FFFF"/>
<path d="M80.1699 74.113L60.9876 83.5646V82.9764L80.1699 73.5286V74.113Z" fill="#8FFFFF"/>
<path d="M80.1699 71.9949L60.9876 81.4427V80.8583L80.1699 71.4067V71.9949Z" fill="#8FFFFF"/>
<path d="M80.1699 68.8606L60.9876 78.3121V77.7239L80.1699 68.2761V68.8606Z" fill="#8FFFFF"/>
<path d="M45.9599 56.9223L50.2483 54.3203C50.2483 54.3203 51.1603 53.9889 51.607 54.7409C52.0575 55.4929 53.4683 58.0391 52.426 58.8618C51.2683 59.7701 46.9948 60.4922 46.9948 60.4922C46.9948 60.4922 45.0591 58.6496 45.9599 56.9223Z" fill="#353535"/>
<path d="M47.3075 58.4783C47.6053 59.4648 47.4787 60.3768 47.0209 60.5071C46.5667 60.6374 45.9599 59.945 45.6621 58.9511C45.3643 57.9609 45.4909 57.0526 45.945 56.9186C46.3992 56.792 47.0097 57.4919 47.3075 58.4783Z" fill="#434244"/>
<path d="M76.5815 105.241C83.7585 105.241 92.4619 102.646 96.5343 99.0691C99.222 96.7052 101.53 87.6073 102.394 83.8029C102.494 83.3636 102.219 82.9244 101.779 82.8239C101.34 82.7234 100.901 82.9988 100.8 83.4381C99.0954 90.9204 97.048 96.4372 95.4548 97.8369C91.0882 101.675 80.9592 104.296 73.7821 103.447C70.7334 103.086 64.0067 98.0751 57.0456 90.9762C49.7159 83.5051 44.2214 75.926 42.7026 71.1909C41.1801 66.4447 42.5239 62.5509 46.7043 59.6175C47.0729 59.3569 47.1622 58.847 46.9053 58.4784C46.6448 58.1099 46.1348 58.0206 45.7662 58.2774C41.0014 61.6203 39.4007 66.2585 41.1466 71.6897C43.0488 77.6198 50.0062 86.1295 55.8804 92.1191C61.7025 98.0565 69.4156 104.575 73.5923 105.07C74.5415 105.189 75.5466 105.241 76.5815 105.241Z" fill="url(#paint36_linear_189_13949)"/>
<path d="M46.7007 59.6249C44.2662 61.3298 42.8032 63.3661 42.297 65.7038C42.6171 63.0273 44.1284 60.7193 46.8347 58.8208C46.898 58.7762 46.9464 58.7241 46.9948 58.6682C47.1214 59.007 47.0134 59.4053 46.7007 59.6249Z" fill="url(#paint37_linear_189_13949)"/>
<path d="M40.6812 65.4469C40.469 67.1481 40.6588 68.9684 41.2768 70.8893C43.179 76.8193 50.1364 85.329 56.0106 91.3186C61.8327 97.2561 69.5458 103.774 73.7225 104.269C74.6755 104.381 75.6806 104.437 76.7154 104.437C83.8925 104.437 92.5958 101.842 96.6683 98.2649C99.2405 96.0053 101.459 87.5849 102.408 83.531C102.42 83.6204 102.42 83.7134 102.397 83.8065C101.53 87.6072 99.2257 96.7088 96.538 99.0727C92.4655 102.65 83.7659 105.245 76.5851 105.245C75.5503 105.245 74.5452 105.193 73.5922 105.077C69.4118 104.582 61.7024 98.0639 55.8803 92.1264C50.0062 86.1368 43.0487 77.6271 41.1465 71.6971C40.4243 69.4673 40.2829 67.3752 40.6812 65.4469Z" fill="url(#paint38_linear_189_13949)"/>
<path opacity="0.6" d="M65.2127 97.5092C63.4445 100.759 77.0988 111.592 95.7041 121.702C114.309 131.812 130.826 137.374 132.591 134.124C134.359 130.874 120.705 120.042 102.099 109.931C83.4979 99.8209 66.9809 94.2594 65.2127 97.5092Z" fill="url(#paint39_radial_189_13949)"/>
<path d="M56.9228 92.0483C57.6561 91.2926 58.866 91.2777 59.6216 92.0111C66.6237 98.827 71.8428 102.121 73.9088 102.367C80.7061 103.175 90.6342 100.625 94.7327 97.0216C95.9388 95.9607 98.0048 91.0469 99.9033 82.4516C100.13 81.4241 101.15 80.7727 102.178 80.9998C103.205 81.2268 103.857 82.2468 103.63 83.2742C102.502 88.3779 100.175 97.3194 97.2529 99.888C95.7862 101.176 93.8988 102.285 91.7844 103.205L92.4135 109.496L117.258 123.463C117.887 123.816 118.107 124.609 117.757 125.238C117.518 125.663 117.075 125.905 116.621 125.905C116.405 125.905 116.186 125.853 115.985 125.737L90.5523 111.439C90.18 111.231 89.9381 110.855 89.8934 110.434L89.268 104.18C85.1323 105.587 80.4939 106.332 76.5332 106.332C75.4499 106.332 74.4188 106.276 73.4658 106.164C68.5595 105.583 60.2917 97.9895 56.9675 94.7546C56.2043 94.0138 56.1894 92.804 56.9228 92.0483Z" fill="url(#paint40_linear_189_13949)"/>
<g opacity="0.3">
<path d="M58.9925 91.6053C57.537 91.8808 56.919 92.7295 58.6537 94.9184C60.3922 97.1035 68.7456 103.383 74.6309 104.843C80.5162 106.298 92.6257 101.928 95.4846 100.357C98.3435 98.7861 101.653 87.9684 102.494 84.9978C103.309 82.1203 102.528 81.1598 102.476 81.104C103.324 81.4465 103.831 82.3548 103.626 83.2817C102.498 88.3853 100.171 97.3269 97.2491 99.8954C95.7824 101.183 93.8951 102.293 91.7807 103.212L91.8998 104.415C91.8998 104.415 90.9989 104.288 90.4368 104.567C89.8747 104.846 90.3252 108.997 90.9989 110.173C91.6727 111.35 110.509 121.553 114.321 123.798C116.826 125.272 117.57 125.313 117.786 125.168C117.775 125.194 117.768 125.224 117.753 125.25C117.515 125.674 117.072 125.916 116.617 125.916C116.402 125.916 116.182 125.864 115.981 125.748L90.5485 111.45C90.1763 111.242 89.9343 110.866 89.8896 110.445L89.2642 104.191C85.1285 105.598 80.4902 106.343 76.5294 106.343C75.4461 106.343 74.415 106.287 73.462 106.175C68.5557 105.595 60.2879 98.0006 56.9637 94.7658C56.208 94.0324 56.1931 92.8226 56.9265 92.0669C57.4774 91.4825 58.2964 91.3336 58.9925 91.6053Z" fill="#66B4DB"/>
<path d="M117.865 124.97C117.857 124.993 117.85 125.019 117.838 125.041L117.865 124.97Z" fill="#66B4DB"/>
</g>
<path d="M114.652 103.633C113.669 103.685 112.668 103.54 111.841 103.201C111.685 103.138 111.536 103.071 111.391 102.993L107.412 100.807C106.671 100.402 106.265 99.8769 106.183 99.3334L106.168 122.878V122.923C106.168 122.945 106.172 122.968 106.176 122.99C106.179 123.031 106.191 123.091 106.202 123.173C106.31 123.683 106.712 124.178 107.412 124.561L111.391 126.746C112.307 127.249 113.539 127.457 114.734 127.383V103.674L114.652 103.633Z" fill="#C9D4EC"/>
<path d="M120.995 97.2859C122.603 98.2538 122.596 99.821 120.976 100.77L117.332 102.907C115.713 103.856 113.04 103.893 111.395 102.993L107.415 100.807C105.77 99.9029 105.755 98.399 107.382 97.4646L111.543 95.0784C113.174 94.1441 115.821 94.1701 117.429 95.138L120.995 97.2859Z" fill="url(#paint41_linear_189_13949)"/>
<path d="M120.977 100.77L117.332 102.907C117.187 102.993 117.034 103.067 116.874 103.138C116.238 103.417 115.497 103.581 114.738 103.629V127.386C115.691 127.327 116.614 127.085 117.332 126.664L120.977 124.527C121.755 124.073 122.157 123.474 122.19 122.867V122.707V99.1136C122.153 99.7167 121.751 100.316 120.977 100.77Z" fill="#DDE5F7"/>
<path d="M116.309 101.693L118.657 100.316C119.223 99.9848 119.54 99.5269 119.543 99.0281C119.547 98.5293 119.238 98.0714 118.672 97.7289L116.372 96.3479C115.828 96.0203 115.102 95.8379 114.332 95.8379C113.599 95.8379 112.902 96.0017 112.378 96.3032L109.697 97.8406C109.124 98.1682 108.811 98.6149 108.819 99.0988C108.822 99.579 109.143 100.022 109.72 100.338L112.284 101.749C112.809 102.036 113.498 102.196 114.231 102.196C115.021 102.2 115.758 102.021 116.309 101.693ZM116.171 96.6866L118.471 98.0714C118.911 98.3357 119.153 98.6782 119.149 99.0318C119.149 99.3855 118.903 99.7242 118.46 99.9811L116.111 101.358C115.624 101.641 114.942 101.805 114.235 101.805C113.569 101.805 112.943 101.664 112.478 101.407L109.913 99.996C109.463 99.7503 109.217 99.4301 109.213 99.0951C109.21 98.7601 109.452 98.4362 109.898 98.1831L112.579 96.6457C113.044 96.3777 113.669 96.2325 114.336 96.2325C115.024 96.2362 115.694 96.4 116.171 96.6866Z" fill="#85ECFD"/>
<path opacity="0.8" d="M116.755 135.36C116.349 138.096 122.749 140.214 130.785 140.043C138.543 139.876 144.708 137.627 144.797 135.062C144.883 132.55 139.094 130.551 131.638 130.551C123.921 130.554 117.15 132.684 116.755 135.36Z" fill="url(#paint42_linear_189_13949)"/>
<g opacity="0.32">
<path d="M134.843 130.357C131.117 130.111 127.223 130.253 123.62 130.755C119.908 131.273 116.603 132.162 114.187 133.346C111.469 134.679 110.029 136.309 110.457 137.999C110.963 139.998 113.989 141.811 119.327 142.883C125.302 144.086 132.606 144.071 139.038 142.779C145.136 141.554 148.791 139.511 149.484 137.292C150.072 135.409 148.389 133.692 145.225 132.416C142.493 131.321 138.826 130.621 134.843 130.357ZM119.38 142.85C108.99 140.762 108.253 136.291 114.239 133.354C118.922 131.057 127.409 129.881 134.828 130.372C143.334 130.938 150.53 133.7 149.402 137.288C147.816 142.314 132.483 145.478 119.38 142.85Z" fill="white"/>
</g>
<g opacity="0.32">
<path d="M136.317 129.166C127.011 128.652 116.387 130.067 109.954 132.873C101.121 136.726 99.8847 143.367 114.205 147.027C134.687 152.257 158.727 146.569 158.377 138.294C158.169 133.231 147.381 129.776 136.317 129.166ZM114.514 146.781C100.398 143.222 101.493 136.704 110.17 132.9C116.513 130.119 127.03 128.715 136.247 129.229C147.18 129.84 157.77 133.257 157.882 138.241C158.068 146.308 134.553 151.829 114.514 146.781Z" fill="white"/>
</g>
<path opacity="0.32" d="M109.105 132.777C107.415 133.499 105.997 134.284 104.873 135.114L103.555 135.126C104.795 134.247 106.332 133.424 108.149 132.669C110.468 131.705 113.074 130.923 115.769 130.32L116.26 130.525C113.71 131.113 111.264 131.857 109.105 132.777Z" fill="white"/>
<path opacity="0.32" d="M109.105 132.777C107.415 133.499 105.997 134.284 104.873 135.114L103.555 135.126C104.795 134.247 106.332 133.424 108.149 132.669C110.468 131.705 113.074 130.923 115.769 130.32L116.26 130.525C113.71 131.113 111.264 131.857 109.105 132.777Z" fill="white"/>
<path opacity="0.32" d="M113.386 131.69C111.51 132.274 109.965 132.903 108.547 133.614L107.203 133.543C108.741 132.799 110.431 132.11 112.422 131.503C115.013 130.714 117.876 130.115 120.686 129.679L121.125 129.925C118.453 130.35 115.821 130.934 113.386 131.69Z" fill="white"/>
<path opacity="0.32" d="M149.205 130.9L147.131 131.41C144.012 130.443 140.122 129.791 135.859 129.542C130.365 129.218 124.71 129.612 120.031 130.502C119.633 130.309 119.294 130.145 119.1 130.033C124.286 129.076 130.495 128.645 136.57 128.968C141.242 129.214 145.59 129.884 149.205 130.9Z" fill="white"/>
<path opacity="0.32" d="M160 138.457L155.042 137.884C155.22 135.535 152.73 133.532 149.071 132.11L151.822 131.708C156.333 133.309 159.698 135.639 160 138.457Z" fill="white"/>
<path opacity="0.32" d="M150.88 130.874L148.758 131.347C145.259 130.208 140.743 129.505 136.552 129.259L137.274 128.686C141.99 128.935 146.785 129.635 150.88 130.874Z" fill="white"/>
<path opacity="0.32" d="M103.682 136.19L106.835 136.064C104.951 138.238 105.446 140.542 108.391 142.53L104.281 144.034C101.195 141.532 101.102 138.737 103.682 136.19Z" fill="white"/>
<path opacity="0.32" d="M104.925 137.11L108.368 136.778C107.657 139.049 109.668 141.279 114.146 142.988L110.598 144.804C105.547 142.597 103.641 139.823 104.925 137.11Z" stroke="white" stroke-width="0.2482" stroke-miterlimit="10"/>
<path opacity="0.32" d="M125.447 129.661L125.712 130.264C121.885 130.58 118.397 131.321 115.568 132.349L114.086 131.928C117.306 130.811 121.207 130.011 125.447 129.661Z" stroke="white" stroke-width="0.2305" stroke-miterlimit="10"/>
<g opacity="0.32">
<path d="M107.639 138.476C107.933 140.743 111.03 143.029 117.41 144.436C124.256 145.947 132.524 145.962 139.69 144.681L140.114 145.031C132.684 146.375 124.092 146.353 117.012 144.76C110.457 143.282 107.322 140.907 107.08 138.565L107.639 138.476Z" fill="url(#paint43_linear_189_13949)"/>
<path d="M140.624 144.934L140.196 144.588C147.399 143.226 152.101 140.776 152.879 137.992L153.586 138.074C152.868 140.959 148.062 143.512 140.624 144.934Z" fill="url(#paint44_linear_189_13949)"/>
<path d="M112.057 133.328C109.064 134.802 107.486 136.559 107.624 138.338L107.065 138.428C106.969 136.596 108.625 134.794 111.715 133.29L112.057 133.328Z" fill="url(#paint45_linear_189_13949)"/>
<path d="M122.298 130.42C118.639 130.975 115.132 131.891 112.43 133.149C112.37 133.179 112.311 133.205 112.251 133.235L111.912 133.197C111.972 133.168 112.031 133.142 112.095 133.112C114.875 131.827 118.464 130.897 122.198 130.335L122.298 130.42Z" fill="url(#paint46_linear_189_13949)"/>
<path d="M147.116 132.017C144.045 130.893 139.98 130.134 135.461 129.854C131.016 129.583 126.505 129.802 122.555 130.379L122.451 130.294C126.464 129.709 131.054 129.482 135.576 129.758C140.189 130.037 144.35 130.807 147.515 131.95L147.116 132.017Z" fill="url(#paint47_linear_189_13949)"/>
<path d="M152.916 137.832C152.927 137.784 152.938 137.731 152.946 137.683C153.333 135.412 150.951 133.462 147.347 132.099L147.749 132.036C151.479 133.421 153.981 135.423 153.646 137.761C153.638 137.81 153.627 137.862 153.62 137.91L152.916 137.832Z" fill="url(#paint48_linear_189_13949)"/>
</g>
<path opacity="0.32" d="M139.455 147.06L137.199 144.521C145.3 143.263 150.332 140.866 151.967 138.331L156.806 139.112C155.362 142.318 149.517 145.437 139.455 147.06Z" stroke="white" stroke-width="0.2482" stroke-miterlimit="10"/>
<g opacity="0.32">
<path d="M136.455 129.054C131.66 128.793 126.732 128.991 122.149 129.605C117.392 130.245 112.999 131.34 109.556 132.825C105.528 134.563 102.892 136.793 102.65 139.25C102.341 142.373 105.878 145.467 113.624 147.496C122.886 149.923 134.955 150.075 145.363 147.704C154.896 145.53 159.624 141.982 159.341 138.394C159.121 135.58 155.782 133.19 150.802 131.526C146.703 130.16 141.67 129.337 136.455 129.054ZM113.71 147.429C99.0581 143.602 100.525 136.763 109.615 132.836C116.197 129.992 126.981 128.559 136.436 129.073C147.704 129.683 158.816 133.194 159.192 138.383C159.821 146.993 134.921 152.968 113.71 147.429Z" fill="white"/>
</g>
<g opacity="0.32">
<path d="M107.088 138.565C107.334 140.907 110.464 143.282 117.02 144.756C124.085 146.345 132.654 146.368 140.073 145.031L140.516 145.396C132.822 146.799 123.91 146.77 116.603 145.091C109.869 143.546 106.701 141.074 106.511 138.658L107.088 138.565Z" stroke="white" stroke-width="0.254" stroke-miterlimit="10"/>
<path d="M141.045 145.296L140.595 144.934C148.036 143.516 152.845 140.966 153.571 138.078L154.305 138.163C153.646 141.152 148.736 143.81 141.045 145.296Z" stroke="white" stroke-width="0.254" stroke-miterlimit="10"/>
<path d="M111.719 133.294C108.636 134.794 106.98 136.596 107.08 138.42L106.507 138.513C106.451 136.633 108.19 134.787 111.372 133.257L111.719 133.294Z" stroke="white" stroke-width="0.254" stroke-miterlimit="10"/>
<path d="M122.179 130.342C118.453 130.904 114.872 131.831 112.098 133.115C112.035 133.145 111.975 133.171 111.916 133.201L111.57 133.16C111.633 133.13 111.693 133.104 111.756 133.075C114.607 131.768 118.274 130.826 122.075 130.253L122.179 130.342Z" stroke="white" stroke-width="0.254" stroke-miterlimit="10"/>
<path d="M147.511 131.954C144.35 130.815 140.189 130.044 135.58 129.761C131.054 129.486 126.46 129.713 122.447 130.301L122.339 130.216C126.426 129.62 131.095 129.393 135.699 129.668C140.401 129.951 144.663 130.729 147.92 131.891L147.511 131.954Z" stroke="white" stroke-width="0.254" stroke-miterlimit="10"/>
<path d="M153.608 137.914C153.616 137.862 153.627 137.813 153.634 137.761C153.97 135.423 151.468 133.424 147.742 132.04L148.155 131.973C152.008 133.387 154.632 135.435 154.357 137.843C154.349 137.895 154.342 137.947 154.334 137.999L153.608 137.914Z" stroke="white" stroke-width="0.254" stroke-miterlimit="10"/>
</g>
<path opacity="0.32" d="M114.555 134.34C113.01 135.301 112.497 136.369 113.085 137.355L109.917 137.843C109.883 137.757 109.857 137.672 109.835 137.586C109.537 136.354 110.505 135.133 112.396 134.08L114.555 134.34Z" fill="white"/>
<path opacity="0.32" d="M145.471 136.924C146.145 135.714 145.572 134.567 144.187 133.607L148.754 133.592C150.541 134.761 151.368 136.127 150.891 137.575C150.59 138.491 149.785 139.388 148.486 140.222L143.528 138.707C144.462 138.152 145.121 137.553 145.471 136.924Z" fill="white"/>
<path opacity="0.32" d="M145.143 135.863C145.14 134.727 144.03 133.719 142.258 132.911L146.435 132.68C148.635 133.644 150.057 134.824 150.362 136.146C150.556 136.983 150.292 137.832 149.551 138.662L144.272 137.601C144.849 137.035 145.143 136.455 145.143 135.863Z" stroke="white" stroke-width="0.2376" stroke-miterlimit="10"/>
<g opacity="0.32">
<path d="M111.905 137.787C112.474 139.511 115.21 141.171 120.254 142.139C125.492 143.144 131.627 143.114 136.976 142.21L137.266 142.444C131.738 143.39 125.384 143.419 119.975 142.366C114.797 141.357 112.013 139.637 111.462 137.858L111.905 137.787Z" fill="white"/>
<path d="M137.65 142.377L137.356 142.143C142.809 141.167 146.64 139.41 147.66 137.337L148.188 137.396C147.191 139.541 143.271 141.365 137.65 142.377Z" fill="white"/>
<path d="M114.838 133.603C112.523 134.835 111.48 136.272 111.871 137.679L111.432 137.75C111.06 136.306 112.154 134.831 114.544 133.573L114.838 133.603Z" fill="white"/>
<path d="M123.292 131.094C120.195 131.574 117.28 132.371 115.128 133.45C115.08 133.473 115.032 133.499 114.987 133.525L114.697 133.491C114.745 133.465 114.79 133.443 114.838 133.417C117.049 132.315 120.031 131.504 123.195 131.016L123.292 131.094Z" fill="white"/>
<path d="M143.989 132.538C141.607 131.567 138.294 130.889 134.508 130.633C130.737 130.372 126.877 130.558 123.515 131.064L123.419 130.99C126.843 130.476 130.774 130.29 134.612 130.551C138.48 130.811 141.871 131.5 144.328 132.49L143.989 132.538Z" fill="white"/>
<path d="M147.716 137.218C147.73 137.18 147.749 137.143 147.764 137.106C148.441 135.334 146.874 133.752 144.164 132.613L144.503 132.557C147.302 133.722 148.948 135.341 148.293 137.166C148.278 137.203 148.263 137.244 148.244 137.281L147.716 137.218Z" fill="white"/>
</g>
<path d="M116.398 136.994C117.135 138.331 119.558 139.474 123.355 140.106C127.45 140.791 132.256 140.739 136.514 139.946C140.624 139.179 143.304 137.888 144.101 136.429C144.812 135.126 143.896 133.89 141.774 132.926C139.876 132.062 137.162 131.492 134.113 131.265C131.221 131.049 128.172 131.154 125.369 131.556C122.503 131.969 120.031 132.676 118.348 133.599C116.509 134.616 115.746 135.811 116.398 136.994ZM141.73 132.937C146.368 135.047 144.771 138.379 136.481 139.924C127.562 141.584 118.084 139.935 116.45 136.987C115.181 134.69 119.409 132.434 125.38 131.574C131.079 130.752 138.029 131.25 141.73 132.937Z" fill="white"/>
<path d="M111.458 137.787C112.802 142.236 126.43 145.076 139.783 142.411C151.762 140.021 152.734 135.122 145.642 132.311C140.382 130.227 131.429 129.672 124.2 130.681C116.524 131.757 110.509 134.638 111.458 137.787ZM145.441 132.341C152.395 135.114 151.367 139.924 139.597 142.265C126.501 144.867 113.1 142.105 111.726 137.743C110.751 134.638 116.67 131.786 124.26 130.722C131.415 129.724 140.263 130.279 145.441 132.341Z" fill="white"/>
<path d="M140.564 142.995C143.334 142.437 145.597 141.703 147.328 140.866L148.788 141.357C146.949 142.28 144.51 143.088 141.51 143.71C137.203 144.599 132.483 144.949 127.923 144.804L128.168 144.004C132.326 144.119 136.626 143.795 140.564 142.995Z" fill="white"/>
<path opacity="0.7" d="M140.564 142.995C143.334 142.437 145.597 141.703 147.328 140.866L148.788 141.357C146.949 142.28 144.51 143.088 141.51 143.71C137.203 144.599 132.483 144.949 127.923 144.804L128.168 144.004C132.326 144.119 136.626 143.795 140.564 142.995Z" fill="white"/>
<path opacity="0.7" d="M134.084 143.032C137.177 142.805 139.816 142.351 142.225 141.741L143.617 142.455C141.008 143.137 138.022 143.699 134.631 143.948C129.914 144.294 125.321 144.037 121.401 143.438L122.082 142.671C125.678 143.189 129.807 143.345 134.084 143.032Z" fill="white"/>
<path d="M130.469 129.914C128.79 129.959 127.167 130.067 125.633 130.234L125.436 130.033C127.044 129.858 128.738 129.743 130.499 129.698C132.978 129.635 135.386 129.717 137.642 129.922L137.24 130.134C135.107 129.936 132.825 129.855 130.469 129.914Z" fill="white"/>
<path d="M113.401 133.715L115.322 133.793C113.524 134.865 112.578 136.172 113.096 137.527C113.952 139.768 118.49 141.528 124.971 142.087C124.61 142.66 124.26 143.189 123.995 143.539C116.334 142.798 111.227 140.616 110.538 137.936C110.136 136.38 111.328 134.913 113.401 133.715Z" fill="white"/>
<path d="M123.999 130.547L124.565 130.994C121.271 131.463 118.483 132.241 116.495 133.194L114.805 132.985C117.124 131.92 120.299 131.061 123.999 130.547Z" fill="white"/>
<path opacity="0.8" d="M112.906 133.469L114.715 133.569C112.452 134.772 111.376 136.253 111.771 137.612L109.098 138.029C108.841 136.436 110.185 134.839 112.906 133.469Z" fill="white"/>
<path d="M149 139.849L145.895 139.019C148.441 137.437 148.661 135.74 147.288 134.318L149.99 134.232C151.829 135.892 151.84 137.917 149 139.849Z" fill="white"/>
<path d="M148.106 138.465L144.976 137.884C146.625 136.272 146.134 134.697 144.317 133.45L146.707 133.242C149.011 134.671 149.841 136.525 148.106 138.465Z" stroke="white" stroke-width="0.183" stroke-miterlimit="10"/>
<path d="M118.285 141.097L120.437 140.024C123.925 141.089 128.731 141.357 133.522 140.869L133.95 142.224C128.139 142.824 122.35 142.455 118.285 141.097Z" stroke="white" stroke-width="0.1699" stroke-miterlimit="10"/>
<path d="M146.405 136.667C147.034 135.219 145.955 133.793 143.353 132.676C141.197 131.749 138.275 131.165 135.23 130.908L135.323 130.83C138.439 131.09 141.436 131.682 143.658 132.628C146.342 133.767 147.481 135.23 146.859 136.719L146.405 136.667Z" fill="url(#paint49_linear_189_13949)"/>
<path d="M135.111 130.811L135.014 130.889C131.928 130.644 128.511 130.711 125.276 131.139L125.179 131.068C128.478 130.632 131.962 130.562 135.111 130.811Z" fill="url(#paint50_linear_189_13949)"/>
<path d="M138.372 140.762C142.902 139.812 145.59 138.32 146.353 136.771L146.815 136.823C146.059 138.42 143.304 139.969 138.633 140.955L138.372 140.762Z" fill="url(#paint51_linear_189_13949)"/>
<path d="M123.098 141.182C127.551 141.852 132.9 141.815 137.758 140.884C137.858 140.866 137.959 140.843 138.056 140.825L138.312 141.018C138.212 141.037 138.111 141.059 138.011 141.078C132.989 142.042 127.454 142.079 122.864 141.376L123.098 141.182Z" fill="url(#paint52_linear_189_13949)"/>
<path d="M116.833 133.51C114.846 134.582 113.8 135.926 114.421 137.311C115.188 139.016 118.267 140.412 122.79 141.134L122.559 141.327C117.92 140.575 114.782 139.131 114.03 137.378C113.42 135.952 114.514 134.578 116.562 133.484L116.833 133.51Z" fill="url(#paint53_linear_189_13949)"/>
<path d="M125.075 131.165C125.008 131.172 124.945 131.183 124.881 131.191C121.587 131.66 118.836 132.46 116.967 133.439L116.696 133.409C118.613 132.412 121.427 131.6 124.785 131.124C124.848 131.113 124.911 131.105 124.978 131.098L125.075 131.165Z" fill="url(#paint54_linear_189_13949)"/>
<path d="M136.716 130.584L135.912 131.098C132.561 130.77 129.084 130.815 125.943 131.146L125.544 130.662C129.055 130.294 132.941 130.234 136.716 130.584Z" stroke="white" stroke-width="0.183" stroke-miterlimit="10"/>
<path d="M113.937 133.119C111.041 134.515 109.474 136.239 109.88 138.04C110.367 140.199 113.595 142.18 119.383 143.371C125.928 144.719 133.95 144.715 140.948 143.285C147.548 141.938 151.356 139.693 151.874 137.285C152.309 135.267 150.329 133.454 146.822 132.118C143.818 130.975 139.883 130.26 135.662 129.996C131.724 129.75 127.636 129.903 123.862 130.424C119.968 130.967 116.491 131.891 113.937 133.119ZM151.777 137.277C150.567 142.779 133.883 146.297 119.436 143.33C108.216 141.026 107.583 136.216 113.986 133.127C118.929 130.74 127.819 129.523 135.643 130.011C144.678 130.58 152.618 133.454 151.777 137.277Z" fill="url(#paint55_linear_189_13949)"/>
<path d="M110.955 137.869C111.518 139.883 114.63 141.711 120.087 142.794C126.203 144.008 133.641 143.993 140.148 142.686C146.308 141.446 149.945 139.38 150.552 137.143C151.066 135.248 149.286 133.529 146.022 132.252C143.204 131.15 139.466 130.454 135.427 130.193C131.649 129.951 127.722 130.096 124.096 130.603C120.359 131.124 117.042 132.014 114.63 133.197C111.905 134.534 110.486 136.168 110.955 137.869ZM145.962 132.259C153.285 135.126 152.402 140.17 140.092 142.641C126.322 145.407 112.322 142.444 111.03 137.854C110.122 134.63 116.29 131.701 124.103 130.61C131.456 129.586 140.568 130.145 145.962 132.259Z" fill="white"/>
<g opacity="0.5">
<path d="M146.859 136.719C147.477 135.23 146.342 133.767 143.658 132.628C141.439 131.686 138.45 131.094 135.342 130.83L135.439 130.748C138.618 131.012 141.685 131.615 143.974 132.576C146.748 133.741 147.943 135.237 147.336 136.767L146.859 136.719Z" stroke="white" stroke-width="0.1873" stroke-miterlimit="10"/>
<path d="M135.215 130.733L135.122 130.815C131.973 130.565 128.492 130.636 125.198 131.072L125.101 131.001C128.455 130.554 132.003 130.48 135.215 130.733Z" stroke="white" stroke-width="0.1873" stroke-miterlimit="10"/>
<path d="M138.644 140.948C143.304 139.965 146.055 138.42 146.811 136.823L147.287 136.875C146.543 138.524 143.725 140.125 138.915 141.145L138.644 140.948Z" stroke="white" stroke-width="0.1873" stroke-miterlimit="10"/>
<path d="M122.897 141.376C127.48 142.076 133.004 142.038 138.015 141.074C138.119 141.056 138.219 141.033 138.324 141.015L138.592 141.216C138.487 141.238 138.387 141.257 138.283 141.279C133.105 142.28 127.39 142.314 122.663 141.577L122.897 141.376Z" stroke="white" stroke-width="0.1873" stroke-miterlimit="10"/>
<path d="M116.565 133.48C114.522 134.575 113.424 135.948 114.038 137.374C114.793 139.131 117.935 140.575 122.581 141.327L122.343 141.528C117.578 140.743 114.377 139.25 113.636 137.441C113.036 135.978 114.183 134.571 116.29 133.454L116.565 133.48Z" stroke="white" stroke-width="0.1873" stroke-miterlimit="10"/>
<path d="M124.986 131.098C124.919 131.109 124.855 131.116 124.788 131.124C121.427 131.6 118.62 132.412 116.699 133.41L116.424 133.38C118.393 132.363 121.267 131.537 124.692 131.053C124.759 131.042 124.822 131.035 124.889 131.027L124.986 131.098Z" stroke="white" stroke-width="0.1873" stroke-miterlimit="10"/>
</g>
<path d="M121.933 136.164C124.085 137.162 126.836 137.843 130.785 137.85L130.004 139.518C129.665 139.514 129.33 139.507 128.995 139.496C124.022 139.328 121.129 138.606 118.654 137.069L121.933 136.164Z" fill="white"/>
<path d="M130.871 131.95C129.114 131.928 127.394 132.066 125.846 132.323L125.578 131.697C127.357 131.433 129.259 131.303 131.173 131.317C132.289 131.329 133.376 131.388 134.411 131.496L133.335 132.088C132.554 132.01 131.731 131.961 130.871 131.95Z" fill="white"/>
<path d="M137.672 138.628C140.029 138.074 141.443 137.236 141.823 136.354L144.399 136.656C144.373 136.726 144.343 136.793 144.31 136.864C143.736 137.973 141.916 138.956 139.109 139.611L137.672 138.628Z" fill="white"/>
<path d="M126.11 132.021C124.167 132.289 122.492 132.717 121.174 133.246L119.722 132.672C121.311 132.107 123.214 131.667 125.321 131.381C126.519 131.217 127.748 131.109 128.984 131.053L128.913 131.757C127.979 131.805 127.037 131.894 126.11 132.021Z" fill="white"/>
<path d="M124.71 132.352C122.901 132.713 121.442 133.223 120.403 133.823L118.546 133.32C119.856 132.672 121.554 132.14 123.527 131.757C124.64 131.541 125.808 131.377 127.011 131.265L127.365 131.958C126.456 132.051 125.567 132.181 124.71 132.352Z" stroke="white" stroke-width="0.1752" stroke-miterlimit="10"/>
<path d="M142.947 136.291C143.617 135.148 142.928 133.99 140.944 133.063C139.265 132.274 136.89 131.768 134.363 131.533L134.445 131.463C137.032 131.697 139.47 132.215 141.201 133.019C143.245 133.968 143.974 135.152 143.301 136.328L142.947 136.291Z" fill="white"/>
<path d="M134.262 131.448L134.181 131.518C131.59 131.295 128.697 131.347 125.969 131.716L125.887 131.652C128.671 131.276 131.619 131.224 134.262 131.448Z" fill="white"/>
<path d="M136.38 139.395C139.913 138.684 142.132 137.56 142.895 136.373L143.252 136.414C142.482 137.642 140.211 138.804 136.567 139.537L136.38 139.395Z" fill="white"/>
<path d="M124.606 139.753C128.064 140.225 132.159 140.177 135.904 139.488C135.982 139.474 136.06 139.459 136.135 139.444L136.321 139.581C136.243 139.596 136.168 139.611 136.087 139.626C132.223 140.341 127.994 140.386 124.435 139.89L124.606 139.753Z" fill="white"/>
<path d="M119.007 133.737C117.459 134.63 116.744 135.729 117.414 136.834C118.211 138.156 120.779 139.198 124.36 139.719L124.193 139.861C120.522 139.321 117.902 138.245 117.101 136.886C116.435 135.751 117.18 134.627 118.777 133.715L119.007 133.737Z" fill="white"/>
<path d="M125.797 131.738C125.742 131.746 125.689 131.753 125.634 131.76C122.864 132.162 120.597 132.847 119.112 133.678L118.881 133.651C120.403 132.806 122.726 132.107 125.552 131.697C125.608 131.69 125.66 131.682 125.715 131.675L125.797 131.738Z" fill="white"/>
<path d="M131.277 131.6C131.277 131.6 130.54 132.289 129.587 132.114C128.638 131.935 125.961 133.29 127.647 134.4C129.345 135.509 132.059 135.2 132.059 135.2L132.405 135.569C132.405 135.569 134.158 135.583 134.813 135.152C135.468 134.716 134.772 131.995 134.772 131.995L134.069 131.284C134.069 131.288 131.742 131.649 131.277 131.6Z" fill="#231F20"/>
<path d="M134.095 109.451C134.095 109.451 134.333 112.976 133.533 114.953C132.732 116.93 133.053 119.387 133.213 119.867C133.373 120.347 134.333 128.362 134.389 131.247L130.722 131.746C130.722 131.746 129.955 122.595 129.583 119.603C129.211 116.61 129.3 110.307 129.3 110.307L134.095 109.451Z" fill="#A8896D"/>
<path d="M128.046 135.725C128.046 135.725 127.245 136.332 126.315 136.064C125.388 135.788 122.588 136.86 124.156 138.137C125.726 139.414 128.459 139.38 128.459 139.38L128.764 139.786C128.764 139.786 130.51 139.984 131.202 139.615C131.895 139.25 131.415 136.335 131.415 136.335L130.793 135.513C130.789 135.509 128.507 135.814 128.046 135.725Z" fill="#231F20"/>
<path d="M125.447 110.237C125.447 110.237 125.306 119.279 125.518 121.203C125.734 123.124 127.335 130.815 127.335 132.311C127.335 133.808 127.335 135.784 127.335 135.784C127.335 135.784 130.592 136.265 131.66 135.464C131.66 135.464 131.69 131.031 130.957 127.23C130.22 123.433 129.043 118.854 130.112 116.289C131.18 113.725 132.878 112.146 132.989 109.812C132.993 109.809 128.064 110.877 125.447 110.237Z" fill="#CDAA8E"/>
<path d="M126.985 85.8652C126.985 85.8652 126.441 86.2189 126.691 87.5664C126.72 87.7265 126.519 88.2104 126.493 88.3481C126.467 88.4822 126.363 88.7874 126.594 88.8209C126.877 88.8656 126.899 88.9661 126.918 89.1745C126.936 89.383 127.089 90.3993 127.204 90.7864C127.32 91.1773 127.398 91.5011 127.733 91.4974C128.37 91.4863 128.969 90.9465 129.095 90.5482C129.095 90.5482 129.572 91.7059 129.136 92.6402C129.136 92.6402 131.802 93.2545 132.736 91.2257C132.736 91.2257 131.362 90.3434 132.226 88.847C133.064 87.3952 132.349 84.5139 130.35 84.2943C128.358 84.0747 126.944 84.7968 126.985 85.8652Z" fill="#E6CDA4"/>
<path d="M126.635 84.7224C126.635 84.7224 126.478 84.8117 126.43 85.2956C126.397 85.6344 126.449 86.096 126.925 86.364C127.201 86.5166 127.677 86.4943 127.677 86.4943C127.729 87.2574 128.373 87.961 128.373 87.961C128.373 87.961 128.734 87.6855 128.887 88.1992C129.04 88.7129 128.902 89.3607 128.902 89.3607L129.218 88.9624C129.278 88.8916 129.46 88.8842 129.706 89.074C129.952 89.2602 130.082 89.4612 130.082 89.4612C130.372 90.0158 131.47 90.5146 131.47 90.5146C131.809 90.3471 132.345 89.3532 132.345 89.3532L132.375 89.651C132.468 89.4612 132.822 89.0666 133.079 88.1099C133.253 87.451 133.227 86.5985 132.863 85.7163C132.494 84.8303 131.925 84.4134 131.575 84.1268C131.225 83.8438 130.577 83.8252 130.577 83.8252L130.797 84.1119C130.577 83.8252 129.65 83.6354 129.092 83.7173C127.491 83.9518 127.487 84.0933 127.052 83.9779C126.739 83.896 127.636 84.3948 127.636 84.3948C127.636 84.3948 127.491 84.4655 127.294 84.432C127.093 84.4022 126.836 84.19 126.836 84.19C126.717 84.3799 126.962 84.9011 126.962 84.9011C126.962 84.9011 126.724 84.8489 126.635 84.7224Z" fill="#55400F"/>
<path opacity="0.3" d="M129.319 91.7505L129.315 91.7542C129.319 91.1028 129.099 90.5481 129.099 90.5481C129.099 90.5481 129.356 90.0642 129.416 89.7217C129.412 89.7217 129.49 90.7826 129.319 91.7505Z" fill="#E6CDA4"/>
<path d="M121.26 100.145L120.463 101.854C120.463 101.854 118.825 100.566 118.449 100.305C118.073 100.044 117.652 100.104 117.492 100.115C117.332 100.13 116.536 100.089 116.405 99.9253C116.275 99.7652 116.23 99.5791 116.23 99.5791C116.23 99.5791 116.13 99.5642 116.044 99.419C115.959 99.2738 115.944 99.0579 115.944 99.0579C115.944 99.0579 115.713 98.9127 115.683 98.7676C115.653 98.6224 115.683 98.4511 115.784 98.4065C115.884 98.3618 116.014 98.2352 116.014 98.2352C116.014 98.2352 115.754 98.09 115.449 97.9746C115.143 97.8592 114.581 97.7587 114.466 97.729C114.35 97.6992 114.391 97.4237 114.671 97.4237C114.946 97.4237 115.467 97.4237 115.668 97.5131C115.869 97.5987 115.988 97.6433 116.134 97.5987C116.279 97.554 116.636 97.4349 116.785 97.4535C117.135 97.4982 117.366 97.7439 117.511 97.8034C117.656 97.863 118.192 98.6 118.497 98.7303C118.799 98.8569 121.26 100.145 121.26 100.145Z" fill="#E6CDA4"/>
<path d="M125.767 104.232C125.868 104.121 124.721 110.412 124.721 110.412C129.047 112.12 134.657 109.183 134.657 109.183C134.657 109.183 134.281 107.262 134.229 105.766C134.176 104.269 135.669 98.0751 135.885 97.0589C136.101 96.0426 135.457 92.5174 135.033 91.449C134.605 90.3806 132.215 90.6784 132.215 90.6784C132.174 92.9157 129.207 92.4057 129.207 92.4057C129.207 92.4057 127.584 93.0981 127.07 93.5522C126.556 94.0026 125.205 94.9668 125.138 95.8044C125.075 96.6419 124.118 101.239 124.118 101.239L119.986 99.2142C119.986 99.2142 118.828 99.9848 118.698 101.083C118.698 101.083 123.653 103.979 124.234 104.173C124.234 104.173 125.294 104.768 125.767 104.232Z" fill="#7FDFBC"/>
<path opacity="0.4" d="M124.721 110.412C124.721 110.412 125.473 106.175 125.767 104.232C126.873 103.38 127.111 102.546 127.175 102.095C127.238 101.645 127.387 99.8582 127.517 98.7638C127.647 97.6694 128.288 96.2213 128.224 97.2525C128.161 98.2836 127.268 100.781 127.781 102.133C128.079 102.914 126.359 104.556 126.229 107.452C126.177 108.625 126.166 110.155 128.031 110.348C129.896 110.542 133.76 109.06 134.147 108.804C134.534 108.547 133.89 106.421 133.696 104.683C133.503 102.944 134.728 97.6657 135.241 96.7648C135.755 95.8677 135.319 92.4243 135.316 92.3871C135.688 93.8724 136.057 96.2511 135.885 97.0514C135.669 98.064 134.177 104.262 134.229 105.758C134.281 107.255 134.657 109.176 134.657 109.176C134.657 109.176 129.047 112.12 124.721 110.412Z" fill="#7FDFBC"/>
</g>
<defs>
<filter id="filter0_d_189_13949" x="0" y="-1" width="162" height="162" filterUnits="userSpaceOnUse" color-interpolation-filters="sRGB">
<feFlood flood-opacity="0" result="BackgroundImageFix"/>
<feColorMatrix in="SourceAlpha" type="matrix" values="0 0 0 0 0 0 0 0 0 0 0 0 0 0 0 0 0 0 127 0" result="hardAlpha"/>
<feOffset dx="-4" dy="4"/>
<feGaussianBlur stdDeviation="3"/>
<feComposite in2="hardAlpha" operator="out"/>
<feColorMatrix type="matrix" values="0 0 0 0 0 0 0 0 0 0 0 0 0 0 0 0 0 0 0.25 0"/>
<feBlend mode="normal" in2="BackgroundImageFix" result="effect1_dropShadow_189_13949"/>
<feBlend mode="normal" in="SourceGraphic" in2="effect1_dropShadow_189_13949" result="shape"/>
</filter>
<linearGradient id="paint0_linear_189_13949" x1="67.8943" y1="49.0337" x2="137.003" y2="49.0337" gradientUnits="userSpaceOnUse">
<stop stop-color="white"/>
<stop offset="1" stop-color="#D1E1FB"/>
</linearGradient>
<linearGradient id="paint1_linear_189_13949" x1="67.8944" y1="59.7306" x2="137.003" y2="59.7306" gradientUnits="userSpaceOnUse">
<stop stop-color="white"/>
<stop offset="1" stop-color="#D1E1FB"/>
</linearGradient>
<linearGradient id="paint2_linear_189_13949" x1="67.8945" y1="54.3822" x2="137.003" y2="54.3822" gradientUnits="userSpaceOnUse">
<stop stop-color="white"/>
<stop offset="1" stop-color="#D1E1FB"/>
</linearGradient>
<linearGradient id="paint3_linear_189_13949" x1="67.8942" y1="41.011" x2="137.003" y2="41.011" gradientUnits="userSpaceOnUse">
<stop stop-color="white"/>
<stop offset="1" stop-color="#D1E1FB"/>
</linearGradient>
<linearGradient id="paint4_linear_189_13949" x1="67.8943" y1="78.4505" x2="137.003" y2="78.4505" gradientUnits="userSpaceOnUse">
<stop stop-color="white"/>
<stop offset="1" stop-color="#D1E1FB"/>
</linearGradient>
<linearGradient id="paint5_linear_189_13949" x1="67.8943" y1="41.011" x2="137.003" y2="41.011" gradientUnits="userSpaceOnUse">
<stop stop-color="white"/>
<stop offset="1" stop-color="#D1E1FB"/>
</linearGradient>
<linearGradient id="paint6_linear_189_13949" x1="67.8945" y1="65.0792" x2="137.003" y2="65.0792" gradientUnits="userSpaceOnUse">
<stop stop-color="white"/>
<stop offset="1" stop-color="#D1E1FB"/>
</linearGradient>
<linearGradient id="paint7_linear_189_13949" x1="67.8944" y1="49.0337" x2="137.003" y2="49.0337" gradientUnits="userSpaceOnUse">
<stop stop-color="white"/>
<stop offset="1" stop-color="#D1E1FB"/>
</linearGradient>
<linearGradient id="paint8_linear_189_13949" x1="67.8943" y1="59.7306" x2="137.003" y2="59.7306" gradientUnits="userSpaceOnUse">
<stop stop-color="white"/>
<stop offset="1" stop-color="#D1E1FB"/>
</linearGradient>
<linearGradient id="paint9_linear_189_13949" x1="67.8943" y1="54.3822" x2="137.003" y2="54.3822" gradientUnits="userSpaceOnUse">
<stop stop-color="white"/>
<stop offset="1" stop-color="#D1E1FB"/>
</linearGradient>
<linearGradient id="paint10_linear_189_13949" x1="67.8942" y1="46.3594" x2="137.003" y2="46.3594" gradientUnits="userSpaceOnUse">
<stop stop-color="white"/>
<stop offset="1" stop-color="#D1E1FB"/>
</linearGradient>
<linearGradient id="paint11_linear_189_13949" x1="67.8943" y1="83.799" x2="137.003" y2="83.799" gradientUnits="userSpaceOnUse">
<stop stop-color="white"/>
<stop offset="1" stop-color="#D1E1FB"/>
</linearGradient>
<linearGradient id="paint12_linear_189_13949" x1="67.8943" y1="65.0792" x2="137.003" y2="65.0792" gradientUnits="userSpaceOnUse">
<stop stop-color="white"/>
<stop offset="1" stop-color="#D1E1FB"/>
</linearGradient>
<linearGradient id="paint13_linear_189_13949" x1="67.8943" y1="75.7762" x2="137.003" y2="75.7762" gradientUnits="userSpaceOnUse">
<stop stop-color="white"/>
<stop offset="1" stop-color="#D1E1FB"/>
</linearGradient>
<linearGradient id="paint14_linear_189_13949" x1="67.8941" y1="70.4275" x2="137.003" y2="70.4275" gradientUnits="userSpaceOnUse">
<stop stop-color="white"/>
<stop offset="1" stop-color="#D1E1FB"/>
</linearGradient>
<linearGradient id="paint15_linear_189_13949" x1="67.8943" y1="70.4275" x2="137.003" y2="70.4275" gradientUnits="userSpaceOnUse">
<stop stop-color="white"/>
<stop offset="1" stop-color="#D1E1FB"/>
</linearGradient>
<linearGradient id="paint16_linear_189_13949" x1="67.8942" y1="81.1248" x2="137.003" y2="81.1248" gradientUnits="userSpaceOnUse">
<stop stop-color="white"/>
<stop offset="1" stop-color="#D1E1FB"/>
</linearGradient>
<linearGradient id="paint17_linear_189_13949" x1="67.8943" y1="65.0792" x2="137.003" y2="65.0792" gradientUnits="userSpaceOnUse">
<stop stop-color="white"/>
<stop offset="1" stop-color="#D1E1FB"/>
</linearGradient>
<linearGradient id="paint18_linear_189_13949" x1="67.8945" y1="43.6848" x2="137.003" y2="43.6848" gradientUnits="userSpaceOnUse">
<stop stop-color="white"/>
<stop offset="1" stop-color="#D1E1FB"/>
</linearGradient>
<linearGradient id="paint19_linear_189_13949" x1="67.8946" y1="38.3366" x2="137.003" y2="38.3366" gradientUnits="userSpaceOnUse">
<stop stop-color="white"/>
<stop offset="1" stop-color="#D1E1FB"/>
</linearGradient>
<linearGradient id="paint20_linear_189_13949" x1="67.8944" y1="43.6848" x2="137.003" y2="43.6848" gradientUnits="userSpaceOnUse">
<stop stop-color="white"/>
<stop offset="1" stop-color="#D1E1FB"/>
</linearGradient>
<linearGradient id="paint21_linear_189_13949" x1="67.8944" y1="81.1248" x2="137.003" y2="81.1248" gradientUnits="userSpaceOnUse">
<stop stop-color="white"/>
<stop offset="1" stop-color="#D1E1FB"/>
</linearGradient>
<linearGradient id="paint22_linear_189_13949" x1="67.8943" y1="65.0792" x2="137.003" y2="65.0792" gradientUnits="userSpaceOnUse">
<stop stop-color="white"/>
<stop offset="1" stop-color="#D1E1FB"/>
</linearGradient>
<linearGradient id="paint23_linear_189_13949" x1="67.8943" y1="38.3366" x2="137.003" y2="38.3366" gradientUnits="userSpaceOnUse">
<stop stop-color="white"/>
<stop offset="1" stop-color="#D1E1FB"/>
</linearGradient>
<linearGradient id="paint24_linear_189_13949" x1="67.8943" y1="70.4278" x2="137.003" y2="70.4278" gradientUnits="userSpaceOnUse">
<stop stop-color="white"/>
<stop offset="1" stop-color="#D1E1FB"/>
</linearGradient>
<linearGradient id="paint25_linear_189_13949" x1="67.8943" y1="59.7308" x2="137.003" y2="59.7308" gradientUnits="userSpaceOnUse">
<stop stop-color="white"/>
<stop offset="1" stop-color="#D1E1FB"/>
</linearGradient>
<linearGradient id="paint26_linear_189_13949" x1="102.338" y1="115.205" x2="113.045" y2="122.824" gradientUnits="userSpaceOnUse">
<stop stop-color="white"/>
<stop offset="0.237" stop-color="#FCFCFE"/>
<stop offset="0.4393" stop-color="#F1F5FC"/>
<stop offset="0.6288" stop-color="#E0E7F8"/>
<stop offset="0.8105" stop-color="#C7D5F3"/>
<stop offset="0.9853" stop-color="#A7BDEC"/>
<stop offset="1" stop-color="#A4BBEB"/>
</linearGradient>
<linearGradient id="paint27_linear_189_13949" x1="105.295" y1="64.6409" x2="91.545" y2="64.6409" gradientUnits="userSpaceOnUse">
<stop stop-color="#CFD1D2"/>
<stop offset="1" stop-color="white"/>
</linearGradient>
<linearGradient id="paint28_linear_189_13949" x1="105.295" y1="69.1428" x2="100.784" y2="69.1428" gradientUnits="userSpaceOnUse">
<stop stop-color="#BABCBE"/>
<stop offset="1" stop-color="#E5E5E6"/>
</linearGradient>
<linearGradient id="paint29_linear_189_13949" x1="102.849" y1="50.0901" x2="91.5482" y2="50.0901" gradientUnits="userSpaceOnUse">
<stop stop-color="#BABCBE"/>
<stop offset="1" stop-color="#E5E5E6"/>
</linearGradient>
<linearGradient id="paint30_linear_189_13949" x1="46.7491" y1="75.7478" x2="66.2223" y2="89.6038" gradientUnits="userSpaceOnUse">
<stop stop-color="white"/>
<stop offset="0.237" stop-color="#FCFCFE"/>
<stop offset="0.4393" stop-color="#F1F5FC"/>
<stop offset="0.6288" stop-color="#E0E7F8"/>
<stop offset="0.8105" stop-color="#C7D5F3"/>
<stop offset="0.9853" stop-color="#A7BDEC"/>
<stop offset="1" stop-color="#A4BBEB"/>
</linearGradient>
<linearGradient id="paint31_linear_189_13949" x1="86.6651" y1="56.8941" x2="51.0899" y2="56.8941" gradientUnits="userSpaceOnUse">
<stop stop-color="white"/>
<stop offset="0.1596" stop-color="#EFF5FE"/>
<stop offset="0.3818" stop-color="#DFEBFE"/>
<stop offset="0.6376" stop-color="#D6E5FD"/>
<stop offset="1" stop-color="#D3E3FD"/>
</linearGradient>
<linearGradient id="paint32_linear_189_13949" x1="51.9731" y1="48.5643" x2="51.9731" y2="53.9444" gradientUnits="userSpaceOnUse">
<stop stop-color="#E6EFFD"/>
<stop offset="1" stop-color="#D3E3FD"/>
</linearGradient>
<linearGradient id="paint33_linear_189_13949" x1="87.6136" y1="58.0694" x2="48.1509" y2="58.0694" gradientUnits="userSpaceOnUse">
<stop stop-color="white"/>
<stop offset="0.3283" stop-color="#FCFDFF"/>
<stop offset="0.6042" stop-color="#F1F6FE"/>
<stop offset="0.8602" stop-color="#E0EBFE"/>
<stop offset="1" stop-color="#D3E3FD"/>
</linearGradient>
<linearGradient id="paint34_linear_189_13949" x1="73.1773" y1="18.8256" x2="65.1165" y2="23.0393" gradientUnits="userSpaceOnUse">
<stop stop-color="#909090"/>
<stop offset="1" stop-color="#626262"/>
</linearGradient>
<linearGradient id="paint35_linear_189_13949" x1="85.3365" y1="56.1924" x2="55.3601" y2="56.1924" gradientUnits="userSpaceOnUse">
<stop stop-color="#3A4D71"/>
<stop offset="0.7884" stop-color="#35393F"/>
<stop offset="1" stop-color="#333331"/>
</linearGradient>
<linearGradient id="paint36_linear_189_13949" x1="102.414" y1="81.6897" x2="40.4556" y2="81.6897" gradientUnits="userSpaceOnUse">
<stop stop-color="#CFD1D2"/>
<stop offset="1" stop-color="white"/>
</linearGradient>
<linearGradient id="paint37_linear_189_13949" x1="47.0467" y1="62.184" x2="42.2961" y2="62.184" gradientUnits="userSpaceOnUse">
<stop stop-color="#BABCBE"/>
<stop offset="1" stop-color="#E5E5E6"/>
</linearGradient>
<linearGradient id="paint38_linear_189_13949" x1="102.412" y1="85.3448" x2="40.4621" y2="85.3448" gradientUnits="userSpaceOnUse">
<stop stop-color="#BABCBE"/>
<stop offset="1" stop-color="#E5E5E6"/>
</linearGradient>
<radialGradient id="paint39_radial_189_13949" cx="0" cy="0" r="1" gradientUnits="userSpaceOnUse" gradientTransform="translate(98.9034 115.817) rotate(-151.479) scale(38.3406 6.69871)">
<stop stop-color="#3E4984"/>
<stop offset="0.1262" stop-color="#6B73A0" stop-opacity="0.8738"/>
<stop offset="0.2736" stop-color="#989DBD" stop-opacity="0.7264"/>
<stop offset="0.4223" stop-color="#BDC1D5" stop-opacity="0.5777"/>
<stop offset="0.57" stop-color="#DADCE7" stop-opacity="0.43"/>
<stop offset="0.7162" stop-color="#EEEFF4" stop-opacity="0.2838"/>
<stop offset="0.8603" stop-color="#FBFBFC" stop-opacity="0.1397"/>
<stop offset="1" stop-color="white" stop-opacity="0"/>
</radialGradient>
<linearGradient id="paint40_linear_189_13949" x1="117.921" y1="103.429" x2="56.3837" y2="103.429" gradientUnits="userSpaceOnUse">
<stop stop-color="#2D4FA8"/>
<stop offset="0.271" stop-color="#5290DE"/>
<stop offset="0.7305" stop-color="#6EC2F1"/>
<stop offset="1" stop-color="#80E1FD"/>
</linearGradient>
<linearGradient id="paint41_linear_189_13949" x1="106.166" y1="99.0197" x2="122.195" y2="99.0197" gradientUnits="userSpaceOnUse">
<stop stop-color="white"/>
<stop offset="0.2732" stop-color="#FBFDFE"/>
<stop offset="0.5282" stop-color="#F0F6FA"/>
<stop offset="0.775" stop-color="#DDEAF5"/>
<stop offset="1" stop-color="#C5DBED"/>
</linearGradient>
<linearGradient id="paint42_linear_189_13949" x1="144.788" y1="135.304" x2="116.789" y2="134.212" gradientUnits="userSpaceOnUse">
<stop stop-color="#E4FFFF"/>
<stop offset="0.3234" stop-color="#86E3F1"/>
<stop offset="0.3705" stop-color="#82DDEF"/>
<stop offset="0.7923" stop-color="#62ABE2"/>
<stop offset="1" stop-color="#5697DD"/>
</linearGradient>
<linearGradient id="paint43_linear_189_13949" x1="124.158" y1="145.492" x2="120.354" y2="88.5967" gradientUnits="userSpaceOnUse">
<stop stop-color="#BFFFFF"/>
<stop offset="0.8148" stop-color="#9DFFFC" stop-opacity="0.3482"/>
<stop offset="1" stop-color="#95FFFB" stop-opacity="0.2"/>
</linearGradient>
<linearGradient id="paint44_linear_189_13949" x1="147.685" y1="146.554" x2="146.554" y2="129.636" gradientUnits="userSpaceOnUse">
<stop stop-color="#BFFFFF"/>
<stop offset="0.8148" stop-color="#9DFFFC" stop-opacity="0.3482"/>
<stop offset="1" stop-color="#95FFFB" stop-opacity="0.2"/>
</linearGradient>
<linearGradient id="paint45_linear_189_13949" x1="110.218" y1="140.177" x2="109.284" y2="126.202" gradientUnits="userSpaceOnUse">
<stop stop-color="#BFFFFF"/>
<stop offset="0.8148" stop-color="#9DFFFC" stop-opacity="0.3482"/>
<stop offset="1" stop-color="#95FFFB" stop-opacity="0.2"/>
</linearGradient>
<linearGradient id="paint46_linear_189_13949" x1="117.736" y1="135.959" x2="117.318" y2="129.71" gradientUnits="userSpaceOnUse">
<stop stop-color="#BFFFFF"/>
<stop offset="0.8148" stop-color="#9DFFFC" stop-opacity="0.3482"/>
<stop offset="1" stop-color="#95FFFB" stop-opacity="0.2"/>
</linearGradient>
<linearGradient id="paint47_linear_189_13949" x1="137.876" y1="150.111" x2="136.501" y2="129.55" gradientUnits="userSpaceOnUse">
<stop stop-color="#BFFFFF"/>
<stop offset="0.8148" stop-color="#9DFFFC" stop-opacity="0.3482"/>
<stop offset="1" stop-color="#95FFFB" stop-opacity="0.2"/>
</linearGradient>
<linearGradient id="paint48_linear_189_13949" x1="152.285" y1="146.267" x2="151.167" y2="129.552" gradientUnits="userSpaceOnUse">
<stop stop-color="#BFFFFF"/>
<stop offset="0.8148" stop-color="#9DFFFC" stop-opacity="0.3482"/>
<stop offset="1" stop-color="#95FFFB" stop-opacity="0.2"/>
</linearGradient>
<linearGradient id="paint49_linear_189_13949" x1="142.569" y1="131.614" x2="121.722" y2="154.58" gradientUnits="userSpaceOnUse">
<stop stop-color="#BFFFFF"/>
<stop offset="0.8148" stop-color="#9DFFFC" stop-opacity="0.3482"/>
<stop offset="1" stop-color="#95FFFB" stop-opacity="0.2"/>
</linearGradient>
<linearGradient id="paint50_linear_189_13949" x1="133.462" y1="126.146" x2="120.661" y2="140.248" gradientUnits="userSpaceOnUse">
<stop stop-color="#BFFFFF"/>
<stop offset="0.8148" stop-color="#9DFFFC" stop-opacity="0.3482"/>
<stop offset="1" stop-color="#95FFFB" stop-opacity="0.2"/>
</linearGradient>
<linearGradient id="paint51_linear_189_13949" x1="147.079" y1="132.342" x2="130.278" y2="150.85" gradientUnits="userSpaceOnUse">
<stop stop-color="#BFFFFF"/>
<stop offset="0.8148" stop-color="#9DFFFC" stop-opacity="0.3482"/>
<stop offset="1" stop-color="#95FFFB" stop-opacity="0.2"/>
</linearGradient>
<linearGradient id="paint52_linear_189_13949" x1="142.093" y1="124.566" x2="121.994" y2="146.707" gradientUnits="userSpaceOnUse">
<stop stop-color="#BFFFFF"/>
<stop offset="0.8148" stop-color="#9DFFFC" stop-opacity="0.3482"/>
<stop offset="1" stop-color="#95FFFB" stop-opacity="0.2"/>
</linearGradient>
<linearGradient id="paint53_linear_189_13949" x1="134.014" y1="115.845" x2="114.453" y2="137.394" gradientUnits="userSpaceOnUse">
<stop stop-color="#BFFFFF"/>
<stop offset="0.8148" stop-color="#9DFFFC" stop-opacity="0.3482"/>
<stop offset="1" stop-color="#95FFFB" stop-opacity="0.2"/>
</linearGradient>
<linearGradient id="paint54_linear_189_13949" x1="128.494" y1="121.282" x2="115.363" y2="135.747" gradientUnits="userSpaceOnUse">
<stop stop-color="#BFFFFF"/>
<stop offset="0.8148" stop-color="#9DFFFC" stop-opacity="0.3482"/>
<stop offset="1" stop-color="#95FFFB" stop-opacity="0.2"/>
</linearGradient>
<linearGradient id="paint55_linear_189_13949" x1="144.025" y1="149.058" x2="115.062" y2="129.034" gradientUnits="userSpaceOnUse">
<stop stop-color="white"/>
<stop offset="0.3485" stop-color="#DDFFFE" stop-opacity="0.6515"/>
<stop offset="1" stop-color="#95FFFB" stop-opacity="0"/>
</linearGradient>
</defs>
</svg>
