<svg width="509" height="276" viewBox="0 0 509 276" fill="none" xmlns="http://www.w3.org/2000/svg">
<path d="M264.183 268.625H122.919C122.919 268.625 43.3809 273.044 25.5754 215.747C7.76985 158.441 37.3547 125.642 83.7488 121.022C130.143 116.394 176.047 60.7036 191.771 33.3203C209.504 2.43382 276.058 -15.7976 309.878 28.4993C336.891 63.8774 369.618 38.7761 413.802 54.3801C470.12 74.2586 434.356 148.052 473.334 173.057C501.593 191.192 498.057 215.787 482.598 239.137C446.995 292.923 264.183 268.625 264.183 268.625Z" fill="url(#paint0_linear_15_3844)"/>
<path d="M237.892 82.1651L237.611 77.9146C237.932 77.8905 238.254 77.8663 238.567 77.8342L239.009 82.0687C238.639 82.1088 238.27 82.1329 237.892 82.1651ZM233.352 82.0687C232.975 82.0285 232.597 81.9803 232.219 81.924L232.838 77.7137C233.152 77.7619 233.465 77.8021 233.778 77.8262L233.352 82.0687ZM243.476 81.2169L242.327 77.1191C242.633 77.0307 242.938 76.9423 243.243 76.8379L244.561 80.8875C244.2 81 243.838 81.1125 243.476 81.2169ZM227.8 80.9036C227.439 80.7831 227.077 80.6625 226.715 80.5259L228.21 76.5406C228.507 76.6531 228.805 76.7575 229.11 76.8539L227.8 80.9036ZM248.747 79.1198L246.763 75.3514C247.044 75.1987 247.325 75.0461 247.598 74.8854L249.736 78.5654C249.414 78.7663 249.085 78.943 248.747 79.1198ZM222.618 78.5975C222.288 78.4047 221.959 78.2119 221.637 78.0029L223.927 74.4193C224.192 74.5881 224.466 74.7568 224.739 74.9095L222.618 78.5975ZM253.456 75.9862L250.748 72.7079C250.989 72.507 251.23 72.2981 251.471 72.0812L254.324 75.2389C254.034 75.496 253.753 75.7451 253.456 75.9862ZM218.022 75.263C217.74 75.0139 217.467 74.7568 217.194 74.4916L220.159 71.4384C220.392 71.6633 220.625 71.8803 220.866 72.0972L218.022 75.263ZM257.425 71.9365L254.091 69.293C254.292 69.0439 254.484 68.7868 254.669 68.5297L258.108 71.0366C257.883 71.3339 257.658 71.6392 257.425 71.9365ZM214.229 71.0607C214.004 70.7554 213.787 70.442 213.578 70.1287L217.122 67.7664C217.298 68.0315 217.483 68.2886 217.668 68.5458L214.229 71.0607ZM260.462 67.1477L256.654 65.2434C256.798 64.9621 256.935 64.6729 257.064 64.3836L260.953 66.1112C260.792 66.4647 260.631 66.8102 260.462 67.1477ZM211.385 66.1594C211.232 65.8139 211.079 65.4683 210.943 65.1148L214.896 63.54C215.017 63.8373 215.137 64.1265 215.266 64.4158L211.385 66.1594ZM262.439 61.8285L258.317 60.7759C258.397 60.4626 258.47 60.1572 258.534 59.8439L262.696 60.7277C262.624 61.0893 262.535 61.4589 262.439 61.8285ZM209.625 60.7759C209.545 60.4063 209.472 60.0367 209.408 59.6671L213.602 58.9439C213.659 59.2573 213.715 59.5707 213.787 59.884L209.625 60.7759ZM263.267 56.2201L259.016 56.0433C259.032 55.7299 259.032 55.4085 259.032 55.0871L263.291 54.9907V55.0871C263.291 55.4648 263.283 55.8424 263.267 56.2201ZM209.022 55.1353V55.0871C209.022 54.7256 209.03 54.364 209.047 54.0024L213.297 54.1712C213.281 54.4765 213.281 54.7738 213.281 55.0791L209.022 55.1353ZM258.703 51.1741C258.647 50.8607 258.59 50.5474 258.518 50.242L262.68 49.3421C262.76 49.7117 262.833 50.0894 262.897 50.459L258.703 51.1741ZM213.771 50.3706L209.601 49.5028C209.681 49.1332 209.762 48.7636 209.858 48.394L213.988 49.4385C213.908 49.7439 213.835 50.0572 213.771 50.3706ZM257.401 46.5861C257.281 46.2888 257.152 45.9915 257.023 45.6942L260.904 43.9506C261.057 44.2881 261.202 44.6336 261.346 44.9872L257.401 46.5861ZM215.233 45.8228L211.345 44.0953C211.497 43.7498 211.658 43.4043 211.827 43.0668L215.643 44.947C215.499 45.2443 215.362 45.5335 215.233 45.8228ZM255.167 42.3597C254.991 42.0946 254.806 41.8374 254.621 41.5723L258.052 39.0573C258.277 39.3627 258.494 39.676 258.703 39.9894L255.167 42.3597ZM217.62 41.6767L214.173 39.1859C214.398 38.8806 214.631 38.5752 214.864 38.2779L218.198 40.9214C217.998 41.1705 217.805 41.4196 217.62 41.6767ZM252.106 38.6877C251.873 38.4627 251.64 38.2458 251.407 38.0369L254.251 34.8631C254.533 35.1121 254.806 35.3693 255.079 35.6344L252.106 38.6877ZM220.81 38.1172L217.957 34.9595C218.239 34.7104 218.52 34.4613 218.809 34.2203L221.541 37.4825C221.292 37.6914 221.051 37.9003 220.81 38.1172ZM248.354 35.7228C248.089 35.5541 247.815 35.3853 247.534 35.2327L249.655 31.5446C249.985 31.7374 250.314 31.9303 250.636 32.1312L248.354 35.7228ZM224.675 35.2969L222.529 31.6169C222.859 31.4241 223.188 31.2473 223.518 31.0705L225.51 34.8309C225.221 34.9836 224.948 35.1362 224.675 35.2969ZM244.071 33.6096C243.774 33.4971 243.468 33.3927 243.163 33.2962L244.465 29.2466C244.826 29.3591 245.18 29.4876 245.541 29.6162L244.071 33.6096ZM229.03 33.3364L227.704 29.2948C228.065 29.1743 228.427 29.0618 228.797 28.9654L229.946 33.0632C229.632 33.1516 229.327 33.24 229.03 33.3364ZM239.435 32.4365C239.122 32.3883 238.8 32.3561 238.479 32.324L238.913 28.0896C239.29 28.1297 239.668 28.1699 240.037 28.2262L239.435 32.4365ZM233.698 32.3401L233.248 28.1056C233.626 28.0654 233.995 28.0333 234.381 28.0092L234.662 32.2597C234.333 32.2758 234.011 32.3079 233.698 32.3401Z" fill="white"/>
<path d="M391.987 217.997C391.987 217.997 374.134 126.904 479.858 112.875C479.858 112.883 495.181 201.629 391.987 217.997Z" fill="url(#paint1_linear_15_3844)"/>
<path opacity="0.4" d="M472.723 119.825C472.168 119.351 471.325 119.415 470.851 119.978L442.318 153.668L441.804 138.129C441.78 137.39 441.169 136.819 440.43 136.843C439.691 136.867 439.12 137.486 439.145 138.217L439.755 156.698L412.709 188.629L413.015 163.881C413.023 163.15 412.436 162.547 411.705 162.539C410.974 162.523 410.363 163.118 410.355 163.849L410.01 191.811L396.31 207.985C395.836 208.548 395.908 209.383 396.463 209.857C396.84 210.179 397.355 210.251 397.788 210.082C397.989 210.002 398.182 209.873 398.335 209.697L423.725 179.718L452.306 176.295C452.418 176.287 452.523 176.255 452.619 176.223C453.174 176.014 453.543 175.443 453.471 174.817C453.383 174.093 452.724 173.571 451.993 173.66L426.248 176.745L453.664 144.38L467.838 141.343C467.902 141.327 467.966 141.311 468.03 141.287C468.633 141.054 468.995 140.419 468.858 139.768C468.705 139.053 467.998 138.595 467.275 138.748L456.468 141.062L472.867 121.705C473.358 121.135 473.285 120.299 472.723 119.825Z" fill="white"/>
<path d="M138.764 113.381C138.764 113.381 46.0004 110.079 56.3494 3.93634C56.3575 3.93634 146.261 9.16712 138.764 113.381Z" fill="url(#paint2_linear_15_3844)"/>
<path opacity="0.4" d="M61.4998 12.4534C60.9133 12.8873 60.7847 13.723 61.2266 14.3095L87.5573 49.7519L72.3069 46.7227C71.5838 46.5781 70.8847 47.0441 70.7401 47.7672C70.5955 48.4904 71.0695 49.1894 71.7846 49.3341L89.9196 52.9418L114.868 86.5281L90.8436 80.6063C90.1285 80.4295 89.4054 80.8634 89.2366 81.5785C89.0599 82.2856 89.4938 83.0087 90.2089 83.1855L117.359 89.8706L129.998 106.889C130.44 107.475 131.268 107.604 131.862 107.162C132.264 106.865 132.449 106.383 132.385 105.925C132.352 105.708 132.272 105.499 132.135 105.306L108.705 73.7685L111.863 45.1559C111.879 45.0434 111.871 44.9389 111.863 44.8345C111.783 44.2399 111.309 43.7578 110.69 43.6935C109.959 43.6132 109.308 44.1354 109.228 44.8666L106.383 70.6348L81.0892 36.5906L81.3543 22.0954C81.3543 22.0312 81.3543 21.9588 81.3463 21.8946C81.2659 21.2518 80.7195 20.7536 80.0526 20.7375C79.3134 20.7214 78.7108 21.308 78.6947 22.0472L78.4939 33.0953L63.364 12.7266C62.922 12.1401 62.0864 12.0196 61.4998 12.4534Z" fill="white"/>
<path d="M40.4723 188.661V191.61H42.481C42.6739 192.614 43.0596 193.546 43.6059 194.366L42.1998 195.772L44.2889 197.861L45.679 196.471C46.5066 197.025 47.4386 197.427 48.451 197.628V199.589H51.3999V197.628C52.4123 197.427 53.3524 197.033 54.172 196.471L55.562 197.861L57.6511 195.772L56.245 194.366C56.7914 193.546 57.177 192.606 57.3699 191.602H59.3786V188.653H57.3538C57.1529 187.665 56.7592 186.741 56.2048 185.937L57.6511 184.491L55.562 182.402L54.0996 183.864C53.2961 183.334 52.3802 182.948 51.3999 182.755V180.682H48.451V182.755C47.4708 182.948 46.5548 183.334 45.7432 183.864L44.2809 182.402L42.1918 184.483L43.6381 185.929C43.0917 186.733 42.69 187.657 42.4891 188.645H40.4723V188.661ZM49.9697 185.182C52.7337 185.206 54.9513 187.472 54.9272 190.236C54.9031 193 52.6453 195.217 49.8813 195.193C47.1172 195.169 44.8996 192.911 44.9237 190.147C44.9478 187.383 47.2056 185.158 49.9697 185.182Z" fill="url(#paint3_linear_15_3844)"/>
<path d="M426.401 37.7717V34.8229H424.392C424.2 33.8185 423.814 32.8865 423.268 32.0669L424.674 30.6608L422.585 28.5717L421.194 29.9617C420.367 29.4073 419.435 29.0056 418.422 28.8047V26.8442H415.474V28.8047C414.461 29.0056 413.521 29.3993 412.701 29.9617L411.311 28.5717L409.222 30.6608L410.628 32.0669C410.082 32.8865 409.696 33.8266 409.504 34.8309H407.495V37.7798H409.52C409.721 38.7681 410.114 39.6921 410.669 40.4956L409.222 41.9419L411.311 44.031L412.774 42.5686C413.577 43.099 414.493 43.4846 415.474 43.6775V45.7505H418.422V43.6775C419.403 43.4846 420.319 43.099 421.13 42.5686L422.593 44.031L424.682 41.9419L423.235 40.4956C423.782 39.6921 424.184 38.7681 424.384 37.7798H426.401V37.7717ZM416.904 41.2429C414.14 41.2188 411.922 38.9529 411.946 36.1969C411.97 33.4329 414.228 31.2152 417 31.2393C419.764 31.2634 421.982 33.5212 421.958 36.2853C421.926 39.0493 419.668 41.267 416.904 41.2429Z" fill="url(#paint4_linear_15_3844)"/>
<path d="M9.37684 225.035C9.07954 225.035 8.84653 224.794 8.84653 224.505V218.575C8.84653 218.278 9.08758 218.045 9.37684 218.045C9.67413 218.045 9.90715 218.286 9.90715 218.575V224.505C9.90715 224.794 9.6661 225.035 9.37684 225.035Z" fill="white"/>
<path d="M9.37681 236.799C9.07951 236.799 8.8465 236.558 8.8465 236.268V230.338C8.8465 230.041 9.08755 229.808 9.37681 229.808C9.6741 229.808 9.90712 230.049 9.90712 230.338V236.268C9.90712 236.558 9.66607 236.799 9.37681 236.799Z" fill="white"/>
<path d="M18.2234 227.952H12.2935C11.9962 227.952 11.7632 227.711 11.7632 227.422C11.7632 227.124 12.0043 226.891 12.2935 226.891H18.2234C18.5206 226.891 18.7537 227.132 18.7537 227.422C18.7537 227.711 18.5126 227.952 18.2234 227.952Z" fill="white"/>
<path d="M6.46014 227.952H0.530313C0.233018 227.952 0 227.711 0 227.422C0 227.124 0.241053 226.891 0.530313 226.891H6.46014C6.75743 226.891 6.99045 227.132 6.99045 227.422C6.99045 227.711 6.7494 227.952 6.46014 227.952Z" fill="white"/>
<path d="M499.536 166.356C499.238 166.356 499.005 166.115 499.005 165.825V159.896C499.005 159.598 499.246 159.365 499.536 159.365C499.833 159.365 500.066 159.606 500.066 159.896V165.825C500.066 166.115 499.833 166.356 499.536 166.356Z" fill="#00FFFF"/>
<path d="M499.536 178.119C499.238 178.119 499.005 177.878 499.005 177.589V171.659C499.005 171.362 499.246 171.129 499.536 171.129C499.833 171.129 500.066 171.37 500.066 171.659V177.589C500.066 177.878 499.833 178.119 499.536 178.119Z" fill="#00FFFF"/>
<path d="M508.382 169.273H502.452C502.155 169.273 501.922 169.031 501.922 168.742C501.922 168.445 502.163 168.212 502.452 168.212H508.382C508.679 168.212 508.912 168.453 508.912 168.742C508.912 169.031 508.671 169.273 508.382 169.273Z" fill="#00FFFF"/>
<path d="M496.619 169.272H490.689C490.392 169.272 490.159 169.031 490.159 168.742C490.159 168.445 490.4 168.212 490.689 168.212H496.619C496.916 168.212 497.149 168.453 497.149 168.742C497.149 169.031 496.908 169.272 496.619 169.272Z" fill="#00FFFF"/>
<path d="M353.701 27.2057C353.403 27.2057 353.17 26.9647 353.17 26.6754V20.7456C353.17 20.4483 353.411 20.2153 353.701 20.2153C353.998 20.2153 354.231 20.4563 354.231 20.7456V26.6754C354.231 26.9727 353.998 27.2057 353.701 27.2057Z" fill="#00FFFF"/>
<path d="M353.701 38.969C353.403 38.969 353.17 38.7279 353.17 38.4387V32.5088C353.17 32.2115 353.411 31.9785 353.701 31.9785C353.998 31.9785 354.231 32.2196 354.231 32.5088V38.4387C354.231 38.736 353.998 38.969 353.701 38.969Z" fill="#00FFFF"/>
<path d="M362.547 30.1225H356.617C356.32 30.1225 356.087 29.8814 356.087 29.5921C356.087 29.2949 356.328 29.0618 356.617 29.0618H362.547C362.844 29.0618 363.077 29.3029 363.077 29.5921C363.077 29.8894 362.836 30.1225 362.547 30.1225Z" fill="#00FFFF"/>
<path d="M350.784 30.1224H344.854C344.557 30.1224 344.324 29.8814 344.324 29.5921C344.324 29.2948 344.565 29.0618 344.854 29.0618H350.784C351.081 29.0618 351.314 29.3029 351.314 29.5921C351.314 29.8894 351.073 30.1224 350.784 30.1224Z" fill="#00FFFF"/>
<path d="M407.439 229.953C407.439 240.599 398.729 249.309 388.082 249.309H131.846C121.2 249.309 112.49 240.599 112.49 229.953V70.659C112.49 60.0126 121.2 51.3027 131.846 51.3027H388.082C398.729 51.3027 407.439 60.0126 407.439 70.659V229.953Z" fill="url(#paint5_linear_15_3844)"/>
<path d="M397.748 228.474C397.748 235.111 392.317 240.535 385.688 240.535H134.241C127.604 240.535 122.18 235.103 122.18 228.474V72.1374C122.18 65.5005 127.612 60.0769 134.241 60.0769H385.68C392.317 60.0769 397.74 65.5085 397.74 72.1374V228.474H397.748Z" fill="url(#paint6_linear_15_3844)"/>
<path d="M321.673 249.301H198.255V268.448H321.673V249.301Z" fill="url(#paint7_linear_15_3844)"/>
<path d="M385.688 60.0688H134.241C127.604 60.0688 122.18 65.5005 122.18 72.1294V79.9474H397.748V72.1294C397.748 65.5005 392.317 60.0688 385.688 60.0688Z" fill="url(#paint8_linear_15_3844)"/>
<path d="M145.458 70.0161C145.458 71.366 144.365 72.4668 143.007 72.4668C141.657 72.4668 140.556 71.366 140.556 70.0161C140.556 68.6663 141.649 67.5655 143.007 67.5655C144.357 67.5735 145.458 68.6663 145.458 70.0161Z" fill="white"/>
<path d="M158.948 70.0161C158.948 71.366 157.856 72.4668 156.498 72.4668C155.148 72.4668 154.047 71.366 154.047 70.0161C154.047 68.6662 155.14 67.5655 156.498 67.5655C157.847 67.5735 158.948 68.6662 158.948 70.0161Z" fill="white"/>
<path d="M172.439 70.0161C172.439 71.366 171.346 72.4668 169.988 72.4668C168.638 72.4668 167.538 71.366 167.538 70.0161C167.538 68.6662 168.63 67.5655 169.988 67.5655C171.346 67.5735 172.439 68.6662 172.439 70.0161Z" fill="white"/>
<path d="M380.377 69.0118L382.193 66.545C382.345 66.312 382.514 66.1513 382.707 66.0388C382.9 65.9344 383.085 65.8781 383.277 65.8781C383.454 65.8781 383.623 65.9102 383.784 65.9745C383.944 66.0388 384.081 66.1111 384.201 66.1915C384.322 66.2718 384.41 66.3522 384.467 66.4325C384.531 66.5129 384.547 66.5691 384.531 66.6013L381.751 70.0724L384.531 73.5355C384.547 73.5676 384.531 73.6238 384.467 73.7042C384.402 73.7845 384.314 73.8649 384.193 73.9452C384.073 74.0336 383.928 74.1059 383.767 74.1702C383.607 74.2345 383.43 74.2666 383.237 74.2666C383.044 74.2666 382.843 74.2184 382.643 74.122C382.442 74.0256 382.265 73.8569 382.112 73.6158L380.312 71.125L378.488 73.6238C378.328 73.8729 378.151 74.0417 377.958 74.1381C377.765 74.2345 377.573 74.2827 377.388 74.2827C377.211 74.2827 377.042 74.2506 376.881 74.1863C376.721 74.122 376.584 74.0497 376.472 73.9613C376.359 73.8729 376.271 73.7926 376.215 73.7203C376.15 73.6399 376.134 73.5917 376.15 73.5515L378.946 70.0563L376.207 66.6254C376.191 66.5932 376.207 66.537 376.271 66.4566C376.335 66.3763 376.424 66.2959 376.544 66.2075C376.665 66.1192 376.809 66.0468 376.978 65.9826C377.147 65.9183 377.323 65.8861 377.516 65.8861C377.733 65.8861 377.934 65.9344 378.119 66.0388C378.304 66.1433 378.472 66.312 378.625 66.553L380.377 69.0118Z" fill="white"/>
<path d="M356.248 89.7099H163.673V103.008H356.248V89.7099Z" fill="white"/>
<path d="M356.256 89.7099H339.229V103.008H356.256V89.7099Z" fill="url(#paint9_linear_15_3844)"/>
<path d="M177.463 100.844C176.99 100.844 176.535 100.784 176.097 100.664C175.666 100.537 175.323 100.385 175.069 100.209L175.578 99.2025C175.832 99.3649 176.136 99.4991 176.489 99.605C176.842 99.711 177.195 99.7639 177.548 99.7639C177.965 99.7639 178.265 99.7074 178.448 99.5944C178.639 99.4814 178.734 99.3296 178.734 99.1389C178.734 98.9836 178.671 98.867 178.544 98.7893C178.417 98.7046 178.251 98.641 178.046 98.5987C177.841 98.5563 177.612 98.5175 177.357 98.4821C177.11 98.4468 176.859 98.4009 176.605 98.3444C176.358 98.2809 176.132 98.1926 175.927 98.0796C175.722 97.9595 175.556 97.8006 175.429 97.6029C175.302 97.4051 175.239 97.1438 175.239 96.819C175.239 96.4588 175.341 96.1481 175.546 95.8868C175.751 95.6184 176.037 95.4136 176.404 95.2723C176.778 95.124 177.22 95.0499 177.728 95.0499C178.109 95.0499 178.494 95.0923 178.883 95.177C179.271 95.2617 179.592 95.3818 179.847 95.5372L179.338 96.5435C179.07 96.3811 178.798 96.2716 178.523 96.2152C178.254 96.1516 177.986 96.1198 177.717 96.1198C177.315 96.1198 177.015 96.1798 176.817 96.2999C176.626 96.42 176.531 96.5718 176.531 96.7554C176.531 96.9249 176.595 97.052 176.722 97.1368C176.849 97.2215 177.015 97.2886 177.22 97.3381C177.424 97.3875 177.65 97.4299 177.898 97.4652C178.152 97.4934 178.403 97.5393 178.65 97.6029C178.897 97.6664 179.123 97.7547 179.328 97.8677C179.54 97.9737 179.709 98.1255 179.836 98.3232C179.963 98.521 180.027 98.7788 180.027 99.0966C180.027 99.4497 179.921 99.7569 179.709 100.018C179.504 100.279 179.211 100.484 178.83 100.633C178.448 100.774 177.993 100.844 177.463 100.844ZM183.826 100.844C183.198 100.844 182.647 100.721 182.174 100.474C181.707 100.219 181.344 99.8734 181.082 99.4355C180.828 98.9977 180.701 98.4998 180.701 97.9419C180.701 97.3769 180.825 96.879 181.072 96.4482C181.326 96.0103 181.672 95.6678 182.11 95.4206C182.555 95.1735 183.06 95.0499 183.625 95.0499C184.176 95.0499 184.667 95.1699 185.097 95.4101C185.528 95.6502 185.867 95.9892 186.114 96.427C186.361 96.8649 186.485 97.3804 186.485 97.9737C186.485 98.0302 186.482 98.0937 186.474 98.1643C186.474 98.235 186.471 98.3021 186.464 98.3656H181.75V97.4864H185.765L185.246 97.7618C185.253 97.4369 185.186 97.1509 185.044 96.9037C184.903 96.6565 184.709 96.4623 184.462 96.3211C184.222 96.1798 183.943 96.1092 183.625 96.1092C183.3 96.1092 183.014 96.1798 182.767 96.3211C182.527 96.4623 182.336 96.6601 182.195 96.9143C182.061 97.1615 181.993 97.4546 181.993 97.7936V98.0054C181.993 98.3444 182.071 98.6446 182.227 98.9059C182.382 99.1672 182.601 99.3685 182.883 99.5097C183.166 99.6509 183.491 99.7216 183.858 99.7216C184.176 99.7216 184.462 99.6721 184.716 99.5733C184.97 99.4744 185.196 99.319 185.394 99.1071L186.104 99.9228C185.849 100.219 185.528 100.449 185.14 100.611C184.758 100.767 184.32 100.844 183.826 100.844ZM191.087 100.77V99.6262L191.013 99.3826V97.3804C191.013 96.992 190.896 96.6919 190.663 96.48C190.43 96.2611 190.077 96.1516 189.604 96.1516C189.286 96.1516 188.972 96.201 188.661 96.2999C188.358 96.3988 188.1 96.5365 187.888 96.713L187.369 95.749C187.672 95.516 188.033 95.343 188.449 95.23C188.873 95.1099 189.311 95.0499 189.763 95.0499C190.582 95.0499 191.214 95.2476 191.659 95.6431C192.111 96.0315 192.337 96.6354 192.337 97.4546V100.77H191.087ZM189.307 100.844C188.884 100.844 188.513 100.774 188.195 100.633C187.877 100.484 187.63 100.283 187.454 100.029C187.284 99.7675 187.199 99.4744 187.199 99.1495C187.199 98.8317 187.273 98.5457 187.422 98.2915C187.577 98.0372 187.828 97.8359 188.174 97.6876C188.52 97.5393 188.979 97.4652 189.551 97.4652H191.193V98.3444H189.646C189.194 98.3444 188.891 98.4186 188.735 98.5669C188.58 98.7081 188.502 98.8847 188.502 99.0966C188.502 99.3367 188.598 99.5274 188.788 99.6686C188.979 99.8098 189.244 99.8805 189.583 99.8805C189.908 99.8805 190.197 99.8063 190.451 99.658C190.713 99.5097 190.9 99.2908 191.013 99.0012L191.235 99.7957C191.108 100.128 190.879 100.385 190.547 100.569C190.222 100.753 189.809 100.844 189.307 100.844ZM175.715 113.77V108.113H176.976V109.671L176.828 109.215C176.997 108.834 177.262 108.544 177.622 108.346C177.989 108.149 178.445 108.05 178.989 108.05V109.31C178.932 109.296 178.879 109.289 178.83 109.289C178.78 109.282 178.731 109.279 178.681 109.279C178.18 109.279 177.781 109.427 177.484 109.724C177.188 110.013 177.039 110.448 177.039 111.027V113.77H175.715ZM182.656 113.844C182.062 113.844 181.533 113.721 181.067 113.474C180.608 113.219 180.247 112.873 179.986 112.436C179.725 111.998 179.594 111.5 179.594 110.942C179.594 110.377 179.725 109.879 179.986 109.448C180.247 109.01 180.608 108.668 181.067 108.421C181.533 108.173 182.062 108.05 182.656 108.05C183.206 108.05 183.69 108.163 184.107 108.389C184.531 108.608 184.852 108.933 185.071 109.363L184.054 109.957C183.884 109.688 183.676 109.491 183.429 109.363C183.189 109.236 182.928 109.173 182.645 109.173C182.32 109.173 182.027 109.243 181.766 109.385C181.504 109.526 181.3 109.731 181.151 109.999C181.003 110.26 180.929 110.575 180.929 110.942C180.929 111.309 181.003 111.627 181.151 111.895C181.3 112.157 181.504 112.358 181.766 112.499C182.027 112.64 182.32 112.711 182.645 112.711C182.928 112.711 183.189 112.647 183.429 112.52C183.676 112.393 183.884 112.195 184.054 111.927L185.071 112.52C184.852 112.944 184.531 113.272 184.107 113.505C183.69 113.731 183.206 113.844 182.656 113.844ZM189.374 108.05C189.826 108.05 190.228 108.138 190.581 108.315C190.941 108.491 191.224 108.763 191.429 109.13C191.634 109.491 191.736 109.957 191.736 110.529V113.77H190.412V110.698C190.412 110.197 190.292 109.823 190.052 109.575C189.819 109.328 189.49 109.205 189.066 109.205C188.756 109.205 188.48 109.268 188.24 109.395C188 109.522 187.813 109.713 187.679 109.967C187.552 110.214 187.488 110.529 187.488 110.91V113.77H186.164V105.91H187.488V109.639L187.202 109.173C187.4 108.813 187.686 108.537 188.06 108.346C188.441 108.149 188.879 108.05 189.374 108.05Z" fill="#0084E8"/>
<path d="M346.943 99.609C345.931 99.609 344.983 99.2153 344.267 98.5002C343.552 97.7851 343.159 96.837 343.159 95.8246C343.159 94.8121 343.552 93.864 344.267 93.1489C345.698 91.7187 348.189 91.7187 349.619 93.1489C351.097 94.6273 351.097 97.0298 349.619 98.5002C348.904 99.2153 347.956 99.609 346.943 99.609ZM346.943 93.3257C346.276 93.3257 345.649 93.5828 345.175 94.0569C344.701 94.5309 344.444 95.1576 344.444 95.8246C344.444 96.4915 344.701 97.1182 345.175 97.5922C346.116 98.5404 347.771 98.5323 348.711 97.5922C349.683 96.62 349.683 95.0291 348.711 94.0569C348.237 93.5828 347.61 93.3257 346.943 93.3257Z" fill="white"/>
<path d="M351.386 100.911C351.226 100.911 351.057 100.846 350.928 100.726L348.703 98.5002C348.454 98.2511 348.454 97.8413 348.703 97.5922C348.952 97.3432 349.362 97.3432 349.611 97.5922L351.836 99.8179C352.085 100.067 352.085 100.477 351.836 100.726C351.716 100.846 351.547 100.911 351.386 100.911Z" fill="white"/>
<path d="M366.211 118.7H283.218V221.548H366.211V118.7Z" fill="url(#paint10_linear_15_3844)"/>
<path d="M329.684 130.849H293.687V133.685H329.684V130.849Z" fill="url(#paint11_linear_15_3844)"/>
<path d="M337.124 130.849H332.167V133.685H337.124V130.849Z" fill="url(#paint12_linear_15_3844)"/>
<path d="M355.388 130.849H338.9V133.685H355.388V130.849Z" fill="url(#paint13_linear_15_3844)"/>
<path d="M355.396 137.406H313.188V140.242H355.396V137.406Z" fill="url(#paint14_linear_15_3844)"/>
<path d="M310.705 137.406H305.747V140.242H310.705V137.406Z" fill="url(#paint15_linear_15_3844)"/>
<path d="M303.972 137.406H293.687V140.242H303.972V137.406Z" fill="url(#paint16_linear_15_3844)"/>
<path d="M336.072 144.677H293.687V147.514H336.072V144.677Z" fill="url(#paint17_linear_15_3844)"/>
<path d="M343.512 144.677H338.554V147.514H343.512V144.677Z" fill="url(#paint18_linear_15_3844)"/>
<path d="M355.396 144.677H345.288V147.514H355.396V144.677Z" fill="url(#paint19_linear_15_3844)"/>
<path d="M355.396 151.242H319.399V154.078H355.396V151.242Z" fill="url(#paint20_linear_15_3844)"/>
<path d="M316.908 151.242H311.951V154.078H316.908V151.242Z" fill="url(#paint21_linear_15_3844)"/>
<path d="M310.175 151.242H293.687V154.078H310.175V151.242Z" fill="url(#paint22_linear_15_3844)"/>
<path d="M299.978 158.514H293.687V161.35H299.978V158.514Z" fill="url(#paint23_linear_15_3844)"/>
<path d="M307.419 158.514H302.461V161.35H307.419V158.514Z" fill="url(#paint24_linear_15_3844)"/>
<path d="M355.396 158.514H309.203V161.35H355.396V158.514Z" fill="url(#paint25_linear_15_3844)"/>
<path d="M355.388 165.07H328.88V167.906H355.388V165.07Z" fill="url(#paint26_linear_15_3844)"/>
<path d="M326.397 165.07H321.44V167.906H326.397V165.07Z" fill="url(#paint27_linear_15_3844)"/>
<path d="M319.664 165.07H293.687V167.906H319.664V165.07Z" fill="url(#paint28_linear_15_3844)"/>
<path d="M338.908 172.342H293.687V175.178H338.908V172.342Z" fill="url(#paint29_linear_15_3844)"/>
<path d="M346.34 172.342H341.383V175.178H346.34V172.342Z" fill="url(#paint30_linear_15_3844)"/>
<path d="M355.396 172.342H348.124V175.178H355.396V172.342Z" fill="url(#paint31_linear_15_3844)"/>
<path d="M355.388 178.906H336.859V181.743H355.388V178.906Z" fill="url(#paint32_linear_15_3844)"/>
<path d="M334.376 178.906H329.419V181.743H334.376V178.906Z" fill="url(#paint33_linear_15_3844)"/>
<path d="M327.643 178.906H293.687V181.743H327.643V178.906Z" fill="url(#paint34_linear_15_3844)"/>
<path d="M329.684 186.17H293.687V189.006H329.684V186.17Z" fill="url(#paint35_linear_15_3844)"/>
<path d="M337.124 186.17H332.167V189.006H337.124V186.17Z" fill="url(#paint36_linear_15_3844)"/>
<path d="M355.388 186.17H338.9V189.006H355.388V186.17Z" fill="url(#paint37_linear_15_3844)"/>
<path d="M329.322 192.735H306.896V195.571H329.322V192.735Z" fill="url(#paint38_linear_15_3844)"/>
<path d="M304.414 192.735H299.456V195.571H304.414V192.735Z" fill="url(#paint39_linear_15_3844)"/>
<path d="M297.68 192.735H293.687V195.571H297.68V192.735Z" fill="url(#paint40_linear_15_3844)"/>
<path d="M301.312 200.006H293.687V202.843H301.312V200.006Z" fill="url(#paint41_linear_15_3844)"/>
<path d="M308.745 200.006H303.787V202.843H308.745V200.006Z" fill="url(#paint42_linear_15_3844)"/>
<path d="M329.322 200.006H310.528V202.843H329.322V200.006Z" fill="url(#paint43_linear_15_3844)"/>
<path d="M329.33 206.563H319.576V209.399H329.33V206.563Z" fill="url(#paint44_linear_15_3844)"/>
<path d="M317.085 206.563H312.127V209.399H317.085V206.563Z" fill="url(#paint45_linear_15_3844)"/>
<path d="M310.352 206.563H293.687V209.399H310.352V206.563Z" fill="url(#paint46_linear_15_3844)"/>
<path d="M355.396 192.646H332.649V209.472H355.396V192.646Z" fill="url(#paint47_linear_15_3844)"/>
<path d="M332.649 209.472L340.957 200.247L344.492 205.912L348.639 202.714L355.396 209.472H332.649Z" fill="url(#paint48_linear_15_3844)"/>
<path d="M350.896 197.146C350.896 198.19 350.045 199.042 349 199.042C347.955 199.042 347.104 198.19 347.104 197.146C347.104 196.101 347.947 195.25 349 195.25C350.045 195.25 350.896 196.101 350.896 197.146Z" fill="url(#paint49_linear_15_3844)"/>
<path d="M162.733 124.164L164.428 129.379H169.908L165.473 132.593L167.168 137.807L162.733 134.585L158.305 137.807L159.993 132.593L155.566 129.379H161.045L162.733 124.164Z" fill="url(#paint50_linear_15_3844)"/>
<path d="M186.854 124.164L188.541 129.379H194.021L189.594 132.593L191.281 137.807L186.854 134.585L182.419 137.807L184.114 132.593L179.679 129.379H185.158L186.854 124.164Z" fill="url(#paint51_linear_15_3844)"/>
<path d="M210.967 124.164L212.662 129.379H218.142L213.707 132.593L215.402 137.807L210.967 134.585L206.54 137.807L208.227 132.593L203.8 129.379H209.279L210.967 124.164Z" fill="url(#paint52_linear_15_3844)"/>
<path d="M235.088 124.164L236.775 129.379H242.255L237.82 132.593L239.515 137.807L235.088 134.585L230.653 137.807L232.348 132.593L227.913 129.379H233.393L235.088 124.164Z" fill="url(#paint53_linear_15_3844)"/>
<path d="M259.201 124.164L260.896 129.379H266.368L261.941 132.593L263.636 137.807L259.201 134.585L254.774 137.807L256.461 132.593L252.034 129.379H257.506L259.201 124.164Z" fill="url(#paint54_linear_15_3844)"/>
<path d="M254.95 166.412C246.417 154.271 229.656 151.346 217.515 159.88L232.967 181.863L254.95 166.412Z" fill="url(#paint55_linear_15_3844)"/>
<path d="M266.561 191.304C267.549 183.157 265.645 174.632 260.551 167.392L236.141 184.539L266.561 191.304Z" fill="url(#paint56_linear_15_3844)"/>
<path d="M259.522 193.827L231.215 187.464L214.534 163.728C201.429 172.944 198.272 191.039 207.48 204.152C216.696 217.257 234.791 220.415 247.904 211.207C254.043 206.876 257.996 200.609 259.522 193.827Z" fill="url(#paint57_linear_15_3844)"/>
<path d="M190.02 41.1143L190.944 41.7089C190.944 41.7089 191.506 42.0142 191.932 42.0142C192.358 42.0142 192.952 42.2151 193.185 42.4642C193.418 42.7133 193.483 43.1713 193.354 43.34C193.226 43.5087 193.322 44.1274 193.684 44.4167C194.045 44.7059 195.25 45.7746 194.431 46.2085C193.611 46.6424 192.8 46.3612 191.643 45.8549C190.486 45.3487 189.722 44.481 189.465 43.9989C189.2 43.5168 188.501 43.0427 188.501 43.0427L190.02 41.1143Z" fill="url(#paint58_linear_15_3844)"/>
<path d="M178.931 22.9471C178.931 22.9471 176.617 22.1436 175.549 25.5344C174.48 28.9252 178.988 34.9916 180.064 36.5102C181.141 38.0369 188.461 43.7176 188.461 43.7176L190.928 40.584C190.928 40.584 183.527 35.1764 182.941 32.6775C182.37 30.1867 181.326 23.14 178.931 22.9471Z" fill="url(#paint59_linear_15_3844)"/>
<path d="M174.367 13.7069C174.367 13.7069 173.234 18.1743 172.519 19.0903C172.519 19.0903 176.328 20.7697 178.015 20.1751C178.015 20.1751 177.477 18.5681 178.216 16.9852C178.208 16.9852 175.524 15.4746 174.367 13.7069Z" fill="url(#paint60_linear_15_3844)"/>
<path d="M173.885 10.1072C173.363 13.9881 175.251 17.403 178.096 17.7325C180.948 18.0619 183.68 15.1773 184.202 11.2884C184.725 7.40748 182.836 3.99261 179.992 3.66317C177.148 3.33374 174.408 6.21831 173.885 10.1072Z" fill="url(#paint61_linear_15_3844)"/>
<path d="M172.897 18.7609C172.897 18.7609 167.112 19.4037 164.637 28.4752C162.162 37.5467 161.624 51.3107 161.624 51.3107C161.624 51.3107 172.873 51.3107 180.072 51.3107C180.072 51.3107 181.816 32.6293 181.205 26.7959C180.595 20.9545 178.015 19.8296 178.015 19.8296C178.015 19.8296 177.196 21.4205 172.897 18.7609Z" fill="url(#paint62_linear_15_3844)"/>
<path d="M195.058 52.4276L184.034 45.0755L169.41 51.7365L180.434 59.0886L195.058 52.4276Z" fill="url(#paint63_linear_15_3844)"/>
<path d="M174.737 45.2603C174.737 45.2603 172.905 46.4174 172.495 47.1244C172.495 47.1244 174.022 48.5788 174.817 48.635C175.621 48.6913 176.119 48.86 176.28 48.8118C176.448 48.7636 178.152 49.0207 178.674 48.8198C179.196 48.627 179.791 48.0404 179.357 47.7833C178.931 47.5342 176.85 46.0317 174.737 45.2603Z" fill="url(#paint64_linear_15_3844)"/>
<path d="M175.091 23.7426C175.091 23.7426 175.099 25.7272 173.572 27.8083C170.928 31.4241 168.55 37.4583 168.727 37.8038C169.008 38.3422 175.677 44.8023 175.677 44.8023L173.178 48.2815C173.178 48.2815 167.096 43.3801 165.762 41.6285C164.428 39.8769 163.215 39.0091 163.914 36.7031C164.613 34.397 166.557 28.4591 166.557 28.4591C166.557 28.4591 170.728 18.102 175.091 23.7426Z" fill="url(#paint65_linear_15_3844)"/>
<path d="M173.942 11.9151C173.942 11.9151 174.375 10.0831 175.741 9.34389C175.741 9.34389 178.088 10.0831 182.089 6.21024C182.089 6.21024 184.443 8.28327 184.315 6.15399C184.178 4.02472 182.587 0.698234 178.2 0.167924C173.813 -0.362386 171.153 1.76689 170.35 5.08534C169.554 8.41183 170.487 8.41183 169.289 12.5338C168.092 16.6557 164.637 18.1181 163.175 20.9143C161.712 23.7105 162.154 27.2378 164.5 27.5833C165.649 27.7521 165.971 26.3138 167.714 22.9632C169.056 20.384 171.129 20.8339 173.275 18.544C175.412 16.262 174.022 13.032 173.942 11.9151Z" fill="url(#paint66_linear_15_3844)"/>
<path opacity="0.4" d="M187.738 273.494C187.738 274.828 174.408 275.913 157.968 275.913C141.528 275.913 128.198 274.828 128.198 273.494C128.198 272.161 141.528 271.076 157.968 271.076C174.408 271.076 187.738 272.161 187.738 273.494Z" fill="url(#paint67_radial_15_3844)"/>
<path d="M148.414 206.418L150.833 204.747C150.833 204.747 154.24 210.106 154.007 210.347C153.774 210.588 154.465 212.011 152.713 211.978C150.961 211.946 148.864 208.957 148.414 206.418Z" fill="url(#paint68_linear_15_3844)"/>
<path d="M151.564 176.07C151.564 176.07 146.791 185.101 145.305 188.54C143.81 191.979 143.433 193.57 145.305 198.849C146.743 202.915 148.447 207.945 148.447 207.945L151.661 206.121C151.661 206.121 148.551 196.768 148.439 194.213C148.294 190.927 152.175 185.399 152.175 185.399C152.175 185.399 152.601 177.492 151.564 176.07Z" fill="url(#paint69_linear_15_3844)"/>
<path d="M152.448 261.972C152.448 261.972 152.705 267.404 152.223 268.746C152.223 268.746 150.632 269.38 150.246 268.521C150.246 268.521 149.451 265.893 149.829 262.061L152.448 261.972Z" fill="url(#paint70_linear_15_3844)"/>
<path d="M152.552 263.965C152.448 266.174 153.83 269.549 154.328 269.999C154.826 270.449 155.333 270.803 155.228 271.453C155.132 272.104 154.176 273.213 153.067 272.353C151.966 271.502 151.661 270.441 151.106 269.646C150.56 268.842 150.56 269.244 150.56 269.244C150.56 269.244 150.254 272.659 150.56 273.615H149.837C149.837 273.615 149.515 270.61 149.266 269.204C149.017 267.798 148.165 265.741 149.065 264.334L149.804 263.065C149.804 263.065 150.986 262.591 151.636 264.792C152.03 266.142 152.552 263.965 152.552 263.965Z" fill="url(#paint71_linear_15_3844)"/>
<path d="M162.532 262.093C162.532 262.093 162.789 267.524 162.307 268.874C162.307 268.874 160.716 269.509 160.33 268.649C160.33 268.649 159.535 266.022 159.912 262.189L162.532 262.093Z" fill="url(#paint72_linear_15_3844)"/>
<path d="M162.628 264.085C162.524 266.295 163.906 269.67 164.412 270.12C164.91 270.57 165.416 270.923 165.312 271.574C165.208 272.225 164.259 273.326 163.151 272.474C162.05 271.622 161.744 270.562 161.19 269.758C160.644 268.955 160.644 269.356 160.644 269.356C160.644 269.356 160.338 272.771 160.644 273.719H159.921C159.921 273.719 159.599 270.714 159.35 269.308C159.101 267.902 158.241 265.845 159.149 264.439L159.888 263.169C159.888 263.169 161.07 262.695 161.72 264.897C162.114 266.271 162.628 264.085 162.628 264.085Z" fill="url(#paint73_linear_15_3844)"/>
<path d="M167.128 205.84C167.128 205.84 168.028 220.777 164.581 249.494C164.059 253.857 163.544 261.988 163.544 261.988C163.544 261.988 160.258 262.888 158.763 262.141C158.763 262.141 158.153 235.754 158.153 231.415C158.153 228.94 158.265 228.94 157.598 217.756L153.243 262.286C153.243 262.286 150.704 263.25 148.76 261.892L150.23 204.843C150.222 204.843 162.202 206.587 167.128 205.84Z" fill="url(#paint74_linear_15_3844)"/>
<path d="M183.784 181.662C183.784 181.662 185.351 179.075 185.375 178.408C185.399 177.741 185.536 175.789 185.729 175.275C185.922 174.76 186.34 174.664 186.589 174.527C186.838 174.399 187.408 171.723 187.553 171.345C187.689 170.968 187.77 170.558 188.139 170.679C188.517 170.799 188.204 172.245 188.091 172.744C187.971 173.25 187.77 174.511 187.77 174.511C187.77 174.511 188.332 174.568 188.557 174.728C188.782 174.897 188.943 175.25 189.152 175.315C189.361 175.379 189.465 175.668 189.586 175.966C189.706 176.263 190.076 176.15 190.116 176.785C190.148 177.42 189.706 178.489 189.224 178.955C188.734 179.421 188.252 179.879 188.075 180.023C187.898 180.168 185.882 183.294 185.882 183.294C185.882 183.294 184.034 182.514 183.784 181.662Z" fill="url(#paint75_linear_15_3844)"/>
<path d="M167.128 205.84C167.128 205.84 156.65 207.977 150.222 204.843C150.222 204.843 154.473 198.158 152.054 187.785C151.122 183.784 150.978 177.179 151.725 175.532C152.472 173.885 157.116 172.253 157.116 172.253C157.116 172.253 160.025 172.229 162.596 172.165C162.596 172.165 165.392 173.145 167.184 174.64C167.184 174.64 169.064 176.52 169.964 179.662C170.864 182.795 176.681 189.432 177.123 189.432C177.573 189.432 184.467 180.256 184.467 180.256L187.328 181.936C187.328 181.936 181.165 194.358 178.176 195.997C175.187 197.636 170.832 190.533 169.04 187.994C169.04 187.994 166.983 194.631 166.831 197.917C166.678 201.212 167.128 205.84 167.128 205.84Z" fill="url(#paint76_linear_15_3844)"/>
<path d="M159.904 170.751C159.904 170.751 160.804 172.84 159.157 174.64C159.157 174.64 162.299 176.134 165.585 174.19C165.585 174.19 164.091 172.245 164.541 169.562C164.533 169.554 162.291 170.904 159.904 170.751Z" fill="url(#paint77_linear_15_3844)"/>
<path d="M156.016 164.701C156.016 168.951 158.522 172.398 161.616 172.398C164.709 172.398 167.216 168.951 167.216 164.701C167.216 160.45 164.709 157.003 161.616 157.003C158.53 157.003 156.016 160.45 156.016 164.701Z" fill="url(#paint78_linear_15_3844)"/>
<path d="M166.509 158.096C166.509 158.096 168.51 160.611 165.505 164.717C165.505 164.717 164.332 162.981 164.051 164.917C163.938 165.657 164.758 166.725 164.758 166.725C164.758 166.725 163.665 168.814 163.681 170.14C163.705 172.109 163.584 173.885 163.536 175.267C163.432 178.569 161.688 186.363 153.718 183.703C149.218 182.201 150.68 178.617 152.054 174.817C152.729 172.944 152.89 173.033 152.962 169.072C153.035 165.11 152.777 160.105 156.08 157.316C159.398 154.528 164.677 154.793 166.509 158.096Z" fill="url(#paint79_linear_15_3844)"/>
<path opacity="0.4" d="M414.051 275.375C430.493 275.375 443.821 274.292 443.821 272.956C443.821 271.62 430.493 270.537 414.051 270.537C397.61 270.537 384.282 271.62 384.282 272.956C384.282 274.292 397.61 275.375 414.051 275.375Z" fill="url(#paint80_radial_15_3844)"/>
<path d="M412.091 181.277C412.091 181.277 404.675 194.374 404.08 194.438C403.477 194.502 393.241 192.775 393.241 192.775L392.044 196.302C392.044 196.302 400.352 198.897 402.553 199.026C404.747 199.163 406.145 199.693 407.672 197.829C409.198 195.965 413.055 191.047 413.055 191.047C413.055 191.047 415.449 181.486 412.091 181.277Z" fill="url(#paint81_linear_15_3844)"/>
<path d="M393.032 193.402L389.778 192.052L388.653 194.446L392.204 195.828L393.032 193.402Z" fill="url(#paint82_linear_15_3844)"/>
<path d="M405.599 263.756C405.599 263.756 404.08 268.183 403.791 268.521C403.501 268.858 402.682 269.26 402.682 269.26C402.682 269.26 405.141 271.18 407.406 270.425C407.406 270.425 408.499 267.637 409.552 265.066L405.599 263.756Z" fill="url(#paint83_linear_15_3844)"/>
<path d="M403.791 268.513C403.791 268.513 403.847 270.377 407.527 269.887C407.527 269.887 407.776 270.256 407.744 270.875C407.712 271.494 407.422 273.342 407.422 273.342C407.422 273.342 395.804 273.02 395.37 272.908C394.928 272.795 394.502 271.084 396.117 270.73C397.732 270.385 399.62 270.047 400.81 269.493C401.983 268.947 403.791 268.513 403.791 268.513Z" fill="url(#paint84_linear_15_3844)"/>
<path d="M411.006 206.282C411.006 206.282 406.137 242.021 405.599 247.164C405.068 252.306 403.662 265.475 403.662 265.475L409.688 267.074C409.688 267.074 416.438 245.123 417.33 237.674C418.214 230.226 422.649 206.9 422.649 206.9L411.006 206.282Z" fill="url(#paint85_linear_15_3844)"/>
<path d="M423.268 264.198C423.268 264.198 424.73 267.597 424.625 268.023C424.521 268.456 423.967 269.18 423.967 269.18C423.967 269.18 427.036 269.774 428.707 268.071C428.707 268.071 427.671 265.668 427.148 263.129L423.268 264.198Z" fill="url(#paint86_linear_15_3844)"/>
<path d="M424.625 268.031C424.625 268.031 425.525 269.67 428.579 267.557C428.579 267.557 428.972 267.773 429.221 268.344C429.47 268.914 430.057 270.69 430.057 270.69C430.057 270.69 419.563 275.672 419.121 275.768C418.679 275.865 417.514 274.531 418.8 273.486C420.086 272.442 421.612 271.285 422.416 270.256C423.219 269.228 424.625 268.031 424.625 268.031Z" fill="url(#paint87_linear_15_3844)"/>
<path d="M414.775 206.876C414.775 206.876 419.395 241.925 419.973 247.059C420.552 252.194 422.295 265.283 422.295 265.283L428.249 263.692C428.249 263.692 428.281 245.91 427.55 238.446C426.827 230.981 427.687 207.278 427.687 207.278L414.775 206.876Z" fill="url(#paint88_linear_15_3844)"/>
<path d="M420.198 169.915C420.198 169.915 420.769 174.487 421.371 175.492C421.371 175.492 417.386 176.689 415.787 175.893C415.787 175.893 416.518 174.367 415.988 172.703C415.98 172.695 418.832 171.522 420.198 169.915Z" fill="url(#paint89_linear_15_3844)"/>
<path d="M421.058 167.095C420.536 170.992 417.723 173.828 414.775 173.435C411.826 173.041 409.857 169.562 410.379 165.673C410.902 161.776 413.714 158.939 416.663 159.333C419.604 159.719 421.572 163.198 421.058 167.095Z" fill="url(#paint90_linear_15_3844)"/>
<path d="M419.371 165.416C419.371 165.416 418.037 164.861 417.9 162.796C417.9 162.796 415.184 161.061 413.457 161.519C411.721 161.977 409.6 159.59 410.468 156.931C411.336 154.271 413.127 154.207 415.723 155.404C418.318 156.601 419.909 156.802 421.106 156.802C422.303 156.802 425.292 158.53 425.027 162.186C424.762 165.841 423.509 167.617 420.785 168.405C420.785 168.405 421.725 165.359 419.371 165.416Z" fill="url(#paint91_linear_15_3844)"/>
<path d="M421.275 166.757C420.688 167.593 419.788 167.963 419.258 167.593C418.736 167.224 418.784 166.251 419.371 165.416C419.957 164.58 420.865 164.21 421.387 164.58C421.91 164.95 421.861 165.922 421.275 166.757Z" fill="url(#paint92_linear_15_3844)"/>
<path d="M421.162 175.001C421.162 175.001 426.819 176.351 428.153 185.664C429.487 194.976 428.153 209.206 428.153 209.206C428.153 209.206 415.915 210.404 409.929 208.676C409.929 208.676 410.596 187.665 411.922 181.944C413.256 176.223 415.948 175.427 415.948 175.427C415.948 175.427 416.566 177.107 421.162 175.001Z" fill="url(#paint93_linear_15_3844)"/>
<path d="M418.575 182.739C418.575 182.739 419.371 179.814 422.697 181.405C426.024 183.004 430.009 196.969 430.547 199.227C431.078 201.485 431.013 213.192 431.013 213.192H427.02C427.02 213.192 427.349 201.621 425.758 199.09C424.159 196.567 417.249 185.262 418.575 182.739Z" fill="url(#paint94_linear_15_3844)"/>
<path d="M427.486 213.192L427.349 214.919C427.349 214.919 427.213 215.916 426.883 216.446C426.554 216.976 426.289 217.908 426.353 218.439C426.417 218.969 426.819 219.499 427.084 219.499C427.349 219.499 427.88 220.23 427.88 220.962C427.88 221.693 427.815 225.349 428.876 224.754C429.937 224.151 430.475 221.765 430.869 219.837C431.27 217.908 431.005 216.116 430.732 215.313C430.467 214.518 430.531 213.184 430.531 213.184H427.486V213.192Z" fill="url(#paint95_linear_15_3844)"/>
<path d="M374.857 146.887C374.857 155.854 382.128 163.126 391.095 163.126C400.062 163.126 407.334 155.854 407.334 146.887C407.334 137.92 400.062 130.648 391.095 130.648C382.128 130.648 374.857 137.92 374.857 146.887Z" fill="url(#paint96_linear_15_3844)"/>
<path d="M388.838 209.889C388.838 210.773 389.472 211.496 390.244 211.496C391.015 211.496 391.65 210.773 391.65 209.889V168.79C391.65 167.906 391.015 167.183 390.244 167.183C389.472 167.183 388.838 167.906 388.838 168.79V209.889Z" fill="url(#paint97_linear_15_3844)"/>
<path d="M395.563 165.335C395.563 167.786 394.317 169.771 390.244 169.771C386.515 169.771 384.925 167.786 384.925 165.335H395.563Z" fill="url(#paint98_linear_15_3844)"/>
<path d="M370.927 146.887C370.927 158.104 380.023 167.199 391.24 167.199C402.457 167.199 411.552 158.104 411.552 146.887C411.552 135.67 402.457 126.574 391.24 126.574C380.023 126.574 370.927 135.67 370.927 146.887ZM375.009 146.887C375.009 137.92 382.281 130.648 391.248 130.648C400.215 130.648 407.487 137.92 407.487 146.887C407.487 155.854 400.215 163.126 391.248 163.126C382.273 163.126 375.009 155.854 375.009 146.887Z" fill="url(#paint99_linear_15_3844)"/>
<g opacity="0.6">
<path d="M404.265 148.092C404.932 148.092 405.47 147.554 405.47 146.887C405.47 139.045 399.09 132.657 391.24 132.657C390.573 132.657 390.035 133.195 390.035 133.862C390.035 134.529 390.573 135.067 391.24 135.067C397.756 135.067 403.059 140.371 403.059 146.887C403.059 147.554 403.606 148.092 404.265 148.092Z" fill="white"/>
</g>
<path d="M391.119 195.129C391.119 195.129 389.89 195.33 389.151 195.41C388.412 195.491 387.777 195.322 387.52 194.687C387.263 194.052 387.528 192.895 387.472 192.253C387.415 191.61 387.616 190.654 388.106 190.284C388.596 189.914 389.344 189.834 390.091 190.099C390.838 190.364 391.995 190.613 392.22 191.401C392.453 192.188 391.931 192.711 391.907 193.458C391.875 194.205 391.119 195.129 391.119 195.129Z" fill="url(#paint100_linear_15_3844)"/>
<path d="M287.114 1.50974H316.804C319.062 1.50974 320.91 3.35778 320.91 5.61562V35.2969C320.91 37.5547 319.062 39.4028 316.804 39.4028H299.384L293.237 44.4487V39.4028H287.114C284.857 39.4028 283.009 37.5547 283.009 35.2969V5.61562C283.009 3.35778 284.857 1.50974 287.114 1.50974Z" fill="url(#paint101_linear_15_3844)"/>
<path d="M302.06 32.7177C301.746 32.7177 301.441 32.5891 301.224 32.3641L292.602 23.4292C290.714 21.758 287.878 17.5476 290.425 13.2971C291.694 11.1839 293.703 10.0188 296.09 10.0188C298.147 10.0188 300.348 10.8866 302.06 12.3409C303.771 10.8866 305.973 10.0188 308.03 10.0188C310.408 10.0188 312.417 11.1839 313.686 13.2971C316.233 17.5476 313.397 21.758 311.509 23.4292L302.895 32.3641C302.67 32.5891 302.373 32.7177 302.06 32.7177ZM296.09 12.3329C294.515 12.3329 293.277 13.0561 292.418 14.4863C290.216 18.1583 294.009 21.5651 294.169 21.7097C294.193 21.7338 294.217 21.758 294.242 21.774L302.06 29.8813L309.878 21.774C309.902 21.7499 309.926 21.7258 309.95 21.7017C310.111 21.5571 313.903 18.1502 311.694 14.4782C310.834 13.048 309.604 12.3249 308.03 12.3249C306.262 12.3249 304.253 13.265 302.911 14.7193C302.469 15.1934 301.65 15.1934 301.208 14.7193C299.866 13.273 297.857 12.3329 296.09 12.3329Z" fill="white"/>
<path d="M444.504 82.0204H385.109C383.181 82.0204 381.606 83.5953 381.606 85.5237V110.641C381.606 112.569 383.181 114.144 385.109 114.144H414.541L413.111 125.128L425.766 114.144H444.504C446.432 114.144 448.007 112.569 448.007 110.641V85.5237C448.007 83.5953 446.432 82.0204 444.504 82.0204Z" fill="url(#paint102_linear_15_3844)"/>
<path d="M389.222 107.533V92.4942H392.101L400.974 103.322H399.578V92.4942H403.015V107.533H400.158L391.263 96.7051H392.66V107.533H389.222ZM409.774 98.5528H417.015V101.26H409.774V98.5528ZM410.032 104.74H418.218V107.533H406.573V92.4942H417.939V95.2871H410.032V104.74ZM424.387 107.533L419.467 92.4942H423.076L427.352 105.815H425.547L430.016 92.4942H433.238L437.535 105.815H435.795L440.178 92.4942H443.508L438.588 107.533H434.85L431.047 95.8457H432.035L428.125 107.533H424.387ZM394.163 133.791C392.96 133.791 391.807 133.634 390.704 133.318C389.602 132.989 388.714 132.567 388.04 132.051L389.222 129.43C389.867 129.888 390.626 130.268 391.499 130.568C392.387 130.855 393.283 130.998 394.185 130.998C394.872 130.998 395.424 130.934 395.839 130.805C396.269 130.662 396.584 130.468 396.785 130.225C396.985 129.981 397.085 129.702 397.085 129.387C397.085 128.986 396.928 128.671 396.613 128.441C396.298 128.198 395.882 128.005 395.367 127.861C394.851 127.704 394.278 127.561 393.648 127.432C393.032 127.288 392.409 127.117 391.779 126.916C391.163 126.716 390.597 126.458 390.081 126.143C389.566 125.828 389.143 125.412 388.814 124.897C388.499 124.381 388.341 123.722 388.341 122.92C388.341 122.061 388.57 121.28 389.029 120.578C389.501 119.862 390.203 119.296 391.134 118.881C392.079 118.451 393.261 118.236 394.679 118.236C395.624 118.236 396.555 118.351 397.472 118.58C398.389 118.795 399.198 119.124 399.9 119.568L398.826 122.211C398.124 121.81 397.422 121.516 396.72 121.33C396.018 121.13 395.331 121.029 394.658 121.029C393.984 121.029 393.433 121.108 393.003 121.266C392.574 121.423 392.266 121.631 392.079 121.889C391.893 122.132 391.8 122.419 391.8 122.748C391.8 123.135 391.958 123.45 392.273 123.693C392.588 123.923 393.003 124.109 393.519 124.252C394.035 124.395 394.6 124.538 395.216 124.682C395.846 124.825 396.469 124.99 397.085 125.176C397.716 125.362 398.288 125.613 398.804 125.928C399.32 126.243 399.735 126.658 400.05 127.174C400.38 127.69 400.544 128.341 400.544 129.129C400.544 129.974 400.308 130.748 399.835 131.449C399.363 132.151 398.654 132.717 397.708 133.147C396.777 133.576 395.596 133.791 394.163 133.791Z" fill="white"/>
<path d="M134.409 156.746C134.409 160.41 131.412 163.415 127.74 163.415H68.4421C64.7781 163.415 61.773 160.418 61.773 156.746V108.922C61.773 105.258 64.7701 102.253 68.4421 102.253H127.74C131.404 102.253 134.409 105.25 134.409 108.922V156.746Z" fill="url(#paint103_linear_15_3844)"/>
<path d="M98.0912 149.273C87.718 149.273 79.2812 140.837 79.2812 130.455C79.2812 120.082 87.718 111.637 98.0912 111.637C108.464 111.637 116.909 120.082 116.909 130.455C116.909 140.829 108.464 149.273 98.0912 149.273ZM98.0912 113.871C88.9474 113.871 81.515 121.312 81.515 130.447C81.515 139.591 88.9554 147.032 98.0912 147.032C107.235 147.032 114.675 139.591 114.675 130.447C114.675 121.312 107.235 113.871 98.0912 113.871Z" fill="white"/>
<path d="M92.2176 120.613L109.26 130.455L92.2176 140.298V120.613Z" fill="white"/>
<path d="M116.572 154.785H67.5743V158.401H116.572V154.785Z" fill="white"/>
<path d="M128.616 154.785H118.572V158.401H128.616V154.785Z" fill="white"/>
<path d="M77.3207 200.127C77.3207 198.142 78.9358 196.535 80.9124 196.535H103.089C105.074 196.535 106.681 198.15 106.681 200.127V212.629C106.681 214.252 105.58 215.683 104.005 216.1L100.976 216.904L101.916 219.668C100.911 219.073 99.8187 218.254 98.6938 217.105L97.8341 216.229H96.6047H80.8963C78.9117 216.229 77.3047 214.614 77.3047 212.637V200.127H77.3207Z" fill="url(#paint104_linear_15_3844)"/>
<path d="M101.265 201.967H82.7363V204.281H101.265V201.967Z" fill="white"/>
<path d="M101.265 208.877H82.7363V211.191H101.265V208.877Z" fill="white"/>
<defs>
<linearGradient id="paint0_linear_15_3844" x1="257.388" y1="267.501" x2="257.388" y2="-16.2837" gradientUnits="userSpaceOnUse">
<stop stop-color="#F2E7FF"/>
<stop offset="0.5149" stop-color="#D9B9FF"/>
<stop offset="0.9987" stop-color="#BF8BFF"/>
</linearGradient>
<linearGradient id="paint1_linear_15_3844" x1="390.85" y1="165.439" x2="480.659" y2="165.439" gradientUnits="userSpaceOnUse">
<stop stop-color="#F7ABC5"/>
<stop offset="1" stop-color="#F16D9A"/>
</linearGradient>
<linearGradient id="paint2_linear_15_3844" x1="55.548" y1="58.6576" x2="139.211" y2="58.6576" gradientUnits="userSpaceOnUse">
<stop stop-color="#C5F9F7"/>
<stop offset="1" stop-color="#31D8DD"/>
</linearGradient>
<linearGradient id="paint3_linear_15_3844" x1="59.3749" y1="190.134" x2="40.4747" y2="190.134" gradientUnits="userSpaceOnUse">
<stop stop-color="#D7DAE3"/>
<stop offset="0.4855" stop-color="#AAB1C4"/>
<stop offset="1" stop-color="#6E7B9A"/>
</linearGradient>
<linearGradient id="paint4_linear_15_3844" x1="407.501" y1="36.2968" x2="426.401" y2="36.2968" gradientUnits="userSpaceOnUse">
<stop stop-color="#D7DAE3"/>
<stop offset="1" stop-color="#AAB1C4"/>
</linearGradient>
<linearGradient id="paint5_linear_15_3844" x1="112.491" y1="150.305" x2="407.437" y2="150.305" gradientUnits="userSpaceOnUse">
<stop stop-color="#6D6E71"/>
<stop offset="0.6223" stop-color="#3C3A3C"/>
<stop offset="1" stop-color="#98AABB"/>
</linearGradient>
<linearGradient id="paint6_linear_15_3844" x1="409.61" y1="85.6087" x2="124.635" y2="208.812" gradientUnits="userSpaceOnUse">
<stop stop-color="#F8FBFF"/>
<stop offset="0.9994" stop-color="#D6EAFF"/>
</linearGradient>
<linearGradient id="paint7_linear_15_3844" x1="198.254" y1="258.879" x2="321.675" y2="258.879" gradientUnits="userSpaceOnUse">
<stop stop-color="#6D6E71"/>
<stop offset="0.6223" stop-color="#3C3A3C"/>
<stop offset="1" stop-color="#98AABB"/>
</linearGradient>
<linearGradient id="paint8_linear_15_3844" x1="122.179" y1="70.0137" x2="397.749" y2="70.0137" gradientUnits="userSpaceOnUse">
<stop stop-color="#00C4FF"/>
<stop offset="0.6781" stop-color="#0392EC"/>
<stop offset="1" stop-color="#0579E3"/>
</linearGradient>
<linearGradient id="paint9_linear_15_3844" x1="339.231" y1="96.357" x2="356.254" y2="96.357" gradientUnits="userSpaceOnUse">
<stop stop-color="#00C4FF"/>
<stop offset="0.6781" stop-color="#0392EC"/>
<stop offset="1" stop-color="#0579E3"/>
</linearGradient>
<linearGradient id="paint10_linear_15_3844" x1="366.213" y1="170.126" x2="283.221" y2="170.126" gradientUnits="userSpaceOnUse">
<stop stop-color="#DAE8FF"/>
<stop offset="1" stop-color="#B0CDFF"/>
</linearGradient>
<linearGradient id="paint11_linear_15_3844" x1="295.789" y1="132.267" x2="353.73" y2="132.267" gradientUnits="userSpaceOnUse">
<stop stop-color="#00C4FF"/>
<stop offset="0.6781" stop-color="#0392EC"/>
<stop offset="1" stop-color="#0579E3"/>
</linearGradient>
<linearGradient id="paint12_linear_15_3844" x1="295.789" y1="132.267" x2="353.73" y2="132.267" gradientUnits="userSpaceOnUse">
<stop stop-color="#00C4FF"/>
<stop offset="0.6781" stop-color="#0392EC"/>
<stop offset="1" stop-color="#0579E3"/>
</linearGradient>
<linearGradient id="paint13_linear_15_3844" x1="295.789" y1="132.267" x2="353.73" y2="132.267" gradientUnits="userSpaceOnUse">
<stop stop-color="#00C4FF"/>
<stop offset="0.6781" stop-color="#0392EC"/>
<stop offset="1" stop-color="#0579E3"/>
</linearGradient>
<linearGradient id="paint14_linear_15_3844" x1="295.789" y1="138.828" x2="353.73" y2="138.828" gradientUnits="userSpaceOnUse">
<stop stop-color="#00C4FF"/>
<stop offset="0.6781" stop-color="#0392EC"/>
<stop offset="1" stop-color="#0579E3"/>
</linearGradient>
<linearGradient id="paint15_linear_15_3844" x1="295.789" y1="138.828" x2="353.73" y2="138.828" gradientUnits="userSpaceOnUse">
<stop stop-color="#00C4FF"/>
<stop offset="0.6781" stop-color="#0392EC"/>
<stop offset="1" stop-color="#0579E3"/>
</linearGradient>
<linearGradient id="paint16_linear_15_3844" x1="295.789" y1="138.828" x2="353.73" y2="138.828" gradientUnits="userSpaceOnUse">
<stop stop-color="#00C4FF"/>
<stop offset="0.6781" stop-color="#0392EC"/>
<stop offset="1" stop-color="#0579E3"/>
</linearGradient>
<linearGradient id="paint17_linear_15_3844" x1="295.789" y1="146.098" x2="353.73" y2="146.098" gradientUnits="userSpaceOnUse">
<stop stop-color="#00C4FF"/>
<stop offset="0.6781" stop-color="#0392EC"/>
<stop offset="1" stop-color="#0579E3"/>
</linearGradient>
<linearGradient id="paint18_linear_15_3844" x1="295.789" y1="146.098" x2="353.73" y2="146.098" gradientUnits="userSpaceOnUse">
<stop stop-color="#00C4FF"/>
<stop offset="0.6781" stop-color="#0392EC"/>
<stop offset="1" stop-color="#0579E3"/>
</linearGradient>
<linearGradient id="paint19_linear_15_3844" x1="295.789" y1="146.098" x2="353.73" y2="146.098" gradientUnits="userSpaceOnUse">
<stop stop-color="#00C4FF"/>
<stop offset="0.6781" stop-color="#0392EC"/>
<stop offset="1" stop-color="#0579E3"/>
</linearGradient>
<linearGradient id="paint20_linear_15_3844" x1="295.789" y1="152.659" x2="353.73" y2="152.659" gradientUnits="userSpaceOnUse">
<stop stop-color="#00C4FF"/>
<stop offset="0.6781" stop-color="#0392EC"/>
<stop offset="1" stop-color="#0579E3"/>
</linearGradient>
<linearGradient id="paint21_linear_15_3844" x1="295.789" y1="152.659" x2="353.73" y2="152.659" gradientUnits="userSpaceOnUse">
<stop stop-color="#00C4FF"/>
<stop offset="0.6781" stop-color="#0392EC"/>
<stop offset="1" stop-color="#0579E3"/>
</linearGradient>
<linearGradient id="paint22_linear_15_3844" x1="295.789" y1="152.659" x2="353.73" y2="152.659" gradientUnits="userSpaceOnUse">
<stop stop-color="#00C4FF"/>
<stop offset="0.6781" stop-color="#0392EC"/>
<stop offset="1" stop-color="#0579E3"/>
</linearGradient>
<linearGradient id="paint23_linear_15_3844" x1="295.789" y1="159.929" x2="353.73" y2="159.929" gradientUnits="userSpaceOnUse">
<stop stop-color="#00C4FF"/>
<stop offset="0.6781" stop-color="#0392EC"/>
<stop offset="1" stop-color="#0579E3"/>
</linearGradient>
<linearGradient id="paint24_linear_15_3844" x1="295.789" y1="159.929" x2="353.73" y2="159.929" gradientUnits="userSpaceOnUse">
<stop stop-color="#00C4FF"/>
<stop offset="0.6781" stop-color="#0392EC"/>
<stop offset="1" stop-color="#0579E3"/>
</linearGradient>
<linearGradient id="paint25_linear_15_3844" x1="295.789" y1="159.929" x2="353.73" y2="159.929" gradientUnits="userSpaceOnUse">
<stop stop-color="#00C4FF"/>
<stop offset="0.6781" stop-color="#0392EC"/>
<stop offset="1" stop-color="#0579E3"/>
</linearGradient>
<linearGradient id="paint26_linear_15_3844" x1="295.789" y1="166.49" x2="353.73" y2="166.49" gradientUnits="userSpaceOnUse">
<stop stop-color="#00C4FF"/>
<stop offset="0.6781" stop-color="#0392EC"/>
<stop offset="1" stop-color="#0579E3"/>
</linearGradient>
<linearGradient id="paint27_linear_15_3844" x1="295.789" y1="166.49" x2="353.73" y2="166.49" gradientUnits="userSpaceOnUse">
<stop stop-color="#00C4FF"/>
<stop offset="0.6781" stop-color="#0392EC"/>
<stop offset="1" stop-color="#0579E3"/>
</linearGradient>
<linearGradient id="paint28_linear_15_3844" x1="295.789" y1="166.49" x2="353.73" y2="166.49" gradientUnits="userSpaceOnUse">
<stop stop-color="#00C4FF"/>
<stop offset="0.6781" stop-color="#0392EC"/>
<stop offset="1" stop-color="#0579E3"/>
</linearGradient>
<linearGradient id="paint29_linear_15_3844" x1="295.789" y1="173.761" x2="353.73" y2="173.761" gradientUnits="userSpaceOnUse">
<stop stop-color="#00C4FF"/>
<stop offset="0.6781" stop-color="#0392EC"/>
<stop offset="1" stop-color="#0579E3"/>
</linearGradient>
<linearGradient id="paint30_linear_15_3844" x1="295.788" y1="173.761" x2="353.73" y2="173.761" gradientUnits="userSpaceOnUse">
<stop stop-color="#00C4FF"/>
<stop offset="0.6781" stop-color="#0392EC"/>
<stop offset="1" stop-color="#0579E3"/>
</linearGradient>
<linearGradient id="paint31_linear_15_3844" x1="295.789" y1="173.761" x2="353.73" y2="173.761" gradientUnits="userSpaceOnUse">
<stop stop-color="#00C4FF"/>
<stop offset="0.6781" stop-color="#0392EC"/>
<stop offset="1" stop-color="#0579E3"/>
</linearGradient>
<linearGradient id="paint32_linear_15_3844" x1="295.789" y1="180.322" x2="353.73" y2="180.322" gradientUnits="userSpaceOnUse">
<stop stop-color="#00C4FF"/>
<stop offset="0.6781" stop-color="#0392EC"/>
<stop offset="1" stop-color="#0579E3"/>
</linearGradient>
<linearGradient id="paint33_linear_15_3844" x1="295.789" y1="180.322" x2="353.73" y2="180.322" gradientUnits="userSpaceOnUse">
<stop stop-color="#00C4FF"/>
<stop offset="0.6781" stop-color="#0392EC"/>
<stop offset="1" stop-color="#0579E3"/>
</linearGradient>
<linearGradient id="paint34_linear_15_3844" x1="295.789" y1="180.322" x2="353.73" y2="180.322" gradientUnits="userSpaceOnUse">
<stop stop-color="#00C4FF"/>
<stop offset="0.6781" stop-color="#0392EC"/>
<stop offset="1" stop-color="#0579E3"/>
</linearGradient>
<linearGradient id="paint35_linear_15_3844" x1="295.789" y1="187.591" x2="353.73" y2="187.591" gradientUnits="userSpaceOnUse">
<stop stop-color="#00C4FF"/>
<stop offset="0.6781" stop-color="#0392EC"/>
<stop offset="1" stop-color="#0579E3"/>
</linearGradient>
<linearGradient id="paint36_linear_15_3844" x1="295.789" y1="187.591" x2="353.73" y2="187.591" gradientUnits="userSpaceOnUse">
<stop stop-color="#00C4FF"/>
<stop offset="0.6781" stop-color="#0392EC"/>
<stop offset="1" stop-color="#0579E3"/>
</linearGradient>
<linearGradient id="paint37_linear_15_3844" x1="295.789" y1="187.591" x2="353.73" y2="187.591" gradientUnits="userSpaceOnUse">
<stop stop-color="#00C4FF"/>
<stop offset="0.6781" stop-color="#0392EC"/>
<stop offset="1" stop-color="#0579E3"/>
</linearGradient>
<linearGradient id="paint38_linear_15_3844" x1="295.789" y1="194.153" x2="353.73" y2="194.153" gradientUnits="userSpaceOnUse">
<stop stop-color="#00C4FF"/>
<stop offset="0.6781" stop-color="#0392EC"/>
<stop offset="1" stop-color="#0579E3"/>
</linearGradient>
<linearGradient id="paint39_linear_15_3844" x1="295.789" y1="194.153" x2="353.731" y2="194.153" gradientUnits="userSpaceOnUse">
<stop stop-color="#00C4FF"/>
<stop offset="0.6781" stop-color="#0392EC"/>
<stop offset="1" stop-color="#0579E3"/>
</linearGradient>
<linearGradient id="paint40_linear_15_3844" x1="295.789" y1="194.153" x2="353.73" y2="194.153" gradientUnits="userSpaceOnUse">
<stop stop-color="#00C4FF"/>
<stop offset="0.6781" stop-color="#0392EC"/>
<stop offset="1" stop-color="#0579E3"/>
</linearGradient>
<linearGradient id="paint41_linear_15_3844" x1="295.789" y1="201.423" x2="353.73" y2="201.423" gradientUnits="userSpaceOnUse">
<stop stop-color="#00C4FF"/>
<stop offset="0.6781" stop-color="#0392EC"/>
<stop offset="1" stop-color="#0579E3"/>
</linearGradient>
<linearGradient id="paint42_linear_15_3844" x1="295.789" y1="201.423" x2="353.73" y2="201.423" gradientUnits="userSpaceOnUse">
<stop stop-color="#00C4FF"/>
<stop offset="0.6781" stop-color="#0392EC"/>
<stop offset="1" stop-color="#0579E3"/>
</linearGradient>
<linearGradient id="paint43_linear_15_3844" x1="295.789" y1="201.423" x2="353.73" y2="201.423" gradientUnits="userSpaceOnUse">
<stop stop-color="#00C4FF"/>
<stop offset="0.6781" stop-color="#0392EC"/>
<stop offset="1" stop-color="#0579E3"/>
</linearGradient>
<linearGradient id="paint44_linear_15_3844" x1="295.789" y1="207.984" x2="353.73" y2="207.984" gradientUnits="userSpaceOnUse">
<stop stop-color="#00C4FF"/>
<stop offset="0.6781" stop-color="#0392EC"/>
<stop offset="1" stop-color="#0579E3"/>
</linearGradient>
<linearGradient id="paint45_linear_15_3844" x1="295.789" y1="207.984" x2="353.73" y2="207.984" gradientUnits="userSpaceOnUse">
<stop stop-color="#00C4FF"/>
<stop offset="0.6781" stop-color="#0392EC"/>
<stop offset="1" stop-color="#0579E3"/>
</linearGradient>
<linearGradient id="paint46_linear_15_3844" x1="295.789" y1="207.984" x2="353.73" y2="207.984" gradientUnits="userSpaceOnUse">
<stop stop-color="#00C4FF"/>
<stop offset="0.6781" stop-color="#0392EC"/>
<stop offset="1" stop-color="#0579E3"/>
</linearGradient>
<linearGradient id="paint47_linear_15_3844" x1="332.646" y1="201.056" x2="355.394" y2="201.056" gradientUnits="userSpaceOnUse">
<stop stop-color="#00C4FF"/>
<stop offset="0.6781" stop-color="#0392EC"/>
<stop offset="1" stop-color="#0579E3"/>
</linearGradient>
<linearGradient id="paint48_linear_15_3844" x1="332.646" y1="204.858" x2="355.394" y2="204.858" gradientUnits="userSpaceOnUse">
<stop stop-color="#D8F29D"/>
<stop offset="0.9939" stop-color="#78DF12"/>
</linearGradient>
<linearGradient id="paint49_linear_15_3844" x1="347.102" y1="197.146" x2="350.892" y2="197.146" gradientUnits="userSpaceOnUse">
<stop stop-color="#D8F29D"/>
<stop offset="0.9939" stop-color="#78DF12"/>
</linearGradient>
<linearGradient id="paint50_linear_15_3844" x1="155.564" y1="130.986" x2="169.906" y2="130.986" gradientUnits="userSpaceOnUse">
<stop stop-color="#F7ABC5"/>
<stop offset="1" stop-color="#F16D9A"/>
</linearGradient>
<linearGradient id="paint51_linear_15_3844" x1="179.681" y1="130.986" x2="194.023" y2="130.986" gradientUnits="userSpaceOnUse">
<stop stop-color="#F7ABC5"/>
<stop offset="1" stop-color="#F16D9A"/>
</linearGradient>
<linearGradient id="paint52_linear_15_3844" x1="203.797" y1="130.986" x2="218.139" y2="130.986" gradientUnits="userSpaceOnUse">
<stop stop-color="#F7ABC5"/>
<stop offset="1" stop-color="#F16D9A"/>
</linearGradient>
<linearGradient id="paint53_linear_15_3844" x1="227.914" y1="130.986" x2="242.256" y2="130.986" gradientUnits="userSpaceOnUse">
<stop stop-color="#F7ABC5"/>
<stop offset="1" stop-color="#F16D9A"/>
</linearGradient>
<linearGradient id="paint54_linear_15_3844" x1="252.03" y1="130.986" x2="266.37" y2="130.986" gradientUnits="userSpaceOnUse">
<stop stop-color="#F7ABC5"/>
<stop offset="1" stop-color="#F16D9A"/>
</linearGradient>
<linearGradient id="paint55_linear_15_3844" x1="214.051" y1="168.428" x2="267.165" y2="168.428" gradientUnits="userSpaceOnUse">
<stop stop-color="#006CFF"/>
<stop offset="0.3081" stop-color="#3296FF"/>
<stop offset="1" stop-color="#AEFEFF"/>
</linearGradient>
<linearGradient id="paint56_linear_15_3844" x1="277.604" y1="179.343" x2="237.549" y2="179.343" gradientUnits="userSpaceOnUse">
<stop stop-color="#F7ABC5"/>
<stop offset="1" stop-color="#F16D9A"/>
</linearGradient>
<linearGradient id="paint57_linear_15_3844" x1="185.322" y1="190.099" x2="255.926" y2="190.099" gradientUnits="userSpaceOnUse">
<stop stop-color="#D8F29D"/>
<stop offset="0.9939" stop-color="#78DF12"/>
</linearGradient>
<linearGradient id="paint58_linear_15_3844" x1="188.464" y1="43.3404" x2="194.926" y2="44.1794" gradientUnits="userSpaceOnUse">
<stop stop-color="#FFF4DE"/>
<stop offset="1" stop-color="#FFC985"/>
</linearGradient>
<linearGradient id="paint59_linear_15_3844" x1="174.641" y1="32.1426" x2="191.747" y2="34.3642" gradientUnits="userSpaceOnUse">
<stop stop-color="#F7ABC5"/>
<stop offset="1" stop-color="#F16D9A"/>
</linearGradient>
<linearGradient id="paint60_linear_15_3844" x1="172.515" y1="17.0055" x2="178.205" y2="17.0055" gradientUnits="userSpaceOnUse">
<stop stop-color="#FFF4DE"/>
<stop offset="1" stop-color="#FFC985"/>
</linearGradient>
<linearGradient id="paint61_linear_15_3844" x1="173.133" y1="9.96524" x2="184.469" y2="11.5896" gradientUnits="userSpaceOnUse">
<stop stop-color="#FFF4DE"/>
<stop offset="1" stop-color="#FFC985"/>
</linearGradient>
<linearGradient id="paint62_linear_15_3844" x1="171.475" y1="20.2233" x2="171.475" y2="52.3689" gradientUnits="userSpaceOnUse">
<stop stop-color="#F7ABC5"/>
<stop offset="1" stop-color="#F16D9A"/>
</linearGradient>
<linearGradient id="paint63_linear_15_3844" x1="169.412" y1="52.082" x2="195.059" y2="52.082" gradientUnits="userSpaceOnUse">
<stop stop-color="#006CFF"/>
<stop offset="0.3081" stop-color="#3296FF"/>
<stop offset="1" stop-color="#AEFEFF"/>
</linearGradient>
<linearGradient id="paint64_linear_15_3844" x1="172.494" y1="47.0815" x2="179.509" y2="47.0815" gradientUnits="userSpaceOnUse">
<stop stop-color="#FFF4DE"/>
<stop offset="1" stop-color="#FFC985"/>
</linearGradient>
<linearGradient id="paint65_linear_15_3844" x1="169.698" y1="18.7502" x2="169.698" y2="38.1056" gradientUnits="userSpaceOnUse">
<stop stop-color="#F7ABC5"/>
<stop offset="1" stop-color="#F16D9A"/>
</linearGradient>
<linearGradient id="paint66_linear_15_3844" x1="162.331" y1="13.847" x2="184.324" y2="13.847" gradientUnits="userSpaceOnUse">
<stop stop-color="#231F20"/>
<stop offset="1" stop-color="#58595B"/>
</linearGradient>
<radialGradient id="paint67_radial_15_3844" cx="0" cy="0" r="1" gradientUnits="userSpaceOnUse" gradientTransform="translate(157.965 273.495) scale(29.7632 2.42071)">
<stop offset="0.2452" stop-color="#97AEAE"/>
<stop offset="0.3707" stop-color="#9DB2B2" stop-opacity="0.8336"/>
<stop offset="0.5337" stop-color="#ADBFBF" stop-opacity="0.6175"/>
<stop offset="0.7174" stop-color="#C8D4D4" stop-opacity="0.3739"/>
<stop offset="0.9149" stop-color="#EDF1F1" stop-opacity="0.1121"/>
<stop offset="0.9995" stop-color="white" stop-opacity="0"/>
</radialGradient>
<linearGradient id="paint68_linear_15_3844" x1="148.413" y1="208.364" x2="154.016" y2="208.364" gradientUnits="userSpaceOnUse">
<stop stop-color="#FFF4DE"/>
<stop offset="1" stop-color="#FFC985"/>
</linearGradient>
<linearGradient id="paint69_linear_15_3844" x1="144.035" y1="192.004" x2="152.261" y2="192.004" gradientUnits="userSpaceOnUse">
<stop stop-color="#D0E3FF"/>
<stop offset="0.5257" stop-color="#ADCCFF"/>
<stop offset="0.9997" stop-color="#91BAFF"/>
</linearGradient>
<linearGradient id="paint70_linear_15_3844" x1="149.731" y1="265.469" x2="152.519" y2="265.469" gradientUnits="userSpaceOnUse">
<stop stop-color="#FFF4DE"/>
<stop offset="1" stop-color="#FFC985"/>
</linearGradient>
<linearGradient id="paint71_linear_15_3844" x1="148.662" y1="268.318" x2="155.244" y2="268.318" gradientUnits="userSpaceOnUse">
<stop stop-color="#231F20"/>
<stop offset="1" stop-color="#58595B"/>
</linearGradient>
<linearGradient id="paint72_linear_15_3844" x1="159.814" y1="265.595" x2="162.6" y2="265.595" gradientUnits="userSpaceOnUse">
<stop stop-color="#FFF4DE"/>
<stop offset="1" stop-color="#FFC985"/>
</linearGradient>
<linearGradient id="paint73_linear_15_3844" x1="158.743" y1="268.444" x2="165.326" y2="268.444" gradientUnits="userSpaceOnUse">
<stop stop-color="#231F20"/>
<stop offset="1" stop-color="#58595B"/>
</linearGradient>
<linearGradient id="paint74_linear_15_3844" x1="148.754" y1="233.733" x2="167.237" y2="233.733" gradientUnits="userSpaceOnUse">
<stop stop-color="#F7ABC5"/>
<stop offset="1" stop-color="#F16D9A"/>
</linearGradient>
<linearGradient id="paint75_linear_15_3844" x1="183.786" y1="176.987" x2="190.118" y2="176.987" gradientUnits="userSpaceOnUse">
<stop stop-color="#FFF4DE"/>
<stop offset="1" stop-color="#FFC985"/>
</linearGradient>
<linearGradient id="paint76_linear_15_3844" x1="150.224" y1="189.359" x2="187.327" y2="189.359" gradientUnits="userSpaceOnUse">
<stop stop-color="#D0E3FF"/>
<stop offset="0.5257" stop-color="#ADCCFF"/>
<stop offset="0.9997" stop-color="#91BAFF"/>
</linearGradient>
<linearGradient id="paint77_linear_15_3844" x1="159.156" y1="172.37" x2="165.581" y2="172.37" gradientUnits="userSpaceOnUse">
<stop stop-color="#FFF4DE"/>
<stop offset="1" stop-color="#FFC985"/>
</linearGradient>
<linearGradient id="paint78_linear_15_3844" x1="156.018" y1="164.699" x2="167.225" y2="164.699" gradientUnits="userSpaceOnUse">
<stop stop-color="#FFF4DE"/>
<stop offset="1" stop-color="#FFC985"/>
</linearGradient>
<linearGradient id="paint79_linear_15_3844" x1="150.692" y1="169.826" x2="167.166" y2="169.826" gradientUnits="userSpaceOnUse">
<stop stop-color="#231F20"/>
<stop offset="1" stop-color="#58595B"/>
</linearGradient>
<radialGradient id="paint80_radial_15_3844" cx="0" cy="0" r="1" gradientUnits="userSpaceOnUse" gradientTransform="translate(414.051 272.957) scale(29.7629 2.42069)">
<stop offset="0.2452" stop-color="#97AEAE"/>
<stop offset="0.3707" stop-color="#9DB2B2" stop-opacity="0.8336"/>
<stop offset="0.5337" stop-color="#ADBFBF" stop-opacity="0.6175"/>
<stop offset="0.7174" stop-color="#C8D4D4" stop-opacity="0.3739"/>
<stop offset="0.9149" stop-color="#EDF1F1" stop-opacity="0.1121"/>
<stop offset="0.9995" stop-color="white" stop-opacity="0"/>
</radialGradient>
<linearGradient id="paint81_linear_15_3844" x1="392.043" y1="190.241" x2="413.883" y2="190.241" gradientUnits="userSpaceOnUse">
<stop stop-color="#00E8DE"/>
<stop offset="1" stop-color="#00B6CB"/>
</linearGradient>
<linearGradient id="paint82_linear_15_3844" x1="388.651" y1="193.938" x2="393.03" y2="193.938" gradientUnits="userSpaceOnUse">
<stop stop-color="#FFF4DE"/>
<stop offset="1" stop-color="#FFC985"/>
</linearGradient>
<linearGradient id="paint83_linear_15_3844" x1="402.68" y1="267.172" x2="409.556" y2="267.172" gradientUnits="userSpaceOnUse">
<stop stop-color="#FFF4DE"/>
<stop offset="1" stop-color="#FFC985"/>
</linearGradient>
<linearGradient id="paint84_linear_15_3844" x1="394.959" y1="270.931" x2="407.739" y2="270.931" gradientUnits="userSpaceOnUse">
<stop stop-color="#58595B"/>
<stop offset="1" stop-color="#00B6CB"/>
</linearGradient>
<linearGradient id="paint85_linear_15_3844" x1="403.666" y1="236.673" x2="422.65" y2="236.673" gradientUnits="userSpaceOnUse">
<stop stop-color="#084872"/>
<stop offset="1" stop-color="#1C94BE"/>
</linearGradient>
<linearGradient id="paint86_linear_15_3844" x1="423.265" y1="266.211" x2="428.712" y2="266.211" gradientUnits="userSpaceOnUse">
<stop stop-color="#FFF4DE"/>
<stop offset="1" stop-color="#FFC985"/>
</linearGradient>
<linearGradient id="paint87_linear_15_3844" x1="418.203" y1="271.665" x2="430.048" y2="271.665" gradientUnits="userSpaceOnUse">
<stop stop-color="#58595B"/>
<stop offset="1" stop-color="#00B6CB"/>
</linearGradient>
<linearGradient id="paint88_linear_15_3844" x1="414.775" y1="236.081" x2="428.253" y2="236.081" gradientUnits="userSpaceOnUse">
<stop stop-color="#084872"/>
<stop offset="1" stop-color="#1C94BE"/>
</linearGradient>
<linearGradient id="paint89_linear_15_3844" x1="415.783" y1="173.04" x2="421.368" y2="173.04" gradientUnits="userSpaceOnUse">
<stop stop-color="#FFF4DE"/>
<stop offset="1" stop-color="#FFC985"/>
</linearGradient>
<linearGradient id="paint90_linear_15_3844" x1="410.577" y1="166.379" x2="420.533" y2="166.379" gradientUnits="userSpaceOnUse">
<stop stop-color="#FFF4DE"/>
<stop offset="1" stop-color="#FFC985"/>
</linearGradient>
<linearGradient id="paint91_linear_15_3844" x1="410.263" y1="161.535" x2="425.042" y2="161.535" gradientUnits="userSpaceOnUse">
<stop stop-color="#231F20"/>
<stop offset="1" stop-color="#58595B"/>
</linearGradient>
<linearGradient id="paint92_linear_15_3844" x1="410.957" y1="165.553" x2="420.459" y2="164.989" gradientUnits="userSpaceOnUse">
<stop stop-color="#FFF4DE"/>
<stop offset="1" stop-color="#FFC985"/>
</linearGradient>
<linearGradient id="paint93_linear_15_3844" x1="409.931" y1="192.306" x2="428.742" y2="192.306" gradientUnits="userSpaceOnUse">
<stop stop-color="#00E8DE"/>
<stop offset="1" stop-color="#00B6CB"/>
</linearGradient>
<linearGradient id="paint94_linear_15_3844" x1="418.407" y1="197.063" x2="431.013" y2="197.063" gradientUnits="userSpaceOnUse">
<stop stop-color="#00E8DE"/>
<stop offset="1" stop-color="#00B6CB"/>
</linearGradient>
<linearGradient id="paint95_linear_15_3844" x1="426.345" y1="219.013" x2="431.081" y2="219.013" gradientUnits="userSpaceOnUse">
<stop stop-color="#FFF4DE"/>
<stop offset="1" stop-color="#FFC985"/>
</linearGradient>
<linearGradient id="paint96_linear_15_3844" x1="407.333" y1="146.886" x2="374.858" y2="146.886" gradientUnits="userSpaceOnUse">
<stop stop-color="white" stop-opacity="0"/>
<stop offset="0.9961" stop-color="white" stop-opacity="0.7"/>
</linearGradient>
<linearGradient id="paint97_linear_15_3844" x1="391.644" y1="189.341" x2="388.836" y2="189.341" gradientUnits="userSpaceOnUse">
<stop stop-color="#FFD800"/>
<stop offset="0.5516" stop-color="#FFB100"/>
<stop offset="1" stop-color="#FF9500"/>
</linearGradient>
<linearGradient id="paint98_linear_15_3844" x1="400.77" y1="167.551" x2="388.986" y2="167.551" gradientUnits="userSpaceOnUse">
<stop stop-color="#D0E3FF"/>
<stop offset="0.5257" stop-color="#ADCCFF"/>
<stop offset="0.9997" stop-color="#91BAFF"/>
</linearGradient>
<linearGradient id="paint99_linear_15_3844" x1="411.558" y1="146.886" x2="370.931" y2="146.886" gradientUnits="userSpaceOnUse">
<stop stop-color="#D0E3FF"/>
<stop offset="0.5257" stop-color="#ADCCFF"/>
<stop offset="0.9997" stop-color="#91BAFF"/>
</linearGradient>
<linearGradient id="paint100_linear_15_3844" x1="387.444" y1="191.047" x2="391.655" y2="194.471" gradientUnits="userSpaceOnUse">
<stop stop-color="#FFF4DE"/>
<stop offset="1" stop-color="#FFC985"/>
</linearGradient>
<linearGradient id="paint101_linear_15_3844" x1="283.009" y1="22.9774" x2="320.905" y2="22.9774" gradientUnits="userSpaceOnUse">
<stop stop-color="#F7ABC5"/>
<stop offset="1" stop-color="#F16D9A"/>
</linearGradient>
<linearGradient id="paint102_linear_15_3844" x1="381.609" y1="103.575" x2="448.01" y2="103.575" gradientUnits="userSpaceOnUse">
<stop stop-color="#D8F29D"/>
<stop offset="0.9939" stop-color="#78DF12"/>
</linearGradient>
<linearGradient id="paint103_linear_15_3844" x1="61.776" y1="132.836" x2="134.411" y2="132.836" gradientUnits="userSpaceOnUse">
<stop stop-color="#FFD800"/>
<stop offset="0.5516" stop-color="#FFB100"/>
<stop offset="1" stop-color="#FF9500"/>
</linearGradient>
<linearGradient id="paint104_linear_15_3844" x1="77.3179" y1="208.097" x2="106.687" y2="208.097" gradientUnits="userSpaceOnUse">
<stop stop-color="#00E8DE"/>
<stop offset="1" stop-color="#00B6CB"/>
</linearGradient>
</defs>
</svg>
