<svg width="236" height="290" viewBox="0 0 236 290" fill="none" xmlns="http://www.w3.org/2000/svg">
<g filter="url(#filter0_d_155_4089)">
<path d="M221.504 203.405L221.492 207.789C221.457 222.154 212.011 236.495 193.143 247.461C155.194 269.513 93.4698 269.513 55.2709 247.461C36.0468 236.364 26.4466 221.797 26.4941 207.254L26.506 202.87C26.4703 217.413 36.0705 231.98 55.2828 243.077C93.4816 265.129 155.206 265.129 193.155 243.077C212.023 232.11 221.468 217.769 221.504 203.405Z" fill="#90CAEF"/>
<mask id="mask0_155_4089" style="mask-type:luminance" maskUnits="userSpaceOnUse" x="26" y="202" width="196" height="62">
<path d="M221.504 203.405L221.492 207.789C221.457 222.154 212.011 236.495 193.143 247.461C155.194 269.513 93.4698 269.513 55.2709 247.461C36.0468 236.364 26.4466 221.797 26.4941 207.254L26.506 202.87C26.4703 217.413 36.0705 231.98 55.2828 243.077C93.4816 265.129 155.206 265.129 193.155 243.077C212.023 232.11 221.468 217.769 221.504 203.405Z" fill="white"/>
</mask>
<g mask="url(#mask0_155_4089)">
<path d="M221.504 203.405L221.492 207.789C221.457 222.154 212.011 236.495 193.143 247.461C155.194 269.513 93.4698 269.513 55.2709 247.461C36.0468 236.364 26.4466 221.797 26.4941 207.254L26.506 202.87C26.4703 217.413 36.0705 231.98 55.2828 243.077C93.4816 265.129 155.206 265.129 193.155 243.077C212.023 232.11 221.468 217.769 221.504 203.405Z" fill="#5492BA"/>
</g>
<path d="M192.727 163.198C230.926 185.25 231.128 221.001 193.155 243.065C155.206 265.117 93.4816 265.117 55.2828 243.065C17.084 221.013 16.882 185.262 54.8313 163.21C92.8163 141.146 154.54 141.146 192.727 163.198Z" fill="#90CAEF"/>
<path d="M187.571 182.125C182.545 185.024 174.382 185.012 169.321 182.09C164.271 179.167 164.236 174.462 169.261 171.551C174.287 168.652 182.45 168.663 187.511 171.586C192.561 174.509 192.597 179.226 187.571 182.125Z" fill="#BEC1DE"/>
<path d="M123.744 180.545C118.718 183.444 110.555 183.432 105.494 180.509C100.444 177.587 100.409 172.882 105.434 169.971C110.46 167.072 118.623 167.083 123.684 170.006C128.746 172.929 128.77 177.646 123.744 180.545Z" fill="#BEC1DE"/>
<path d="M58.0156 124.94C56.7799 124.37 55.3066 123.716 52.7402 124.56C49.7224 125.546 48.653 128.005 48.3916 131.867C48.2372 134.243 49.2352 141.61 50.4353 142.774C51.6353 143.938 58.0037 130.465 58.0037 130.465V124.94H58.0156Z" fill="#FFAB03"/>
<path d="M49.7224 214.918C49.7224 215.167 49.3659 220.05 49.5798 220.716C49.7818 221.381 51.9798 222.272 53.5244 221.88C55.0571 221.488 56.1859 219.433 57.2077 218.969C58.2414 218.506 63.5999 217.71 63.683 216.011C63.7781 214.312 62.3286 214.038 62.3286 214.038C62.3286 214.038 59.8097 213.646 59.0493 213.718C58.2889 213.789 56.0908 214.288 56.0908 214.288L49.7224 214.918Z" fill="#2C3240"/>
<path d="M50.3996 219.445C50.3996 219.445 49.1639 220.11 49.1402 220.68C49.1164 221.251 49.1402 222.855 49.1402 222.855C49.1402 222.855 50.4471 224.066 52.4789 224.043C54.5225 224.019 56.2809 221.702 56.3997 221.453C56.5185 221.203 56.7443 220.419 56.7443 220.419C56.7443 220.419 57.5879 219.92 58.1819 219.92C58.776 219.92 59.6196 219.742 61.3424 218.91C63.0652 218.09 64.1108 217.722 64.2058 216.51C64.3009 215.298 63.9326 215.072 63.8375 214.751C63.7425 214.431 62.7444 213.837 61.081 214.359C59.4295 214.894 50.3996 219.445 50.3996 219.445Z" fill="#2C3240"/>
<path d="M61.0929 222.926C61.1167 223.401 60.9622 227.489 60.9622 228.308C60.9622 229.128 61.8533 229.912 63.2315 230.091C64.6098 230.269 67.4732 228.95 69.6 229.104C71.7268 229.259 75.3744 228.142 76.515 227.203C77.6556 226.265 77.6794 225.172 77.6794 225.172C77.6794 225.172 77.2398 222.784 76.8358 222.237C76.4199 221.69 68.9346 222.237 68.9346 222.237L64.9781 221.298L61.0929 222.926Z" fill="#2C3240"/>
<path d="M61.58 226.966C61.2592 226.99 60.2493 227.607 60.2493 228.427C60.2493 229.247 60.1067 230.376 60.2493 230.72C60.3919 231.065 61.1879 232.099 63.5523 231.825C65.9168 231.552 66.9267 231.005 67.1643 230.839C67.4019 230.685 67.6752 230.269 67.6752 230.269C67.6752 230.269 69.3505 230.174 70.1941 230.221C71.0377 230.269 75.113 229.877 76.9071 228.166C78.6893 226.443 78.2853 225.647 78.2853 225.552C78.2853 225.457 78.214 224.518 78.1309 224.067C78.0358 223.603 77.014 223.081 75.3625 223.152C73.711 223.223 61.58 226.966 61.58 226.966Z" fill="#2C3240"/>
<path d="M51.4333 164.469C50.8867 168.747 50.0313 169.115 50.8867 173.511C51.7422 177.907 52.1105 181.329 52.1105 181.329C52.1105 181.329 51.564 192.32 51.3145 194.767C51.065 197.215 60.5345 196.169 60.5345 196.169C60.5345 196.169 62.4236 180.414 61.8177 174.058C61.2117 167.701 57.3621 161.903 57.3621 161.903L51.4333 164.469Z" fill="#295EA7"/>
<path d="M55.5324 167.523C55.5324 168.378 54.368 170.636 54.8551 174.426C55.3423 178.216 58.7047 180.046 59.2513 181.935C59.7978 183.824 61.6276 196.656 61.9365 198.854C62.2454 201.052 68.1029 200.933 70.7881 200.078C73.4733 199.222 73.2357 197.084 73.2357 197.084C73.2357 197.084 74.0318 176.565 72.202 169.602C70.3723 162.639 55.5324 167.523 55.5324 167.523Z" fill="#2C6BB6"/>
<path d="M63.5286 192.925C63.5286 192.925 62.2692 196.169 61.889 198.521C61.5087 200.874 60.9028 221.94 61.1404 223.888C61.3899 225.837 66.5702 225.053 67.6752 224.863C68.7802 224.672 70.301 222.973 70.301 222.973C70.301 222.973 73.1525 199.519 73.2357 197.084C73.307 194.636 63.5286 192.925 63.5286 192.925Z" fill="#2C6BB6"/>
<path d="M51.5521 191.452C50.5778 196.169 49.1758 214.062 49.4134 216.688C49.663 219.314 55.77 218.09 56.9819 216.688C58.2057 215.286 60.3325 197.666 60.6533 195.004C60.9978 192.355 51.5521 191.452 51.5521 191.452Z" fill="#295EA7"/>
<path d="M72.9149 169.662C71.0614 171.076 66.3801 173.072 60.9741 172.537C55.568 172.002 50.4947 168.557 50.0075 167.535C49.5204 166.513 49.4491 142.715 49.1045 138.675C48.76 134.635 48.3798 129.229 51.1006 126.401C53.8333 123.574 58.5978 124.797 59.1919 124.987C59.7741 125.178 71.4179 131.997 72.4872 133.411C73.5565 134.825 72.9268 145.637 72.5822 153.337C72.2496 161.024 72.9149 169.662 72.9149 169.662Z" fill="#FF7D03"/>
<path d="M59.2988 116.266C59.2988 118.167 59.7859 120.401 58.9542 122.278C58.1225 124.156 57.7423 124.417 57.6948 124.667C57.6354 124.916 66.7485 130.298 66.9386 129.17C67.1287 128.041 67.2594 126.175 67.4257 125.807C67.592 125.439 68.6732 125.617 69.7426 125.463C70.8119 125.32 72.903 120.401 73.1525 118.833C73.4021 117.276 73.9367 114.567 73.9842 112.547C74.0318 110.528 73.9842 108.674 73.1525 108.163C72.3208 107.664 59.2988 116.266 59.2988 116.266Z" fill="#FFA597"/>
<path d="M72.9387 113.831C72.3327 114.27 71.6911 115.922 71.6911 116.635C71.6911 117.348 71.6911 117.882 71.6911 117.882H70.301C70.301 117.882 70.3485 115.815 69.5406 115.447C68.7327 115.078 65.9405 116.54 65.2989 118.251C64.6692 119.95 63.1127 120.152 62.1028 120.199C61.1048 120.247 59.5483 119.415 59.2275 118.987C58.9067 118.548 58.4671 116.338 58.0631 114.971C57.6473 113.605 58.3364 108.401 59.0136 107.177C59.6909 105.965 61.6632 104.421 64.3722 103.886C67.0811 103.351 71.0971 104.979 72.1664 105.811C73.2357 106.642 73.9961 107.783 74.0912 108.781C74.1862 109.779 73.9367 110.361 73.9367 110.361C73.9367 110.361 73.5328 110.171 73.4258 110.86C73.3427 111.514 72.9387 113.831 72.9387 113.831Z" fill="#2C3240"/>
<path d="M68.4475 116.29C67.9722 117.193 68.3524 120.603 68.8158 120.971C69.2792 121.34 69.7426 119.973 69.7426 118.975C69.7426 117.977 70.3248 116.266 70.1347 115.732C69.9327 115.185 68.9584 115.316 68.4475 116.29Z" fill="#FFA597"/>
<path d="M61.7107 125.391C60.2255 124.583 58.2651 123.692 58.2889 123.657C58.3126 123.621 58.5621 123.122 58.5621 123.122C58.5621 123.122 57.6473 123.003 57.4453 123.49C57.2552 123.977 56.9106 125.142 56.9106 125.142C56.9106 125.142 57.8611 126.092 61.1285 127.459C64.3959 128.825 67.3544 130.203 67.4851 129.847C67.6158 129.502 68.1029 128.112 68.1029 128.112L61.7107 125.391Z" fill="#FFAB03"/>
<path d="M70.1941 147.942C71.8218 150.117 74.5783 153.586 76.3011 153.966C78.0239 154.346 80.0675 154.988 81.0775 152.517C82.0874 150.045 80.424 148.655 79.8774 147.74C79.3309 146.825 75.8853 141.182 75.6239 140.861C75.3506 140.528 70.1941 147.942 70.1941 147.942Z" fill="#FFA597"/>
<path d="M73.4021 135.466C73.3427 133.839 73.3664 132.864 73.01 132.247C72.6535 131.629 71.5129 130.702 71.1565 129.312C70.8 127.922 71.0258 126.817 70.9307 126.068C70.8357 125.32 70.5862 124.464 71.2278 123.93C71.8575 123.395 72.2852 123.668 72.3684 123.93C72.4516 124.191 72.5466 126.009 72.5466 126.009L72.9743 127.34C72.9743 127.34 72.7486 123.87 72.7486 123.526C72.7486 123.181 72.0476 121.268 71.9644 120.864C71.8812 120.46 72.309 120.306 72.511 120.341C72.7129 120.377 73.9961 122.302 73.9961 122.302L74.3645 124.536C74.3645 124.536 74.9823 125.023 75.1724 125.498C75.3625 125.973 75.4219 129.538 75.7427 130.536C76.0635 131.522 80.8755 145.138 81.1606 146.789C81.4577 148.441 81.8735 150.52 81.2676 151.898C80.6616 153.277 75.7902 148.31 75.7902 148.31C75.7902 148.31 73.7823 147.193 73.7704 145.09C73.7466 142.999 73.4021 135.466 73.4021 135.466Z" fill="#FFA597"/>
<path d="M71.501 132.544C70.2535 132.579 68.1742 132.544 67.3306 136.702C66.4871 140.861 66.8435 143.451 67.3901 144.425C67.9366 145.399 70.004 148.56 70.4436 148.714C70.8832 148.857 73.2714 148.774 75.1843 147.063C77.0972 145.34 77.715 144.045 77.4536 142.999C77.1922 141.966 72.7723 133.221 72.4515 132.865C72.1426 132.508 71.501 132.544 71.501 132.544Z" fill="#FFAB03"/>
<path d="M163.618 87.0142C162.548 88.1429 158.521 91.2321 157.57 91.4459C156.62 91.6598 155.835 92.7648 155.74 94.5589C155.645 96.353 159.103 97.3985 160.35 96.9708C161.598 96.5431 167.408 93.1212 168.442 92.2064C169.487 91.2915 163.618 87.0142 163.618 87.0142Z" fill="#FFA597"/>
<path d="M158.96 94.0125C158.735 92.9075 157.772 91.5055 157.131 91.6125C156.489 91.7194 154.315 92.4323 153.067 93.2402C151.831 94.0481 148.992 95.4264 147.613 95.9254C146.235 96.4244 145.142 96.068 145.142 96.068C145.142 96.068 144.346 95.4502 143.609 95.2482C142.873 95.0462 141.78 95.0818 141.34 95.1887C140.9 95.2957 140.603 95.4739 140.603 95.4739L139.011 95.0462C139.011 95.0462 137.681 94.5828 137.562 95.4264C137.443 96.27 138.465 96.6145 139.047 96.7809C139.629 96.9472 141.364 96.7927 141.506 96.7809C141.649 96.769 141.221 97.3512 141.221 97.3512C141.221 97.3512 139.19 98.7294 138.607 99.1571C138.025 99.5849 137.229 100.975 137.098 101.391C136.956 101.807 137.431 102.092 137.74 102.08C138.049 102.068 139.712 100.322 139.712 100.322L140.199 100.274C140.199 100.274 138.904 101.7 138.786 101.914C138.667 102.128 138.477 102.52 138.833 102.71C139.19 102.888 139.914 102.71 139.914 102.71C139.914 102.71 140.14 102.935 140.449 102.959C140.758 102.971 141.15 103.137 141.673 102.864C142.196 102.591 142.469 102.401 142.469 102.401C142.469 102.401 143.146 102.864 143.74 102.674C144.334 102.496 145.772 101.914 145.772 101.914C145.772 101.914 146.853 101.236 147.067 100.892C147.281 100.535 148.338 100.417 148.338 100.417C148.338 100.417 159.234 97.8502 160.172 97.0185C161.099 96.1868 158.96 94.0125 158.96 94.0125Z" fill="#FFA597"/>
<path d="M176.818 78.1387C171.875 77.0456 171.59 78.5665 167.384 82.0596C166.232 83.022 162.346 87.4181 162.18 87.9884C162.014 88.5587 161.42 89.7231 163.689 91.6479C165.958 93.5727 167.788 93.4064 168.477 92.9311C169.166 92.4558 173.467 88.3092 173.467 88.3092L176.818 78.1387Z" fill="#E7ECFF"/>
<path d="M189.959 174.117C190.517 174.094 191.088 175.294 191.088 175.294L191.183 177.349C191.183 177.349 189.234 179.464 188.842 179.547C188.462 179.63 188.153 179.773 188.153 179.773C188.153 179.773 185.907 183.147 185.088 183.908C184.28 184.668 180.608 185.832 178.089 184.929C175.571 184.038 176.01 182.102 176.01 182.102C176.01 182.102 178.981 178.894 179.693 178.739C180.43 178.585 189.959 174.117 189.959 174.117Z" fill="#252A36"/>
<path d="M178.113 166.62C178.612 166.834 179.515 167.475 179.563 168.426C179.598 169.376 179.705 170.113 179.693 170.232C179.682 170.351 176.699 172.371 175.689 172.406C174.679 172.442 174.204 172.537 174.204 172.537C174.204 172.537 172.885 173.452 172.541 173.963C172.196 174.474 171.709 174.996 171.281 175.531C170.865 176.066 167.634 177.729 166.03 177.682C164.426 177.646 163.82 176.363 163.475 175.472C163.131 174.58 165.115 172.525 165.115 172.525C165.115 172.525 170.081 168.901 170.901 168.557C171.721 168.212 178.113 166.62 178.113 166.62Z" fill="#252A36"/>
<path d="M184.256 171.266C184.256 171.266 183.377 173.713 182.818 174.592C182.26 175.472 177.293 179.963 176.937 180.747C176.58 181.531 176.616 182.553 176.616 182.553C176.616 182.553 176.889 184.086 179.693 184.323C182.497 184.561 185.23 182.47 186.074 181.531C186.917 180.593 188.509 178.145 189.151 177.634C189.781 177.123 190.351 176.743 190.696 175.448C191.028 174.153 190.933 172.038 190.684 170.933C190.422 169.84 184.256 171.266 184.256 171.266Z" fill="#2C3240"/>
<path d="M178.339 164.683C178.386 165.61 179.373 167.737 179.147 168.545C178.921 169.365 176.628 170.85 175.464 171.064C174.299 171.278 171.281 174.497 170.366 175.08C169.452 175.662 167.099 177.076 165.543 176.814C163.986 176.541 163.939 174.89 163.855 174.486C163.76 174.093 164.212 172.204 165.269 171.432C166.327 170.66 170.664 167.879 171.056 167.559C171.436 167.238 172.374 165.396 172.707 165.075C173.04 164.743 178.339 164.683 178.339 164.683Z" fill="#2C3240"/>
<path d="M168.691 119.593C168.858 121.708 167.919 123.633 168.584 131.819C169.25 140.006 169.345 145.02 169.475 145.851C169.606 146.683 171.875 150.378 175.143 149.903C178.41 149.428 178.802 147.408 178.802 147.265C178.802 147.123 180.43 139.78 180.466 136.334C180.501 132.889 179.812 122.35 179.812 122.35L168.691 119.593Z" fill="#295EA7"/>
<path d="M169.368 138.948C169.357 139.78 169.321 143.356 169.559 147.907C169.796 152.457 170.105 164.6 170.319 166.168C170.533 167.737 174.466 168.212 176.438 167.428C179.064 166.394 178.695 165.206 178.695 165.206C178.695 165.206 179.159 152.196 179.218 150.723C179.278 149.249 178.826 142.667 179.016 142.631C179.194 142.584 169.368 138.948 169.368 138.948Z" fill="#295EA7"/>
<path d="M172.731 120.924C172.862 122.029 172.671 127.316 173.206 129.11C173.741 130.904 177.281 131.261 177.281 131.261C177.281 131.261 180.24 150.556 181.19 152.172C182.141 153.788 185.408 153.776 186.846 152.778C188.284 151.78 189.484 151.162 189.674 149.273C189.876 147.384 190.957 128.813 190.803 126.235C190.636 123.657 189.412 117.169 189.056 116.017C188.688 114.852 172.731 120.924 172.731 120.924Z" fill="#2C6BB6"/>
<path d="M180.822 140.528C181.048 146.647 180.157 147.039 180.751 150.865C181.345 154.691 182.818 172.573 182.949 173.499C183.08 174.414 185.777 174.913 187.951 174.474C191.135 173.832 190.767 171.978 190.767 171.978C190.767 171.978 191.23 157.364 190.803 153.372C190.375 149.392 188.462 144.592 188.462 144.592L180.822 140.528Z" fill="#2C6BB6"/>
<path d="M180.406 77.4258C177.769 77.2832 176.58 77.7941 175.808 77.9011C171.875 78.3882 169.511 83.1289 169.333 88.3805C169.166 93.335 168.691 116.92 168.335 118.844C168.05 120.342 174.572 124.726 181.773 124.453C188.961 124.179 190.256 121.648 190.898 120.187C191.539 118.726 191.361 108.508 191.717 105.525C192.086 102.543 195.044 85.6715 193.88 84.424C192.715 83.1764 186.169 79.1605 184.577 78.2694C183.091 77.4258 180.406 77.4258 180.406 77.4258Z" fill="#D0D9FF"/>
<path d="M176.295 76.2497C176.664 78.4953 176.545 81.1449 176.64 82.0003C176.735 82.8439 177.139 83.7825 180.442 83.0102C183.745 82.226 185.527 79.1844 185.527 79.1844C185.527 79.1844 184.743 75.311 185.064 73.9447C185.385 72.5664 186.894 69.406 186.181 67.897C185.48 66.3881 176.295 76.2497 176.295 76.2497Z" fill="#FFA597"/>
<path d="M174.881 61.8019C174.335 62.7405 173.622 62.6454 173.396 65.4257C173.17 68.1941 173.254 73.7665 173.396 74.9784C173.539 76.1903 173.788 77.4854 174.062 77.8299C174.335 78.1745 175.499 79.0181 176.64 78.9349C176.854 78.923 182.438 76.713 182.985 75.3586C183.531 74.0041 184.886 69.1802 184.517 66.6138C184.149 64.0475 183.65 62.0751 181.796 61.1127C179.931 60.1503 174.881 61.8019 174.881 61.8019Z" fill="#FFA597"/>
<path d="M180.668 67.1129C180.668 67.1129 181.856 67.7546 182.248 68.812C182.64 69.8694 182.64 70.5942 182.64 70.5942L183.674 70.4991C183.674 70.4991 183.816 68.8239 184.933 68.8476C186.05 68.8714 186.05 69.8575 185.622 70.7249C185.183 71.5922 184.802 72.4596 184.802 73.1012C184.802 73.7428 185.076 73.921 185.076 73.921C185.076 73.921 186.656 71.9012 187.321 70.0714C187.987 68.2417 188.676 64.7842 187.915 62.6931C187.155 60.6138 183.745 58.8197 181.499 58.4989C179.254 58.1781 177.068 58.1544 175.333 59.5682C174.454 60.2811 173.408 61.8257 173.574 63.0851C173.669 63.798 174.489 64.0832 175.06 64.3921C175.796 64.7842 176.569 65.1169 177.365 65.3782C178.161 65.6396 178.98 65.8298 179.812 65.9486C180.05 65.9842 180.383 66.0198 180.561 66.2218C180.775 66.4832 180.691 66.8278 180.668 67.1129Z" fill="#2C3240"/>
<path d="M184.256 70.6416C184.398 69.7742 184.553 68.9782 185.777 69.2514C187 69.5128 186.383 70.6416 186.062 71.4614C185.741 72.2812 184.802 74.3011 183.697 74.0516C182.592 73.802 184.256 70.6416 184.256 70.6416Z" fill="#FFA597"/>
<path d="M187.903 94.9987C187.844 95.3432 187.595 96.5433 187.476 98.0878C187.357 99.6324 187.274 105.49 187.476 106.631C187.678 107.771 192.87 111.55 193.333 110.254C193.797 108.959 194.818 105.882 194.937 102.603C195.056 99.3117 195.508 97.0304 194.937 95.771C194.367 94.5116 187.903 94.9987 187.903 94.9987Z" fill="#FFA597"/>
<path d="M193.155 83.7704C191.147 82.6892 188.426 84.9942 187.761 88.2259C187.107 91.4577 187.25 97.7073 187.321 97.9093C187.393 98.1113 188.973 98.9192 192.478 98.6341C194.973 98.444 195.306 97.9331 195.306 97.9331C195.306 97.9331 195.674 91.8141 195.448 88.8676C195.222 85.9447 194.438 83.6159 193.155 83.7704Z" fill="#E7ECFF"/>
<path d="M121.165 96.8756C121.189 97.4459 121.712 101.747 122.698 102.638C123.684 103.541 127.332 103.101 127.724 100.392C128.116 97.6954 126.714 95.5924 126.049 94.1428C124.896 91.6002 123.114 87.3823 123.114 87.3823L120.975 88.3685L121.165 96.8756Z" fill="#FFA597"/>
<path d="M101.24 172.525C100.682 172.501 100.112 173.701 100.112 173.701L100.016 175.757C100.016 175.757 101.965 177.872 102.357 177.955C102.737 178.038 103.046 178.181 103.046 178.181C103.046 178.181 105.292 181.555 106.112 182.315C106.92 183.076 110.591 184.24 113.11 183.337C115.629 182.446 115.189 180.509 115.189 180.509C115.189 180.509 112.219 177.301 111.506 177.147C110.781 177.004 101.24 172.525 101.24 172.525Z" fill="#252A36"/>
<path d="M113.086 165.04C112.587 165.253 111.684 165.895 111.637 166.846C111.601 167.796 111.494 168.533 111.506 168.652C111.518 168.77 114.5 170.79 115.51 170.826C116.52 170.861 116.995 170.957 116.995 170.957C116.995 170.957 118.314 171.871 118.658 172.382C119.003 172.893 119.49 173.416 119.918 173.951C120.334 174.485 123.565 176.149 125.169 176.101C126.773 176.066 127.379 174.782 127.724 173.891C128.069 173 126.084 170.945 126.084 170.945C126.084 170.945 121.118 167.321 120.298 166.976C119.478 166.632 113.086 165.04 113.086 165.04Z" fill="#252A36"/>
<path d="M106.943 169.685C106.943 169.685 107.823 172.133 108.381 173.012C108.939 173.891 113.906 178.383 114.262 179.167C114.619 179.951 114.583 180.973 114.583 180.973C114.583 180.973 114.31 182.505 111.506 182.743C108.702 182.981 105.969 180.889 105.126 179.951C104.282 179.012 102.69 176.565 102.048 176.054C101.418 175.543 100.848 175.163 100.504 173.868C100.171 172.572 100.266 170.458 100.516 169.353C100.765 168.248 106.943 169.685 106.943 169.685Z" fill="#2C3240"/>
<path d="M112.86 163.091C112.813 164.018 111.827 166.145 112.052 166.953C112.278 167.772 114.571 169.258 115.736 169.471C116.9 169.685 119.918 172.905 120.833 173.487C121.748 174.07 124.1 175.483 125.657 175.222C127.213 174.949 127.261 173.297 127.344 172.893C127.439 172.501 126.987 170.612 125.93 169.84C124.872 169.067 120.536 166.287 120.144 165.966C119.763 165.646 118.825 163.804 118.492 163.483C118.159 163.15 112.86 163.091 112.86 163.091Z" fill="#2C3240"/>
<path d="M122.508 118.013C122.342 120.128 123.28 122.053 122.615 130.239C121.95 138.425 121.855 143.439 121.724 144.271C121.593 145.103 119.324 148.798 116.056 148.322C112.789 147.847 112.397 145.827 112.397 145.685C112.397 145.542 110.769 138.199 110.734 134.754C110.698 131.308 111.387 120.769 111.387 120.769L122.508 118.013Z" fill="#295EA7"/>
<path d="M121.831 137.368C121.843 138.199 121.878 141.776 121.641 146.326C121.403 150.877 121.094 163.02 120.88 164.588C120.666 166.156 116.734 166.632 114.761 165.847C112.136 164.814 112.504 163.626 112.504 163.626C112.504 163.626 112.04 150.615 111.981 149.142C111.922 147.669 112.373 141.098 112.183 141.051C112.005 141.003 121.831 137.368 121.831 137.368Z" fill="#295EA7"/>
<path d="M118.48 119.332C118.35 120.437 118.54 125.724 118.005 127.518C117.47 129.312 113.93 129.668 113.93 129.668C113.93 129.668 110.971 148.964 110.021 150.58C109.07 152.196 105.803 152.184 104.365 151.186C102.927 150.188 101.727 149.57 101.525 147.681C101.323 145.792 100.242 127.221 100.397 124.643C100.563 122.064 101.787 115.577 102.143 114.425C102.512 113.272 118.48 119.332 118.48 119.332Z" fill="#2C6BB6"/>
<path d="M110.377 138.948C110.151 145.067 111.042 145.459 110.448 149.285C109.854 153.111 108.381 170.992 108.25 171.919C108.12 172.846 105.423 173.333 103.248 172.893C100.064 172.252 100.432 170.398 100.432 170.398C100.432 170.398 99.969 155.784 100.397 151.792C100.824 147.8 102.737 143.011 102.737 143.011L110.377 138.948Z" fill="#2C6BB6"/>
<path d="M115.629 76.321C116.674 76.0833 118.754 76.2853 120.179 78.4002C121.332 80.1111 124.088 88.1311 123.922 88.4519C122.876 90.4124 118.991 90.4124 118.991 90.4124C118.991 90.4124 113.728 80.0636 114.072 78.0794C114.417 76.0833 114.417 76.5942 115.629 76.321Z" fill="#FA1818"/>
<path d="M110.805 75.8455C113.443 75.7029 114.631 76.2138 115.403 76.3207C119.336 76.8079 121.462 83.6873 121.629 88.9388C121.795 93.8934 122.508 115.339 122.864 117.252C123.15 118.749 116.627 123.134 109.427 122.86C102.238 122.587 100.943 120.056 100.302 118.595C99.66 117.133 99.8383 106.915 99.4818 103.933C99.1135 100.951 97.3194 82.8318 98.4957 81.5723C99.6719 80.3248 105.03 77.5564 106.634 76.6772C108.108 75.8455 110.805 75.8455 110.805 75.8455Z" fill="#E01515"/>
<path d="M114.904 74.6694C114.536 76.9149 114.654 79.5645 114.559 80.42C114.464 81.2635 114.06 82.2022 110.757 81.4299C107.454 80.6457 105.672 77.6041 105.672 77.6041C105.672 77.6041 106.456 73.7307 106.135 72.3644C105.815 70.9861 104.306 67.8257 105.019 66.3167C105.72 64.7959 114.904 74.6694 114.904 74.6694Z" fill="#FFA597"/>
<path d="M116.33 60.2215C116.876 61.1602 117.589 61.0651 117.815 63.8454C118.041 66.6137 117.957 72.1861 117.815 73.398C117.672 74.6099 117.423 75.905 117.15 76.2496C116.876 76.5941 115.712 77.4377 114.571 77.3546C114.357 77.3427 108.773 75.1327 108.227 73.7782C107.68 72.4238 106.326 67.5999 106.694 65.0335C107.062 62.4671 107.561 60.4948 109.415 59.5324C111.268 58.57 116.33 60.2215 116.33 60.2215Z" fill="#FFA597"/>
<path d="M110.532 65.5326C110.532 65.5326 109.343 66.1742 108.951 67.2316C108.559 68.2891 108.559 69.0139 108.559 69.0139L107.526 68.9188C107.526 68.9188 107.383 67.2435 106.266 67.2673C105.149 67.2911 105.149 68.2772 105.577 69.1446C106.017 70.0119 106.397 70.8793 106.397 71.5209C106.397 72.1625 106.124 72.3407 106.124 72.3407C106.124 72.3407 104.543 70.3208 103.878 68.4911C103.213 66.6613 102.523 63.2039 103.284 61.1127C104.044 59.0216 107.454 57.2394 109.7 56.9186C111.945 56.5978 114.132 56.574 115.866 57.9879C116.746 58.7008 117.791 60.2454 117.625 61.5048C117.53 62.2177 116.71 62.5028 116.14 62.8118C115.403 63.2038 114.631 63.5365 113.835 63.7979C113.039 64.0593 112.219 64.2494 111.387 64.3682C111.149 64.4039 110.817 64.4395 110.638 64.6415C110.425 64.9029 110.508 65.2356 110.532 65.5326Z" fill="#2C3240"/>
<path d="M106.955 69.0613C106.813 68.1939 106.658 67.3979 105.434 67.6711C104.211 67.9325 104.828 69.0613 105.149 69.8811C105.47 70.7009 106.409 72.7207 107.514 72.4712C108.619 72.2217 106.955 69.0613 106.955 69.0613Z" fill="#FFA597"/>
<path d="M104.306 92.9312C104.543 93.4183 105.256 91.6717 105.47 99.2283C105.589 103.173 105.945 105.003 105.969 105.894C105.981 106.559 105.09 109.137 103.462 109.518C102.904 109.648 101.478 109.316 101.038 108.84C99.2798 106.987 97.664 98.9432 97.4739 95.9966C97.3075 93.05 104.306 92.9312 104.306 92.9312Z" fill="#FFA597"/>
<path d="M105.28 95.4144C105.482 95.4381 104.781 91.1489 104.234 87.6914C103.688 84.2339 101.157 80.5982 99.7313 80.9903C98.7571 81.2636 97.2956 82.0715 96.4996 84.4359C95.7035 86.8003 97.0818 96.2817 97.1055 96.4956C97.1293 96.6976 97.5927 96.9114 97.5927 96.9114L97.7234 96.258C97.6996 96.2461 100.931 95.0104 105.28 95.4144Z" fill="#FA1818"/>
<path d="M115.771 74.7526C115.771 74.7526 116.817 75.406 116.959 75.6555C117.114 75.905 118.302 77.3308 118.421 77.9011C118.54 78.4714 119.241 80.9071 119.3 81.727C119.359 82.5468 119.478 83.925 119.692 84.6379C119.906 85.3627 126.488 96.3411 126.773 97.5174C127.059 98.6937 127.463 99.9174 126.69 101.379C125.918 102.84 124.801 103.149 123.542 103.03C122.27 102.912 121.094 101.866 120.524 100.523C119.954 99.1808 117.755 89.0578 117.28 88.44C116.817 87.8221 115.736 86.9548 115.296 85.8736C114.856 84.7924 114.346 83.8775 114.346 83.8775L113.336 83.3072C113.336 83.3072 112.801 83.6517 112.421 83.4616C112.04 83.2715 112.219 82.119 112.219 82.119L112.397 81.0378C112.397 81.0378 113.383 79.7071 113.787 79.4101C114.191 79.113 114.429 79.0061 114.773 79.018C115.118 79.018 116.983 80.0992 116.983 80.0992C116.983 80.0992 116.9 77.9011 116.888 77.6754C116.876 77.4496 116.068 76.4041 115.807 76.214C115.546 76.0239 115.153 75.5367 115.296 75.0971C115.45 74.6575 115.771 74.7526 115.771 74.7526Z" fill="#FFA597"/>
<path d="M119.359 102.507C120.001 102.353 120.548 101.687 120.548 101.687C120.548 101.687 121.094 100.404 121.486 99.739C121.878 99.0855 124.718 97.0062 124.718 97.0062C124.718 97.0062 125.692 96.1864 126.037 96.1626C126.381 96.1389 126.904 96.531 126.453 97.327C125.989 98.1231 124.718 98.8122 124.67 98.8835C124.623 98.9548 124.124 99.9172 124.124 99.9172L125.585 99.5489L126.987 98.634L127.082 98.0637C127.082 98.0637 127.498 98.1825 127.558 98.527C127.629 98.8716 127.807 99.4657 127.76 99.834C127.712 100.202 127.071 100.618 127.071 100.618L127.76 100.737C127.76 100.737 128.116 101.26 127.985 101.711C127.843 102.163 126.405 102.531 126.405 102.531H127.225C127.225 102.531 127.498 102.804 127.177 103.292C126.857 103.767 125.894 103.957 125.669 104.052C125.443 104.147 124.611 104.325 124.183 104.717C123.744 105.109 122.698 105.882 121.546 106.048C120.405 106.202 113.169 109.006 109.023 109.304C104.876 109.601 102.559 110.016 101.585 109.03C100.599 108.044 100.717 105.157 101.015 104.337C101.312 103.517 104.603 102.424 105.803 102.602C108.797 102.971 119.68 102.579 119.359 102.507Z" fill="#FFA597"/>
<path d="M182.26 101.533L179.979 116.171L169.392 119.95L171.673 105.312L182.26 101.533Z" fill="#C26E37"/>
<path d="M171.673 105.311L169.392 119.949L158.533 113.676L160.814 99.0381L171.673 105.311Z" fill="#CC7940"/>
<path d="M182.26 101.533L171.673 105.312L160.814 99.0383L171.4 95.26L182.26 101.533Z" fill="#E68B4E"/>
<path d="M178.161 102.995L175.844 103.826L164.984 97.5529L167.289 96.7212L178.161 102.995Z" fill="#F7BA85"/>
<path d="M189.591 106.203C188.997 106.143 188.094 106.084 187.357 106.322C186.62 106.547 175.19 115.72 174.537 116.029C173.883 116.338 173.218 116.338 173.218 116.338C173.218 116.338 167.646 118.31 167.218 118.286C166.79 118.262 165.673 117.775 165.222 117.348C164.77 116.92 163.76 116.1 163.547 115.993C163.333 115.886 162.75 116.445 163.273 117.134C163.784 117.823 166.339 119.26 166.921 119.7C167.503 120.152 168.525 120.259 168.953 120.235C169.38 120.211 174.121 119.962 175.107 119.462C176.093 118.975 192.466 111.454 192.953 110.979C193.44 110.504 193.642 110.183 193.761 108.971C193.88 107.771 189.591 106.203 189.591 106.203Z" fill="#FFA597"/>
<path d="M171.935 115.981C170.972 115.957 169.689 116.064 169.131 116.242C168.572 116.409 167.776 116.825 167.158 117.015C166.541 117.205 165.269 117.74 164.996 118.132C164.723 118.512 165.448 119.058 165.448 119.058C165.448 119.058 167.8 118.393 168.442 118.334C169.071 118.274 171.555 118.274 171.555 118.274C171.555 118.274 173.349 117.882 173.741 117.538C174.121 117.181 174.133 116.385 174.121 116.219C174.097 116.017 171.935 115.981 171.935 115.981Z" fill="#FFA597"/>
<path d="M143.015 43.0054C143.146 43.1123 143.265 43.2311 143.396 43.338C143.978 43.8608 144.596 44.3123 145.237 44.6807L144.679 44.2173C144.108 43.8846 143.55 43.4806 143.015 43.0054Z" fill="#DADBE6"/>
<path d="M138.453 34.831C138.489 34.9974 138.524 35.1637 138.56 35.3182C138.405 34.6053 138.322 33.8924 138.334 33.2033L138.203 32.4785C138.203 33.2508 138.287 34.035 138.453 34.831Z" fill="#DADBE6"/>
<path d="M144.679 44.2173L145.237 44.6807L156.192 51.0135L155.954 50.7283L144.679 44.2173Z" fill="#DADBE6"/>
<path d="M138.358 21.1435L138.239 20.4187L138.203 32.4902L138.334 33.215L138.358 21.1435Z" fill="#DADBE6"/>
<path d="M162.56 63.3465L164.984 61.9326L164.663 53.0334L162.228 54.4473L162.56 63.3465Z" fill="#ADADB5"/>
<path d="M161.218 60.9463L162.56 63.3464L162.228 54.4472L160.956 53.6511L161.218 60.9463Z" fill="#DADBE6"/>
<path d="M142.73 14.4781L140.295 15.892C141.578 15.1435 143.36 15.2504 145.32 16.3791L147.756 14.9653C145.784 13.8365 144.013 13.7296 142.73 14.4781Z" fill="#ADADB5"/>
<path d="M144.75 17.496L145.308 16.3792C141.411 14.1336 138.239 15.9395 138.227 20.4188L138.358 21.1436C138.37 17.092 141.233 15.4643 144.75 17.496Z" fill="#DADBE6"/>
<path d="M160.956 53.6513L162.228 54.4473C165.756 56.0276 168.501 54.174 168.513 50.0037L167.265 49.9324C167.254 53.6988 164.782 55.3741 160.956 53.6513Z" fill="#DADBE6"/>
<path d="M166.457 54.5303L168.893 53.1164C170.164 52.3798 170.949 50.8114 170.949 48.5896L168.513 50.0035C168.513 52.2253 167.717 53.7937 166.457 54.5303Z" fill="#ADADB5"/>
<path d="M168.513 50.0035L170.949 48.5896L170.984 36.5181L168.549 37.932L168.513 50.0035Z" fill="#ADADB5"/>
<path d="M167.265 49.9324L168.513 50.0036L168.549 37.9321L167.301 37.8608L167.265 49.9324Z" fill="#DADBE6"/>
<path d="M161.515 25.7418L163.95 24.3279L147.744 14.9653L145.32 16.3792L161.515 25.7418Z" fill="#ADADB5"/>
<path d="M160.956 26.8586L161.515 25.7417L145.32 16.3792L144.75 17.496L160.956 26.8586Z" fill="#DADBE6"/>
<path d="M170.723 34.1658C170.699 34.0708 170.687 33.9876 170.663 33.8925C170.652 33.8212 170.628 33.75 170.616 33.6668C170.022 30.839 168.323 27.9162 166.16 25.9914C166.03 25.8844 165.911 25.7656 165.78 25.6587C168.18 27.7973 170.069 31.041 170.723 34.1658Z" fill="#DADBE6"/>
<path d="M144.75 17.4958C141.233 15.4641 138.37 17.0919 138.358 21.1434L138.322 33.215C138.31 37.2546 141.15 42.1854 144.667 44.2172L155.942 50.7282L161.218 60.9462L160.944 53.651C164.77 55.3619 167.242 53.6867 167.254 49.9203L167.289 37.8487C167.301 33.809 164.461 28.8782 160.944 26.8465L144.75 17.4958Z" fill="#DADBE6"/>
<path d="M167.301 37.8608L168.549 37.9321C168.56 33.4528 165.412 27.9992 161.515 25.7417L160.956 26.8586C164.473 28.8784 167.313 33.8092 167.301 37.8608Z" fill="#DADBE6"/>
<path d="M168.549 37.9321L170.984 36.5182C170.996 32.0389 167.848 26.5854 163.95 24.3279L161.515 25.7418C165.412 27.9873 168.56 33.4528 168.549 37.9321Z" fill="#ADADB5"/>
<path d="M144.857 33.809L143.942 34.3436C144.108 34.2486 144.346 34.2605 144.596 34.4031L145.51 33.8684C145.261 33.7258 145.023 33.7139 144.857 33.809Z" fill="#ADADB5"/>
<path d="M158.117 45.37L159.032 44.8353C159.198 44.7402 159.293 44.5382 159.305 44.2412L158.39 44.7759C158.378 45.0729 158.283 45.2749 158.117 45.37Z" fill="#ADADB5"/>
<path d="M158.378 44.7757L159.293 44.241L159.305 42.8984L158.39 43.4331L158.378 44.7757Z" fill="#ADADB5"/>
<path d="M157.463 41.8412L158.378 41.3065L145.51 33.8806L144.596 34.4034L157.463 41.8412Z" fill="#ADADB5"/>
<path d="M158.39 43.4331L159.305 42.8985C159.305 42.3163 158.901 41.6034 158.39 41.3064L157.475 41.841C157.974 42.1381 158.39 42.851 158.39 43.4331Z" fill="#ADADB5"/>
<path d="M144.596 34.4031C144.085 34.106 143.681 34.3437 143.669 34.9259V36.2685C143.669 36.8506 144.073 37.5635 144.584 37.8606L157.451 45.2984C157.962 45.5954 158.366 45.3578 158.378 44.7756V43.433C158.378 42.8508 157.974 42.1379 157.463 41.8408L144.596 34.4031Z" fill="white"/>
<path d="M144.857 27.0011L143.942 27.5358C144.108 27.4407 144.346 27.4526 144.596 27.5952L145.51 27.0605C145.261 26.9179 145.023 26.9061 144.857 27.0011Z" fill="#ADADB5"/>
<path d="M160.802 40.106L161.717 39.5714C161.883 39.4763 161.978 39.2743 161.99 38.9773L161.075 39.512C161.063 39.809 160.956 40.011 160.802 40.106Z" fill="#ADADB5"/>
<path d="M161.063 39.5242L161.978 38.9895L161.99 37.635L161.063 38.1697V39.5242Z" fill="#ADADB5"/>
<path d="M160.148 36.5895L161.063 36.0549L145.51 27.0725L144.596 27.5953L160.148 36.5895Z" fill="#ADADB5"/>
<path d="M161.063 38.1695L161.978 37.6348C161.978 37.0526 161.574 36.3398 161.063 36.0427L160.148 36.5774C160.659 36.8744 161.075 37.5873 161.063 38.1695Z" fill="#ADADB5"/>
<path d="M144.596 27.5952C144.085 27.2982 143.681 27.5358 143.669 28.118V29.4606C143.669 30.0428 144.073 30.7557 144.584 31.0527L160.137 40.0351C160.647 40.3321 161.051 40.0945 161.063 39.5123V38.1697C161.063 37.5875 160.659 36.8746 160.148 36.5776L144.596 27.5952Z" fill="white"/>
</g>
<defs>
<filter id="filter0_d_155_4089" x="0.493935" y="0" width="235.012" height="290" filterUnits="userSpaceOnUse" color-interpolation-filters="sRGB">
<feFlood flood-opacity="0" result="BackgroundImageFix"/>
<feColorMatrix in="SourceAlpha" type="matrix" values="0 0 0 0 0 0 0 0 0 0 0 0 0 0 0 0 0 0 127 0" result="hardAlpha"/>
<feOffset dx="-6" dy="6"/>
<feGaussianBlur stdDeviation="10"/>
<feComposite in2="hardAlpha" operator="out"/>
<feColorMatrix type="matrix" values="0 0 0 0 0 0 0 0 0 0 0 0 0 0 0 0 0 0 0.1 0"/>
<feBlend mode="normal" in2="BackgroundImageFix" result="effect1_dropShadow_155_4089"/>
<feBlend mode="normal" in="SourceGraphic" in2="effect1_dropShadow_155_4089" result="shape"/>
</filter>
</defs>
</svg>
