<svg width="23" height="23" viewBox="0 0 23 23" fill="none" xmlns="http://www.w3.org/2000/svg">
<path d="M1.20248 8.03432C1.56131 7.59326 2.01732 7.27608 2.51925 7.02298C2.64207 6.96104 2.68478 6.89162 2.69226 6.75386C2.77556 5.16796 4.22049 4.0039 5.79357 4.26021C5.99541 4.29331 6.0723 4.24739 6.14706 4.05302C7.25345 1.18132 10.4445 -0.31807 13.3514 0.695409C14.4055 1.06278 15.3324 1.66083 16.0138 2.57392C16.3545 3.02993 16.6748 3.5041 16.8564 4.04982C16.9215 4.24525 17.0016 4.29865 17.2078 4.26021C17.9169 4.12885 18.5801 4.28263 19.16 4.70233C19.8584 5.20747 20.2728 5.89523 20.3091 6.77094C20.3165 6.94715 20.3881 7.0155 20.5269 7.07744C20.6871 7.149 20.8601 7.20239 20.9893 7.33161C20.9498 7.44054 20.8548 7.42559 20.7683 7.42666C20.5216 7.42773 20.276 7.42666 20.0293 7.42773C19.9364 7.42773 19.8317 7.40744 19.789 7.53025C19.5134 7.44268 19.538 7.22161 19.5476 7.00162C19.6032 5.61222 18.2821 4.63078 16.9856 5.09747C16.5542 5.25233 16.4132 5.18184 16.2872 4.74398C15.6774 2.63479 13.7252 1.15783 11.5359 1.15035C9.27507 1.14288 7.34209 2.59955 6.70452 4.79204C6.59773 5.15941 6.41938 5.25233 6.05949 5.11456C5.65794 4.96078 5.25212 4.93942 4.83989 5.05582C3.96632 5.30252 3.41312 6.08426 3.45691 7.02405C3.46759 7.25899 3.44196 7.45549 3.19419 7.55161C2.80439 7.70326 2.45731 7.92753 2.12732 8.17956C2.04722 8.07704 1.93188 8.10053 1.82509 8.09519C1.61684 8.08558 1.40218 8.13044 1.20248 8.03005V8.03432Z" fill="url(#paint0_linear_281_81)"/>
<path d="M16.7336 17.6874C16.7314 17.7035 16.7346 17.7237 16.7261 17.7344C16.3993 18.1007 16.6492 18.3506 16.9002 18.6005C17.0753 18.7757 17.2505 18.9497 17.4256 19.1249C17.6285 19.3299 17.6392 19.4955 17.4374 19.7016C16.9226 20.2249 16.4025 20.745 15.8792 21.2597C15.6688 21.4669 15.4649 21.4605 15.2513 21.2522C14.9886 20.9959 14.7258 20.7386 14.4738 20.4716C14.3724 20.3637 14.2923 20.3552 14.1662 20.4278C13.8683 20.5997 13.5511 20.7343 13.219 20.8208C13.0577 20.8635 13.0289 20.9447 13.0321 21.091C13.0406 21.4498 13.0374 21.8097 13.0342 22.1685C13.031 22.4793 12.8911 22.6181 12.5761 22.6192C11.8573 22.6213 11.1386 22.6224 10.421 22.6192C10.1102 22.6181 9.97243 22.4761 9.96922 22.1621C9.96602 21.7873 9.96495 21.4114 9.96922 21.0365C9.97136 20.9233 9.93932 20.8678 9.82292 20.8336C9.47049 20.7311 9.12875 20.5965 8.80944 20.4139C8.69623 20.3498 8.62789 20.3701 8.54245 20.4588C8.28828 20.7236 8.0277 20.982 7.76499 21.2394C7.52684 21.4722 7.33995 21.4722 7.105 21.2394C6.60093 20.7386 6.09793 20.2366 5.59706 19.7326C5.36105 19.4955 5.36211 19.3107 5.59279 19.0736C5.85444 18.8056 6.11501 18.5354 6.38414 18.2737C6.46744 18.1926 6.48132 18.1328 6.42365 18.0292C6.2955 17.7996 6.18016 17.5625 6.10647 17.3083C6.37239 17.3051 6.63831 17.3019 6.90423 17.2987C7.01743 17.508 7.12743 17.7195 7.24597 17.9267C7.41897 18.2257 7.41043 18.341 7.17228 18.5813C6.94801 18.8088 6.72374 19.0363 6.49307 19.2573C6.39375 19.3524 6.34569 19.4164 6.47598 19.5382C6.76539 19.8062 7.04306 20.0892 7.31538 20.3755C7.41897 20.4844 7.47558 20.4491 7.56101 20.3605C7.79916 20.1138 8.04693 19.8746 8.28721 19.63C8.45595 19.4592 8.63536 19.4239 8.84575 19.5521C9.34021 19.8554 9.8667 20.0818 10.4327 20.2174C10.5715 20.2505 10.6698 20.3413 10.6997 20.5068C10.7702 20.8945 10.7211 21.2832 10.7285 21.6709C10.7317 21.8193 10.7713 21.861 10.9176 21.8567C11.301 21.8471 11.6843 21.8471 12.0667 21.8567C12.2172 21.8599 12.2771 21.8257 12.2706 21.6623C12.2578 21.327 12.2653 20.9917 12.2674 20.6563C12.2696 20.3787 12.3571 20.2537 12.6188 20.1918C13.1592 20.0658 13.6632 19.8532 14.1363 19.5649C14.3766 19.4175 14.5123 19.4367 14.7141 19.6332C14.9651 19.8789 15.2139 20.1277 15.4585 20.3787C15.5321 20.4556 15.5823 20.478 15.6688 20.3893C15.9572 20.0914 16.2509 19.7966 16.5499 19.5094C16.6375 19.425 16.6247 19.3727 16.5456 19.2979C16.379 19.1377 16.2178 18.9711 16.0544 18.8066C15.7019 18.4542 15.6621 18.0616 15.9348 17.6287C16.1943 17.7323 16.4655 17.6618 16.7314 17.6864L16.7336 17.6874Z" fill="url(#paint1_linear_281_81)"/>
<path d="M16.7336 17.6874C16.4687 17.6628 16.1964 17.7344 15.9369 17.6297C16.1003 17.2346 16.2754 16.8448 16.3705 16.4251C16.4217 16.1966 16.5787 16.1004 16.8094 16.1026C17.1522 16.1069 17.4961 16.0951 17.8389 16.1069C17.9916 16.1122 18.0269 16.062 18.0226 15.9178C18.013 15.5344 18.013 15.151 18.0226 14.7677C18.0269 14.616 17.9906 14.5583 17.8272 14.5658C17.5078 14.5786 17.1885 14.5701 16.8692 14.569C16.5307 14.569 16.4239 14.4868 16.3459 14.1685C16.222 13.6623 16.0245 13.186 15.7564 12.7396C15.5695 12.4299 15.592 12.3103 15.8728 12.0625C16.0779 12.1405 16.2915 12.1234 16.504 12.1256C16.6054 12.1256 16.7122 12.1106 16.787 12.2057C16.756 12.242 16.7304 12.2857 16.693 12.3124C16.5253 12.4289 16.5125 12.5655 16.6129 12.7354C16.7528 12.9724 16.8564 13.2266 16.9258 13.4925C16.9846 13.7168 17.0913 13.8289 17.3498 13.8076C17.683 13.7798 18.0194 13.7969 18.3547 13.8022C18.6377 13.8065 18.7776 13.9496 18.7851 14.2315C18.7894 14.3832 18.7979 14.5359 18.783 14.6865C18.7637 14.8755 18.8236 14.9364 19.0169 14.9011C20.0175 14.7175 20.8366 14.2379 21.455 13.4274C21.911 12.8304 22.147 12.1458 22.2378 11.4058C22.4866 11.4058 22.7354 11.4058 22.9843 11.4058C22.9234 13.3996 21.33 15.2343 19.3276 15.6252C19.1514 15.6594 18.9036 15.6017 18.815 15.7448C18.7317 15.8794 18.7872 16.1004 18.7872 16.2841C18.7851 16.77 18.6879 16.8683 18.1967 16.8683C17.8688 16.8683 17.542 16.8726 17.2142 16.8662C17.0913 16.863 17.0326 16.8971 16.9952 17.0231C16.929 17.2506 16.8617 17.4813 16.7336 17.6863V17.6874Z" fill="url(#paint2_linear_281_81)"/>
<path d="M6.90637 17.3009C6.64045 17.3041 6.37453 17.3073 6.10861 17.3105C5.98971 17.0172 5.76972 16.8705 5.44862 16.8705C5.17736 16.8705 4.90611 16.8748 4.63485 16.8684C4.36786 16.8619 4.22689 16.7178 4.21835 16.4487C4.21088 16.2094 4.29311 15.9147 4.18204 15.7481C4.06777 15.5772 3.74205 15.6477 3.51244 15.5858C1.91266 15.1511 0.816949 14.1697 0.253075 12.6041C0.521129 12.6041 0.788115 12.6041 1.05617 12.6041C1.13947 12.7568 1.21636 12.9138 1.305 13.0633C1.90625 14.0735 2.79051 14.6769 3.94175 14.8948C4.10088 14.9247 4.26534 14.961 4.22049 14.6897C4.19699 14.5498 4.21621 14.4035 4.21621 14.2604C4.21621 13.9294 4.33796 13.8066 4.67436 13.8034C5.04067 13.8002 5.40804 13.7969 5.77435 13.8055C5.9057 13.8087 5.97405 13.7777 6.00929 13.6389C6.09686 13.2918 6.23997 12.964 6.42045 12.6553C6.49307 12.5314 6.45997 12.4513 6.3788 12.3638C6.69384 12.305 7.01102 12.3178 7.32927 12.3168C7.41044 12.4577 7.34743 12.5806 7.27481 12.697C6.98326 13.1679 6.77181 13.672 6.64472 14.2124C6.58278 14.4772 6.45783 14.5669 6.18444 14.5691C5.84163 14.5723 5.49775 14.5755 5.15494 14.5669C5.01824 14.5637 4.97766 14.6043 4.98086 14.741C4.98941 15.1319 4.99261 15.5238 4.97979 15.9136C4.97446 16.0802 5.0364 16.1101 5.18484 16.1058C5.52765 16.0962 5.87153 16.1048 6.21434 16.1026C6.40016 16.1026 6.57317 16.1699 6.60521 16.3515C6.66287 16.6847 6.79744 16.9869 6.90637 17.2998V17.3009Z" fill="url(#paint3_linear_281_81)"/>
<path d="M1.05723 12.604C0.78918 12.604 0.522194 12.604 0.25414 12.604C-0.278764 10.9049 0.0213281 9.37778 1.20247 8.0343C1.40218 8.13469 1.61577 8.08983 1.82509 8.09945C1.93295 8.10479 2.04722 8.08129 2.12731 8.18381C2.09421 8.21799 2.06324 8.2543 2.028 8.28634C1.32208 8.93885 0.913061 9.74194 0.798791 10.6978C0.719764 11.3567 0.83083 11.9878 1.05723 12.604Z" fill="url(#paint4_linear_281_81)"/>
<path d="M22.9843 11.4068C22.7354 11.4068 22.4866 11.4068 22.2378 11.4068C22.2709 10.4169 22.0178 9.51766 21.3984 8.73165C20.9691 8.187 20.4116 7.81642 19.79 7.53128C19.8328 7.40847 19.9374 7.42982 20.0303 7.42876C20.277 7.42662 20.5227 7.42876 20.7693 7.42769C20.8548 7.42769 20.9498 7.44264 20.9904 7.33264C21.5863 7.70963 22.0295 8.22438 22.3819 8.8299C22.8166 9.57746 23.0142 10.3806 22.9992 11.2402C22.9992 11.2958 22.9896 11.3502 22.9843 11.4058V11.4068Z" fill="url(#paint5_linear_281_81)"/>
<path d="M15.8728 12.0636C16.096 11.8362 16.3139 11.6034 16.5435 11.3823C16.6343 11.2947 16.6364 11.2424 16.5435 11.1548C16.2509 10.8729 15.9615 10.5856 15.6806 10.2919C15.5887 10.1958 15.5364 10.2129 15.4531 10.2994C15.215 10.5472 14.9715 10.7874 14.7258 11.0277C14.5144 11.2349 14.3798 11.2541 14.1299 11.1025C13.6643 10.8174 13.1688 10.608 12.6359 10.4831C12.3593 10.4179 12.2696 10.2951 12.2685 10.0068C12.2664 9.66397 12.2621 9.32009 12.2706 8.97728C12.2739 8.85127 12.2354 8.81389 12.1094 8.81602C11.7025 8.8235 11.2956 8.82457 10.8887 8.81602C10.7552 8.81282 10.7307 8.86515 10.7328 8.98262C10.7392 9.32543 10.7371 9.66931 10.7339 10.0121C10.7317 10.2898 10.6442 10.4179 10.3847 10.4788C9.8368 10.607 9.32419 10.8195 8.84789 11.1174C8.63964 11.2477 8.45702 11.2136 8.28828 11.0427C8.04159 10.7928 7.78848 10.5493 7.54606 10.2951C7.45849 10.2033 7.40616 10.2044 7.31859 10.2951C7.03665 10.5877 6.74724 10.874 6.45569 11.1591C6.37987 11.2338 6.36491 11.2776 6.44501 11.3705C6.67248 11.6365 6.90529 11.8928 7.18403 12.1074C7.25131 12.1598 7.31966 12.2206 7.3282 12.3178C7.01102 12.3178 6.69277 12.3061 6.37773 12.3648C6.099 12.0914 5.81492 11.8234 5.54367 11.5425C5.3728 11.3652 5.376 11.1676 5.55114 10.9893C6.07657 10.4542 6.60734 9.92348 7.14131 9.39699C7.3314 9.21009 7.53752 9.21543 7.73402 9.40446C8.00955 9.67038 8.28081 9.94164 8.54566 10.2182C8.63323 10.3101 8.70264 10.3197 8.81264 10.2577C9.12448 10.0794 9.45768 9.94377 9.80263 9.84659C9.93932 9.80814 9.97243 9.743 9.96923 9.61057C9.96068 9.25174 9.96495 8.89185 9.96602 8.53302C9.96816 8.18807 10.0995 8.05351 10.4413 8.05244C11.1194 8.05031 11.7986 8.06419 12.4757 8.0471C12.8495 8.03749 13.0043 8.14108 13.0289 8.59816C13.047 8.9399 13.0374 9.28485 13.0289 9.62766C13.0257 9.75261 13.0631 9.80814 13.188 9.84339C13.534 9.94057 13.8672 10.0762 14.178 10.2556C14.2987 10.325 14.3713 10.3047 14.4642 10.2076C14.7173 9.94164 14.979 9.68426 15.2406 9.42689C15.4681 9.20476 15.6582 9.20048 15.8824 9.42262C16.3993 9.93309 16.9119 10.4468 17.4224 10.9637C17.6275 11.1708 17.6285 11.3652 17.4299 11.5703C17.2195 11.7881 16.9984 11.9953 16.7816 12.2067C16.7069 12.1117 16.599 12.1277 16.4986 12.1266C16.2861 12.1256 16.0725 12.1416 15.8675 12.0636H15.8728Z" fill="url(#paint6_linear_281_81)"/>
<path d="M14.9854 16.9174C14.2997 18.3399 13.1581 19.1206 11.5904 19.1569C9.99913 19.1943 8.82226 18.4393 8.06722 17.036C8.05654 17.0157 8.05547 16.9901 8.05013 16.9676C8.31178 16.9463 8.57983 17.0157 8.83507 16.9132C8.92051 16.942 8.94187 17.0264 8.98672 17.0894C9.73749 18.1552 11.003 18.6123 12.2322 18.31C13.0801 18.1018 13.7049 17.5902 14.1684 16.8651C14.4364 16.9527 14.712 16.9078 14.9843 16.9174H14.9854Z" fill="url(#paint7_linear_281_81)"/>
<path d="M8.42071 13.0792C9.01555 12.2185 9.85496 11.7336 10.8652 11.5617C12.0677 11.3567 13.14 11.6802 14.0573 12.4865C14.2997 12.6991 14.4984 12.9554 14.6831 13.2202C14.3926 13.3313 14.0894 13.249 13.7935 13.279C13.1346 12.6136 12.3486 12.2441 11.3992 12.2719C10.6079 12.2954 9.93505 12.6126 9.35195 13.1337C9.04545 13.0558 8.73148 13.0963 8.42178 13.0792H8.42071Z" fill="url(#paint8_linear_281_81)"/>
<path d="M8.42071 13.0793C8.73041 13.0964 9.04439 13.0559 9.35089 13.1338C8.73255 13.7981 8.39614 14.5723 8.43886 15.4897C8.46236 15.9938 8.614 16.4637 8.83507 16.9133C8.57876 17.0147 8.31178 16.9464 8.05013 16.9677C7.42431 15.8507 7.59412 14.0672 8.42071 13.0793Z" fill="url(#paint9_linear_281_81)"/>
<path d="M13.7935 13.278C14.0894 13.2491 14.3926 13.3303 14.6831 13.2192C15.452 14.3972 15.5375 15.6307 14.9854 16.9175C14.713 16.9079 14.4364 16.9528 14.1694 16.8652C14.5464 16.1401 14.6746 15.384 14.4738 14.5798C14.351 14.0896 14.099 13.671 13.7935 13.2769V13.278Z" fill="url(#paint10_linear_281_81)"/>
<path d="M13.4187 15.3444C13.4187 16.3877 12.5569 17.2496 11.5124 17.2528C10.4519 17.2549 9.58797 16.3984 9.58583 15.3412C9.5837 14.2839 10.4413 13.4221 11.4953 13.4199C12.6305 13.4178 13.3952 14.3629 13.4187 15.3444ZM12.6519 15.3347C12.6487 14.6972 12.1265 14.1824 11.491 14.1878C10.8578 14.1931 10.3409 14.7196 10.3548 15.354C10.3697 16.0278 10.8962 16.486 11.5209 16.4849C12.1393 16.4839 12.6551 15.9552 12.6519 15.3347Z" fill="url(#paint11_linear_281_81)"/>
<defs>
<linearGradient id="paint0_linear_281_81" x1="11.0959" y1="0.378784" x2="11.0959" y2="8.17956" gradientUnits="userSpaceOnUse">
<stop stop-color="#1D86C4"/>
<stop offset="1" stop-color="#87BC48"/>
</linearGradient>
<linearGradient id="paint1_linear_281_81" x1="11.5016" y1="17.2987" x2="11.5016" y2="22.6212" gradientUnits="userSpaceOnUse">
<stop stop-color="#1D86C4"/>
<stop offset="1" stop-color="#87BC48"/>
</linearGradient>
<linearGradient id="paint2_linear_281_81" x1="19.3098" y1="11.4058" x2="19.3098" y2="17.6888" gradientUnits="userSpaceOnUse">
<stop stop-color="#1D86C4"/>
<stop offset="1" stop-color="#87BC48"/>
</linearGradient>
<linearGradient id="paint3_linear_281_81" x1="3.81022" y1="12.3163" x2="3.81022" y2="17.3105" gradientUnits="userSpaceOnUse">
<stop stop-color="#1D86C4"/>
<stop offset="1" stop-color="#87BC48"/>
</linearGradient>
<linearGradient id="paint4_linear_281_81" x1="1.06366" y1="8.0343" x2="1.06366" y2="12.604" gradientUnits="userSpaceOnUse">
<stop stop-color="#1D86C4"/>
<stop offset="1" stop-color="#87BC48"/>
</linearGradient>
<linearGradient id="paint5_linear_281_81" x1="21.395" y1="7.33264" x2="21.395" y2="11.4068" gradientUnits="userSpaceOnUse">
<stop stop-color="#1D86C4"/>
<stop offset="1" stop-color="#87BC48"/>
</linearGradient>
<linearGradient id="paint6_linear_281_81" x1="11.4976" y1="8.04651" x2="11.4976" y2="12.3648" gradientUnits="userSpaceOnUse">
<stop stop-color="#1D86C4"/>
<stop offset="1" stop-color="#87BC48"/>
</linearGradient>
<linearGradient id="paint7_linear_281_81" x1="11.5177" y1="16.8651" x2="11.5177" y2="19.1582" gradientUnits="userSpaceOnUse">
<stop stop-color="#1D86C4"/>
<stop offset="1" stop-color="#87BC48"/>
</linearGradient>
<linearGradient id="paint8_linear_281_81" x1="11.5519" y1="11.5017" x2="11.5519" y2="13.2806" gradientUnits="userSpaceOnUse">
<stop stop-color="#1D86C4"/>
<stop offset="1" stop-color="#87BC48"/>
</linearGradient>
<linearGradient id="paint9_linear_281_81" x1="8.51146" y1="13.0793" x2="8.51146" y2="16.9707" gradientUnits="userSpaceOnUse">
<stop stop-color="#1D86C4"/>
<stop offset="1" stop-color="#87BC48"/>
</linearGradient>
<linearGradient id="paint10_linear_281_81" x1="14.5669" y1="13.2192" x2="14.5669" y2="16.9207" gradientUnits="userSpaceOnUse">
<stop stop-color="#1D86C4"/>
<stop offset="1" stop-color="#87BC48"/>
</linearGradient>
<linearGradient id="paint11_linear_281_81" x1="11.5023" y1="13.4199" x2="11.5023" y2="17.2528" gradientUnits="userSpaceOnUse">
<stop stop-color="#1D86C4"/>
<stop offset="1" stop-color="#87BC48"/>
</linearGradient>
</defs>
</svg>
