<svg width="26" height="23" viewBox="0 0 26 23" fill="none" xmlns="http://www.w3.org/2000/svg">
<path d="M12.8996 14.3171C8.69718 14.3171 4.49627 14.314 0.293812 14.3233C0.0420665 14.3233 0.000366211 14.2538 0.000366211 14.019C0.00808848 9.68218 0.0065444 5.34535 0.0065444 1.00853C0.0065444 0.333602 0.338602 0 1.01198 0C8.93657 0 16.8596 0 24.7842 0C25.4607 0 25.7927 0.333601 25.7927 1.00698C25.7927 5.35153 25.7896 9.69762 25.7989 14.0422C25.7989 14.2831 25.7248 14.3217 25.507 14.3217C21.3046 14.3155 17.1036 14.3171 12.9012 14.3171H12.8996ZM12.8966 1.06722C9.15898 1.06722 5.41985 1.06876 1.68228 1.06258C1.48304 1.06258 1.41354 1.09502 1.41509 1.31587C1.42281 5.20481 1.42281 9.09529 1.41509 12.9842C1.41509 13.1974 1.4537 13.2622 1.68382 13.2607C9.16052 13.253 16.6357 13.253 24.1124 13.2607C24.3487 13.2607 24.378 13.1881 24.378 12.9811C24.3718 9.09992 24.3718 5.21871 24.378 1.3375C24.378 1.12436 24.3394 1.05949 24.1093 1.06104C20.3717 1.07031 16.6326 1.06722 12.895 1.06722H12.8966Z" fill="url(#paint0_linear_294_118)"/>
<path d="M12.8966 15.2191C17.1067 15.2191 21.3185 15.2206 25.5286 15.2129C25.7526 15.2129 25.8144 15.2654 25.8005 15.4878C25.7804 15.8229 25.7989 16.1612 25.7943 16.4979C25.7896 16.8732 25.5935 17.0662 25.2151 17.0755C25.1734 17.0755 25.1302 17.0755 25.0885 17.0755C16.9616 17.0755 8.83464 17.0755 0.70927 17.0755C0.62587 17.0755 0.53938 17.0786 0.457524 17.0678C0.193423 17.0307 0.0111766 16.8423 0.00499884 16.5751C-0.00581234 16.1705 0.00499902 15.7673 0.000365664 15.3627C0.000365664 15.2561 0.0266219 15.2052 0.140911 15.2175C0.190334 15.2237 0.241301 15.2175 0.292268 15.2175C4.49473 15.2175 8.69718 15.2175 12.8996 15.2175L12.8966 15.2191Z" fill="url(#paint1_linear_294_118)"/>
<path d="M7.84464 20.935C7.81066 20.935 7.77668 20.935 7.74425 20.935C7.72263 20.9149 7.701 20.8949 7.67938 20.8748C8.09175 19.891 8.50412 18.9071 8.91803 17.9249C8.92267 17.9141 8.94429 17.9094 8.95819 17.9017C8.9829 17.9403 8.9968 17.9264 9.00916 17.894C9.07557 17.8878 9.14198 17.8785 9.20839 17.8785C11.6687 17.8785 14.129 17.8785 16.5893 17.8785C16.6557 17.8785 16.7222 17.8894 16.7886 17.894C16.8009 17.9264 16.8164 17.9419 16.8395 17.9017C16.8534 17.9094 16.8751 17.9141 16.8797 17.9249C17.2936 18.9071 17.706 19.891 18.1183 20.8748C18.0967 20.8949 18.0751 20.9149 18.0535 20.935C18.0195 20.935 17.9855 20.935 17.9531 20.935C17.8805 20.8501 17.7801 20.884 17.6921 20.884C14.4966 20.8825 11.3011 20.8825 8.1072 20.884C8.01916 20.884 7.92032 20.8485 7.84618 20.935H7.84464Z" fill="url(#paint2_linear_294_118)"/>
<path d="M12.8718 22.9939C10.725 22.9939 8.57671 22.9892 6.42992 23.0001C6.17817 23.0001 6.15346 22.9105 6.1859 22.7097C6.25694 22.2649 6.50251 21.9761 6.93341 21.8494C7.22686 21.7645 7.52803 21.7367 7.83228 21.7367C11.21 21.7367 14.5862 21.7367 17.9639 21.7367C18.2682 21.7367 18.5709 21.7645 18.8628 21.8494C19.3045 21.9792 19.5501 22.2788 19.6118 22.7344C19.6365 22.9136 19.6149 23.0016 19.3894 22.9985C18.3531 22.9846 17.3183 22.9923 16.282 22.9923C15.1453 22.9923 14.0086 22.9923 12.8718 22.9923V22.9939Z" fill="url(#paint3_linear_294_118)"/>
<path d="M7.84465 20.9351C7.91724 20.8502 8.01763 20.8842 8.10567 20.8842C11.3011 20.8826 14.4966 20.8826 17.6905 20.8842C17.7786 20.8842 17.8774 20.8502 17.9516 20.9351C17.8929 20.9382 17.8342 20.9459 17.7755 20.9459C14.5229 20.9459 11.2718 20.9459 8.01918 20.9459C7.96049 20.9459 7.9018 20.9398 7.84311 20.9351H7.84465Z" fill="url(#paint4_linear_294_118)"/>
<path d="M7.67786 20.8749C7.69948 20.895 7.7211 20.915 7.74272 20.9351C7.69948 20.9382 7.62998 20.9691 7.67786 20.8749Z" fill="url(#paint5_linear_294_118)"/>
<path d="M18.0519 20.9366C18.0736 20.9165 18.0952 20.8964 18.1168 20.8763C18.1647 20.9706 18.0952 20.9412 18.0519 20.9366Z" fill="url(#paint6_linear_294_118)"/>
<path d="M9.00763 17.8925C8.99528 17.9249 8.97983 17.9403 8.95667 17.9002C8.97365 17.8971 8.99064 17.894 9.00763 17.8925Z" fill="url(#paint7_linear_294_118)"/>
<path d="M16.838 17.9002C16.8133 17.9388 16.7994 17.9233 16.787 17.8925C16.804 17.8955 16.821 17.8986 16.838 17.9002Z" fill="url(#paint8_linear_294_118)"/>
<path d="M17.6473 8.09753C19.2041 8.09753 20.7624 8.09753 22.3192 8.09753C22.6142 8.09753 22.7965 8.24889 22.8042 8.49446C22.8104 8.70451 22.71 8.84968 22.5092 8.91146C22.4304 8.93617 22.344 8.93926 22.2606 8.93926C19.1794 8.93926 16.0982 8.93926 13.017 8.93926C12.7066 8.93926 12.5382 8.83115 12.4919 8.61184C12.4332 8.32766 12.6154 8.10217 12.9259 8.10062C13.624 8.09599 14.3236 8.09908 15.0217 8.09908C15.8974 8.09908 16.7731 8.09908 17.6488 8.09908L17.6473 8.09753Z" fill="url(#paint9_linear_294_118)"/>
<path d="M22.4969 10.9347C22.7409 11.0335 22.8397 11.1911 22.798 11.4088C22.7563 11.6251 22.588 11.7424 22.3069 11.7424C19.9423 11.7424 17.5793 11.7424 15.2148 11.7424C14.4487 11.7424 13.6842 11.7424 12.9182 11.7424C12.6865 11.7424 12.5336 11.6297 12.4903 11.398C12.4486 11.171 12.5537 11.0212 12.8008 10.9331C12.8378 10.981 12.8703 10.9764 12.8996 10.9239C12.9846 10.9007 13.068 10.9007 13.1514 10.9239C13.224 11.0088 13.3244 10.9748 13.4124 10.9748C16.3607 10.9764 19.3091 10.9764 22.2575 10.9748C22.3393 10.9748 22.4274 11.0011 22.4984 10.9331L22.4969 10.9347Z" fill="url(#paint10_linear_294_118)"/>
<path d="M6.40677 2.93909C6.9566 2.28116 7.66087 2.04177 8.48561 2.2271C9.50804 2.45877 10.1104 3.41015 9.95593 4.48973C9.88334 4.99785 9.81075 5.04573 9.29799 4.97468C9.16208 4.95615 9.20532 4.88819 9.2254 4.82024C9.30726 4.52679 9.36749 4.2318 9.3227 3.92446C9.23467 3.31903 8.75898 2.87268 8.12884 2.80782C7.52341 2.74449 6.97513 3.09045 6.77435 3.67116C6.71258 3.85032 6.61219 3.95843 6.40986 3.9538C6.21526 3.94917 6.10097 3.85804 6.0361 3.6758C5.80598 3.03176 5.21446 2.70125 4.53644 2.83098C3.89549 2.95299 3.45069 3.51054 3.4754 4.17157C3.48003 4.29667 3.49393 4.42332 3.5171 4.54687C3.57425 4.85113 3.57733 4.83568 3.25454 4.85576C3.02133 4.86966 2.90395 4.83414 2.86225 4.56077C2.71707 3.61093 3.11245 2.76148 3.92484 2.36147C4.73876 1.95991 5.71331 2.16996 6.35117 2.88504C6.36816 2.90357 6.38669 2.91902 6.40677 2.93755V2.93909Z" fill="url(#paint11_linear_294_118)"/>
<path d="M7.14502 5.14304C6.8006 5.73302 6.48553 6.26894 6.1751 6.80796C6.09633 6.94541 6.0083 7.06897 5.83378 7.06742C5.65925 7.06588 5.54805 6.95313 5.50326 6.80023C5.33028 6.21643 4.95344 6.02337 4.35728 6.10986C3.98661 6.16392 3.60204 6.12067 3.2221 6.11913C2.92094 6.11913 2.77421 6.01411 2.76958 5.80252C2.76649 5.58784 2.91321 5.47664 3.20975 5.47664C3.84143 5.47664 4.47311 5.49208 5.10325 5.46891C5.40596 5.4581 5.60674 5.54305 5.71331 5.83186C5.74265 5.90908 5.79207 5.97858 5.84922 6.08206C6.18437 5.50907 6.5087 4.95461 6.83458 4.4017C6.87319 4.33683 6.91026 4.27042 6.94887 4.20555C7.02146 4.08663 7.12957 4.03103 7.26857 4.04647C7.40912 4.06192 7.49715 4.14377 7.5404 4.2766C7.65932 4.64418 7.78596 5.01021 7.89408 5.38088C7.9435 5.54923 8.01145 5.62336 8.20297 5.61564C8.66476 5.59865 9.1281 5.61255 9.59143 5.60792C9.80611 5.60637 9.95747 5.67742 9.97445 5.91063C9.9899 6.11758 9.84781 6.23805 9.59298 6.2396C8.99527 6.24269 8.39757 6.23651 7.79986 6.24269C7.59136 6.24423 7.46935 6.15311 7.40912 5.96005C7.33035 5.70676 7.24541 5.45501 7.14502 5.14458V5.14304Z" fill="url(#paint12_linear_294_118)"/>
<path d="M15.9608 6.12684C14.9769 6.12684 13.9931 6.12684 13.0093 6.12684C12.6633 6.12684 12.4765 5.97085 12.4811 5.69593C12.4857 5.43183 12.6726 5.27893 13.0047 5.27893C14.98 5.27893 16.9569 5.27893 18.9323 5.27893C19.2535 5.27893 19.442 5.44882 19.4358 5.71447C19.4296 5.97239 19.2489 6.12066 18.9369 6.12529C18.886 6.12529 18.8365 6.12529 18.7856 6.12529C17.8434 6.12529 16.9013 6.12529 15.9608 6.12529V6.12684Z" fill="url(#paint13_linear_294_118)"/>
<path d="M22.8104 3.13839C23.1399 3.13839 23.3046 3.30416 23.3046 3.6357C23.3046 3.91164 23.1697 4.04961 22.9 4.04961C22.5025 4.04961 22.3043 4.24936 22.3054 4.64886C22.3054 4.90627 22.1798 5.03446 21.9285 5.03343C21.5754 5.03343 21.3988 4.85273 21.3988 4.49133C21.3988 4.19685 21.25 4.04961 20.9524 4.04961C20.591 4.04961 20.4108 3.86531 20.4119 3.4967C20.4119 3.13839 20.4119 3.14457 20.7625 3.1353C20.9694 3.13067 21.2443 3.23105 21.3648 3.09051C21.4667 2.97159 21.3957 2.70594 21.4003 2.50362C21.4003 2.44493 21.408 2.38469 21.4003 2.32755C21.3756 2.16384 21.4528 2.12523 21.6011 2.13604C21.8266 2.15148 22.12 2.06654 22.259 2.17928C22.4058 2.2982 22.3146 2.60555 22.3007 2.82795C22.2853 3.07661 22.3471 3.1909 22.6112 3.14148C22.676 3.12912 22.7455 3.13993 22.8135 3.13993L22.8104 3.13839Z" fill="url(#paint14_linear_294_118)"/>
<path d="M8.86707 6.87742C8.28326 7.6929 7.65004 8.39717 6.95349 9.04275C6.6446 9.33002 6.17509 9.33311 5.86774 9.05202C5.13412 8.38018 4.47773 7.6373 3.90474 6.82182C3.89702 6.80947 3.89856 6.79094 3.89084 6.73842C4.11633 6.73842 4.33873 6.74151 4.55959 6.73842C4.66615 6.73688 4.69859 6.82337 4.74647 6.88669C5.17273 7.45351 5.66387 7.96009 6.16582 8.45586C6.37741 8.66436 6.42838 8.66281 6.64151 8.45586C7.08322 8.02959 7.50949 7.58479 7.88171 7.09674C8.01607 6.92067 8.15507 6.85117 8.36666 6.87279C8.51648 6.88824 8.66783 6.87588 8.86552 6.87588L8.86707 6.87742Z" fill="url(#paint15_linear_294_118)"/>
<path d="M22.4969 10.9348C22.4258 11.0012 22.3378 10.9765 22.2559 10.9765C19.3076 10.9765 16.3592 10.9765 13.4109 10.9765C13.3228 10.9765 13.224 11.0104 13.1498 10.9255C13.2255 10.9224 13.2997 10.9147 13.3753 10.9147C16.3237 10.9147 19.2721 10.9147 22.222 10.9147C22.3131 10.9147 22.4058 10.927 22.4969 10.9348Z" fill="url(#paint16_linear_294_118)"/>
<path d="M12.8981 10.924C12.8688 10.9749 12.8363 10.9811 12.7993 10.9332C12.8317 10.9301 12.8657 10.927 12.8981 10.924Z" fill="url(#paint17_linear_294_118)"/>
<defs>
<linearGradient id="paint0_linear_294_118" x1="12.8996" y1="0" x2="12.8996" y2="14.3233" gradientUnits="userSpaceOnUse">
<stop stop-color="#1D86C4"/>
<stop offset="1" stop-color="#87BC48"/>
</linearGradient>
<linearGradient id="paint1_linear_294_118" x1="12.9012" y1="15.2129" x2="12.9012" y2="17.0759" gradientUnits="userSpaceOnUse">
<stop stop-color="#1D86C4"/>
<stop offset="1" stop-color="#87BC48"/>
</linearGradient>
<linearGradient id="paint2_linear_294_118" x1="12.8989" y1="17.8785" x2="12.8989" y2="20.935" gradientUnits="userSpaceOnUse">
<stop stop-color="#1D86C4"/>
<stop offset="1" stop-color="#87BC48"/>
</linearGradient>
<linearGradient id="paint3_linear_294_118" x1="12.8972" y1="21.7367" x2="12.8972" y2="23.0001" gradientUnits="userSpaceOnUse">
<stop stop-color="#1D86C4"/>
<stop offset="1" stop-color="#87BC48"/>
</linearGradient>
<linearGradient id="paint4_linear_294_118" x1="12.8973" y1="20.8774" x2="12.8973" y2="20.9459" gradientUnits="userSpaceOnUse">
<stop stop-color="#1D86C4"/>
<stop offset="1" stop-color="#87BC48"/>
</linearGradient>
<linearGradient id="paint5_linear_294_118" x1="7.7022" y1="20.8749" x2="7.7022" y2="20.9424" gradientUnits="userSpaceOnUse">
<stop stop-color="#1D86C4"/>
<stop offset="1" stop-color="#87BC48"/>
</linearGradient>
<linearGradient id="paint6_linear_294_118" x1="18.0925" y1="20.8763" x2="18.0925" y2="20.9445" gradientUnits="userSpaceOnUse">
<stop stop-color="#1D86C4"/>
<stop offset="1" stop-color="#87BC48"/>
</linearGradient>
<linearGradient id="paint7_linear_294_118" x1="8.98215" y1="17.8925" x2="8.98215" y2="17.9242" gradientUnits="userSpaceOnUse">
<stop stop-color="#1D86C4"/>
<stop offset="1" stop-color="#87BC48"/>
</linearGradient>
<linearGradient id="paint8_linear_294_118" x1="16.8125" y1="17.8925" x2="16.8125" y2="17.9231" gradientUnits="userSpaceOnUse">
<stop stop-color="#1D86C4"/>
<stop offset="1" stop-color="#87BC48"/>
</linearGradient>
<linearGradient id="paint9_linear_294_118" x1="17.6427" y1="8.09753" x2="17.6427" y2="8.93926" gradientUnits="userSpaceOnUse">
<stop stop-color="#1D86C4"/>
<stop offset="1" stop-color="#87BC48"/>
</linearGradient>
<linearGradient id="paint10_linear_294_118" x1="17.6444" y1="10.9065" x2="17.6444" y2="11.7424" gradientUnits="userSpaceOnUse">
<stop stop-color="#1D86C4"/>
<stop offset="1" stop-color="#87BC48"/>
</linearGradient>
<linearGradient id="paint11_linear_294_118" x1="6.40632" y1="2.15979" x2="6.40632" y2="5.00069" gradientUnits="userSpaceOnUse">
<stop stop-color="#1D86C4"/>
<stop offset="1" stop-color="#87BC48"/>
</linearGradient>
<linearGradient id="paint12_linear_294_118" x1="6.37256" y1="4.04395" x2="6.37256" y2="7.06744" gradientUnits="userSpaceOnUse">
<stop stop-color="#1D86C4"/>
<stop offset="1" stop-color="#87BC48"/>
</linearGradient>
<linearGradient id="paint13_linear_294_118" x1="15.9585" y1="5.27893" x2="15.9585" y2="6.12684" gradientUnits="userSpaceOnUse">
<stop stop-color="#1D86C4"/>
<stop offset="1" stop-color="#87BC48"/>
</linearGradient>
<linearGradient id="paint14_linear_294_118" x1="21.8582" y1="2.11975" x2="21.8582" y2="5.03344" gradientUnits="userSpaceOnUse">
<stop stop-color="#1D86C4"/>
<stop offset="1" stop-color="#87BC48"/>
</linearGradient>
<linearGradient id="paint15_linear_294_118" x1="6.37895" y1="6.7384" x2="6.37895" y2="9.26054" gradientUnits="userSpaceOnUse">
<stop stop-color="#1D86C4"/>
<stop offset="1" stop-color="#87BC48"/>
</linearGradient>
<linearGradient id="paint16_linear_294_118" x1="17.8234" y1="10.9147" x2="17.8234" y2="10.9832" gradientUnits="userSpaceOnUse">
<stop stop-color="#1D86C4"/>
<stop offset="1" stop-color="#87BC48"/>
</linearGradient>
<linearGradient id="paint17_linear_294_118" x1="12.8487" y1="10.924" x2="12.8487" y2="10.9659" gradientUnits="userSpaceOnUse">
<stop stop-color="#1D86C4"/>
<stop offset="1" stop-color="#87BC48"/>
</linearGradient>
</defs>
</svg>
