<svg width="23" height="23" viewBox="0 0 23 23" fill="none" xmlns="http://www.w3.org/2000/svg">
<path d="M22.9964 11.5068C22.9964 12.0258 22.9895 12.5448 22.9998 13.0638C23.0044 13.2748 22.9279 13.3683 22.7181 13.4071C22.0679 13.5257 21.4212 13.6672 20.771 13.7869C20.6079 13.8166 20.5383 13.8884 20.495 14.047C20.2999 14.7679 20.0113 15.4511 19.6384 16.0979C19.5756 16.2074 19.5745 16.2815 19.6463 16.3876C20.0307 16.9511 20.4014 17.5237 20.7858 18.0871C20.8976 18.2514 20.8965 18.3654 20.7482 18.5114C20.0034 19.2437 19.2688 19.9863 18.5297 20.7231C18.3243 20.9273 18.3027 20.9376 18.0643 20.7608C17.5248 20.3604 16.9328 20.0388 16.3887 19.6464C16.286 19.5722 16.2119 19.5722 16.1001 19.6372C15.4522 20.008 14.7701 20.3011 14.0481 20.4916C13.8713 20.5384 13.8154 20.6262 13.7846 20.7893C13.6626 21.4395 13.5223 22.0862 13.4014 22.7364C13.366 22.9291 13.2793 22.9987 13.0865 22.9976C12.0212 22.9919 10.9558 22.993 9.89047 22.9976C9.71938 22.9976 9.63155 22.9383 9.59847 22.7603C9.47186 22.0828 9.32814 21.4087 9.19811 20.7334C9.17529 20.6148 9.13651 20.5441 9.00762 20.5098C8.25822 20.3136 7.54989 20.0137 6.87919 19.6281C6.77083 19.5654 6.70125 19.5802 6.60772 19.6452C6.1104 19.9908 5.59826 20.3159 5.07927 20.6296C5.06786 20.6364 5.05532 20.6422 5.04391 20.6501C4.79145 20.8326 4.55572 20.8148 4.33671 20.5965C3.63636 19.8973 2.94057 19.1935 2.23566 18.4989C2.10221 18.3677 2.0908 18.2616 2.1946 18.1099C2.58584 17.5339 2.96453 16.9511 3.35577 16.375C3.4185 16.2815 3.42535 16.2176 3.36945 16.1207C2.98278 15.458 2.69078 14.7542 2.49116 14.0139C2.45238 13.8702 2.38166 13.82 2.24821 13.7938C1.57866 13.6637 0.912523 13.5212 0.241829 13.3968C0.0650305 13.3638 -0.00112616 13.2862 1.44734e-05 13.1117C0.00457702 12.0395 0.00457702 10.9673 1.44734e-05 9.89508C1.44734e-05 9.71143 0.0661714 9.62931 0.250954 9.59509C0.921649 9.47076 1.58778 9.32932 2.25733 9.19815C2.38166 9.17419 2.45124 9.13085 2.48774 8.99169C2.68051 8.25598 2.97479 7.55905 3.35349 6.89976C3.4242 6.77771 3.4128 6.70129 3.33866 6.59179C2.95883 6.03402 2.5904 5.46712 2.20829 4.91049C2.0965 4.74738 2.09422 4.63218 2.24251 4.48618C2.99647 3.74362 3.74358 2.99422 4.48728 2.24254C4.62073 2.10795 4.73252 2.0897 4.89449 2.20148C5.46252 2.59158 6.04082 2.96571 6.61 3.35352C6.7081 3.42082 6.77768 3.42538 6.88147 3.36493C7.55103 2.97711 8.26164 2.68283 9.0099 2.48322C9.12967 2.45128 9.16959 2.38855 9.19126 2.2779C9.32472 1.59466 9.4673 0.913703 9.59733 0.230462C9.62927 0.063929 9.70911 0.00119395 9.8745 0.00233458C10.9535 0.00689713 12.0326 0.00917854 13.1116 0.004616C13.2919 0.004616 13.3637 0.074195 13.3956 0.246431C13.5223 0.917125 13.6648 1.58326 13.7914 2.25395C13.8177 2.39425 13.8793 2.45584 14.0162 2.49349C14.7302 2.68511 15.4112 2.96685 16.0511 3.33527C16.2062 3.42424 16.3077 3.40713 16.4469 3.31018C16.9852 2.93833 17.5384 2.58588 18.0768 2.21289C18.2502 2.09312 18.3665 2.10339 18.516 2.25509C19.2528 3.00449 19.9965 3.74704 20.7459 4.48504C20.8919 4.62876 20.8965 4.7451 20.7836 4.90935C20.4128 5.44887 20.057 5.99866 19.6863 6.53818C19.5882 6.68076 19.5642 6.78684 19.6612 6.95223C20.0319 7.58415 20.3068 8.26054 20.4973 8.96774C20.5372 9.11488 20.6011 9.17647 20.7505 9.20499C21.42 9.3316 22.0873 9.47532 22.7569 9.60079C22.9359 9.63387 22.9964 9.72056 22.9952 9.89165C22.9907 10.4312 22.993 10.9707 22.993 11.5102L22.9964 11.5068ZM18.7475 11.5114C18.7737 7.75296 15.7807 4.13714 11.2889 4.24892C7.12101 4.35158 4.2409 7.7541 4.24546 11.5273C4.25003 15.4865 7.5054 18.743 11.4748 18.7476C15.4887 18.7521 18.7452 15.5116 18.7464 11.5114H18.7475Z" fill="url(#paint0_linear_281_40)"/>
<defs>
<linearGradient id="paint0_linear_281_40" x1="11.5" y1="0.00231934" x2="11.5" y2="22.9976" gradientUnits="userSpaceOnUse">
<stop stop-color="#1D86C4"/>
<stop offset="1" stop-color="#87BC48"/>
</linearGradient>
</defs>
</svg>
