<svg width="24" height="23" viewBox="0 0 24 23" fill="none" xmlns="http://www.w3.org/2000/svg">
<path d="M8.50933 0.364773C8.53148 0.362663 8.55364 0.360553 8.57684 0.358443C9.0252 0.277211 9.4704 0.18332 9.92087 0.118967C10.9769 -0.0318925 12.0329 -0.0508818 13.0889 0.129517C13.1617 0.142176 13.2377 0.129517 13.3126 0.129517C13.6132 0.18965 13.9139 0.249783 14.2146 0.309915C14.5152 0.397477 14.8159 0.486094 15.1155 0.573656C15.24 0.622184 15.3634 0.675987 15.49 0.719241C15.9848 0.888035 16.4405 1.14545 16.9227 1.34589C16.9416 1.38281 16.9743 1.39442 17.0134 1.39547C17.0767 1.45877 17.1452 1.51363 17.2391 1.52523C17.2645 1.5706 17.3088 1.5822 17.3562 1.58853C17.3995 1.6666 17.4702 1.69825 17.5535 1.71302L17.5556 1.71407C17.6305 1.79741 17.7181 1.8586 17.8278 1.88708L17.832 1.8913C17.8531 1.95249 17.9006 1.97676 17.9618 1.97992L17.965 1.98309C17.9892 2.04111 18.0356 2.06748 18.0958 2.0717L18.0989 2.07381C18.1401 2.14028 18.1918 2.19302 18.2751 2.20252C18.2825 2.21307 18.293 2.21834 18.3068 2.21834C18.3363 2.28586 18.3796 2.33333 18.4576 2.33861L18.4618 2.34283C18.4998 2.41351 18.5526 2.4652 18.638 2.47364L18.6444 2.47786C18.7214 2.59602 18.8353 2.67198 18.9545 2.73949C19.1518 2.92306 19.348 3.10662 19.5453 3.29018C19.6497 3.42311 19.7679 3.54338 19.8998 3.64887C19.9514 3.72061 20.0063 3.78707 20.0844 3.83243C20.0854 3.88729 20.115 3.91683 20.1667 3.92633C20.192 4.00439 20.2511 4.05398 20.3133 4.10145C20.3144 4.1542 20.3407 4.18585 20.3935 4.19429C20.4209 4.22699 20.4494 4.25864 20.4768 4.29134C20.5116 4.38629 20.5686 4.46541 20.6541 4.52133C20.6889 4.60467 20.7427 4.67324 20.8102 4.73232C20.807 4.78718 20.8366 4.81671 20.8861 4.83148C20.9452 4.96335 21.0265 5.08046 21.1277 5.18384C21.1235 5.2387 21.1531 5.27035 21.1995 5.29039C21.2185 5.3558 21.248 5.41488 21.3071 5.45391C21.3039 5.51721 21.3292 5.56257 21.3904 5.58578C21.5096 5.83686 21.6257 6.09005 21.7966 6.31265C22.035 6.89921 22.2724 7.48682 22.5108 8.07338C22.5583 8.38143 22.6701 8.67366 22.7482 8.97327C22.8125 9.36149 22.8779 9.74972 22.9423 10.1379C22.9528 10.3215 22.9634 10.504 22.9729 10.6876C22.9855 10.8416 23.0056 10.9946 23.0098 11.1497C23.0172 11.4461 23.0151 11.7436 23.0172 12.04C23.0151 12.0854 23.013 12.1318 23.0108 12.1772C22.9613 12.2331 22.9697 12.2943 22.9897 12.3586C22.9855 12.4188 22.9813 12.48 22.9771 12.5401C22.9307 12.884 22.8832 13.229 22.8368 13.5729C22.8304 13.6267 22.8252 13.6795 22.8188 13.7333C22.8104 13.7554 22.8009 13.7765 22.7925 13.7987C22.7482 13.9938 22.7049 14.1901 22.6606 14.3852C22.5699 14.6869 22.4781 14.9876 22.3874 15.2893C22.1489 15.9054 21.8673 16.5025 21.574 17.0933C21.5339 17.1112 21.5233 17.144 21.5276 17.1851C21.4906 17.203 21.479 17.2347 21.478 17.2727C21.44 17.2864 21.4284 17.317 21.4305 17.3539C21.2564 17.5427 21.1383 17.7674 21.0191 17.9921C20.9832 18.0291 20.941 18.0628 20.9115 18.104C20.3291 18.93 19.6487 19.6664 18.8712 20.3109C18.5315 20.5926 18.1728 20.8532 17.8225 21.1233C17.5366 21.2973 17.2507 21.4714 16.9649 21.6455C16.9501 21.6508 16.9353 21.656 16.9205 21.6613C16.6209 21.8037 16.3213 21.9461 16.0217 22.0875C15.4141 22.3175 14.8001 22.5264 14.1724 22.6983C14.1259 22.7099 14.0795 22.7215 14.0331 22.7331C13.993 22.7247 13.9582 22.7321 13.9308 22.7648C13.8896 22.7701 13.8485 22.7753 13.8073 22.7806C13.7926 22.7753 13.7789 22.7775 13.7662 22.7869C13.705 22.7996 13.6428 22.8123 13.5816 22.8249C13.5172 22.8165 13.4539 22.8102 13.4022 22.8608C13.3875 22.8618 13.3716 22.864 13.3569 22.865C12.6437 22.9452 11.9306 23.0159 11.2111 22.9969C10.9505 22.9895 10.6899 22.9737 10.4283 22.9621C10.2838 22.9093 10.1245 22.9937 9.99049 22.9368C9.78056 22.8481 9.56323 22.8386 9.3438 22.8175C9.32059 22.8165 9.29738 22.8144 9.27523 22.8133C9.15813 22.7331 9.02415 22.7279 8.88911 22.7215C8.88278 22.7131 8.87434 22.711 8.86379 22.7152C8.24031 22.5127 7.60839 22.3333 6.99757 22.0928C6.69374 21.9177 6.37514 21.7731 6.05443 21.6339C6.02489 21.5959 5.98269 21.5875 5.93733 21.5875C5.71473 21.3986 5.46893 21.2478 5.20097 21.1338C5.10496 21.0157 4.97204 20.9418 4.85072 20.8553C4.11013 20.3268 3.45078 19.7107 2.84418 19.0323C2.54457 18.6969 2.30509 18.316 2.00021 17.9858C1.881 17.7738 1.78394 17.5469 1.59616 17.3813C1.57928 17.2674 1.52442 17.1724 1.44635 17.0901C1.31448 16.781 1.16784 16.4783 0.993775 16.1892C0.926257 15.9191 0.771177 15.686 0.679396 15.4254L0.677286 15.4223C0.664626 15.399 0.650912 15.3769 0.638252 15.3537C0.635087 15.3305 0.632978 15.3083 0.629813 15.2851C0.539086 14.9844 0.449414 14.6848 0.358687 14.3842C0.288005 14.0508 0.216267 13.7185 0.145585 13.3851C0.130816 13.114 0.0917817 12.846 0.0411435 12.5802C0.027429 12.0991 0.0137145 11.6181 0 11.138C0.00210992 11.0621 0.00421985 10.9872 0.00527481 10.9112C0.0411435 10.5641 0.0770123 10.2171 0.111826 9.87104C0.117101 9.8415 0.123431 9.81196 0.128706 9.78242C0.1382 9.76871 0.139255 9.75499 0.132925 9.74022C0.137145 9.69697 0.141365 9.65372 0.145585 9.61046C0.196223 9.55666 0.188838 9.4902 0.182509 9.42479C0.201498 9.32246 0.219432 9.22013 0.238422 9.11885C0.27007 9.09248 0.27851 9.05872 0.269015 9.01969C0.27007 9.00386 0.271126 8.98909 0.272181 8.97327C0.328094 8.83296 0.370292 8.68948 0.369237 8.53757C0.43148 8.45317 0.454689 8.35717 0.453634 8.25273C0.463129 8.24323 0.465239 8.23163 0.459964 8.21897C0.555965 8.07338 0.587614 7.90248 0.640362 7.74107C0.797552 7.25051 1.04547 6.79793 1.22903 6.31898C1.35035 6.19239 1.40416 6.02465 1.48855 5.87695C1.76601 5.38956 2.10043 4.93909 2.40109 4.46858C2.46545 4.45275 2.48655 4.40422 2.49288 4.34515C2.75134 4.11411 2.96339 3.84193 3.17438 3.56975C3.27566 3.52333 3.34845 3.44948 3.39276 3.34715C3.65228 3.13827 3.9118 2.92833 4.1249 2.66987C4.18082 2.62556 4.23778 2.58019 4.2937 2.53589C4.87709 2.1139 5.46998 1.70563 6.09346 1.34272C6.61145 1.12646 7.10412 0.854276 7.63687 0.669657C7.8331 0.60214 8.04303 0.567326 8.22449 0.4555C8.2382 0.460775 8.24981 0.45761 8.26036 0.448115C8.35319 0.450225 8.43864 0.432291 8.50722 0.364773H8.50933ZM6.5914 20.293C6.622 20.3458 6.66631 20.3742 6.72855 20.3732C6.75176 20.428 6.79818 20.4354 6.84987 20.4312C6.87624 20.4692 6.91528 20.4808 6.95853 20.4819C6.96381 20.4924 6.97225 20.4987 6.98491 20.4987C7.63476 20.8806 8.33104 21.1401 9.07162 21.2826C9.09483 21.2847 9.11804 21.2868 9.14125 21.2889C9.24253 21.3638 9.35963 21.3786 9.48095 21.3786L9.49255 21.386L9.50627 21.3828C9.96623 21.521 10.4346 21.5959 10.9168 21.5748C10.9959 21.6075 11.0761 21.6022 11.1573 21.5843C11.8156 21.6254 12.4707 21.5938 13.1195 21.4809C13.493 21.4155 13.8717 21.3649 14.2241 21.214C14.2367 21.214 14.2483 21.2077 14.2568 21.1982C14.3623 21.1961 14.4593 21.1729 14.5448 21.1074C15.0353 21.0009 15.4985 20.8205 15.9289 20.562C16.2496 20.4829 16.5133 20.292 16.7834 20.1189C17.1674 19.8742 17.5715 19.6527 17.8806 19.3066C18.0916 19.2275 18.2245 19.0566 18.3669 18.8952C18.5093 18.7981 18.6264 18.6758 18.7298 18.5386C18.9482 18.4057 19.0864 18.1989 19.2267 17.9953C19.2636 17.9805 19.2721 17.9499 19.2731 17.9141L19.3237 17.8624C19.4324 17.7337 19.5864 17.6408 19.636 17.4657C19.7563 17.3644 19.8544 17.2463 19.904 17.0944C19.9187 17.0828 19.9335 17.0712 19.9483 17.0585L19.9567 17.0617L19.9493 17.0564C20.1213 16.7715 20.326 16.5057 20.4399 16.1882C20.4494 16.1797 20.4504 16.1702 20.4431 16.1597C20.4568 16.1396 20.4715 16.1196 20.4853 16.0995C20.4948 16.0922 20.4958 16.0837 20.4884 16.0753C20.5032 16.0531 20.5169 16.031 20.5317 16.0088C20.6688 15.782 20.788 15.5467 20.8577 15.2893C21.0127 15.0077 21.113 14.707 21.171 14.3916H21.1689C21.1794 14.3736 21.19 14.3578 21.2016 14.3409C21.267 14.1384 21.3472 13.939 21.3524 13.7217C21.3851 13.6942 21.3936 13.6594 21.3851 13.6193C21.4062 13.5771 21.4316 13.5349 21.4157 13.4843C21.593 12.865 21.6288 12.231 21.6077 11.5906C21.6162 11.3195 21.631 11.0484 21.5888 10.7794C21.5719 10.1432 21.478 9.52079 21.2628 8.91946C21.1974 8.64728 21.1488 8.36877 21.0212 8.11558C21.0096 8.0987 20.998 8.08288 20.9874 8.066L20.9895 8.06389C20.9568 7.76744 20.7933 7.52058 20.6794 7.25579C20.5296 6.90976 20.3618 6.56901 20.1287 6.26729C20.001 5.99089 19.8365 5.73981 19.6265 5.51932C19.617 5.46657 19.5885 5.42965 19.5379 5.41171C19.328 5.04459 19.041 4.74287 18.7245 4.46647C18.4471 4.13943 18.1443 3.83982 17.7803 3.60878C17.7635 3.59401 17.7466 3.57819 17.7297 3.56342C17.4839 3.34082 17.2254 3.13827 16.9258 2.99268C16.8214 2.922 16.7201 2.84394 16.6114 2.78064C16.1399 2.50846 15.6651 2.24155 15.1345 2.09491C15.0944 2.01684 15.01 2.01895 14.9425 1.99469C14.414 1.80163 13.8738 1.65288 13.3147 1.57798C12.9634 1.45982 12.5984 1.43978 12.2323 1.43556C12.0086 1.38281 11.7808 1.39864 11.555 1.40813C11.3303 1.40919 11.1035 1.36593 10.883 1.43873C10.7606 1.44506 10.6382 1.45033 10.5169 1.45666C10.4779 1.44295 10.4441 1.44822 10.4156 1.47881C9.7468 1.50835 9.10222 1.65183 8.47662 1.88919C8.46502 1.88392 8.45341 1.88603 8.44497 1.89552C8.36374 1.89236 8.29411 1.91768 8.24137 1.98098C8.21921 1.98309 8.19706 1.98414 8.1749 1.98625C8.09473 1.98414 8.0251 2.00946 7.9713 2.07065C7.94914 2.07276 7.92699 2.07487 7.90483 2.07698C7.26131 2.29746 6.65998 2.60129 6.1019 2.98952C6.07342 2.9969 6.04072 2.99796 6.01751 3.01378C5.32967 3.47058 4.68509 3.98224 4.13123 4.59412C3.91286 4.83465 3.6565 5.05197 3.52357 5.36319C3.50986 5.37901 3.49615 5.39483 3.48243 5.41066C3.43285 5.42121 3.40436 5.44864 3.40858 5.50244C3.39698 5.51299 3.3917 5.52565 3.39065 5.54042C3.15645 5.73875 3.03196 6.01304 2.88743 6.27362C2.63002 6.62281 2.4549 7.01737 2.27872 7.40981C2.18799 7.61025 2.073 7.80331 2.0403 8.02696C1.86834 8.36983 1.78394 8.74012 1.69427 9.10936C1.69005 9.13995 1.68689 9.17054 1.68267 9.20114C1.66684 9.24228 1.64469 9.28132 1.63519 9.32351C1.45901 10.1137 1.37145 10.9133 1.41576 11.7236C1.40837 11.8596 1.39994 11.9957 1.42842 12.1308C1.45796 12.9336 1.60354 13.7143 1.86412 14.4738C1.9021 14.6985 2.00759 14.899 2.09094 15.1079C2.10148 15.1279 2.11309 15.149 2.12364 15.1691C2.12364 15.2155 2.1268 15.2608 2.16689 15.2925C2.23969 15.5372 2.32619 15.7746 2.48338 15.9803C2.48444 16.0658 2.53507 16.128 2.58677 16.1892C2.69965 16.4888 2.86739 16.7557 3.06994 17.0015C3.12585 17.1988 3.25878 17.3433 3.39803 17.4836C3.41386 17.5026 3.43074 17.5216 3.44656 17.5406C3.45922 17.5564 3.47188 17.5723 3.48454 17.587C3.48665 17.6524 3.5183 17.6968 3.58054 17.72C3.59215 17.8012 3.64173 17.8529 3.71347 17.8866C3.7314 17.9056 3.74828 17.9257 3.76622 17.9447C3.91708 18.1926 4.09325 18.4183 4.34223 18.5766C4.35699 18.5924 4.37282 18.6072 4.38759 18.623C4.41396 18.7158 4.4741 18.777 4.56693 18.8024C4.57959 18.8519 4.61124 18.8815 4.66082 18.892C4.82751 19.0893 5.00685 19.2718 5.24422 19.3868C5.25582 19.4248 5.28325 19.4385 5.32123 19.4364L5.3782 19.486C5.64299 19.7465 5.94049 19.9596 6.28125 20.1105C6.30024 20.1474 6.33294 20.1569 6.37092 20.159C6.38569 20.196 6.41417 20.2065 6.4511 20.2033C6.48591 20.255 6.53338 20.2856 6.59668 20.2909L6.5914 20.293Z" fill="url(#paint0_linear_281_67)"/>
<path d="M15.5238 4.61621C15.5628 4.62887 15.6018 4.64258 15.6398 4.65524C15.662 4.69955 15.6926 4.7312 15.7485 4.72171C15.8097 4.77446 15.8709 4.8272 15.9542 4.84092C16.3182 5.18062 16.3677 5.61421 16.3477 6.0805C16.3287 6.51514 16.3372 6.9519 16.3435 7.3876C16.3456 7.54057 16.2981 7.58593 16.1409 7.60175C15.5923 7.6545 15.682 7.60175 15.6905 7.1861C15.6947 6.98671 15.6483 6.91075 15.4299 6.91181C13.5658 6.92025 11.7016 6.91919 9.83753 6.91286C9.64552 6.91286 9.57484 6.96139 9.5759 7.16395C9.58223 10.1094 9.58117 13.0549 9.57801 16.0003C9.57801 16.1649 9.62759 16.2229 9.79638 16.2229C11.6827 16.2176 13.5689 16.2166 15.4563 16.2229C15.6567 16.2229 15.6905 16.1427 15.6894 15.9687C15.6831 14.9095 15.6905 13.8492 15.681 12.7901C15.6789 12.5748 15.7369 12.5158 15.9521 12.5506C16.3393 12.6139 16.3414 12.6023 16.3414 12.9937C16.3393 14.2786 16.3393 15.5636 16.334 16.8485C16.334 17.0954 16.3182 17.3433 16.2981 17.5901C16.2665 17.9815 15.7928 18.3582 15.3159 18.3613C14.2114 18.3676 13.1058 18.3655 12.0013 18.3655C11.4147 18.3655 10.8292 18.3613 10.2426 18.3634C9.92931 18.3645 9.61282 18.394 9.34275 18.1841C9.33536 18.1725 9.32482 18.1661 9.3111 18.1661C9.07795 17.8961 8.91971 17.6218 8.92287 17.2262C8.94081 14.4326 8.92498 11.6402 8.93026 8.84661C8.93237 7.73573 8.89334 6.62486 8.96718 5.51504C8.99883 5.04664 9.44719 4.63415 9.91559 4.63309C11.0571 4.63098 12.1985 4.63309 13.3411 4.63098C14.069 4.62887 14.7969 4.62149 15.5248 4.61621H15.5238ZM12.0909 17.0901C12.0308 17.3602 12.1574 17.5933 12.4127 17.6861C12.8463 17.8138 13.1818 17.5258 13.109 17.089C12.975 16.7092 12.7313 16.5837 12.4074 16.7282C12.2017 16.762 12.1141 16.8981 12.0909 17.0911V17.0901ZM12.6448 6.11637V6.12059C12.802 6.12059 12.9592 6.12375 13.1153 6.11953C13.2018 6.11742 13.2883 6.09105 13.302 5.99399C13.3178 5.879 13.2145 5.86318 13.1374 5.85368C12.803 5.81465 12.4675 5.81043 12.1342 5.85896C12.0582 5.87056 11.9738 5.88322 11.9738 5.98028C11.9738 6.08894 12.0751 6.10793 12.1521 6.1132C12.3156 6.12375 12.4802 6.11637 12.6448 6.11637Z" fill="url(#paint1_linear_281_67)"/>
<path d="M14.2209 10.3848C14.3781 10.3489 14.434 10.2466 14.4372 10.0904C14.4403 9.93219 14.4097 9.81087 14.2431 9.75496C14.0911 9.70432 14.0563 9.59777 14.1165 9.45324C14.1565 9.35724 14.1924 9.25912 14.2272 9.15996C14.2895 8.98694 14.4002 8.94369 14.5785 8.99222C14.8423 9.06396 15.0839 8.83503 15.0111 8.5734C14.9594 8.38667 15.0174 8.28961 15.1777 8.21893C15.26 8.18306 15.3444 8.14719 15.4193 8.09867C15.5596 8.00688 15.6535 8.05647 15.7369 8.18095C15.9795 8.54386 16.2306 8.53437 16.4405 8.15774C16.4553 8.13242 16.4637 8.10289 16.4754 8.07546C16.6726 8.03959 16.8362 8.13453 17.006 8.21049C17.1685 8.28328 17.2455 8.38562 17.16 8.55968C17.0809 8.72004 17.1621 8.82237 17.2697 8.92892C17.4491 9.1051 17.6369 8.95213 17.8204 8.95846C17.8479 8.98272 17.8742 9.00593 17.9017 9.0302C17.9354 9.11249 17.9713 9.19477 18.004 9.27811C18.1454 9.63997 18.1443 9.64419 17.8257 9.83619C17.678 10.0029 17.6843 10.2729 17.8584 10.3405C18.0852 10.428 18.1274 10.5715 18.0589 10.7793C17.9808 10.9144 17.9312 11.0652 17.8215 11.1823C17.7624 11.176 17.6981 11.1844 17.6453 11.1623C17.4301 11.0716 17.314 11.2087 17.1843 11.3395C17.0535 11.4703 17.1727 11.5716 17.2096 11.6834C17.2149 11.8818 17.0324 11.906 16.9195 11.9946C16.8478 12.0147 16.7739 12.0305 16.7043 12.0579C16.5692 12.1107 16.4827 12.0811 16.4142 11.944C16.2939 11.7056 16.2116 11.6824 15.9236 11.7668C15.8846 11.7678 15.8571 11.7826 15.8329 11.8174C15.6831 12.0235 15.4869 12.0748 15.2442 11.9714C15.2031 11.9546 15.1609 11.9429 15.1187 11.9282C15.0459 11.8607 14.9763 11.79 14.9763 11.6803C15.0427 11.5516 15.0965 11.4292 14.9752 11.2952C14.8518 11.1602 14.7304 11.0621 14.5342 11.1559C14.3781 11.2298 14.2916 11.1222 14.2146 11.0093C14.2104 10.9207 14.166 10.849 14.1186 10.7783C14.0827 10.6285 14.07 10.485 14.222 10.3848H14.2209ZM16.2928 9.30238C16.2053 9.26756 16.1188 9.2317 16.0228 9.27284C15.6504 9.30554 15.4014 9.5197 15.3276 9.86889C15.2083 10.2898 15.3898 10.6548 15.7981 10.8173C16.1061 10.9945 16.3815 10.8922 16.6157 10.6854C16.8551 10.4734 16.948 10.1959 16.8383 9.87522C16.7602 9.6157 16.6463 9.38783 16.3456 9.32875C16.3277 9.32031 16.3108 9.31082 16.2928 9.30238Z" fill="url(#paint2_linear_281_67)"/>
<path d="M4.91084 8.79705C4.91084 8.6789 4.92561 8.55758 4.90873 8.44153C4.87708 8.21471 4.94144 8.08495 5.19357 8.10922C5.49424 8.10922 5.79385 8.10922 6.09451 8.10922C6.39623 8.13348 6.69689 8.13348 6.99861 8.10922C7.29928 8.10922 7.59889 8.10922 7.89955 8.10922C8.21709 8.14403 8.21604 8.14403 8.21815 8.47951C8.21815 8.56813 8.22659 8.65674 8.23186 8.74431C8.21182 8.76646 8.19283 8.78861 8.17279 8.81077C7.78034 8.79705 7.38895 8.78756 6.99756 8.81815C6.69795 8.79178 6.39834 8.79072 6.09873 8.81815C5.70628 8.78228 5.31384 8.80444 4.92034 8.80233L4.9119 8.796L4.91084 8.79705Z" fill="url(#paint3_linear_281_67)"/>
<path d="M7.89744 9.48071C7.9333 9.48915 7.97128 9.50814 8.00504 9.50392C8.1981 9.47755 8.23186 9.58199 8.22131 9.7434C8.21287 9.87738 8.22131 10.0124 8.22342 10.1464L8.2192 10.1559C7.79721 10.1685 7.37523 10.1823 6.95324 10.1949C6.68212 10.1949 6.41099 10.1949 6.13881 10.1949C5.91516 10.183 5.78575 10.0669 5.75059 9.84678C5.74953 9.84045 5.7432 9.83413 5.73898 9.8278C5.73898 9.75606 5.73898 9.68432 5.73898 9.61258C5.7432 9.60942 5.75164 9.6052 5.75164 9.60203C5.75164 9.59148 5.74953 9.58093 5.74848 9.57038C5.8392 9.45223 5.98479 9.5419 6.09029 9.48177C6.39411 9.52291 6.69794 9.52291 7.00177 9.48177C7.30033 9.51869 7.59888 9.51975 7.89744 9.48177V9.48071Z" fill="url(#paint4_linear_281_67)"/>
<path d="M7.85737 10.8533C8.0986 10.8737 8.21922 10.9953 8.21922 11.2183C8.21922 11.4574 8.09825 11.5854 7.85631 11.6023C7.80357 11.5991 7.75187 11.5939 7.69912 11.5939C7.50149 11.5917 7.40268 11.4887 7.40268 11.2848C7.40268 11.021 7.55424 10.8772 7.85737 10.8533Z" fill="url(#paint5_linear_281_67)"/>
<defs>
<linearGradient id="paint0_linear_281_67" x1="11.5086" y1="0" x2="11.5086" y2="23" gradientUnits="userSpaceOnUse">
<stop stop-color="#1D86C4"/>
<stop offset="1" stop-color="#87BC48"/>
</linearGradient>
<linearGradient id="paint1_linear_281_67" x1="12.6366" y1="4.61621" x2="12.6366" y2="18.3659" gradientUnits="userSpaceOnUse">
<stop stop-color="#1D86C4"/>
<stop offset="1" stop-color="#87BC48"/>
</linearGradient>
<linearGradient id="paint2_linear_281_67" x1="16.0913" y1="8.05139" x2="16.0913" y2="12.0825" gradientUnits="userSpaceOnUse">
<stop stop-color="#1D86C4"/>
<stop offset="1" stop-color="#87BC48"/>
</linearGradient>
<linearGradient id="paint3_linear_281_67" x1="6.56657" y1="8.10632" x2="6.56657" y2="8.81815" gradientUnits="userSpaceOnUse">
<stop stop-color="#1D86C4"/>
<stop offset="1" stop-color="#87BC48"/>
</linearGradient>
<linearGradient id="paint4_linear_281_67" x1="6.9812" y1="9.48071" x2="6.9812" y2="10.1949" gradientUnits="userSpaceOnUse">
<stop stop-color="#1D86C4"/>
<stop offset="1" stop-color="#87BC48"/>
</linearGradient>
<linearGradient id="paint5_linear_281_67" x1="7.81095" y1="10.8533" x2="7.81095" y2="11.6023" gradientUnits="userSpaceOnUse">
<stop stop-color="#1D86C4"/>
<stop offset="1" stop-color="#87BC48"/>
</linearGradient>
</defs>
</svg>
