<svg width="20" height="23" viewBox="0 0 20 23" fill="none" xmlns="http://www.w3.org/2000/svg">
<path d="M0.0165325 14.1677C0.0145096 13.1421 -0.0208927 12.1164 0.018555 11.0928C0.0812666 9.46637 1.35674 8.07761 3.0894 8.12515C3.75597 8.14335 4.42455 8.08772 5.09011 8.16257C5.20339 8.17572 5.26307 8.11503 5.32882 8.04018C5.84265 7.45454 6.46976 7.03477 7.20511 6.77887C7.46303 6.68885 7.5571 6.72425 7.68961 6.96802C8.08509 7.6983 8.47755 8.43061 8.87101 9.16191C8.90844 9.23069 8.94889 9.29745 9.02172 9.42287C9.12691 9.01929 9.22402 8.67236 9.30392 8.32238C9.33427 8.19089 9.24121 8.08165 9.16737 7.97747C8.95496 7.6801 8.74356 7.38272 8.53115 7.08636C8.44518 6.967 8.36628 6.84765 8.45327 6.69391C8.53217 6.55634 8.66164 6.54016 8.80223 6.54016C9.58916 6.54218 10.3761 6.54218 11.163 6.54016C11.3056 6.54016 11.4331 6.56039 11.51 6.69896C11.5899 6.84259 11.5221 6.9579 11.4412 7.07119C11.2197 7.38171 11.0012 7.69426 10.7756 8.00175C10.6634 8.15448 10.63 8.30822 10.6886 8.49333C10.7787 8.77957 10.8535 9.07088 10.9375 9.37028C11.0487 9.29543 11.076 9.19125 11.1236 9.10325C11.5019 8.40533 11.8761 7.70437 12.2534 7.00544C12.4112 6.71312 12.4921 6.68177 12.8087 6.79809C13.3873 7.01151 13.9112 7.31192 14.337 7.7681C14.4503 7.88947 14.5798 7.99467 14.6961 8.112C14.7791 8.19595 14.8731 8.15752 14.9652 8.15145C15.7116 8.10492 16.4611 8.08975 17.2046 8.14538C18.5923 8.24956 19.6969 9.32982 19.9083 10.7166C19.9872 11.2314 19.9447 11.7483 19.9507 12.2631C19.9578 12.8356 19.9487 13.4071 19.9467 13.9796H19.3924C19.3904 13.575 19.3813 13.1694 19.3884 12.7648C19.3914 12.5746 19.3752 12.4755 19.1497 12.5827C19.0566 12.6272 18.9312 12.606 18.8199 12.606C17.5181 12.606 16.2154 12.606 14.9136 12.606C14.4989 12.606 14.5697 12.5888 14.5596 12.9438C14.5525 13.1815 14.5363 13.4182 14.4766 13.6498C14.2895 13.6498 14.1034 13.6478 13.9163 13.6458C13.9405 13.402 13.9759 13.1583 13.9871 12.9135C14.0012 12.607 13.9931 12.606 13.6786 12.606H6.62452C6.18857 12.606 5.97515 12.8265 5.98425 13.2665C5.80219 13.2665 5.62113 13.2635 5.43907 13.2624C5.42895 13.1603 5.41277 13.0581 5.40872 12.956C5.39456 12.5848 5.47244 12.607 5.04054 12.607C3.74585 12.607 2.45116 12.607 1.15748 12.605C1.03104 12.605 0.89753 12.6111 0.780198 12.5746C0.605213 12.52 0.578914 12.5868 0.579925 12.7395C0.583971 13.1846 0.577903 13.6286 0.57588 14.0737C0.400894 14.1667 0.212759 14.1819 0.0195668 14.1687L0.0165325 14.1667V14.1677ZM8.3946 12.0365C8.76784 12.0365 9.14108 12.0365 9.51532 12.0365C9.76617 12.0365 9.76718 12.0325 9.64682 11.8079C8.88618 10.3959 8.12252 8.98592 7.36795 7.57086C7.28097 7.407 7.20308 7.37766 7.03821 7.45656C6.21184 7.85104 5.59686 8.45287 5.18417 9.27115C4.76138 10.1107 4.80082 11.0099 4.81296 11.9081C4.81498 12.0558 4.92726 12.0355 5.0193 12.0355C5.44008 12.0375 5.86186 12.0295 6.28264 12.0396C6.45965 12.0436 6.49707 11.9678 6.49201 11.812C6.48392 11.5025 6.48696 11.1919 6.48999 10.8824C6.49303 10.6458 6.5962 10.5122 6.77523 10.5254C6.99877 10.5416 7.05945 10.6963 7.05945 10.8926C7.05945 11.2102 7.06451 11.5288 7.05743 11.8464C7.0544 11.991 7.10699 12.0426 7.25062 12.0396C7.63195 12.0325 8.01328 12.0375 8.3946 12.0375V12.0365ZM11.5373 12.0365H12.5862C12.7976 12.0365 12.9028 11.9273 12.9028 11.7088C12.9028 11.4903 12.8987 11.1525 12.9028 10.8743C12.9078 10.6458 13.0262 10.5082 13.2032 10.5254C13.4125 10.5456 13.4742 10.6862 13.4732 10.8774C13.4702 11.2031 13.4763 11.5288 13.4712 11.8545C13.4692 11.9849 13.5147 12.0406 13.6502 12.0386C14.0872 12.0335 14.5242 12.0325 14.9611 12.0386C15.1068 12.0406 15.1573 11.9839 15.1543 11.8423C15.1432 11.4054 15.1766 10.9644 15.125 10.5325C14.954 9.09313 14.1944 8.06547 12.8846 7.4424C12.7612 7.38373 12.6893 7.39284 12.6195 7.52332C11.8437 8.97175 11.0639 10.4192 10.281 11.8646C10.2021 12.0092 10.2497 12.0386 10.3923 12.0375C10.7736 12.0335 11.1549 12.0355 11.5363 12.0375L11.5373 12.0365ZM17.4119 12.0355C17.9045 12.0355 18.3981 12.0396 18.8907 12.0355C19.1992 12.0325 19.3742 11.8524 19.3813 11.545C19.3863 11.283 19.3813 11.022 19.3358 10.7611C19.1426 9.66158 18.2808 8.80688 17.2066 8.72293C16.5744 8.67337 15.9352 8.70574 15.3 8.69967C15.1402 8.69764 15.1563 8.76845 15.214 8.87668C15.4365 9.2934 15.5973 9.73239 15.6611 10.2017C15.7218 10.6488 15.7319 11.0999 15.7258 11.551C15.7187 12.0365 15.7238 12.0365 16.2204 12.0365H17.4129L17.4119 12.0355ZM2.53815 12.0365H3.75293C4.23844 12.0365 4.25058 12.0365 4.23642 11.5419C4.21012 10.6023 4.28497 9.68586 4.76441 8.84532C4.85747 8.68247 4.71991 8.70068 4.62988 8.70068C4.0584 8.70068 3.4859 8.68753 2.91442 8.70472C2.1639 8.72698 1.56005 9.0547 1.10994 9.65551C0.734682 10.1562 0.574868 10.7267 0.578914 11.3508C0.58296 11.9293 0.683096 12.0365 1.25155 12.0375H2.53815V12.0365ZM9.2928 7.12378C9.33123 7.20875 9.34944 7.26135 9.37877 7.30686C9.40811 7.35238 9.44654 7.39284 9.48296 7.4333C9.88249 7.87329 9.97656 8.35779 9.75606 8.9232C9.62456 9.26104 9.56286 9.62618 9.45767 9.97514C9.41519 10.1157 9.43036 10.2391 9.49712 10.3605C9.62355 10.5881 9.75909 10.8116 9.88148 11.0422C9.95228 11.1748 10.0008 11.195 10.0767 11.0473C10.2143 10.7803 10.3579 10.5153 10.5045 10.2533C10.5521 10.1683 10.542 10.0915 10.5167 10.0035C10.3872 9.55437 10.2679 9.10122 10.1343 8.65314C10.0302 8.30114 10.0818 7.98455 10.2911 7.68212C10.4145 7.5041 10.5693 7.34429 10.6664 7.11367H9.52645C9.45666 7.11367 9.38788 7.11974 9.29179 7.12378H9.2928Z" fill="url(#paint0_linear_281_18)"/>
<path d="M0.0165453 14.1678C0.209738 14.1809 0.397873 14.1678 0.572858 14.0727C0.621409 14.4176 0.721546 14.5087 1.06848 14.5107C1.5459 14.5127 2.02231 14.5076 2.49972 14.5127C2.99434 14.5178 3.30486 14.7372 3.47378 15.2035C3.57998 15.4948 3.6963 15.7811 3.82779 16.0623C4.05639 16.5478 3.99772 16.8968 3.62246 17.2761C3.28767 17.6159 2.9468 17.9497 2.612 18.2885C2.3834 18.5202 2.38138 18.7498 2.60694 18.9733C3.08132 19.4426 3.55773 19.9089 4.03414 20.3762C4.30319 20.6402 4.46907 20.6402 4.74217 20.3692C5.09214 20.0222 5.43604 19.6682 5.79006 19.3263C6.07934 19.0472 6.42426 18.9592 6.79952 19.119C7.17275 19.2778 7.54599 19.4335 7.92226 19.5832C8.25402 19.7147 8.41788 19.9828 8.45632 20.3338C8.516 20.8789 8.48262 21.4272 8.49273 21.9734C8.4988 22.293 8.62625 22.4245 8.94183 22.4255C9.63368 22.4285 10.3245 22.4285 11.0164 22.4255C11.3309 22.4235 11.4604 22.291 11.4634 21.9703C11.4675 21.4777 11.4594 20.9851 11.4665 20.4915C11.4736 19.9949 11.6779 19.7056 12.1421 19.5377C12.4415 19.4295 12.7349 19.3081 13.0221 19.1736C13.5036 18.948 13.8505 19.0097 14.2339 19.388C14.5677 19.7178 14.8954 20.0526 15.2292 20.3823C15.4871 20.6372 15.6601 20.6352 15.921 20.3762C16.3893 19.911 16.8546 19.4447 17.3199 18.9764C17.597 18.6982 17.594 18.5353 17.3118 18.2511C16.976 17.9133 16.6341 17.5795 16.3013 17.2386C15.9756 16.9038 15.9079 16.5448 16.1011 16.125C16.2447 15.8145 16.3691 15.4979 16.4925 15.1803C16.6685 14.7251 16.972 14.5167 17.4575 14.5117C17.9106 14.5076 18.3637 14.5117 18.8169 14.5117C19.267 14.5117 19.354 14.4298 19.3874 13.9786H19.9417C19.9811 14.6685 19.5967 15.0822 18.912 15.0852C18.4426 15.0872 17.9733 15.0913 17.505 15.0832C17.245 15.0791 17.0862 15.1843 17.0084 15.4342C16.9113 15.7457 16.7798 16.0441 16.6331 16.3354C16.533 16.5336 16.5795 16.6894 16.7201 16.8553C17.0407 17.2316 17.4271 17.539 17.767 17.8941C18.207 18.3553 18.21 18.8934 17.7579 19.3486C17.2703 19.8391 16.7818 20.3297 16.2902 20.8162C15.8462 21.2552 15.3 21.2542 14.8549 20.8162C14.5151 20.4814 14.1742 20.1466 13.8435 19.8037C13.6644 19.6186 13.4854 19.5792 13.2467 19.6955C12.9544 19.8381 12.6509 19.9595 12.3455 20.0708C12.127 20.1497 12.0319 20.2842 12.0349 20.5148C12.042 21.0074 12.039 21.501 12.0349 21.9936C12.0299 22.6045 11.6435 22.9939 11.0356 22.997C10.3276 23.001 9.62053 23.001 8.91249 22.997C8.31775 22.9929 7.92934 22.6025 7.92327 22.0077C7.91821 21.5233 7.9172 21.0377 7.92327 20.5522C7.9263 20.2953 7.82212 20.1315 7.5733 20.0536C7.26176 19.9555 6.96237 19.827 6.67106 19.6793C6.47281 19.5792 6.30693 19.6126 6.15318 19.7673C5.81737 20.1062 5.47954 20.443 5.14069 20.7788C4.65114 21.2643 4.12112 21.2663 3.63764 20.7849C3.1582 20.3085 2.67977 19.831 2.20336 19.3516C1.74314 18.8894 1.74617 18.3492 2.2064 17.8819C2.54119 17.5421 2.86992 17.1961 3.21282 16.8644C3.38679 16.6965 3.42927 16.5296 3.31498 16.3121C3.16325 16.0228 3.04086 15.7204 2.93972 15.4109C2.86487 15.1813 2.71315 15.0832 2.47444 15.0852C1.95757 15.0892 1.44071 15.0943 0.923841 15.0811C0.406975 15.069 0.035763 14.6846 0.0155334 14.1668V14.1688L0.0165453 14.1678Z" fill="url(#paint1_linear_281_18)"/>
<path d="M12.8633 2.97274C12.837 3.965 12.5781 4.86723 11.8266 5.55504C10.4752 6.78904 8.28335 6.33792 7.47922 4.66595C7.06047 3.79406 6.98664 2.87867 7.23344 1.94811C7.53789 0.801094 8.48666 0.069795 9.7156 0.00708339C10.455 -0.0313528 11.158 0.0788984 11.774 0.529006C12.6054 1.1369 12.8421 2.00779 12.8633 2.97274ZM12.2676 2.96464C12.2676 2.86147 12.2696 2.7583 12.2676 2.65513C12.2403 1.64163 11.599 0.855713 10.6239 0.644315C10.3356 0.581603 10.0413 0.562385 9.74696 0.58666C9.00251 0.64836 8.37135 0.926517 7.99002 1.60218C7.43978 2.57624 7.6269 4.14504 8.37236 4.98052C9.2392 5.95154 10.893 5.89287 11.685 4.86015C12.1118 4.30182 12.2837 3.66155 12.2686 2.96566H12.2676V2.96464Z" fill="url(#paint2_linear_281_18)"/>
<path d="M14.0649 5.50351C14.0649 4.25534 14.5818 3.51393 15.5225 3.27926C16.1193 3.12957 16.7069 3.16901 17.2541 3.47751C17.682 3.71926 17.9662 4.07934 18.0987 4.55474C18.301 5.283 18.2484 5.99104 17.8853 6.65659C17.51 7.34338 16.9112 7.68729 16.1294 7.68324C15.3566 7.68021 14.773 7.33428 14.3927 6.66165C14.16 6.252 14.0649 5.80391 14.067 5.50351H14.0649ZM14.6455 5.3356C14.6405 5.72502 14.7224 6.0932 14.9237 6.43002C15.4739 7.3535 16.8121 7.35451 17.3533 6.42699C17.6698 5.88281 17.7083 5.29716 17.5404 4.69938C17.419 4.26748 17.1206 3.99539 16.6998 3.86188C16.3347 3.74657 15.9625 3.74758 15.5963 3.85581C14.9662 4.04192 14.6455 4.54665 14.6465 5.33661L14.6455 5.3356Z" fill="url(#paint3_linear_281_18)"/>
<path d="M5.89322 5.43875C5.89322 5.82614 5.79511 6.26411 5.56651 6.66668C5.18923 7.33021 4.61269 7.67411 3.85004 7.68322C3.07828 7.69232 2.47645 7.36662 2.09714 6.69197C1.67637 5.94246 1.62883 5.14744 1.93632 4.34736C2.24583 3.54324 3.1511 3.08706 4.11707 3.21754C5.2661 3.3723 5.90839 4.1481 5.89423 5.43976L5.89322 5.43875ZM5.31567 5.38311C5.31567 4.11169 4.28699 3.42793 3.15212 3.90029C2.78293 4.05403 2.52095 4.31398 2.41475 4.70947C2.27011 5.24859 2.29438 5.7786 2.5341 6.28839C2.78798 6.82852 3.21685 7.10768 3.81666 7.11072C4.41646 7.11375 4.84533 6.83661 5.10933 6.30154C5.26004 5.99708 5.32174 5.6724 5.31668 5.38311H5.31567Z" fill="url(#paint4_linear_281_18)"/>
<path d="M5.98223 13.2665C6.0318 13.4991 6.06821 13.7348 6.13395 13.9634C6.96134 16.8613 10.5885 17.8364 12.7571 15.7426C13.3559 15.165 13.7332 14.458 13.9142 13.6468C14.1014 13.6468 14.2875 13.6488 14.4746 13.6509C14.3431 14.5986 13.9051 15.3957 13.2446 16.0693C11.4169 17.9345 8.41787 17.9011 6.6225 15.9773C5.9175 15.2217 5.49167 14.3164 5.43604 13.2625C5.6181 13.2625 5.79916 13.2655 5.98122 13.2665H5.98223Z" fill="url(#paint5_linear_281_18)"/>
<defs>
<linearGradient id="paint0_linear_281_18" x1="9.9784" y1="6.54016" x2="9.9784" y2="14.1728" gradientUnits="userSpaceOnUse">
<stop stop-color="#1D86C4"/>
<stop offset="1" stop-color="#87BC48"/>
</linearGradient>
<linearGradient id="paint1_linear_281_18" x1="9.97998" y1="13.9786" x2="9.97998" y2="23" gradientUnits="userSpaceOnUse">
<stop stop-color="#1D86C4"/>
<stop offset="1" stop-color="#87BC48"/>
</linearGradient>
<linearGradient id="paint2_linear_281_18" x1="9.97782" y1="0" x2="9.97782" y2="6.25749" gradientUnits="userSpaceOnUse">
<stop stop-color="#1D86C4"/>
<stop offset="1" stop-color="#87BC48"/>
</linearGradient>
<linearGradient id="paint3_linear_281_18" x1="16.1404" y1="3.19482" x2="16.1404" y2="7.68328" gradientUnits="userSpaceOnUse">
<stop stop-color="#1D86C4"/>
<stop offset="1" stop-color="#87BC48"/>
</linearGradient>
<linearGradient id="paint4_linear_281_18" x1="3.81625" y1="3.19543" x2="3.81625" y2="7.6834" gradientUnits="userSpaceOnUse">
<stop stop-color="#1D86C4"/>
<stop offset="1" stop-color="#87BC48"/>
</linearGradient>
<linearGradient id="paint5_linear_281_18" x1="9.95532" y1="13.2625" x2="9.95532" y2="17.4445" gradientUnits="userSpaceOnUse">
<stop stop-color="#1D86C4"/>
<stop offset="1" stop-color="#87BC48"/>
</linearGradient>
</defs>
</svg>
