<svg width="23" height="23" viewBox="0 0 23 23" fill="none" xmlns="http://www.w3.org/2000/svg">
<path d="M22.9964 11.5068C22.9964 12.0258 22.9895 12.5448 22.9998 13.0638C23.0044 13.2748 22.9279 13.3683 22.7181 13.4071C22.0679 13.5257 21.4212 13.6672 20.771 13.7869C20.6079 13.8166 20.5383 13.8884 20.495 14.047C20.2999 14.7679 20.0113 15.4511 19.6384 16.0979C19.5756 16.2074 19.5745 16.2815 19.6463 16.3876C20.0307 16.9511 20.4014 17.5237 20.7858 18.0871C20.8976 18.2514 20.8965 18.3654 20.7482 18.5114C20.0034 19.2437 19.2688 19.9863 18.5297 20.7231C18.3243 20.9273 18.3027 20.9376 18.0643 20.7608C17.5248 20.3604 16.9328 20.0388 16.3887 19.6464C16.286 19.5722 16.2119 19.5722 16.1001 19.6373C15.4522 20.008 14.7701 20.3011 14.0481 20.4916C13.8713 20.5384 13.8154 20.6262 13.7846 20.7893C13.6626 21.4395 13.5223 22.0862 13.4014 22.7364C13.366 22.9291 13.2793 22.9987 13.0865 22.9976C12.0212 22.9919 10.9558 22.993 9.89047 22.9976C9.71938 22.9976 9.63155 22.9383 9.59847 22.7603C9.47186 22.0828 9.32814 21.4087 9.19811 20.7334C9.17529 20.6148 9.13651 20.5441 9.00762 20.5098C8.25822 20.3136 7.54989 20.0137 6.87919 19.6281C6.77083 19.5654 6.70125 19.5802 6.60772 19.6452C6.1104 19.9909 5.59826 20.3159 5.07927 20.6296C5.06786 20.6364 5.05532 20.6422 5.04391 20.6501C4.79145 20.8326 4.55572 20.8148 4.33671 20.5965C3.63636 19.8973 2.94057 19.1935 2.23566 18.4989C2.10221 18.3677 2.0908 18.2616 2.1946 18.1099C2.58584 17.5339 2.96453 16.9511 3.35577 16.375C3.4185 16.2815 3.42535 16.2176 3.36945 16.1207C2.98278 15.458 2.69078 14.7542 2.49116 14.0139C2.45238 13.8702 2.38166 13.82 2.24821 13.7938C1.57866 13.6637 0.912523 13.5212 0.241829 13.3968C0.0650305 13.3638 -0.00112616 13.2862 1.44734e-05 13.1117C0.00457702 12.0395 0.00457702 10.9673 1.44734e-05 9.89508C1.44734e-05 9.71143 0.0661714 9.62931 0.250955 9.59509C0.921649 9.47076 1.58778 9.32932 2.25733 9.19815C2.38166 9.17419 2.45124 9.13085 2.48774 8.99169C2.68051 8.25598 2.97479 7.55905 3.35349 6.89976C3.42421 6.77771 3.4128 6.70129 3.33866 6.59179C2.95883 6.03402 2.5904 5.46712 2.20829 4.91049C2.0965 4.74738 2.09422 4.63218 2.24251 4.48618C2.99647 3.74362 3.74358 2.99422 4.48728 2.24254C4.62073 2.10795 4.73252 2.0897 4.89449 2.20148C5.46252 2.59158 6.04082 2.96571 6.61 3.35352C6.7081 3.42082 6.77768 3.42538 6.88147 3.36493C7.55103 2.97711 8.26164 2.68283 9.0099 2.48322C9.12967 2.45128 9.16959 2.38855 9.19126 2.2779C9.32472 1.59466 9.4673 0.913703 9.59733 0.230462C9.62927 0.063929 9.70911 0.00119395 9.87451 0.00233458C10.9535 0.00689713 12.0326 0.00917854 13.1116 0.004616C13.2919 0.004616 13.3637 0.074195 13.3956 0.246431C13.5223 0.917125 13.6648 1.58326 13.7914 2.25395C13.8177 2.39425 13.8793 2.45584 14.0162 2.49348C14.7302 2.68511 15.4112 2.96685 16.0511 3.33527C16.2062 3.42424 16.3077 3.40713 16.4469 3.31018C16.9852 2.93833 17.5384 2.58588 18.0768 2.21289C18.2502 2.09312 18.3665 2.10339 18.516 2.25509C19.2528 3.00449 19.9965 3.74704 20.7459 4.48504C20.8919 4.62876 20.8965 4.7451 20.7836 4.90935C20.4128 5.44887 20.057 5.99866 19.6863 6.53818C19.5882 6.68076 19.5642 6.78684 19.6612 6.95223C20.0319 7.58415 20.3068 8.26054 20.4973 8.96774C20.5372 9.11488 20.601 9.17647 20.7505 9.20499C21.42 9.3316 22.0873 9.47532 22.7569 9.60079C22.9359 9.63387 22.9964 9.72056 22.9952 9.89165C22.9907 10.4312 22.993 10.9707 22.993 11.5102L22.9964 11.5068ZM18.7475 11.5114C18.7738 7.75296 15.7807 4.13714 11.2889 4.24892C7.12101 4.35158 4.2409 7.7541 4.24546 11.5273C4.25003 15.4865 7.5054 18.743 11.4748 18.7476C15.4887 18.7521 18.7452 15.5116 18.7464 11.5114H18.7475Z" fill="url(#paint0_linear_281_59)"/>
<path d="M5.64502 11.4919C5.64959 8.27191 8.27077 5.64274 11.4771 5.6416C14.7416 5.6416 17.3571 8.26278 17.3514 11.5307C17.3457 14.7541 14.704 17.3582 11.4486 17.3491C8.25594 17.34 5.6416 14.7005 5.64502 11.4919ZM15.4716 11.6733C15.1306 11.6733 14.7895 11.6813 14.4496 11.6699C14.2956 11.6642 14.2534 11.7132 14.2511 11.8638C14.2431 12.5482 14.1462 13.2211 13.9774 13.8838C13.9477 14.0025 13.958 14.0481 14.0857 14.0823C14.5671 14.2112 15.0313 14.388 15.4625 14.6412C15.5492 14.6926 15.5857 14.6697 15.6393 14.5967C16.2507 13.7778 16.5837 12.8561 16.6636 11.8398C16.675 11.6972 16.6248 11.6687 16.4948 11.6721C16.1537 11.6801 15.8127 11.6744 15.4727 11.6744L15.4716 11.6733ZM7.53962 11.6744C7.18488 11.6733 6.83014 11.6778 6.47655 11.6699C6.35792 11.6676 6.318 11.7052 6.33511 11.8204C6.36591 12.0292 6.37959 12.2402 6.41723 12.4478C6.55753 13.2246 6.86893 13.9295 7.33773 14.5637C7.38107 14.623 7.40502 14.7131 7.52251 14.6458C7.96622 14.3869 8.443 14.2066 8.9369 14.0732C9.02815 14.0481 9.05667 14.0082 9.03157 13.9146C8.84679 13.2268 8.75668 12.5253 8.74527 11.8147C8.74299 11.6938 8.69166 11.671 8.5833 11.6733C8.23541 11.679 7.88751 11.6756 7.54076 11.6756L7.53962 11.6744ZM15.4499 11.322C15.7978 11.322 16.1457 11.3163 16.4936 11.3243C16.6248 11.3277 16.6738 11.2969 16.6624 11.1554C16.5849 10.1369 16.2495 9.21636 15.6393 8.39624C15.5857 8.32324 15.5503 8.30042 15.4625 8.35175C15.0245 8.60726 14.5534 8.7852 14.0652 8.91637C13.9808 8.93918 13.9397 8.96428 13.9671 9.06921C14.1439 9.75816 14.2466 10.4596 14.2523 11.1714C14.2523 11.3049 14.3116 11.3254 14.4279 11.3231C14.769 11.3163 15.11 11.3208 15.4511 11.3208L15.4499 11.322ZM7.5305 11.322C7.87839 11.322 8.22628 11.3174 8.57418 11.3254C8.70991 11.3288 8.74527 11.2809 8.74641 11.1509C8.75326 10.4597 8.84907 9.77755 9.02245 9.10914C9.05439 8.98823 9.03043 8.94374 8.90952 8.91067C8.43502 8.78291 7.97648 8.60726 7.54875 8.36202C7.45864 8.31069 7.41415 8.31753 7.35256 8.39966C6.74688 9.2232 6.40925 10.1437 6.33283 11.1634C6.3237 11.2878 6.35336 11.3288 6.48567 11.3254C6.83357 11.3151 7.18146 11.322 7.52935 11.322H7.5305ZM12.4056 16.5655C12.4512 16.5712 12.4649 16.5769 12.4774 16.5746C13.5599 16.3636 14.4793 15.8526 15.2469 15.0621C15.3245 14.9823 15.3096 14.9492 15.2195 14.9036C14.8728 14.7291 14.5158 14.5773 14.1428 14.4644C13.8622 14.38 13.8622 14.3777 13.7367 14.6367C13.7344 14.6424 13.7162 14.6401 13.6911 14.6424C13.7413 14.3709 13.4744 14.3275 13.3489 14.2888C12.9075 14.1507 12.4387 14.1314 11.9756 14.1063C11.7828 14.096 11.6288 14.0743 11.6619 14.3595C11.6756 14.4713 11.6459 14.6002 11.6448 14.7222C11.6413 15.2458 11.6482 15.7693 11.6676 16.2917C11.6733 16.4594 11.7144 16.4913 11.8649 16.4343C12.2596 16.2872 12.5561 16.018 12.8025 15.6872C12.8265 15.6552 12.8493 15.5948 12.8835 15.6142C12.9679 15.6632 12.9668 15.7921 13.0786 15.8343C13.1093 15.8457 13.058 15.9279 13.0284 15.9666C12.8573 16.1879 12.6645 16.3875 12.4056 16.5655ZM9.84028 15.7898C10.1437 15.9142 10.065 15.7009 10.1083 15.556C10.2452 15.8013 10.4231 15.9644 10.6011 16.1252C10.7653 16.2735 10.9547 16.3796 11.1657 16.4457C11.2627 16.4765 11.3254 16.4845 11.3277 16.3385C11.3368 15.645 11.3733 14.9515 11.3254 14.258C11.3185 14.1587 11.3174 14.0971 11.184 14.0983C10.6729 14.104 10.1676 14.1485 9.66691 14.258C9.51862 14.2899 9.51977 14.3595 9.53916 14.4633C9.56425 14.6002 9.66234 14.7028 9.71139 14.8294C9.78097 15.0039 9.61216 15.0119 9.53117 15.0701C9.42053 15.1499 9.39315 15.0199 9.38859 14.9709C9.37148 14.7952 9.23347 14.672 9.20495 14.5055C9.18556 14.3926 9.11826 14.3834 9.02701 14.4108C8.60269 14.5397 8.18864 14.6926 7.79398 14.8967C7.67536 14.9572 7.69018 15.0005 7.77117 15.0838C8.14986 15.4727 8.57646 15.7967 9.05325 16.0545C9.52775 16.31 10.0296 16.4879 10.6228 16.5929C10.3034 16.3613 10.0696 16.1309 9.84142 15.791L9.84028 15.7898ZM12.774 11.322C13.1014 11.322 13.4287 11.322 13.7561 11.322C13.8416 11.322 13.9158 11.3288 13.9101 11.1999C13.877 10.5041 13.7983 9.81519 13.6215 9.13879C13.601 9.05781 13.5667 9.03842 13.4766 9.05667C12.928 9.17073 12.3736 9.23689 11.8136 9.24259C11.7075 9.24259 11.6721 9.27681 11.6733 9.38289C11.6778 9.98286 11.679 10.5828 11.6733 11.1828C11.6721 11.3117 11.7292 11.3243 11.8341 11.3231C12.1478 11.3185 12.4615 11.3208 12.7751 11.322H12.774ZM11.6744 12.701C11.6744 12.9941 11.679 13.2884 11.6721 13.5816C11.6699 13.7002 11.6972 13.7481 11.8307 13.7492C12.3782 13.7538 12.92 13.8222 13.4561 13.9283C13.5565 13.9477 13.601 13.942 13.6283 13.8337C13.7972 13.1687 13.877 12.4934 13.9078 11.809C13.9124 11.6995 13.8759 11.6687 13.7698 11.6687C13.1208 11.6721 12.4729 11.6744 11.8239 11.6687C11.7064 11.6687 11.6699 11.7052 11.671 11.8193C11.6767 12.1124 11.6733 12.4067 11.6733 12.6999L11.6744 12.701ZM10.2019 11.6733C9.88135 11.6733 9.55969 11.6733 9.23917 11.6733C9.16731 11.6733 9.08404 11.6539 9.08975 11.7782C9.11826 12.482 9.19925 13.1789 9.37947 13.8622C9.39886 13.9363 9.43878 13.9523 9.51406 13.9363C10.0696 13.82 10.6319 13.7549 11.1999 13.7481C11.2992 13.747 11.3265 13.7093 11.3265 13.6147C11.3231 13.0135 11.3231 12.4124 11.3265 11.8124C11.3265 11.7041 11.2912 11.671 11.1862 11.6721C10.8589 11.6767 10.5304 11.6744 10.203 11.6733H10.2019ZM10.2053 11.322C10.5327 11.3208 10.86 11.3174 11.1862 11.322C11.2912 11.3231 11.3265 11.2912 11.3254 11.1817C11.3208 10.5885 11.3197 9.99541 11.3254 9.40342C11.3265 9.27681 11.2855 9.24259 11.1623 9.24145C10.6228 9.23803 10.0878 9.17529 9.56083 9.06579C9.41483 9.03614 9.39087 9.08404 9.36122 9.20039C9.20039 9.83686 9.12396 10.4847 9.09089 11.1395C9.08404 11.2775 9.11484 11.3311 9.2654 11.3254C9.57794 11.314 9.89275 11.322 10.2053 11.322ZM11.6744 7.69589C11.6744 8.05063 11.6756 8.40536 11.6744 8.7601C11.6744 8.84793 11.6847 8.9004 11.7953 8.89584C12.32 8.87188 12.8424 8.82398 13.3591 8.7236C13.4869 8.69851 13.4766 8.64946 13.4436 8.56049C13.2702 8.09169 13.0626 7.64114 12.7523 7.2442C12.5094 6.9328 12.2242 6.67502 11.8387 6.54841C11.7201 6.50963 11.6676 6.52902 11.6721 6.6716C11.6813 7.01265 11.6756 7.3537 11.6756 7.69475L11.6744 7.69589ZM11.3231 7.71072C11.3231 7.36967 11.3163 7.02976 11.3265 6.6887C11.3311 6.52331 11.2729 6.50506 11.136 6.55525C10.9353 6.62939 10.7539 6.73205 10.5931 6.87349C10.065 7.34001 9.78211 7.95481 9.5403 8.59585C9.50151 8.69965 9.55855 8.70193 9.63269 8.7179C10.1471 8.82854 10.6695 8.86618 11.1931 8.89698C11.3128 8.90382 11.3265 8.84907 11.3254 8.75212C11.322 8.40422 11.3243 8.05747 11.3243 7.70957L11.3231 7.71072ZM12.4136 6.40811C12.5664 6.54841 12.7078 6.66361 12.8333 6.79593C13.2896 7.27385 13.5679 7.85558 13.7846 8.47038C13.8211 8.57418 13.8565 8.61524 13.9705 8.58216C14.396 8.45555 14.8089 8.30156 15.2047 8.09739C15.3176 8.03922 15.3176 8.00044 15.2321 7.91261C14.7827 7.45749 14.2751 7.08565 13.6945 6.81303C13.2918 6.62483 12.8755 6.49023 12.4158 6.40811H12.4136ZM10.6216 6.3967C9.45589 6.62255 8.516 7.13241 7.73923 7.94569C7.65482 8.03466 7.71756 8.05405 7.77915 8.08598C8.17838 8.29814 8.59927 8.45213 9.03157 8.58102C9.12739 8.60954 9.16845 8.59243 9.20609 8.48863C9.49125 7.69132 9.86652 6.94991 10.6216 6.3967Z" fill="url(#paint1_linear_281_59)"/>
<path d="M13.3934 14.6173C13.3934 14.9047 13.3991 15.1397 13.3899 15.3747C13.3865 15.4523 13.358 15.564 13.2645 15.5572C13.1618 15.5503 13.2086 15.4397 13.1994 15.3713C13.1652 15.1135 13.2348 14.8819 13.3934 14.6173Z" fill="url(#paint2_linear_281_59)"/>
<path d="M9.76386 15.1774C9.81177 15.2276 9.7958 15.2903 9.79352 15.3473C9.79009 15.4169 9.82431 15.5002 9.75017 15.5515C9.70455 15.5834 9.68059 15.5378 9.65664 15.5059C9.5939 15.4226 9.58136 15.3359 9.65322 15.2515C9.68173 15.2173 9.71025 15.1796 9.76386 15.1774Z" fill="url(#paint3_linear_281_59)"/>
<defs>
<linearGradient id="paint0_linear_281_59" x1="11.5" y1="0.00231934" x2="11.5" y2="22.9976" gradientUnits="userSpaceOnUse">
<stop stop-color="#1D86C4"/>
<stop offset="1" stop-color="#87BC48"/>
</linearGradient>
<linearGradient id="paint1_linear_281_59" x1="11.4982" y1="5.6416" x2="11.4982" y2="17.3491" gradientUnits="userSpaceOnUse">
<stop stop-color="#1D86C4"/>
<stop offset="1" stop-color="#87BC48"/>
</linearGradient>
<linearGradient id="paint2_linear_281_59" x1="13.293" y1="14.6173" x2="13.293" y2="15.5575" gradientUnits="userSpaceOnUse">
<stop stop-color="#1D86C4"/>
<stop offset="1" stop-color="#87BC48"/>
</linearGradient>
<linearGradient id="paint3_linear_281_59" x1="9.70138" y1="15.1774" x2="9.70138" y2="15.5623" gradientUnits="userSpaceOnUse">
<stop stop-color="#1D86C4"/>
<stop offset="1" stop-color="#87BC48"/>
</linearGradient>
</defs>
</svg>
