<svg width="23" height="23" viewBox="0 0 23 23" fill="none" xmlns="http://www.w3.org/2000/svg">
<path d="M22.9533 10.5939C22.9043 10.7255 22.8684 10.8637 22.8031 10.9878C22.5224 11.5209 22.0643 11.7526 21.4757 11.7113C21.2907 11.6982 21.1765 11.7526 21.0546 11.8832C20.4627 12.5154 19.8567 13.1334 19.2659 13.7677C19.0929 13.9527 18.9036 14.0375 18.6544 14.0234C18.4336 14.0114 18.2116 14.0212 17.9439 14.0212C18.1278 13.7013 18.2247 13.327 18.4651 13.1562C19.1789 12.6503 19.662 11.9267 20.2985 11.3544C20.429 11.2369 20.4421 11.1477 20.3583 10.9801C20.1037 10.472 20.1385 9.96174 20.4791 9.50259C20.8207 9.04344 21.3081 8.90308 21.8533 9.00209C22.4103 9.10437 22.765 9.44819 22.9108 10.0009C22.9195 10.0357 22.9391 10.0673 22.9533 10.101V10.5939ZM22.0306 10.3458C22.0295 10.064 21.8467 9.8834 21.5671 9.88775C21.2973 9.89211 21.1221 10.0684 21.1167 10.3393C21.1123 10.6167 21.2962 10.8071 21.5715 10.8082C21.8511 10.8104 22.0317 10.6276 22.0306 10.3458Z" fill="url(#paint0_linear_294_136)"/>
<path d="M3.21301 4.71848C3.21301 4.39751 3.21737 4.07654 3.21084 3.75557C3.20866 3.63589 3.24892 3.5804 3.36643 3.55864C5.60887 3.13648 7.69464 2.28999 9.70206 1.22589C10.1906 0.966936 10.702 0.761297 11.2667 0.717775C11.8346 0.674254 12.3656 0.810258 12.8715 1.04745C13.607 1.39345 14.3295 1.76664 15.0661 2.11046C16.499 2.7796 18.0038 3.23114 19.5488 3.5532C19.6717 3.57931 19.7435 3.60542 19.7446 3.76101C19.7577 6.84668 19.2006 9.80505 17.7481 12.5545C16.4076 15.094 14.5362 17.1449 12.0424 18.5942C11.357 18.9924 11.5985 18.9805 10.9065 18.5909C9.54756 17.8261 8.38119 16.8207 7.34755 15.6543C5.1693 13.1943 3.93003 10.3088 3.44912 7.08061C3.3327 6.2994 3.27503 5.5084 3.19125 4.72284C3.19887 4.72175 3.20649 4.72066 3.2141 4.71848H3.21301ZM4.17593 5.02313C4.16505 5.02531 4.15417 5.0264 4.1422 5.02857C4.25535 5.88595 4.33369 6.74985 4.48928 7.59961C5.0148 10.4818 6.20403 13.0507 8.18969 15.2278C9.08515 16.2103 10.0818 17.0699 11.2427 17.7314C11.4135 17.8282 11.5408 17.8293 11.7095 17.7303C13.7082 16.5596 15.25 14.9319 16.4479 12.9702C18.0212 10.3948 18.686 7.56152 18.7872 4.5716C18.7948 4.35508 18.7295 4.27783 18.525 4.23104C17.1192 3.90463 15.7581 3.44331 14.4481 2.83727C13.7441 2.51195 13.0478 2.1703 12.3471 1.83954C11.7726 1.56971 11.1959 1.56427 10.6182 1.83301C10.3146 1.97446 10.0024 2.10176 9.70533 2.25517C8.14182 3.0614 6.51847 3.70879 4.81134 4.14291C4.597 4.19731 4.29452 4.20602 4.19878 4.34746C4.09215 4.50741 4.17375 4.79356 4.17375 5.02422L4.17593 5.02313Z" fill="url(#paint1_linear_294_136)"/>
<path d="M18.6251 20.074C18.0277 19.4495 17.4467 18.838 16.857 18.2352C16.8048 18.1819 16.6981 18.1601 16.6165 18.1591C15.9594 18.1536 15.3022 18.1558 14.6439 18.1558C14.5721 18.1558 14.5003 18.1503 14.3882 18.1449C14.7244 17.8359 15.0258 17.5519 15.337 17.2788C15.3838 17.2375 15.4763 17.2364 15.547 17.2353C15.9724 17.232 16.3989 17.2429 16.8244 17.2299C17.067 17.2223 17.2498 17.3017 17.4162 17.4801C18.0299 18.1329 18.6566 18.7738 19.2724 19.4255C19.3704 19.53 19.4596 19.5594 19.6032 19.5409C20.3801 19.4386 21.0307 19.9935 21.1134 20.8139C21.1896 21.5679 20.627 22.2153 19.836 22.2849C19.0744 22.3513 18.4238 21.792 18.3694 21.0304C18.3454 20.6898 18.4292 20.3797 18.624 20.0762L18.6251 20.074ZM19.7348 21.3601C20.0243 21.3611 20.1962 21.1914 20.1951 20.9053C20.1951 20.6289 20.0275 20.457 19.7544 20.4526C19.4661 20.4483 19.2855 20.6169 19.28 20.8966C19.2746 21.1773 19.453 21.359 19.7338 21.3601H19.7348Z" fill="url(#paint2_linear_294_136)"/>
<path d="M4.32717 20.0751C4.58286 20.47 4.65249 20.8857 4.52628 21.3263C4.32499 22.0292 3.60689 22.4198 2.85832 22.2414C2.17503 22.0782 1.73111 21.3938 1.84971 20.6855C1.97374 19.9478 2.61895 19.4429 3.34032 19.5387C3.49373 19.5594 3.5873 19.5224 3.68958 19.4147C4.31193 18.7597 4.94408 18.1123 5.56644 17.4573C5.7155 17.2995 5.87871 17.2233 6.09849 17.2288C6.53914 17.2397 6.9798 17.2288 7.42045 17.2342C7.49009 17.2342 7.57822 17.2451 7.62718 17.2875C7.93401 17.5574 8.23322 17.837 8.56398 18.1416C8.45844 18.1471 8.38772 18.1536 8.31808 18.1536C7.66091 18.1536 7.00265 18.1514 6.34547 18.1569C6.26278 18.1569 6.15398 18.1732 6.10175 18.2265C5.50769 18.8347 4.92123 19.4527 4.32717 20.074V20.0751ZM3.21302 21.3601C3.49591 21.3601 3.67435 21.1816 3.67108 20.8998C3.66782 20.6289 3.49373 20.4559 3.22172 20.4526C2.9323 20.4494 2.75822 20.6169 2.75604 20.902C2.75387 21.1881 2.92578 21.3601 3.21302 21.3601Z" fill="url(#paint3_linear_294_136)"/>
<path d="M4.98543 14.0016C4.64596 14.0016 4.32717 14.0201 4.01272 13.9918C3.9061 13.982 3.79512 13.8699 3.71025 13.7818C3.11836 13.1703 2.52647 12.5577 1.94763 11.9332C1.79422 11.7667 1.64516 11.7004 1.41232 11.7123C0.722501 11.7461 0.182835 11.3228 0.0381266 10.6754C-0.110934 10.0096 0.186099 9.37307 0.771463 9.10323C1.30895 8.85625 1.97374 8.96832 2.36979 9.37415C2.77345 9.78652 2.87573 10.4676 2.58957 10.9942C2.50362 11.152 2.53191 11.2314 2.64833 11.35C3.17058 11.8832 3.64605 12.4696 4.21183 12.9516C4.52192 13.216 4.70798 13.5283 4.91253 13.8503C4.93864 13.8917 4.95605 13.9396 4.98543 14.0027V14.0016ZM1.38512 10.8082C1.66039 10.8038 1.84209 10.6123 1.83339 10.3327C1.82577 10.0542 1.63536 9.87791 1.35574 9.88771C1.08699 9.8975 0.918348 10.077 0.920524 10.3512C0.9227 10.633 1.10549 10.8125 1.38512 10.8082Z" fill="url(#paint4_linear_294_136)"/>
<path d="M6.68276 16.2984C6.5424 16.3093 6.44775 16.3224 6.35309 16.3224C5.35209 16.3224 4.3511 16.3256 3.35011 16.318C3.19343 16.3169 3.11835 16.3659 3.04872 16.5095C2.78433 17.0568 2.18047 17.3266 1.53744 17.2048C0.954251 17.0949 0.532093 16.627 0.477691 16.0308C0.411321 15.3007 0.772549 14.7273 1.41449 14.5413C2.10539 14.3411 2.75169 14.6261 3.09115 15.2681C3.12488 15.3312 3.23477 15.3889 3.30876 15.3899C4.13023 15.3986 4.9517 15.3899 5.77316 15.4019C5.87217 15.403 5.99512 15.4705 6.06367 15.5466C6.26822 15.7718 6.45101 16.0166 6.6795 16.2995L6.68276 16.2984ZM1.83338 15.3965C1.55158 15.3965 1.37858 15.576 1.38185 15.8632C1.38511 16.1418 1.55049 16.3104 1.82577 16.3159C2.10975 16.3213 2.2871 16.1461 2.28927 15.86C2.29145 15.5738 2.11627 15.3954 1.83338 15.3965Z" fill="url(#paint5_linear_294_136)"/>
<path d="M16.2542 16.3235C16.5077 16.0069 16.7232 15.724 16.9549 15.4552C16.9963 15.4074 17.1018 15.3976 17.178 15.3976C17.9918 15.3932 18.8068 15.391 19.6206 15.3976C19.7599 15.3987 19.8273 15.3584 19.8883 15.23C20.1657 14.6523 20.8109 14.365 21.4496 14.5195C22.085 14.674 22.4952 15.1963 22.4963 15.8545C22.4974 16.49 22.0556 17.0546 21.4474 17.195C20.8 17.3452 20.1668 17.0623 19.8872 16.4813C19.8241 16.3496 19.7501 16.317 19.6152 16.318C18.5848 16.3235 17.5544 16.3224 16.5241 16.3235C16.4501 16.3235 16.3761 16.3235 16.2531 16.3235H16.2542ZM21.5704 15.8665C21.5747 15.5793 21.4017 15.3997 21.121 15.3976C20.8457 15.3954 20.6727 15.563 20.664 15.8371C20.6553 16.1276 20.8218 16.3093 21.1025 16.317C21.3876 16.3246 21.5671 16.1527 21.5704 15.8665Z" fill="url(#paint6_linear_294_136)"/>
<path d="M12.6985 11.3881H10.2472C10.3353 10.966 10.4202 10.5601 10.5061 10.1532C10.5964 9.72994 10.6933 9.30887 10.7716 8.88345C10.7847 8.81055 10.7433 8.6974 10.6867 8.64735C10.146 8.16208 10.0948 7.36238 10.5801 6.84773C11.0621 6.33745 11.8749 6.33527 12.3623 6.84121C12.8541 7.35258 12.8128 8.16426 12.2633 8.63429C12.1708 8.71372 12.1436 8.77574 12.1708 8.8976C12.3395 9.65378 12.4972 10.4121 12.6583 11.1694C12.6724 11.2336 12.6811 11.3 12.6974 11.387L12.6985 11.3881Z" fill="url(#paint7_linear_294_136)"/>
<defs>
<linearGradient id="paint0_linear_294_136" x1="20.4486" y1="8.97205" x2="20.4486" y2="14.0249" gradientUnits="userSpaceOnUse">
<stop stop-color="#1D86C4"/>
<stop offset="1" stop-color="#87BC48"/>
</linearGradient>
<linearGradient id="paint1_linear_294_136" x1="11.4681" y1="0.709717" x2="11.4681" y2="18.888" gradientUnits="userSpaceOnUse">
<stop stop-color="#1D86C4"/>
<stop offset="1" stop-color="#87BC48"/>
</linearGradient>
<linearGradient id="paint2_linear_294_136" x1="17.7543" y1="17.2294" x2="17.7543" y2="22.2902" gradientUnits="userSpaceOnUse">
<stop stop-color="#1D86C4"/>
<stop offset="1" stop-color="#87BC48"/>
</linearGradient>
<linearGradient id="paint3_linear_294_136" x1="5.19727" y1="17.2285" x2="5.19727" y2="22.2844" gradientUnits="userSpaceOnUse">
<stop stop-color="#1D86C4"/>
<stop offset="1" stop-color="#87BC48"/>
</linearGradient>
<linearGradient id="paint4_linear_294_136" x1="2.49271" y1="8.97302" x2="2.49271" y2="14.0075" gradientUnits="userSpaceOnUse">
<stop stop-color="#1D86C4"/>
<stop offset="1" stop-color="#87BC48"/>
</linearGradient>
<linearGradient id="paint5_linear_294_136" x1="3.57633" y1="14.4781" x2="3.57633" y2="17.2337" gradientUnits="userSpaceOnUse">
<stop stop-color="#1D86C4"/>
<stop offset="1" stop-color="#87BC48"/>
</linearGradient>
<linearGradient id="paint6_linear_294_136" x1="19.3747" y1="14.4781" x2="19.3747" y2="17.2348" gradientUnits="userSpaceOnUse">
<stop stop-color="#1D86C4"/>
<stop offset="1" stop-color="#87BC48"/>
</linearGradient>
<linearGradient id="paint7_linear_294_136" x1="11.4757" y1="6.46338" x2="11.4757" y2="11.3881" gradientUnits="userSpaceOnUse">
<stop stop-color="#1D86C4"/>
<stop offset="1" stop-color="#87BC48"/>
</linearGradient>
</defs>
</svg>
