<svg width="22" height="23" viewBox="0 0 22 23" fill="none" xmlns="http://www.w3.org/2000/svg">
<path d="M19.557 4.59348C20.4661 4.97289 21.0204 5.64994 21.2068 6.61131C21.3751 7.47664 21.1631 8.29347 20.8217 9.08463C20.4708 9.89766 19.9877 10.6299 19.4296 11.3136C19.3164 11.4524 19.3069 11.5465 19.4277 11.6882C19.7776 12.1 20.08 12.5478 20.3586 13.01C20.3938 13.068 20.4109 13.1374 20.4356 13.2011C20.2207 13.2753 20.0096 13.3542 19.8299 13.4988C19.5722 13.0414 19.2727 12.6116 18.9522 12.196C18.8866 12.1114 18.8409 12.0163 18.7116 12.1551C17.9528 12.9691 17.1255 13.707 16.2374 14.3774C16.1575 14.4373 16.0871 14.502 16.0728 14.6161C15.9435 15.7115 15.721 16.788 15.4015 17.8444C15.3568 17.9918 15.3635 18.0802 15.5498 18.0859C15.6953 18.0907 15.8399 18.1202 15.9854 18.1382C16.9258 18.2562 17.8587 18.24 18.7791 17.9842C19.9792 17.6514 20.6268 16.7994 20.5545 15.6402C20.7894 15.6402 21.0166 15.6022 21.2344 15.5137C21.4303 16.7423 20.6829 17.9813 19.4457 18.4901C18.4064 18.917 17.3233 18.9684 16.2212 18.8809C15.914 18.8562 15.6079 18.8286 15.3045 18.7735C15.1647 18.7478 15.0848 18.7906 15.0268 18.937C14.8005 19.5104 14.5628 20.0791 14.2167 20.5945C14.056 20.4309 13.8696 20.3044 13.6623 20.2074C13.9067 19.7348 14.153 19.2641 14.3479 18.7687C14.3964 18.6451 14.385 18.6013 14.2461 18.569C13.1555 18.3189 12.098 17.9623 11.0682 17.5278C10.9817 17.4916 10.9018 17.4736 10.8039 17.5154C9.77401 17.9519 8.71755 18.3094 7.62496 18.5538C7.49658 18.5823 7.47091 18.6356 7.52131 18.7592C7.88836 19.6635 8.32102 20.5317 8.97525 21.2667C9.88527 22.2871 10.9855 22.6551 12.1541 21.9191C12.2644 22.1226 12.4299 22.2785 12.6011 22.4278C12.0885 22.8415 11.4971 23.0193 10.8466 22.9984C9.74644 22.9632 8.96764 22.347 8.29915 21.5539C7.65729 20.7932 7.1961 19.9231 6.85472 18.9931C6.77294 18.7716 6.65788 18.7373 6.45248 18.7725C5.86862 18.8743 5.27811 18.9161 4.68474 18.9123C4.76842 18.6898 4.78364 18.4587 4.76652 18.2238C5.27335 18.202 5.77924 18.1668 6.28417 18.1002C6.47435 18.0755 6.50573 18.0184 6.45058 17.8359C6.13393 16.7956 5.91237 15.7353 5.79065 14.6541C5.77543 14.52 5.70507 14.4306 5.60237 14.3517C4.73419 13.6946 3.92591 12.971 3.17945 12.1789C3.06914 12.0619 3.01399 12.0591 2.91985 12.1817C2.42443 12.8341 1.96799 13.5092 1.65514 14.2718C1.42217 14.8395 1.25861 15.4263 1.31186 16.0462C1.38128 16.845 1.82725 17.3937 2.51476 17.7674C2.42252 17.9747 2.33694 18.1839 2.30937 18.4112C1.40505 18.0279 0.844963 17.3547 0.657634 16.3914C0.491224 15.5337 0.698523 14.7235 1.03229 13.9381C1.37652 13.1308 1.85103 12.4014 2.40351 11.7234C2.53568 11.5608 2.56136 11.4524 2.40921 11.2765C2.06688 10.8799 1.77781 10.4406 1.5068 9.99085C1.47161 9.93284 1.45545 9.86343 1.42977 9.79971C1.64753 9.7341 1.85008 9.63711 2.03455 9.50398C2.29415 9.95186 2.58893 10.375 2.90083 10.7877C3.01019 10.9313 3.06439 10.9408 3.18896 10.8067C3.94303 9.99845 4.77127 9.27196 5.65087 8.60347C5.7355 8.53976 5.78114 8.46464 5.79445 8.35433C5.92092 7.28931 6.13963 6.24331 6.44393 5.21442C6.52475 4.94151 6.52095 4.9244 6.24614 4.88826C5.37986 4.77415 4.51263 4.72851 3.64539 4.88351C3.20322 4.96243 2.77436 5.08605 2.38259 5.31427C1.60474 5.7669 1.27192 6.45821 1.29474 7.34066C1.06557 7.35207 0.845914 7.41008 0.631959 7.48995C0.440826 6.37929 1.05131 5.21918 2.12489 4.65434C2.83522 4.28063 3.60451 4.13704 4.39566 4.09805C5.1136 4.06287 5.82869 4.11517 6.53616 4.23689C6.70543 4.26637 6.77579 4.23118 6.8357 4.06572C7.01923 3.55794 7.25981 3.07392 7.5156 2.59752C7.55174 2.53095 7.60118 2.47105 7.64492 2.40829C7.80658 2.57089 7.99296 2.69831 8.20026 2.79531C7.95873 3.25174 7.72765 3.71294 7.52701 4.19029C7.4633 4.34149 7.4633 4.41661 7.65158 4.45845C8.73847 4.69713 9.78638 5.05752 10.8105 5.49019C10.8961 5.52632 10.9684 5.52537 11.053 5.49019C12.0781 5.06133 13.1241 4.69618 14.211 4.45655C14.3526 4.42517 14.3964 4.37667 14.3346 4.22643C13.9732 3.34493 13.5491 2.49862 12.9187 1.77403C12.0172 0.738487 10.8913 0.336252 9.7084 1.08557C9.5981 0.881124 9.43359 0.725174 9.26147 0.575882C9.65705 0.244965 10.1211 0.0757025 10.626 0.0186478C11.5931 -0.0907069 12.3833 0.289658 13.0708 0.92962C13.9818 1.77878 14.5552 2.84475 15.0021 3.9868C15.0791 4.18269 15.1476 4.27968 15.3872 4.23308C15.9768 4.11802 16.5759 4.08379 17.1769 4.09045C17.0941 4.31391 17.077 4.54403 17.096 4.77891C16.6101 4.78556 16.127 4.83216 15.6449 4.88636C15.3473 4.91964 15.3454 4.9301 15.4281 5.21062C15.7305 6.2319 15.9473 7.27124 16.07 8.32866C16.0843 8.45132 16.129 8.54832 16.2288 8.62249C17.1179 9.29193 17.9433 10.0336 18.7078 10.8419C18.8096 10.9494 18.8571 10.9208 18.9341 10.821C19.4115 10.2029 19.848 9.55913 20.157 8.83739C20.4451 8.16415 20.6458 7.47379 20.5136 6.72732C20.389 6.02175 19.9431 5.56816 19.3468 5.23059C19.44 5.02519 19.5237 4.81599 19.5532 4.58968L19.557 4.59348ZM6.30129 11.4781C6.27847 12.2607 6.33457 13.029 6.39067 13.7973C6.40589 14.0094 6.47911 14.1511 6.65313 14.2728C7.94922 15.1857 9.31472 15.974 10.7582 16.6282C10.8809 16.6843 10.9826 16.6862 11.1072 16.6301C12.5649 15.9683 13.9428 15.1695 15.2503 14.2471C15.4006 14.1406 15.4614 14.0189 15.47 13.8458C15.4842 13.5387 15.508 13.2316 15.528 12.9235C15.6126 11.6445 15.5765 10.3674 15.4595 9.09129C15.4471 8.95721 15.392 8.85641 15.2703 8.77083C13.958 7.84179 12.5716 7.04207 11.1091 6.37453C10.9855 6.31843 10.8828 6.31843 10.7601 6.37453C9.29571 7.04017 7.90928 7.83894 6.59797 8.76988C6.4715 8.85926 6.41159 8.96291 6.40018 9.11125C6.33837 9.90241 6.27752 10.6936 6.30319 11.4771L6.30129 11.4781ZM5.65752 9.5249C5.60047 9.54867 5.56814 9.55438 5.54722 9.5715C4.86446 10.1477 4.18456 10.7288 3.59214 11.402C3.49895 11.5075 3.55886 11.5579 3.62257 11.6312C3.99628 12.0638 4.42134 12.4461 4.84259 12.8293C5.08983 13.0537 5.33421 13.2886 5.66037 13.4931C5.57384 12.1532 5.5805 10.8505 5.65752 9.5249ZM16.206 9.51634C16.2878 10.8533 16.2887 12.1551 16.2041 13.4921C16.2725 13.4512 16.3058 13.436 16.3334 13.4132C17.0219 12.854 17.6761 12.2588 18.2733 11.6007C18.3683 11.4961 18.3037 11.4448 18.2419 11.3716C17.8549 10.9199 17.4146 10.5205 16.9715 10.1268C16.7394 9.92048 16.5122 9.70082 16.205 9.51539L16.206 9.51634ZM10.027 5.9238C9.15022 5.58433 8.29915 5.31997 7.43097 5.10792C7.24364 5.06228 7.19039 5.12789 7.1438 5.28574C6.91272 6.06929 6.73585 6.86425 6.59132 7.66777C6.57895 7.73434 6.54852 7.82372 6.60463 7.86461C6.66929 7.91121 6.7292 7.83323 6.7853 7.79615C7.3568 7.41768 7.93305 7.04588 8.53878 6.72257C9.01899 6.46487 9.4992 6.20717 10.027 5.9238ZM11.8346 17.078C12.7332 17.4194 13.59 17.6866 14.4677 17.8901C14.6332 17.9281 14.6836 17.8444 14.7235 17.7103C14.9574 16.9287 15.1314 16.1328 15.275 15.3302C15.2864 15.2665 15.3216 15.1781 15.2541 15.1391C15.1866 15.1001 15.1286 15.1771 15.0744 15.2142C14.326 15.7163 13.5558 16.1822 12.7542 16.5959C12.4622 16.7471 12.1732 16.9002 11.8346 17.078ZM6.58561 15.0735C6.58561 15.1819 6.57895 15.2285 6.58656 15.2722C6.7311 16.0995 6.91463 16.9173 7.15806 17.7218C7.20846 17.8891 7.27122 17.9367 7.44809 17.8929C8.19645 17.7075 8.93341 17.4859 9.65895 17.2263C9.76926 17.1864 9.87671 17.136 10.0298 17.0713C8.82405 16.4761 7.70008 15.8418 6.58466 15.0735H6.58561ZM11.8375 5.93426C12.157 6.09687 12.4385 6.23475 12.7152 6.38309C13.5311 6.82051 14.3317 7.28265 15.0953 7.80851C15.1438 7.84179 15.1961 7.9036 15.2579 7.86937C15.3102 7.84084 15.2864 7.77142 15.2769 7.72007C15.1286 6.88517 14.9451 6.05978 14.695 5.24866C14.6493 5.10222 14.5875 5.07179 14.4468 5.11172C14.0541 5.22298 13.6556 5.31427 13.2648 5.43123C12.796 5.57101 12.331 5.72506 11.8375 5.93521V5.93426Z" fill="url(#paint0_linear_281_30)"/>
<path d="M8.20216 2.79812C7.99486 2.70113 7.80849 2.57371 7.64683 2.4111C7.42432 2.06782 7.31211 1.70362 7.43097 1.29378C7.63257 0.594861 8.39995 0.224957 9.07224 0.502623C9.13596 0.529248 9.20062 0.553021 9.26433 0.577745C9.43644 0.727038 9.60095 0.882987 9.71126 1.08743C9.73028 1.14544 9.7512 1.20344 9.76926 1.2624C9.97751 1.95657 9.57147 2.65453 8.864 2.82189C8.64053 2.87515 8.42182 2.83616 8.20311 2.79907L8.20216 2.79812ZM8.59203 2.1496C8.88111 2.15626 9.12455 1.92043 9.12645 1.6323C9.1274 1.35369 8.89918 1.12167 8.61771 1.11406C8.32198 1.1074 8.0852 1.33467 8.08425 1.62755C8.08235 1.90427 8.31437 2.14199 8.59203 2.14865V2.1496Z" fill="url(#paint1_linear_281_30)"/>
<path d="M12.602 22.4288C12.4309 22.2785 12.2654 22.1235 12.1551 21.92C11.9459 21.3618 12.0144 20.8607 12.4737 20.4518C12.8198 20.1437 13.2306 20.1104 13.6642 20.2093C13.8715 20.3063 14.0579 20.4328 14.2186 20.5963C14.3945 20.875 14.5219 21.1678 14.4744 21.5092C14.3584 22.3536 13.532 22.8215 12.7523 22.4849C12.7038 22.4639 12.6524 22.4478 12.602 22.4297V22.4288ZM13.2696 21.8943C13.5539 21.8905 13.7793 21.6642 13.7821 21.3809C13.785 21.0956 13.5396 20.854 13.2524 20.8588C12.9719 20.8636 12.7418 21.0946 12.7399 21.3742C12.738 21.6614 12.9786 21.8991 13.2696 21.8953V21.8943Z" fill="url(#paint2_linear_281_30)"/>
<path d="M19.557 4.59347C19.5275 4.81978 19.4438 5.02898 19.3506 5.23438C19.2869 5.29999 19.2251 5.36751 19.1586 5.43122C18.7221 5.84962 18.0327 5.88005 17.5591 5.50634C17.3195 5.31806 17.1978 5.05751 17.0989 4.78175C17.0799 4.54687 17.097 4.3158 17.1797 4.09329C17.5439 3.42099 18.1649 3.16044 18.7896 3.42765C19.2993 3.64541 19.5123 4.06571 19.557 4.59347ZM18.3294 5.06797C18.6184 5.06227 18.8533 4.81503 18.8419 4.52785C18.8314 4.25209 18.5899 4.02958 18.3075 4.03338C18.0156 4.03813 17.7854 4.28062 17.7968 4.5735C17.8073 4.85116 18.0469 5.07368 18.3303 5.06797H18.3294Z" fill="url(#paint3_linear_281_30)"/>
<path d="M0.633861 7.4928C0.847816 7.41292 1.06653 7.35492 1.29665 7.34351C1.3556 7.35777 1.41361 7.37489 1.47256 7.38725C1.96704 7.4928 2.3436 7.89789 2.42157 8.39807C2.49004 8.83834 2.32838 9.19493 2.03645 9.50778C1.85198 9.64091 1.64943 9.7379 1.43168 9.80351C1.21011 9.78735 0.985698 9.81112 0.771743 9.71793C0.349539 9.5344 0.0832842 9.2206 0.0157696 8.76797C-0.0545978 8.29632 0.111812 7.90454 0.489323 7.60691C0.53782 7.56887 0.586316 7.53084 0.633861 7.4928ZM1.21487 9.09984C1.5049 9.10079 1.72646 8.88588 1.73311 8.59871C1.73977 8.29727 1.51821 8.0662 1.22248 8.0681C0.933399 8.06905 0.707082 8.28681 0.700425 8.56923C0.693769 8.86306 0.921987 9.09889 1.21582 9.10079L1.21487 9.09984Z" fill="url(#paint4_linear_281_30)"/>
<path d="M2.30936 18.414C2.33789 18.1868 2.42347 17.9776 2.51476 17.7703C2.56801 17.7161 2.62126 17.6619 2.67546 17.6077C3.05773 17.2187 3.62923 17.1303 4.11419 17.3785C4.46698 17.5592 4.64765 17.8682 4.76747 18.2267C4.78458 18.4616 4.76937 18.6926 4.68569 18.9152C4.28536 19.8005 3.25172 19.8803 2.69258 19.3288C2.43679 19.0768 2.33884 18.7602 2.30936 18.415V18.414ZM3.55125 17.9386C3.26123 17.9367 3.02445 18.1734 3.0235 18.4654C3.0235 18.7383 3.26123 18.9713 3.54365 18.9732C3.84033 18.9751 4.0695 18.7468 4.0695 18.4492C4.0695 18.1725 3.83462 17.9405 3.55125 17.9386Z" fill="url(#paint5_linear_281_30)"/>
<path d="M19.8308 13.4997C20.0106 13.3551 20.2226 13.2762 20.4366 13.202C20.5973 13.2125 20.7646 13.1982 20.9187 13.2372C21.4084 13.3608 21.7317 13.6727 21.8373 14.171C21.939 14.6484 21.785 15.0515 21.4141 15.3701C21.3561 15.4205 21.2953 15.4671 21.2353 15.5156C21.0176 15.604 20.7894 15.6421 20.5554 15.6421C19.9573 15.5527 19.5484 15.1847 19.4524 14.655C19.3697 14.1995 19.5237 13.8258 19.8318 13.4997H19.8308ZM21.1659 14.4325C21.1697 14.1453 20.9482 13.9133 20.6629 13.9067C20.37 13.9 20.1408 14.113 20.1313 14.4011C20.1218 14.6969 20.332 14.9279 20.6192 14.9374C20.9234 14.9479 21.1612 14.7273 21.1659 14.4325Z" fill="url(#paint6_linear_281_30)"/>
<path d="M13.6157 11.5142C13.6157 12.0306 13.6062 12.5479 13.6185 13.0642C13.6309 13.6177 13.3808 14.0265 12.9482 14.3356C12.4318 14.7055 11.8432 14.8538 11.2146 14.8957C10.4501 14.9451 9.72552 14.8282 9.06273 14.4307C8.52927 14.1112 8.23354 13.6576 8.2459 13.0062C8.26397 11.9887 8.25826 10.9703 8.2459 9.95285C8.23925 9.40988 8.47032 9.00004 8.89062 8.69004C9.36798 8.33915 9.9157 8.17845 10.5034 8.11854C11.2004 8.04722 11.8736 8.129 12.5117 8.41523C13.0442 8.65486 13.4674 9.0105 13.5967 9.62003C13.6138 9.70181 13.6185 9.78834 13.6185 9.87202C13.6204 10.4197 13.6195 10.9665 13.6195 11.5142C13.6195 11.5142 13.6176 11.5142 13.6166 11.5142H13.6157ZM12.874 12.6943C12.9567 12.3472 12.9367 11.9983 12.8863 11.6493C12.8959 11.5732 12.9149 11.4981 12.9139 11.422C12.912 11.2879 12.9833 11.1139 12.8768 11.0312C12.7998 10.9703 12.6867 11.1263 12.5783 11.1605C12.564 11.1653 12.5497 11.1719 12.5355 11.1776C11.3744 11.6531 10.2295 11.6436 9.10648 11.0559C8.99332 10.9969 8.93436 10.996 8.94482 11.1443C8.95718 11.3127 8.96764 11.481 8.98 11.6483C8.90108 11.9849 8.96574 12.3273 8.94387 12.6667C8.94387 12.7666 8.95433 12.8683 8.94387 12.9672C8.90488 13.3609 9.0827 13.6281 9.40886 13.8259C10.0583 14.2186 10.7658 14.251 11.4885 14.1635C11.8736 14.1169 12.234 13.9885 12.5583 13.7584C12.8635 13.5416 13.0109 13.2116 12.873 12.6943H12.874ZM9.45831 10.4511C10.4416 10.9542 11.4248 10.9551 12.408 10.4511C13.0632 10.0765 13.0756 9.56012 12.4366 9.16645C12.3329 9.10273 12.2207 9.04758 12.1066 9.00289C11.5322 8.78038 10.9389 8.74805 10.336 8.84409C9.96705 8.90304 9.61902 9.02096 9.31472 9.24347C8.84497 9.5858 8.84117 10.0032 9.30236 10.3551C9.35086 10.3922 9.40601 10.4197 9.45831 10.4511Z" fill="url(#paint7_linear_281_30)"/>
<path d="M9.45831 10.451C9.40601 10.4187 9.34991 10.3921 9.30236 10.355C8.84117 10.0032 8.84497 9.58571 9.31472 9.24338C9.61901 9.02182 9.96705 8.90295 10.336 8.844C10.9389 8.74795 11.5322 8.78028 12.1066 9.0028C12.2207 9.04749 12.332 9.10169 12.4366 9.16635C13.0756 9.56003 13.0632 10.0773 12.408 10.451C11.4248 10.0393 10.4416 10.0402 9.45831 10.451Z" fill="url(#paint8_linear_281_30)"/>
<path d="M12.874 12.6943C11.5589 13.4123 10.2495 13.397 8.94482 12.6667C8.96669 12.3282 8.90203 11.9859 8.98096 11.6483C9.07795 11.9117 9.28335 12.0762 9.52203 12.1894C10.4435 12.6287 11.3763 12.6306 12.3044 12.2113C12.5602 12.0962 12.7798 11.9269 12.8863 11.6493C12.9367 11.9983 12.9567 12.3472 12.874 12.6943Z" fill="url(#paint9_linear_281_30)"/>
<defs>
<linearGradient id="paint0_linear_281_30" x1="10.9315" y1="0" x2="10.9315" y2="23" gradientUnits="userSpaceOnUse">
<stop stop-color="#1D86C4"/>
<stop offset="1" stop-color="#87BC48"/>
</linearGradient>
<linearGradient id="paint1_linear_281_30" x1="8.60333" y1="0.409912" x2="8.60333" y2="2.84795" gradientUnits="userSpaceOnUse">
<stop stop-color="#1D86C4"/>
<stop offset="1" stop-color="#87BC48"/>
</linearGradient>
<linearGradient id="paint2_linear_281_30" x1="13.2634" y1="20.1597" x2="13.2634" y2="22.5948" gradientUnits="userSpaceOnUse">
<stop stop-color="#1D86C4"/>
<stop offset="1" stop-color="#87BC48"/>
</linearGradient>
<linearGradient id="paint3_linear_281_30" x1="18.3244" y1="3.32422" x2="18.3244" y2="5.76714" gradientUnits="userSpaceOnUse">
<stop stop-color="#1D86C4"/>
<stop offset="1" stop-color="#87BC48"/>
</linearGradient>
<linearGradient id="paint4_linear_281_30" x1="1.2186" y1="7.34351" x2="1.2186" y2="9.80351" gradientUnits="userSpaceOnUse">
<stop stop-color="#1D86C4"/>
<stop offset="1" stop-color="#87BC48"/>
</linearGradient>
<linearGradient id="paint5_linear_281_30" x1="3.54154" y1="17.2394" x2="3.54154" y2="19.6768" gradientUnits="userSpaceOnUse">
<stop stop-color="#1D86C4"/>
<stop offset="1" stop-color="#87BC48"/>
</linearGradient>
<linearGradient id="paint6_linear_281_30" x1="20.6491" y1="13.202" x2="20.6491" y2="15.6421" gradientUnits="userSpaceOnUse">
<stop stop-color="#1D86C4"/>
<stop offset="1" stop-color="#87BC48"/>
</linearGradient>
<linearGradient id="paint7_linear_281_30" x1="10.9326" y1="8.09424" x2="10.9326" y2="14.9064" gradientUnits="userSpaceOnUse">
<stop stop-color="#1D86C4"/>
<stop offset="1" stop-color="#87BC48"/>
</linearGradient>
<linearGradient id="paint8_linear_281_30" x1="10.9336" y1="8.79297" x2="10.9336" y2="10.451" gradientUnits="userSpaceOnUse">
<stop stop-color="#1D86C4"/>
<stop offset="1" stop-color="#87BC48"/>
</linearGradient>
<linearGradient id="paint9_linear_281_30" x1="10.9353" y1="11.6483" x2="10.9353" y2="13.2237" gradientUnits="userSpaceOnUse">
<stop stop-color="#1D86C4"/>
<stop offset="1" stop-color="#87BC48"/>
</linearGradient>
</defs>
</svg>
