<svg width="33" height="23" viewBox="0 0 33 23" fill="none" xmlns="http://www.w3.org/2000/svg">
<path d="M8.91238 0C5.06802 0 1.94096 3.12756 1.94096 6.97142C1.94096 7.58701 2.06992 8.15064 2.22369 8.67758C0.805663 9.89075 0 11.6092 0 13.4419C0 16.9292 2.83656 19.7657 6.32378 19.7657C6.451 19.7657 6.56909 19.7553 6.68379 19.7422C7.8103 21.7608 9.87261 23 12.1467 23C14.2444 23 16.2168 21.9042 17.3884 20.115C17.8688 20.2753 18.372 20.4114 18.94 20.4114C20.904 20.4114 22.7147 19.4347 23.8462 17.7817C24.0351 17.8053 24.2307 17.8248 24.4401 17.8248C28.6401 17.8248 32.0572 14.4067 32.0572 10.2057C32.0572 6.00521 28.6406 2.5886 24.4401 2.5886C23.6627 2.5886 22.9544 2.77071 22.3318 2.97308C21.1903 1.50997 19.4654 0.647639 17.6467 0.647639C16.2918 0.647639 14.9969 1.16275 13.8734 2.14249C12.5515 0.775555 10.7707 0 8.91238 0ZM8.91238 1.00179C10.645 1.00179 12.302 1.79555 13.4586 3.17852C13.5487 3.28671 13.6803 3.35204 13.8215 3.35755C13.9608 3.36857 14.0985 3.31 14.1982 3.20983C14.9064 2.49756 16.0794 1.64943 17.6467 1.64943C19.2601 1.64943 20.7874 2.4717 21.7321 3.84866C21.8598 4.03449 22.0965 4.11108 22.3074 4.03845C22.934 3.82156 23.6682 3.59039 24.4401 3.59039C28.0881 3.59039 31.0554 6.55769 31.0554 10.2057C31.0554 13.8537 28.0881 16.823 24.4401 16.823C24.2227 16.823 24.0071 16.7933 23.7797 16.7633L23.6623 16.7476C23.4655 16.7266 23.2744 16.8151 23.1712 16.9834C22.242 18.5026 20.6601 19.4106 18.941 19.4106C18.397 19.4106 17.8885 19.2322 17.3376 19.0379C17.1107 18.9587 16.8556 19.0515 16.7359 19.2629C15.7647 20.9754 14.0491 21.9982 12.1467 21.9982C10.1396 21.9982 8.32669 20.8414 7.41557 18.9811C7.33042 18.8078 7.15488 18.7003 6.96555 18.7003C6.94651 18.7003 6.92688 18.7017 6.90685 18.7043L6.73662 18.7258C6.60088 18.7438 6.46601 18.7639 6.32476 18.7639C3.39002 18.7639 1.00179 16.3762 1.00179 13.4419C1.00179 11.808 1.76824 10.2802 3.10613 9.25087C3.27192 9.12314 3.3414 8.90583 3.27929 8.70498C3.10898 8.159 2.94275 7.57549 2.94275 6.97142C2.94275 3.68005 5.62101 1.00179 8.91238 1.00179ZM8.76563 2.46338C7.16979 2.46338 5.72177 3.34342 4.98545 4.76044C4.85823 5.00588 4.95426 5.30872 5.1997 5.43645C5.27333 5.47452 5.35197 5.49222 5.4296 5.49222C5.61043 5.49222 5.78507 5.39401 5.87473 5.2222C6.43774 4.13827 7.54495 3.46516 8.76563 3.46516C9.1428 3.46516 9.51071 3.52875 9.86134 3.65398C10.1208 3.74714 10.409 3.61214 10.5021 3.35168C10.5953 3.09122 10.4598 2.80456 10.1989 2.71089C9.74053 2.5466 9.25801 2.46338 8.76563 2.46338ZM9.8222 7.61906C9.72253 7.61906 9.64513 7.69979 9.64513 7.80298V11.9657C9.64513 12.0689 9.72253 12.1496 9.8222 12.1496H10.3299C10.4296 12.1496 10.508 12.0689 10.508 11.9657V7.80298C10.5085 7.69979 10.4296 7.61906 10.3299 7.61906H9.8222ZM18.715 7.62982C18.3348 7.62982 18.0337 7.74069 17.8208 7.95657C17.6145 8.16294 17.4743 8.47418 17.4011 8.88792L17.3796 9.04249H17.0666C16.9874 9.04199 16.8929 9.09178 16.8719 9.20098L16.7975 9.61089C16.7935 9.68051 16.8209 9.72526 16.8445 9.74981C16.8791 9.78687 16.9272 9.80459 16.9873 9.80459H17.2583L16.8582 12.0381C16.8266 12.2194 16.7892 12.3709 16.7486 12.4871C16.7116 12.5948 16.6757 12.6707 16.6351 12.7248C16.5941 12.7774 16.5642 12.8008 16.5217 12.8168C16.439 12.8433 16.3384 12.8577 16.2057 12.8256C16.1706 12.8191 16.1601 12.8158 16.1205 12.7972C16.0434 12.7727 15.9356 12.7988 15.8955 12.9C15.877 12.944 15.7631 13.2577 15.7556 13.2903C15.7361 13.3399 15.738 13.3915 15.7595 13.437C15.7796 13.4796 15.8164 13.5121 15.8535 13.5241C15.9141 13.5487 15.9595 13.5617 16.0481 13.5848C16.1669 13.6088 16.2648 13.6122 16.3514 13.6122C16.5418 13.6122 16.7179 13.585 16.8611 13.5329C17.0079 13.4808 17.1399 13.3908 17.2652 13.2551C17.3799 13.1264 17.4585 12.9918 17.5371 12.7884C17.6033 12.6086 17.6612 12.3861 17.7103 12.1261L18.1182 9.80557H18.6328C18.718 9.80257 18.806 9.75778 18.8275 9.64709L18.898 9.24696C18.908 9.17633 18.8819 9.12969 18.8588 9.10315C18.8348 9.0756 18.7897 9.04347 18.7121 9.04347H18.2484C18.2664 8.92676 18.2959 8.76089 18.3345 8.65019C18.3575 8.58307 18.4036 8.52822 18.4382 8.49366C18.4717 8.4601 18.5077 8.43723 18.5467 8.4242C18.6264 8.39916 18.7681 8.39944 18.8402 8.41246L18.8862 8.42322C18.9068 8.42823 18.9192 8.43146 18.9312 8.43496C19.0364 8.46752 19.1144 8.43848 19.168 8.33028L19.3108 7.93309C19.3283 7.88901 19.3288 7.84112 19.3108 7.80004C19.2923 7.75697 19.2539 7.72179 19.1983 7.70026C19.1307 7.67872 19.073 7.6663 18.9948 7.65427C18.9097 7.63875 18.8162 7.62982 18.715 7.62982ZM5.07937 9.04543C4.38864 9.04543 3.90638 9.44036 3.90638 10.0169C3.90638 10.6746 4.56432 10.8487 4.91795 10.9414L4.99915 10.9629C5.24709 11.0335 5.50298 11.1067 5.50298 11.2329C5.50298 11.3561 5.35863 11.4423 5.15177 11.4423C4.86325 11.4423 4.59263 11.3699 4.34368 11.2251C4.32014 11.2126 4.30202 11.2019 4.28499 11.1918L4.23607 11.1625C4.18348 11.1324 4.12672 11.1254 4.07563 11.1439C4.02654 11.1609 3.98855 11.2008 3.96801 11.2544L3.83496 11.5949C3.8014 11.675 3.82096 11.7525 3.8966 11.8121C3.94869 11.8481 4.00099 11.8755 4.05508 11.9031L4.09911 11.9256C4.41517 12.0808 4.73492 12.1496 5.13513 12.1496C5.87495 12.1496 6.35215 11.7632 6.35215 11.1556C6.35315 10.53 5.69905 10.3368 5.34743 10.2331L5.29068 10.2184C5.04224 10.1438 4.75946 10.0593 4.75946 9.94058C4.75946 9.81936 4.91197 9.76448 5.06274 9.76448C5.31268 9.76448 5.64229 9.84074 5.85517 9.94743C5.8752 9.95845 5.94687 9.99602 6.0205 9.96797C6.06859 9.95144 6.10524 9.91515 6.12127 9.87308C6.13529 9.84152 6.24972 9.55476 6.25823 9.52871C6.28578 9.4656 6.28036 9.36936 6.17116 9.30174C5.88164 9.13945 5.50804 9.04543 5.1459 9.04543H5.07937ZM15.3252 9.04543C14.6344 9.04543 14.1522 9.44036 14.1522 10.0169C14.1522 10.6736 14.8111 10.8472 15.1647 10.9404L15.242 10.9619C15.49 11.0326 15.7468 11.1047 15.7468 11.2319C15.7468 11.3552 15.6029 11.4413 15.3976 11.4413C15.1076 11.4413 14.8379 11.3689 14.5905 11.2241C14.5464 11.2006 14.5196 11.1858 14.4966 11.1723C14.46 11.1447 14.3934 11.1254 14.3293 11.1429C14.2747 11.1594 14.2324 11.2009 14.2138 11.2535L14.0818 11.5939C14.0502 11.6691 14.0642 11.7433 14.1052 11.7769L14.1424 11.8131C14.1945 11.8476 14.2459 11.8736 14.298 11.9001L14.3459 11.9246C14.662 12.0799 14.9807 12.1486 15.3809 12.1486C16.1213 12.1496 16.5999 11.7625 16.5999 11.1635V11.1547C16.5999 10.5295 15.945 10.3358 15.5874 10.2302L15.5365 10.2184C15.2881 10.1438 15.0053 10.0583 15.0053 9.9396C15.0053 9.81838 15.1568 9.7635 15.3066 9.7635C15.5595 9.7635 15.8881 9.84074 16.099 9.94743C16.1186 9.95845 16.1897 9.99404 16.2653 9.96699C16.3129 9.94996 16.3496 9.91367 16.3651 9.8721C16.3791 9.84054 16.4946 9.55275 16.5021 9.52871C16.5381 9.44456 16.5071 9.35586 16.4179 9.30077C16.1284 9.13848 15.7548 9.04543 15.3927 9.04543H15.3252ZM25.3812 9.04543C25.1282 9.04543 24.9014 9.08612 24.7101 9.16576C24.5172 9.2424 24.3499 9.35508 24.2111 9.50034C24.0794 9.64109 23.9779 9.80798 23.9108 9.99732C23.8467 10.1756 23.8149 10.3786 23.8149 10.6C23.8149 11.0678 23.9509 11.4455 24.2209 11.724C24.4974 12.006 24.9014 12.1496 25.4223 12.1496C25.7113 12.1496 26.0246 12.0974 26.2695 12.0068L26.3145 11.9784L26.381 11.8532L26.2196 11.4345C26.2021 11.3879 26.1692 11.3513 26.1267 11.3317C26.0626 11.3022 26.0023 11.3203 25.9858 11.3268L25.9848 11.3278C25.9057 11.3584 25.8271 11.3789 25.752 11.3904C25.6698 11.402 25.5741 11.408 25.4604 11.408C25.2165 11.408 25.036 11.3474 24.9067 11.2202C24.7735 11.094 24.7032 10.879 24.7032 10.6C24.7032 10.3455 24.7639 10.1482 24.8901 9.99341C25.0033 9.85266 25.175 9.78405 25.4164 9.78405C25.6328 9.78405 25.8004 9.80683 25.9672 9.85742C25.9832 9.86343 26.0377 9.8796 26.0993 9.85155C26.1298 9.83753 26.17 9.80738 26.1981 9.73024L26.3331 9.38686C26.3641 9.29419 26.3198 9.20385 26.2196 9.16478C26.1405 9.13723 25.9622 9.09288 25.8214 9.07184C25.6937 9.05481 25.5455 9.04543 25.3812 9.04543ZM27.827 9.04543C27.566 9.04543 27.3379 9.08657 27.148 9.16772C26.9522 9.25437 26.7904 9.37037 26.6687 9.51012C26.5414 9.64987 26.4461 9.8191 26.384 10.014C26.3249 10.2008 26.294 10.4032 26.294 10.6166C26.294 10.8275 26.3248 11.0299 26.3869 11.2173C26.452 11.4096 26.5544 11.5765 26.6912 11.7133C26.8269 11.852 27.0046 11.9609 27.2175 12.0381C27.4198 12.1112 27.6564 12.1496 27.9199 12.1496C28.4579 12.1486 28.7947 12.0481 28.9745 11.9559C29.0421 11.9158 29.0931 11.8313 29.041 11.7201L28.9188 11.3963C28.8777 11.2881 28.7674 11.2611 28.6908 11.2916L28.639 11.3083C28.5072 11.3538 28.328 11.4159 27.9483 11.4159C27.6978 11.4134 27.5016 11.353 27.3809 11.2398C27.2902 11.1561 27.2356 11.0368 27.2126 10.869L28.9794 10.8719C29.055 10.8719 29.1418 10.8204 29.1614 10.7007C29.1954 10.4312 29.1734 10.1553 29.0978 9.90438C29.0432 9.71955 28.9156 9.53338 28.8209 9.43871C28.6852 9.30296 28.5532 9.21105 28.4159 9.15695C28.2331 9.08382 28.0298 9.04543 27.827 9.04543ZM8.00842 9.04641C7.86316 9.04641 7.62647 9.06233 7.4772 9.09239C7.43162 9.1004 7.02756 9.17388 6.84424 9.30761C6.77912 9.34769 6.73759 9.43903 6.77967 9.52969L6.91272 9.86134C6.95079 9.96252 7.05312 9.99108 7.13577 9.96504C7.14228 9.96253 7.16582 9.95353 7.17784 9.94351C7.51193 9.77672 7.95266 9.77818 7.95266 9.77818C8.12997 9.77818 8.2642 9.80956 8.34985 9.86916C8.39744 9.90322 8.44306 9.95176 8.45257 10.1216C8.34939 10.1105 8.27354 10.1059 8.27354 10.1059C8.0797 10.0919 7.73735 10.0862 7.46937 10.1538C7.30258 10.1969 7.15579 10.2595 7.03207 10.3417C6.89783 10.4333 6.79217 10.5451 6.71803 10.6753C6.63839 10.8135 6.59868 10.9721 6.59868 11.1449C6.59868 11.3157 6.63233 11.4695 6.69945 11.6037C6.76807 11.7354 6.8648 11.8443 6.98903 11.9295C7.11174 12.0101 7.25717 12.0676 7.42046 12.1007C7.58525 12.1337 7.76339 12.1506 7.94972 12.1506C8.1621 12.1506 8.35861 12.1356 8.54845 12.1046C8.73829 12.076 8.97053 12.0316 9.03564 12.0165C9.10076 12.003 9.16967 11.9833 9.16967 11.9833C9.26785 11.9597 9.31408 11.8713 9.30957 11.8052V10.1949C9.30957 9.80023 9.19268 9.50566 8.96227 9.32033C8.73687 9.13801 8.41665 9.04641 8.00842 9.04641ZM12.401 9.04641C12.1791 9.05229 11.97 9.09659 11.8062 9.16772C11.6079 9.25587 11.4446 9.37135 11.3229 9.5111C11.1972 9.65235 11.0984 9.82559 11.0373 10.0149C10.9802 10.2043 10.9512 10.4067 10.9512 10.6166C10.9512 10.833 10.982 11.0349 11.0422 11.2173C11.1053 11.4041 11.2076 11.571 11.3474 11.7142C11.4886 11.856 11.6599 11.9614 11.8718 12.0381C12.0741 12.1112 12.3117 12.1496 12.5752 12.1496C13.1271 12.1486 13.4486 12.0485 13.6219 11.9598C13.6926 11.9237 13.7539 11.8369 13.6983 11.7191L13.573 11.3973C13.556 11.3512 13.5222 11.316 13.4801 11.2975C13.4165 11.2684 13.3576 11.2881 13.347 11.2926L13.2972 11.3083C13.1644 11.3538 12.9827 11.4168 12.6035 11.4168C12.3541 11.4143 12.1579 11.3534 12.0351 11.2407C11.9445 11.1571 11.8899 11.0378 11.8669 10.87L13.6308 10.8729C13.7114 10.8729 13.7983 10.8189 13.8088 10.7213C13.8203 10.6551 13.8733 10.3046 13.7501 9.90536C13.701 9.72303 13.5724 9.53588 13.4742 9.43871C13.338 9.30296 13.2069 9.21005 13.0721 9.15695C12.8575 9.0728 12.623 9.04052 12.401 9.04641ZM20.1942 9.04641C19.9619 9.04666 19.7299 9.08757 19.5446 9.16772C19.3583 9.24836 19.1989 9.36152 19.0692 9.50328C18.9464 9.64102 18.853 9.80887 18.7903 10.0022C18.7312 10.1865 18.7003 10.3876 18.7003 10.6C18.7003 10.8143 18.7312 11.0154 18.7903 11.1957C18.8545 11.3941 18.9474 11.5619 19.0692 11.6957C19.1959 11.8374 19.3617 11.9527 19.5466 12.0283C19.7394 12.1089 19.9577 12.1496 20.1972 12.1496C20.4441 12.1496 20.6629 12.1094 20.8467 12.0312C21.0326 11.9536 21.1944 11.8404 21.3271 11.6947C21.4518 11.5554 21.5463 11.388 21.6069 11.1987C21.6655 11.0169 21.694 10.8209 21.694 10.6C21.694 10.3791 21.6655 10.1835 21.6069 10.0022C21.5468 9.81438 21.4528 9.64701 21.3281 9.50425L21.3261 9.5023C21.1994 9.36305 21.0381 9.24986 20.8477 9.16772C20.6589 9.08657 20.4265 9.04616 20.1942 9.04641ZM23.498 9.04836C23.2435 9.03434 23.0988 9.07284 22.9511 9.13445C22.9235 9.14597 22.8655 9.17315 22.8004 9.21272C22.7809 9.13358 22.7095 9.0738 22.6243 9.0738H22.1362C22.035 9.0738 21.9552 9.1536 21.9552 9.25479V11.9686C21.9552 12.0698 22.0364 12.1496 22.1391 12.1496H22.638C22.7412 12.1496 22.819 12.0718 22.819 11.9686V10.6117C22.819 10.4379 22.8411 10.2735 22.8787 10.1773C22.9112 10.0837 22.9562 10.0092 23.0098 9.96014C23.0644 9.90955 23.126 9.87359 23.1966 9.85155C23.2577 9.83352 23.3396 9.8222 23.4158 9.8222C23.4999 9.8222 23.5953 9.84463 23.6163 9.84764C23.6499 9.85315 23.7544 9.8442 23.81 9.71948C23.8286 9.6744 23.8631 9.58203 23.8952 9.49838C23.9222 9.42726 23.9457 9.3631 23.9578 9.33305C23.9748 9.28146 23.9701 9.22893 23.9441 9.18435C23.922 9.14778 23.8863 9.11956 23.8472 9.10804C23.7781 9.08299 23.6077 9.05537 23.498 9.04836ZM12.4392 9.76448C12.636 9.76448 12.7684 9.8277 12.8696 9.96895C12.9082 10.022 12.9362 10.093 12.9538 10.1861H11.8952C11.9208 10.099 11.9544 10.0251 11.996 9.96699C12.0912 9.83075 12.2358 9.76448 12.4392 9.76448ZM27.782 9.76448C27.9808 9.76448 28.1137 9.8272 28.2124 9.96895C28.252 10.023 28.28 10.0955 28.2985 10.1861H27.24C27.2645 10.099 27.2986 10.0256 27.3417 9.96699C27.4384 9.82875 27.5786 9.76448 27.782 9.76448ZM20.1972 9.77524C20.4075 9.77524 20.55 9.83621 20.6452 9.96895C20.7479 10.1092 20.7998 10.3215 20.7998 10.6C20.7998 10.8785 20.7465 11.0926 20.6423 11.2349L20.6403 11.2368C20.5477 11.3701 20.407 11.4315 20.1972 11.4315C19.9893 11.4315 19.8486 11.3701 19.7559 11.2368C19.6538 11.0911 19.6004 10.8704 19.6004 10.6C19.6004 10.329 19.6533 10.1102 19.7559 9.96699C19.8476 9.83576 19.9878 9.77524 20.1972 9.77524ZM8.06125 10.7897C8.21553 10.7913 8.36184 10.8051 8.45551 10.8162V11.4012H8.45453C8.36136 11.4152 8.21505 11.4343 8.06027 11.4423C7.76074 11.4638 7.60681 11.3794 7.58677 11.3679L7.58481 11.367C7.52421 11.3224 7.52117 11.3168 7.50264 11.2877C7.49011 11.2702 7.4684 11.2273 7.4684 11.1331C7.4684 11.0199 7.50324 10.9465 7.58188 10.8944L7.61123 10.8749C7.65982 10.8483 7.80279 10.7902 8.06125 10.7897Z" fill="url(#paint0_linear_281_85)"/>
<defs>
<linearGradient id="paint0_linear_281_85" x1="16.0286" y1="0" x2="16.0286" y2="23" gradientUnits="userSpaceOnUse">
<stop stop-color="#1D86C4"/>
<stop offset="1" stop-color="#87BC48"/>
</linearGradient>
</defs>
</svg>
