<svg width="22" height="23" viewBox="0 0 22 23" fill="none" xmlns="http://www.w3.org/2000/svg">
<path d="M6.3574 22.6654C5.99832 22.6593 5.64126 22.6391 5.28622 22.5746C5.09256 22.5393 4.97152 22.4354 4.98261 22.2387C5.00985 21.7687 4.84544 21.463 4.34111 21.3995C4.24731 21.3874 4.14846 21.336 4.07281 21.2764C3.82972 21.0838 3.65321 21.1796 3.44946 21.3592C3.02886 21.7303 3.01473 21.7182 2.56387 21.3692C2.08375 20.997 1.67121 20.5613 1.31516 20.0691C1.18201 19.8855 1.16487 19.703 1.33634 19.5597C1.70147 19.2551 1.73677 18.9313 1.46242 18.5521C1.40694 18.4744 1.36962 18.3715 1.35853 18.2757C1.31717 17.9469 1.10536 17.8884 0.819908 17.8773C0.328695 17.8581 0.288349 17.8107 0.223795 17.3185C0.141086 16.6861 0.152181 16.0547 0.262124 15.4253C0.293392 15.2457 0.387197 15.1065 0.573797 15.1237C1.10637 15.1711 1.297 14.8866 1.48663 14.4237C1.66112 13.997 1.68735 13.7106 1.33029 13.409C1.16386 13.2688 1.18403 13.0912 1.30709 12.9178C1.72063 12.3317 2.22294 11.8355 2.80897 11.4229C2.96027 11.317 3.10652 11.3231 3.24874 11.4421C3.2901 11.4764 3.33649 11.5056 3.3718 11.545C3.59773 11.7971 3.8388 11.9141 4.14442 11.662C4.18679 11.6277 4.25537 11.5783 4.32396 11.6559C4.39457 11.7366 4.32295 11.779 4.29068 11.8314C3.98808 12.3237 4.08996 12.8451 4.55595 13.179C4.73348 13.3061 4.72541 13.5038 4.53981 13.6258C3.34658 14.4075 2.74845 15.8015 3.02785 17.149C3.31834 18.5511 4.40869 19.594 5.83896 19.8371C7.69387 20.1528 9.52558 18.7498 9.7142 16.8747C9.74042 16.6145 9.75152 16.3562 9.70814 16.099C9.68293 15.9487 9.72933 15.8449 9.83624 15.7379C10.2296 15.3436 10.6119 14.9371 11.0012 14.5376C11.1677 14.3672 11.2605 14.3753 11.3058 14.6042C11.3815 14.9855 11.5893 15.1045 11.9645 15.1055C12.3639 15.1065 12.4002 15.1822 12.4628 15.5806C12.5636 16.2201 12.5435 16.8575 12.4537 17.497C12.4204 17.7331 12.2963 17.8833 12.0694 17.8632C11.5802 17.8208 11.3482 18.0447 11.2554 18.5057C11.2141 18.7084 10.9982 18.9041 11.0204 19.0826C11.0426 19.2632 11.2594 19.4215 11.3966 19.5849C11.5257 19.7383 11.5187 19.8865 11.4077 20.0429C10.9932 20.6269 10.4929 21.1262 9.90987 21.5417C9.7495 21.6557 9.57904 21.6749 9.45699 21.5266C9.12918 21.1292 8.77615 21.0989 8.37269 21.3965C8.32528 21.4308 8.26073 21.453 8.20223 21.459C7.8149 21.4994 7.74531 21.7545 7.73724 22.0874C7.72715 22.4909 7.65251 22.5463 7.25208 22.6008C6.95654 22.6412 6.66 22.6563 6.36144 22.6633L6.3574 22.6654Z" fill="url(#paint0_linear_296_19)"/>
<path d="M8.31722 10.4395C8.07917 10.1984 7.80482 10.1359 7.50323 10.145C7.25914 10.152 7.01404 10.1419 6.76994 10.148C6.66 10.151 6.60352 10.1319 6.60554 10.0007C6.6126 9.50448 6.61159 9.00822 6.60554 8.51196C6.60453 8.40505 6.66 8.34554 6.72556 8.27998C7.13104 7.87551 7.5345 7.46902 7.94099 7.06657C8.07312 6.93544 8.15886 6.80028 8.01059 6.63184C7.90064 6.50677 7.74228 6.53198 7.57687 6.69639C7.21879 7.05144 6.85871 7.40346 6.50971 7.76657C6.3917 7.88963 6.32311 7.9098 6.19401 7.77262C5.83795 7.39539 5.46576 7.03328 5.09458 6.66916C4.92714 6.50374 4.72339 6.52089 4.63866 6.69942C4.57209 6.84063 4.63866 6.94553 4.73751 7.04438C5.15005 7.45288 5.55755 7.86542 5.97008 8.27392C6.04372 8.34655 6.09011 8.41715 6.08911 8.52911C6.08204 9.0173 6.08305 9.50649 6.08911 9.99468C6.09011 10.1117 6.06086 10.154 5.93781 10.149C5.67858 10.1399 5.41835 10.149 5.15913 10.145C4.90797 10.1409 4.67195 10.1863 4.47627 10.3548C4.41374 10.4092 4.37642 10.4314 4.32094 10.3417C4.14846 10.0592 3.90235 9.83834 3.67742 9.6003C2.6254 8.49078 2.28447 7.1866 2.76358 5.73817C3.24269 4.29076 4.29471 3.43341 5.79861 3.18124C7.37312 2.91698 8.96477 3.74911 9.70915 5.18342C10.4495 6.61066 10.2004 8.36974 9.08984 9.53272C8.82154 9.81413 8.52601 10.0703 8.31621 10.4395H8.31722Z" fill="url(#paint1_linear_296_19)"/>
<path d="M14.6929 9.48024C15.5815 9.32491 16.4137 9.18067 17.2448 9.03543C17.4929 8.99206 17.74 8.94667 17.9882 8.9043C18.0638 8.89119 18.1324 8.87203 18.1384 8.99811C18.1879 10.1036 18.2423 11.2091 18.2978 12.366C17.9397 12.0795 17.6059 11.8314 17.2942 11.5581C17.1318 11.4148 17.0501 11.4219 16.9079 11.5914C16.2654 12.3579 15.6037 13.1074 14.9541 13.8689C14.8704 13.9667 14.7847 14 14.6616 14.002C13.4936 14.0232 12.3256 14.0515 11.1576 14.0706C11.0103 14.0726 10.9054 14.112 10.8005 14.2209C9.67384 15.394 8.5381 16.5579 7.41648 17.7371C7.24602 17.9156 7.15827 17.8995 7.00596 17.734C6.778 17.4879 6.52988 17.26 6.28175 17.033C6.18391 16.9433 6.16474 16.8948 6.26964 16.7859C7.57988 15.4394 8.88407 14.0878 10.1862 12.7331C10.2811 12.6343 10.3769 12.6071 10.506 12.605C11.6589 12.5859 12.8118 12.5597 13.9636 12.5395C14.0847 12.5375 14.1755 12.5143 14.2602 12.4134C14.7726 11.8072 15.29 11.205 15.8155 10.6089C15.9184 10.4919 15.9023 10.4425 15.7863 10.3537C15.4302 10.0804 15.0842 9.79393 14.6909 9.47923L14.6929 9.48024Z" fill="url(#paint2_linear_296_19)"/>
<path d="M18.6418 18.546C18.6418 17.3629 18.6418 16.1797 18.6418 14.9966C18.6418 14.4721 18.8536 14.2572 19.37 14.2562C19.8431 14.2562 20.3161 14.2532 20.7902 14.2562C21.1917 14.2593 21.4347 14.4953 21.4357 14.8947C21.4378 17.3225 21.4378 19.7493 21.4357 22.1772C21.4357 22.5867 21.1906 22.8257 20.7771 22.8288C20.296 22.8318 19.8148 22.8308 19.3347 22.8288C18.8768 22.8267 18.6438 22.5968 18.6428 22.1409C18.6408 20.9426 18.6428 19.7443 18.6428 18.545L18.6418 18.546Z" fill="url(#paint3_linear_296_19)"/>
<path d="M15.2023 19.6333C15.2023 18.7931 15.2013 17.9529 15.2023 17.1137C15.2023 16.6578 15.4353 16.4258 15.8932 16.4238C16.3663 16.4218 16.8403 16.4208 17.3134 16.4238C17.7542 16.4268 17.9952 16.6659 17.9952 17.1036C17.9972 18.784 17.9972 20.4634 17.9952 22.1438C17.9952 22.5967 17.7562 22.8297 17.3003 22.8317C16.8191 22.8338 16.338 22.8348 15.8569 22.8317C15.4454 22.8297 15.2033 22.5897 15.2023 22.1771C15.1992 21.3299 15.2023 20.4816 15.2023 19.6343V19.6333Z" fill="url(#paint4_linear_296_19)"/>
<path d="M9.09993 16.4602C9.15439 17.1481 8.9567 17.7381 8.53912 18.2344C7.79272 19.123 6.8345 19.4821 5.69775 19.2067C4.5842 18.9374 3.86503 18.2092 3.61992 17.0956C3.36877 15.9528 3.74197 14.9936 4.65581 14.2512C4.795 14.1382 4.8878 14.0777 5.03103 14.2714C5.21259 14.5165 5.48795 14.6496 5.79659 14.6819C6.14559 14.7182 6.49761 14.7273 6.84559 14.6718C7.15121 14.6234 7.4175 14.4741 7.58897 14.222C7.71505 14.0364 7.81188 14.0707 7.94603 14.1816C8.00453 14.23 8.06707 14.2744 8.14272 14.3329C7.94603 14.5397 7.75338 14.7424 7.55871 14.9442C6.96461 15.5594 6.37354 16.1767 5.7734 16.7849C5.66446 16.8949 5.67455 16.9504 5.78046 17.0502C6.21922 17.4638 6.65395 17.8814 7.08061 18.307C7.19257 18.419 7.25006 18.424 7.36202 18.305C7.89055 17.7432 8.42917 17.1924 8.96376 16.6367C9.01419 16.5832 9.05353 16.5197 9.09791 16.4602H9.09993Z" fill="url(#paint5_linear_296_19)"/>
<path d="M11.9009 20.5907C11.9009 20.0793 11.8989 19.5669 11.9009 19.0555C11.903 18.6218 12.1329 18.3868 12.5596 18.3847C13.0558 18.3817 13.5521 18.3807 14.0494 18.3847C14.4458 18.3878 14.6919 18.6298 14.6929 19.0293C14.6969 20.0752 14.6969 21.1222 14.6929 22.1682C14.6909 22.5908 14.4448 22.8278 14.0171 22.8299C13.5279 22.8319 13.0397 22.8329 12.5505 22.8299C12.138 22.8268 11.903 22.5888 11.9009 22.1712C11.8979 21.6447 11.9009 21.1172 11.9009 20.5897V20.5907Z" fill="url(#paint6_linear_296_19)"/>
<path d="M6.36345 11.8385C6.75178 11.8385 7.14112 11.8365 7.52945 11.8385C7.90366 11.8415 8.14271 12.0473 8.14775 12.365C8.1528 12.6867 7.92081 12.9087 7.54962 12.9117C6.74976 12.9177 5.9499 12.9187 5.14903 12.9117C4.77785 12.9087 4.54687 12.6847 4.55393 12.362C4.56099 12.0493 4.79197 11.8425 5.15105 11.8385C5.55451 11.8334 5.95898 11.8375 6.36244 11.8375L6.36345 11.8385Z" fill="url(#paint7_linear_296_19)"/>
<path d="M6.35841 10.4859C6.76288 10.4859 7.16734 10.4839 7.57181 10.4859C7.9662 10.4879 8.2002 10.6927 8.19617 11.0245C8.19113 11.3453 7.9551 11.5501 7.57887 11.5511C6.75481 11.5531 5.93074 11.5531 5.10566 11.5511C4.74154 11.5511 4.49744 11.3281 4.50249 11.0084C4.50652 10.6977 4.74053 10.49 5.09961 10.4859C5.51921 10.4819 5.93881 10.4859 6.35941 10.4859H6.35841Z" fill="url(#paint8_linear_296_19)"/>
<path d="M10.8005 12.2481C10.278 12.1059 9.97746 12.4014 9.6789 12.7403C9.35714 13.1065 9.0021 13.4434 8.66723 13.7984C8.58452 13.8862 8.53308 13.9074 8.42918 13.8206C8.29604 13.7087 8.13869 13.6259 7.99446 13.5281C7.86434 13.4404 7.86938 13.3355 8.00555 13.2558C8.59662 12.9108 8.73783 12.3873 8.39388 11.8134C8.36261 11.762 8.31823 11.7246 8.37976 11.6591C8.43927 11.5965 8.49676 11.6197 8.53913 11.655C8.86996 11.9294 9.11204 11.7599 9.36723 11.5199C9.62141 11.2808 9.70916 11.2939 10.0017 11.5078C10.2891 11.7176 10.5595 11.9475 10.7995 12.2491L10.8005 12.2481Z" fill="url(#paint9_linear_296_19)"/>
<path d="M6.2888 13.2041C6.62468 13.2041 6.96056 13.2132 7.29544 13.2001C7.44673 13.1941 7.47094 13.2556 7.47094 13.3827C7.47094 13.8457 7.1159 14.241 6.65494 14.2632C6.41186 14.2753 6.16676 14.2753 5.92266 14.2632C5.46171 14.241 5.10465 13.8467 5.10565 13.3837C5.10565 13.2566 5.12986 13.1941 5.28116 13.2001C5.61603 13.2132 5.95191 13.2041 6.28779 13.2041H6.2888Z" fill="url(#paint10_linear_296_19)"/>
<path d="M9.56189 3.5201C9.55684 3.43739 9.59416 3.37182 9.64863 3.31635C9.91189 3.05208 10.1741 2.7858 10.4424 2.52557C10.5705 2.40049 10.7208 2.39242 10.8509 2.51649C10.9881 2.64761 10.9861 2.80698 10.857 2.94214C10.5988 3.21145 10.3315 3.47269 10.0662 3.73494C9.96938 3.83076 9.84734 3.84892 9.72832 3.79445C9.61736 3.74402 9.55483 3.6492 9.5629 3.51909L9.56189 3.5201Z" fill="url(#paint11_linear_296_19)"/>
<path d="M6.64387 1.6794C6.64387 1.87004 6.64589 2.05966 6.64387 2.2503C6.64186 2.44295 6.53494 2.55592 6.35036 2.55895C6.17485 2.56197 6.05986 2.44699 6.05583 2.27249C6.04574 1.88416 6.04373 1.49583 6.05785 1.10851C6.0639 0.937035 6.18191 0.826084 6.36145 0.834153C6.53897 0.842222 6.63782 0.950148 6.64186 1.1307C6.64589 1.31326 6.64186 1.49583 6.64286 1.67839L6.64387 1.6794Z" fill="url(#paint12_linear_296_19)"/>
<path d="M1.17798 6.82959C1.36055 6.82959 1.54311 6.82959 1.72568 6.82959C1.91732 6.8306 2.03432 6.9355 2.03836 7.11907C2.04239 7.30668 1.91833 7.41662 1.73375 7.42066C1.36054 7.42873 0.987344 7.43075 0.615152 7.42066C0.432586 7.41562 0.308522 7.30769 0.314574 7.11706C0.320626 6.92844 0.440655 6.83262 0.629273 6.8306C0.811839 6.82858 0.994404 6.8306 1.17697 6.8306L1.17798 6.82959Z" fill="url(#paint13_linear_296_19)"/>
<path d="M11.5318 6.82965C11.7144 6.82965 11.8969 6.82764 12.0795 6.82965C12.2721 6.83167 12.3841 6.9406 12.3881 7.12418C12.3912 7.29868 12.2762 7.41366 12.1027 7.41871C11.7154 7.4298 11.326 7.43182 10.9387 7.41669C10.7692 7.40963 10.6583 7.29565 10.6664 7.11208C10.6744 6.93254 10.7824 6.8357 10.9609 6.83066C11.1505 6.82562 11.3412 6.82965 11.5318 6.82965Z" fill="url(#paint14_linear_296_19)"/>
<path d="M2.05854 2.43481C2.1584 2.43481 2.229 2.4913 2.29457 2.55787C2.53664 2.80095 2.78174 3.04101 3.0218 3.28612C3.18016 3.44851 3.19227 3.62603 3.04904 3.74505C2.89371 3.87416 2.74039 3.84289 2.60321 3.70471C2.35609 3.45557 2.10998 3.20643 1.86085 2.96032C1.75595 2.85643 1.72871 2.7364 1.7852 2.60629C1.83462 2.49332 1.93145 2.43481 2.05854 2.43582V2.43481Z" fill="url(#paint15_linear_296_19)"/>
<defs>
<linearGradient id="paint0_linear_296_19" x1="6.34983" y1="11.3479" x2="6.34983" y2="22.6654" gradientUnits="userSpaceOnUse">
<stop stop-color="#1D86C4"/>
<stop offset="1" stop-color="#87BC48"/>
</linearGradient>
<linearGradient id="paint1_linear_296_19" x1="6.34121" y1="3.13257" x2="6.34121" y2="10.4395" gradientUnits="userSpaceOnUse">
<stop stop-color="#1D86C4"/>
<stop offset="1" stop-color="#87BC48"/>
</linearGradient>
<linearGradient id="paint2_linear_296_19" x1="12.2485" y1="8.89478" x2="12.2485" y2="17.8646" gradientUnits="userSpaceOnUse">
<stop stop-color="#1D86C4"/>
<stop offset="1" stop-color="#87BC48"/>
</linearGradient>
<linearGradient id="paint3_linear_296_19" x1="20.0395" y1="14.2549" x2="20.0395" y2="22.8307" gradientUnits="userSpaceOnUse">
<stop stop-color="#1D86C4"/>
<stop offset="1" stop-color="#87BC48"/>
</linearGradient>
<linearGradient id="paint4_linear_296_19" x1="16.5988" y1="16.4219" x2="16.5988" y2="22.8337" gradientUnits="userSpaceOnUse">
<stop stop-color="#1D86C4"/>
<stop offset="1" stop-color="#87BC48"/>
</linearGradient>
<linearGradient id="paint5_linear_296_19" x1="6.32612" y1="14.0906" x2="6.32612" y2="19.2975" gradientUnits="userSpaceOnUse">
<stop stop-color="#1D86C4"/>
<stop offset="1" stop-color="#87BC48"/>
</linearGradient>
<linearGradient id="paint6_linear_296_19" x1="13.2978" y1="18.3821" x2="13.2978" y2="22.8318" gradientUnits="userSpaceOnUse">
<stop stop-color="#1D86C4"/>
<stop offset="1" stop-color="#87BC48"/>
</linearGradient>
<linearGradient id="paint7_linear_296_19" x1="6.3508" y1="11.8359" x2="6.3508" y2="12.9166" gradientUnits="userSpaceOnUse">
<stop stop-color="#1D86C4"/>
<stop offset="1" stop-color="#87BC48"/>
</linearGradient>
<linearGradient id="paint8_linear_296_19" x1="6.34932" y1="10.4841" x2="6.34932" y2="11.5526" gradientUnits="userSpaceOnUse">
<stop stop-color="#1D86C4"/>
<stop offset="1" stop-color="#87BC48"/>
</linearGradient>
<linearGradient id="paint9_linear_296_19" x1="9.35029" y1="11.344" x2="9.35029" y2="13.876" gradientUnits="userSpaceOnUse">
<stop stop-color="#1D86C4"/>
<stop offset="1" stop-color="#87BC48"/>
</linearGradient>
<linearGradient id="paint10_linear_296_19" x1="6.2883" y1="13.1997" x2="6.2883" y2="14.2723" gradientUnits="userSpaceOnUse">
<stop stop-color="#1D86C4"/>
<stop offset="1" stop-color="#87BC48"/>
</linearGradient>
<linearGradient id="paint11_linear_296_19" x1="10.2576" y1="2.42749" x2="10.2576" y2="3.82483" gradientUnits="userSpaceOnUse">
<stop stop-color="#1D86C4"/>
<stop offset="1" stop-color="#87BC48"/>
</linearGradient>
<linearGradient id="paint12_linear_296_19" x1="6.34626" y1="0.83374" x2="6.34626" y2="2.559" gradientUnits="userSpaceOnUse">
<stop stop-color="#1D86C4"/>
<stop offset="1" stop-color="#87BC48"/>
</linearGradient>
<linearGradient id="paint13_linear_296_19" x1="1.17641" y1="6.82959" x2="1.17641" y2="7.42749" gradientUnits="userSpaceOnUse">
<stop stop-color="#1D86C4"/>
<stop offset="1" stop-color="#87BC48"/>
</linearGradient>
<linearGradient id="paint14_linear_296_19" x1="11.5271" y1="6.82812" x2="11.5271" y2="7.42753" gradientUnits="userSpaceOnUse">
<stop stop-color="#1D86C4"/>
<stop offset="1" stop-color="#87BC48"/>
</linearGradient>
<linearGradient id="paint15_linear_296_19" x1="2.45269" y1="2.43481" x2="2.45269" y2="3.8269" gradientUnits="userSpaceOnUse">
<stop stop-color="#1D86C4"/>
<stop offset="1" stop-color="#87BC48"/>
</linearGradient>
</defs>
</svg>
