<svg width="49" height="49" viewBox="0 0 49 49" fill="none" xmlns="http://www.w3.org/2000/svg">
<path d="M37.8291 48.8128C37.1091 48.8128 36.5331 48.4008 36.5331 48.4008C34.2571 47.2628 26.8271 42.9928 26.8271 35.8568V29.4828C26.8271 26.8928 28.4791 24.6048 30.9391 23.7868L35.9391 22.1288C37.1571 21.7268 38.4991 21.7268 39.7151 22.1288L44.7171 23.7868C47.1751 24.6028 48.8291 26.8908 48.8291 29.4828V35.8568C48.8291 43.9188 41.3031 47.5728 38.9951 48.5008C38.9951 48.5008 38.5512 48.8128 37.8312 48.8128H37.8291ZM26.8271 4.83081H26.4851C25.6591 2.50281 23.4351 0.830811 20.8271 0.830811H16.8271C14.2191 0.830811 11.9951 2.50281 11.1691 4.83081H10.8271C5.31315 4.83081 0.827148 9.31681 0.827148 14.8308V38.8308C0.827148 44.3448 5.31315 48.8308 10.8271 48.8308H26.8271C27.7211 48.8308 28.5731 48.6748 29.3991 48.4528C26.1491 45.7208 22.8271 41.5468 22.8271 35.8548V34.8288H10.8271C9.72315 34.8288 8.82715 33.9328 8.82715 32.8288C8.82715 31.7248 9.72315 30.8288 10.8271 30.8288H22.8271V29.4808C22.8271 28.5648 22.9751 27.6808 23.2091 26.8288H10.8271C9.72315 26.8288 8.82715 25.9328 8.82715 24.8288C8.82715 23.7248 9.72315 22.8288 10.8271 22.8288H25.4051C26.5391 21.5608 27.9811 20.5528 29.6791 19.9888L34.6811 18.3288C35.3792 18.0988 36.1011 17.9768 36.8291 17.9048V14.8288C36.8291 9.31481 32.3431 4.82881 26.8291 4.82881L26.8271 4.83081ZM26.8271 18.8308H10.8271C9.72315 18.8308 8.82715 17.9348 8.82715 16.8308C8.82715 15.7268 9.72315 14.8308 10.8271 14.8308H26.8271C27.9311 14.8308 28.8271 15.7268 28.8271 16.8308C28.8271 17.9348 27.9311 18.8308 26.8271 18.8308Z" fill="url(#paint0_linear_297_57)"/>
<defs>
<linearGradient id="paint0_linear_297_57" x1="24.8281" y1="0.830811" x2="24.8281" y2="48.8308" gradientUnits="userSpaceOnUse">
<stop stop-color="#1D86C4"/>
<stop offset="1" stop-color="#87BC48"/>
</linearGradient>
</defs>
</svg>
