<svg width="19" height="23" viewBox="0 0 19 23" fill="none" xmlns="http://www.w3.org/2000/svg">
<path d="M4.31209 3.28247H14.6693C14.6736 3.32691 14.6799 3.36289 14.6799 3.39887C14.6799 5.04854 14.7424 6.70138 14.6619 8.34682C14.554 10.5626 13.6345 12.4387 11.9139 13.8556C10.3362 15.155 8.50769 15.118 6.9723 13.772C5.26867 12.2789 4.37135 10.369 4.31844 8.09815C4.28352 6.57123 4.31209 5.04325 4.31209 3.51632C4.31209 3.44225 4.31209 3.36818 4.31209 3.28247ZM5.21894 7.77964C5.20835 10.1277 7.10775 12.0578 9.4431 12.0726C11.8356 12.0885 13.7572 10.1997 13.7741 7.81668C13.79 5.4517 11.8811 3.5195 9.51506 3.50786C7.15325 3.49622 5.22952 5.40831 5.21894 7.77964Z" fill="url(#paint0_linear_296_29)"/>
<path d="M9.41983 22.8425C7.61038 22.8425 5.80093 22.8457 3.99042 22.8415C3.30685 22.8393 2.84761 22.196 3.08781 21.5801C3.23172 21.2119 3.51531 21.0161 3.90577 20.9738C3.96608 20.9675 4.02746 20.9696 4.08883 20.9696C7.64742 20.9696 11.2049 20.9696 14.7635 20.9696C15.2577 20.9696 15.5995 21.178 15.7529 21.5653C15.9963 22.1812 15.5497 22.8362 14.8704 22.8404C13.8239 22.8478 12.7784 22.8425 11.7319 22.8425C10.9605 22.8425 10.1891 22.8425 9.41877 22.8425H9.41983Z" fill="url(#paint1_linear_296_29)"/>
<path d="M9.48756 2.53741C7.70879 2.53741 5.93003 2.53847 4.15127 2.53741C3.59362 2.53741 3.21903 2.14166 3.25924 1.60729C3.28887 1.21259 3.61689 0.885624 4.02005 0.84753C4.06555 0.843298 4.11211 0.844356 4.15761 0.844356C7.71514 0.844356 11.2727 0.844356 14.8313 0.844356C15.3307 0.844356 15.6989 1.15651 15.7349 1.602C15.7773 2.12579 15.4069 2.53424 14.8715 2.53635C13.9403 2.54164 13.0091 2.53741 12.0769 2.53741C11.2145 2.53741 10.351 2.53741 9.48862 2.53741H9.48756Z" fill="url(#paint2_linear_296_29)"/>
<path d="M15.4143 3.8761C16.2016 3.8761 16.9497 3.86975 17.6967 3.87927C17.974 3.88245 18.1697 4.08032 18.1518 4.35121C17.9359 7.64737 16.8587 10.5298 14.1509 12.6207C14.1032 12.6578 14.0503 12.6906 13.9995 12.7234C13.99 12.7297 13.9752 12.7287 13.9382 12.735C13.9784 12.6652 14.008 12.607 14.0419 12.553C14.9498 11.0949 15.4566 9.52666 15.4196 7.79023C15.3942 6.57652 15.4143 5.36281 15.4143 4.1491V3.8761Z" fill="url(#paint3_linear_296_29)"/>
<path d="M3.5788 3.87597C3.5788 3.98602 3.5788 4.0675 3.5788 4.15004C3.5788 5.37115 3.5989 6.59332 3.57351 7.81444C3.53859 9.535 4.04439 11.0894 4.93959 12.5359C4.97768 12.5973 5.0126 12.6597 5.03482 12.7317C4.34596 12.2915 3.76186 11.7402 3.255 11.1085C1.99156 9.53289 1.28471 7.71815 0.975727 5.73939C0.905889 5.29496 0.872028 4.84525 0.841341 4.39659C0.820178 4.0929 1.0043 3.88444 1.29741 3.88021C2.04447 3.86963 2.79259 3.87703 3.5788 3.87703V3.87597Z" fill="url(#paint4_linear_296_29)"/>
<path d="M8.34792 16.9939C9.0717 17.3188 9.76797 17.3188 10.497 16.9939C10.7383 18.306 11.4356 19.3356 12.4557 20.2149H6.39561C7.40298 19.3409 8.10772 18.3102 8.34686 16.9939H8.34792Z" fill="url(#paint5_linear_296_29)"/>
<path d="M7.96274 15.2278C8.95 15.6003 9.89917 15.613 10.8758 15.2881C10.8642 15.7368 10.642 16.0415 10.297 16.2531C9.73621 16.5981 9.15211 16.6023 8.58388 16.2754C8.19977 16.0542 7.97438 15.7177 7.96274 15.2278Z" fill="url(#paint6_linear_296_29)"/>
<path d="M13.0408 7.79111C13.0419 9.74764 11.4621 11.3359 9.50871 11.3391C7.53948 11.3423 5.95118 9.75928 5.95224 7.79322C5.95224 5.82716 7.54689 4.23464 9.5066 4.24099C11.4578 4.24733 13.0387 5.83457 13.0408 7.79111ZM8.71192 8.74662C8.33521 8.36992 7.98179 8.0112 7.62413 7.65778C7.40192 7.43874 7.12362 7.42498 6.93527 7.61651C6.74057 7.81439 6.75538 8.07152 6.98606 8.30431C7.43155 8.75403 7.88021 9.20163 8.32992 9.64818C8.59129 9.90637 8.82514 9.90954 9.08439 9.64923C9.92351 8.80482 10.7605 7.9583 11.5943 7.10965C11.6568 7.04616 11.7107 6.96574 11.7404 6.88321C11.8091 6.68639 11.7234 6.47264 11.5499 6.36683C11.3615 6.25149 11.1489 6.27794 10.9679 6.45889C10.4124 7.01442 9.86002 7.57419 9.30766 8.13289C9.10979 8.33289 8.91614 8.53605 8.71192 8.74768V8.74662Z" fill="url(#paint7_linear_296_29)"/>
<defs>
<linearGradient id="paint0_linear_296_29" x1="9.50206" y1="3.28247" x2="9.50206" y2="14.8063" gradientUnits="userSpaceOnUse">
<stop stop-color="#1D86C4"/>
<stop offset="1" stop-color="#87BC48"/>
</linearGradient>
<linearGradient id="paint1_linear_296_29" x1="9.42168" y1="20.9692" x2="9.42168" y2="22.8443" gradientUnits="userSpaceOnUse">
<stop stop-color="#1D86C4"/>
<stop offset="1" stop-color="#87BC48"/>
</linearGradient>
<linearGradient id="paint2_linear_296_29" x1="9.49725" y1="0.844238" x2="9.49725" y2="2.53901" gradientUnits="userSpaceOnUse">
<stop stop-color="#1D86C4"/>
<stop offset="1" stop-color="#87BC48"/>
</linearGradient>
<linearGradient id="paint3_linear_296_29" x1="16.0455" y1="3.87402" x2="16.0455" y2="12.735" gradientUnits="userSpaceOnUse">
<stop stop-color="#1D86C4"/>
<stop offset="1" stop-color="#87BC48"/>
</linearGradient>
<linearGradient id="paint4_linear_296_29" x1="2.93726" y1="3.87451" x2="2.93726" y2="12.7317" gradientUnits="userSpaceOnUse">
<stop stop-color="#1D86C4"/>
<stop offset="1" stop-color="#87BC48"/>
</linearGradient>
<linearGradient id="paint5_linear_296_29" x1="9.42565" y1="16.9939" x2="9.42565" y2="20.2149" gradientUnits="userSpaceOnUse">
<stop stop-color="#1D86C4"/>
<stop offset="1" stop-color="#87BC48"/>
</linearGradient>
<linearGradient id="paint6_linear_296_29" x1="9.41929" y1="15.2278" x2="9.41929" y2="16.5163" gradientUnits="userSpaceOnUse">
<stop stop-color="#1D86C4"/>
<stop offset="1" stop-color="#87BC48"/>
</linearGradient>
<linearGradient id="paint7_linear_296_29" x1="9.49654" y1="4.24097" x2="9.49654" y2="11.3391" gradientUnits="userSpaceOnUse">
<stop stop-color="#1D86C4"/>
<stop offset="1" stop-color="#87BC48"/>
</linearGradient>
</defs>
</svg>
