<svg width="154" height="156" viewBox="0 0 154 156" fill="none" xmlns="http://www.w3.org/2000/svg">
<g filter="url(#filter0_d_189_12210)">
<path opacity="0.1667" d="M65.3378 145.128C94.1077 145.128 117.43 131.661 117.43 115.05C117.43 98.4379 94.1077 84.9713 65.3378 84.9713C36.568 84.9713 13.2454 98.4379 13.2454 115.05C13.2454 131.661 36.568 145.128 65.3378 145.128Z" fill="#929394"/>
<path opacity="0.3333" d="M65.3377 140.252C89.4465 140.252 108.991 128.969 108.991 115.05C108.991 101.131 89.4465 89.847 65.3377 89.847C41.2289 89.847 21.6848 101.131 21.6848 115.05C21.6848 128.969 41.2289 140.252 65.3377 140.252Z" fill="#A4A7A9"/>
<path opacity="0.5" d="M65.3378 135.381C84.7856 135.381 100.551 126.278 100.551 115.05C100.551 103.821 84.7856 94.7189 65.3378 94.7189C45.89 94.7189 30.1245 103.821 30.1245 115.05C30.1245 126.278 45.89 135.381 65.3378 135.381Z" fill="#B7BBBF"/>
<path opacity="0.6667" d="M65.3377 130.505C80.1223 130.505 92.1076 123.585 92.1076 115.05C92.1076 106.514 80.1223 99.5945 65.3377 99.5945C50.5531 99.5945 38.5679 106.514 38.5679 115.05C38.5679 123.585 50.5531 130.505 65.3377 130.505Z" fill="#CACED4"/>
<path opacity="0.8333" d="M65.3378 125.633C75.4614 125.633 83.6681 120.895 83.6681 115.05C83.6681 109.205 75.4614 104.466 65.3378 104.466C55.2143 104.466 47.0076 109.205 47.0076 115.05C47.0076 120.895 55.2143 125.633 65.3378 125.633Z" fill="#DCE2E9"/>
<path d="M65.3379 120.761C70.8004 120.761 75.2286 118.204 75.2286 115.05C75.2286 111.895 70.8004 109.338 65.3379 109.338C59.8755 109.338 55.4473 111.895 55.4473 115.05C55.4473 118.204 59.8755 120.761 65.3379 120.761Z" fill="#EFF6FE"/>
<path opacity="0.1667" d="M121.029 119.71C135.246 115.332 143.223 100.257 138.845 86.0399C134.467 71.8224 119.392 63.8461 105.174 68.2243C90.9569 72.6024 82.9806 87.6771 87.3587 101.895C91.7369 116.112 106.812 124.088 121.029 119.71Z" fill="#929394"/>
<path opacity="0.3333" d="M119.668 114.657C131.097 111.035 137.426 98.8339 133.804 87.4046C130.182 75.9752 117.981 69.6461 106.552 73.2681C95.1222 76.89 88.7931 89.0915 92.415 100.521C96.037 111.95 108.238 118.279 119.668 114.657Z" fill="#A4A7A9"/>
<path opacity="0.5" d="M118.307 109.591C126.941 106.717 131.61 97.3887 128.736 88.7547C125.863 80.1208 116.534 75.4512 107.9 78.325C99.266 81.1987 94.5965 90.5275 97.4702 99.1614C100.344 107.795 109.673 112.465 118.307 109.591Z" fill="#B7BBBF"/>
<path opacity="0.6667" d="M117.008 104.516C122.834 102.365 125.813 95.8971 123.661 90.0711C121.509 84.2451 115.042 81.2666 109.215 83.4185C103.389 85.5705 100.411 92.0379 102.563 97.8639C104.715 103.69 111.182 106.668 117.008 104.516Z" fill="#CACED4"/>
<path opacity="0.8333" d="M115.936 99.2779C118.867 97.7113 119.973 94.0655 118.406 91.1348C116.84 88.204 113.194 87.0981 110.263 88.6647C107.332 90.2313 106.226 93.8771 107.793 96.8078C109.36 99.7385 113.005 100.844 115.936 99.2779Z" fill="#DCE2E9"/>
<path d="M113.889 93.9683C113.889 94.4017 113.537 94.7538 113.104 94.7538C112.67 94.7538 112.318 94.4017 112.318 93.9683C112.318 93.5349 112.67 93.1827 113.104 93.1827C113.537 93.1827 113.889 93.5349 113.889 93.9683Z" fill="#EFF6FE"/>
<path d="M24.1343 132.192V77.9598L24.2658 77.8824L42.778 66.9585V54.6184H43.3159V67.2642L43.1843 67.3416L24.6722 78.2694V131.263L44.3607 120.011L44.6277 120.479L24.1343 132.192Z" fill="#50CEF5"/>
<path d="M48.8184 48.3148H48.2805V49.2551H48.8184V48.3148Z" fill="#50CEF5"/>
<path d="M48.8184 57.745H48.2805V55.6245H48.8184V57.745ZM48.8184 53.5001H48.2805V51.3795H48.8184V53.5001Z" fill="#50CEF5"/>
<path d="M47.8703 61.514L47.6033 61.0497L48.2805 60.655V59.8656H48.8183V60.9607L47.8703 61.514Z" fill="#50CEF5"/>
<path d="M23.6737 75.6381L23.4028 75.1737L25.1325 74.1637L25.4034 74.6281L23.6737 75.6381ZM27.1293 73.6181L26.8584 73.1538L28.5881 72.1438L28.859 72.6082L27.1293 73.6181ZM30.5887 71.6021L30.3178 71.1377L32.0475 70.1278L32.3184 70.5921L30.5887 71.6021ZM34.0442 69.586L33.7733 69.1217L35.5031 68.1117L35.7739 68.576L34.0442 69.586ZM37.4998 67.5661L37.2289 67.1017L38.9586 66.0918L39.2295 66.5561L37.4998 67.5661ZM40.9592 65.55L40.6883 65.0857L42.418 64.0757L42.6889 64.5401L40.9592 65.55ZM44.4147 63.5301L44.1439 63.0658L45.8736 62.0558L46.1444 62.5201L44.4147 63.5301Z" fill="#50CEF5"/>
<path d="M21.263 77.8281H20.729V76.733L21.6732 76.1797L21.9441 76.644L21.263 77.0426V77.8281Z" fill="#50CEF5"/>
<path d="M21.263 127.645H20.7251V125.73H21.263V127.645ZM21.263 123.811H20.7251V121.895H21.263V123.811ZM21.263 119.98H20.7251V118.064H21.263V119.98ZM21.263 116.149H20.7251V114.233H21.263V116.149ZM21.263 112.314H20.7251V110.399H21.263V112.314ZM21.263 108.483H20.7251V106.568H21.263V108.483ZM21.263 104.652H20.7251V102.737H21.263V104.652ZM21.263 100.821H20.7251V98.9059H21.263V100.821ZM21.263 96.9866H20.7251V95.0711H21.263V96.9866ZM21.263 93.1557H20.7251V91.2402H21.263V93.1557ZM21.263 89.3248H20.7251V87.4093H21.263V89.3248ZM21.263 85.4939H20.7251V83.5784H21.263V85.4939ZM21.263 81.6591H20.7251V79.7437H21.263V81.6591Z" fill="#50CEF5"/>
<path d="M20.729 130.962V129.561H21.263V130.037L21.6809 129.801L21.9479 130.265L20.729 130.962Z" fill="#50CEF5"/>
<path d="M23.6234 129.309L23.3564 128.841L25.0358 127.881L25.3029 128.35L23.6234 129.309ZM26.9784 127.39L26.7114 126.922L28.3908 125.962L28.6578 126.43L26.9784 127.39ZM30.3372 125.471L30.0702 125.002L31.7496 124.043L32.0166 124.511L30.3372 125.471ZM33.6921 123.555L33.4251 123.087L35.1045 122.127L35.3715 122.596L33.6921 123.555ZM37.0471 121.636L36.7801 121.168L38.4595 120.208L38.7265 120.676L37.0471 121.636Z" fill="#50CEF5"/>
<path d="M40.9569 118.784L40.1404 119.25L40.4071 119.717L41.2237 119.251L40.9569 118.784Z" fill="#50CEF5"/>
<path d="M90.9891 52.0838H90.4512V23.2592L71.9352 33.9471L71.6682 33.4827L90.9891 22.3267V52.0838Z" fill="#50CEF5"/>
<path d="M66.8083 39.3725L65.9939 39.8425L66.2628 40.3084L67.0772 39.8383L66.8083 39.3725Z" fill="#50CEF5"/>
<path d="M68.65 38.9233L68.3792 38.459L69.9579 37.5419L70.2288 38.0062L68.65 38.9233ZM71.8037 37.093L71.5329 36.6287L73.1078 35.7154L73.3787 36.1798L71.8037 37.093ZM74.9575 35.2627L74.6866 34.7983L76.2615 33.8851L76.5324 34.3495L74.9575 35.2627ZM78.1112 33.4324L77.8403 32.968L79.4152 32.0548L79.6861 32.5191L78.1112 33.4324ZM81.261 31.6021L80.9902 31.1377L82.5651 30.2245L82.836 30.6888L81.261 31.6021ZM84.4148 29.7717L84.1439 29.3074L85.7188 28.3942L85.9897 28.8585L84.4148 29.7717ZM87.5685 27.9453L87.2976 27.4809L88.8725 26.5677L89.1434 27.0321L87.5685 27.9453ZM90.7222 26.115L90.4513 25.6506L92.0301 24.7335L92.301 25.1979L90.7222 26.115Z" fill="#50CEF5"/>
<path d="M94.7854 24.54H94.2514V24.064L93.8412 24.304L93.5703 23.8357L94.7854 23.1315V24.54Z" fill="#50CEF5"/>
<path d="M94.7854 50.1219H94.2476V48.2955H94.7854V50.1219ZM94.7854 46.4651H94.2476V44.6387H94.7854V46.4651ZM94.7854 42.8122H94.2476V40.9858H94.7854V42.8122ZM94.7854 39.1593H94.2476V37.3329H94.7854V39.1593ZM94.7854 35.5026H94.2476V33.6761H94.7854V35.5026ZM94.7854 31.8497H94.2476V30.0232H94.7854V31.8497ZM94.7854 28.1929H94.2476V26.3665H94.7854V28.1929Z" fill="#50CEF5"/>
<path d="M94.7893 51.9484H94.2515V52.8887H94.7893V51.9484Z" fill="#50CEF5"/>
<path d="M82.5614 132.44L82.426 132.362L54.6152 116.307L54.8861 115.839L82.5614 131.821L106.123 118.053L84.148 105.391L84.415 104.927L107.195 118.049L82.5614 132.44Z" fill="#50CEF5"/>
<path d="M50.5404 119.399C49.9213 119.055 49.7897 118.989 49.7588 118.977L49.8439 118.761L49.7975 118.455C49.9097 118.44 49.9213 118.436 50.7997 118.927L50.5404 119.399Z" fill="#50CEF5"/>
<path d="M78.3743 135.493L76.8304 134.595L77.1012 134.131L78.6452 135.029L78.3743 135.493ZM75.2864 133.697L73.7424 132.8L74.0133 132.335L75.5573 133.233L75.2864 133.697ZM72.1985 131.898L70.6545 131L70.9254 130.536L72.4693 131.434L72.1985 131.898ZM69.1066 130.103L67.5627 129.205L67.8336 128.74L69.3775 129.638L69.1066 130.103ZM66.0187 128.311L64.4747 127.413L64.7456 126.949L66.2896 127.847L66.0187 128.311ZM62.9269 126.519L61.3791 125.625L61.6499 125.161L63.1978 126.055L62.9269 126.519ZM59.8351 124.728L58.2873 123.834L58.5543 123.369L60.1021 124.263L59.8351 124.728ZM56.7394 122.94L55.1916 122.05L55.4586 121.586L57.0064 122.479L56.7394 122.94ZM53.6438 121.16C53.0749 120.835 52.5564 120.537 52.092 120.274L52.359 119.806C52.8234 120.069 53.3419 120.367 53.9107 120.692L53.6438 121.16Z" fill="#50CEF5"/>
<path d="M80.8277 136.925L79.8796 136.371L80.1505 135.907L80.8277 136.298L81.501 135.899L81.7757 136.364L80.8277 136.925Z" fill="#50CEF5"/>
<path d="M83.4937 135.346L83.219 134.881L84.9371 133.864L85.2118 134.328L83.4937 135.346ZM86.9338 133.314L86.6591 132.85L88.3772 131.832L88.6519 132.297L86.9338 133.314ZM90.37 131.279L90.0953 130.815L91.8134 129.797L92.0881 130.261L90.37 131.279ZM93.8101 129.247L93.5353 128.783L95.2534 127.765L95.5282 128.23L93.8101 129.247ZM97.2463 127.216L96.9715 126.751L98.6896 125.734L98.9644 126.198L97.2463 127.216ZM100.686 125.18L100.412 124.716L102.13 123.698L102.404 124.163L100.686 125.18Z" fill="#50CEF5"/>
<path d="M104.127 123.149L103.852 122.685L104.27 122.437L103.852 122.189L104.127 121.725L105.326 122.437L104.127 123.149Z" fill="#50CEF5"/>
<path d="M102.227 121.222L100.601 120.258L100.876 119.798L102.501 120.761L102.227 121.222ZM98.9799 119.295L97.3547 118.331L97.6294 117.867L99.2547 118.83L98.9799 119.295ZM95.7333 117.368L94.1081 116.404L94.3829 115.944L96.0081 116.907L95.7333 117.368ZM92.4829 115.437L90.8577 114.473L91.1324 114.013L92.7576 114.976L92.4829 115.437ZM89.2363 113.51L87.6111 112.546L87.8858 112.086L89.511 113.049L89.2363 113.51ZM85.9897 111.583L84.3645 110.619L84.6392 110.159L86.2644 111.122L85.9897 111.583ZM82.7392 109.652L81.114 108.688L81.3888 108.228L83.014 109.191L82.7392 109.652Z" fill="#50CEF5"/>
<path d="M78.9532 106.779L78.6787 107.242L79.4873 107.722L79.7618 107.259L78.9532 106.779Z" fill="#50CEF5"/>
<path d="M60.4887 113.9L60.2141 114.363L61.0227 114.843L61.2973 114.38L60.4887 113.9Z" fill="#50CEF5"/>
<path d="M89.9831 132.026L88.3733 131.07L88.6481 130.609L90.2578 131.565L89.9831 132.026ZM86.7636 130.114L85.1538 129.158L85.4286 128.698L87.0383 129.654L86.7636 130.114ZM83.5479 128.206L81.9382 127.251L82.2129 126.786L83.8227 127.742L83.5479 128.206ZM80.3284 126.295L78.7187 125.339L78.9934 124.879L80.6032 125.834L80.3284 126.295ZM77.1128 124.387L75.503 123.431L75.7778 122.967L77.3875 123.923L77.1128 124.387ZM73.8933 122.479L72.2835 121.524L72.5583 121.063L74.168 122.019L73.8933 122.479ZM70.6738 120.568L69.064 119.612L69.3388 119.152L70.9485 120.107L70.6738 120.568ZM67.4582 118.66L65.8484 117.704L66.1232 117.244L67.7329 118.2L67.4582 118.66ZM64.2387 116.749L62.6289 115.793L62.9037 115.332L64.5134 116.288L64.2387 116.749Z" fill="#50CEF5"/>
<path d="M92.537 133.539L91.5928 132.978L91.8675 132.517L92.537 132.916L93.218 132.525L93.485 132.989L92.537 133.539Z" fill="#50CEF5"/>
<path d="M94.9786 132.123L94.7078 131.658L96.2014 130.791L96.4723 131.256L94.9786 132.123ZM97.9621 130.389L97.6912 129.925L99.181 129.058L99.4519 129.522L97.9621 130.389ZM100.946 128.655L100.675 128.191L102.168 127.324L102.439 127.789L100.946 128.655ZM103.925 126.922L103.654 126.457L105.144 125.591L105.415 126.055L103.925 126.922ZM106.909 125.188L106.638 124.724L108.128 123.857L108.398 124.321L106.909 125.188Z" fill="#50CEF5"/>
<path d="M109.892 123.455L109.625 122.99L110.032 122.75L109.621 122.518L109.888 122.05L111.111 122.747L109.892 123.455Z" fill="#50CEF5"/>
<path d="M107.953 121.566L106.282 120.614L106.549 120.146L108.22 121.098L107.953 121.566ZM104.614 119.666L102.942 118.714L103.209 118.246L104.881 119.198L104.614 119.666ZM101.275 117.766L99.6068 116.814L99.8738 116.346L101.542 117.298L101.275 117.766ZM97.9351 115.863L96.2634 114.911L96.5304 114.442L98.2021 115.394L97.9351 115.863ZM94.5956 113.963L92.924 113.011L93.191 112.542L94.8626 113.494L94.5956 113.963ZM91.2562 112.063L89.5884 111.111L89.8554 110.642L91.5232 111.594L91.2562 112.063Z" fill="#50CEF5"/>
<path d="M87.3674 109.219L87.1013 109.687L87.9185 110.152L88.1846 109.685L87.3674 109.219Z" fill="#50CEF5"/>
<path d="M66.2316 28.8546L71.8038 32.0935C69.9425 31.0139 67.3654 31.1648 64.5251 32.8055C63.9176 33.1576 63.3255 33.5601 62.7451 34.0128L57.1729 30.774C57.7494 30.3212 58.3453 29.9188 58.9529 29.5666C61.7931 27.9259 64.3703 27.7712 66.2316 28.8546Z" fill="#CDDCFB"/>
<mask id="mask0_189_12210" style="mask-type:luminance" maskUnits="userSpaceOnUse" x="57" y="28" width="15" height="7">
<path d="M66.2316 28.8546L71.8038 32.0935C69.9425 31.0139 67.3654 31.1648 64.5251 32.8055C63.9176 33.1576 63.3255 33.5601 62.7451 34.0128L57.1729 30.774C57.7494 30.3212 58.3453 29.9188 58.9529 29.5666C61.7931 27.9259 64.3703 27.7712 66.2316 28.8546Z" fill="white"/>
</mask>
<g mask="url(#mask0_189_12210)">
<path d="M62.7412 34.0126L57.1689 30.7738C57.7455 30.3211 58.3414 29.9186 58.949 29.5665C60.0324 28.9396 61.0811 28.5294 62.064 28.3243L67.6362 31.5632C66.6533 31.7683 65.6085 32.1785 64.5212 32.8053C63.9136 33.1536 63.3216 33.5599 62.7412 34.0126Z" fill="#CDDCFB"/>
<path d="M67.6362 31.5633L62.064 28.3245C63.5731 28.0072 64.9313 28.1658 66.0496 28.754L71.6219 31.9929C70.5035 31.4047 69.1453 31.2422 67.6362 31.5633Z" fill="#CDDCFB"/>
<path d="M71.622 31.9928L66.0498 28.7539C66.1117 28.7849 66.1698 28.8197 66.2317 28.8545L71.8039 32.0934C71.742 32.0585 71.6839 32.0237 71.622 31.9928Z" fill="#CDDCFB"/>
</g>
<path d="M53.1678 24.9695L58.7401 28.2084C55.9501 26.587 52.0882 26.8153 47.8239 29.2764L42.2517 26.0375C46.5121 23.5765 50.3779 23.3482 53.1678 24.9695Z" fill="#CDDCFB"/>
<mask id="mask1_189_12210" style="mask-type:luminance" maskUnits="userSpaceOnUse" x="42" y="23" width="17" height="7">
<path d="M53.1678 24.9695L58.7401 28.2084C55.9501 26.587 52.0882 26.8153 47.8239 29.2764L42.2517 26.0375C46.5121 23.5765 50.3779 23.3482 53.1678 24.9695Z" fill="white"/>
</mask>
<g mask="url(#mask1_189_12210)">
<path d="M47.8203 29.2764L42.248 26.0375C43.8733 25.0972 45.4405 24.4858 46.9148 24.1763L52.487 27.4151C51.0166 27.7247 49.4455 28.3361 47.8203 29.2764Z" fill="#CDDCFB"/>
<path d="M52.4868 27.4112L46.9146 24.1724C49.1783 23.6964 51.2175 23.9363 52.8931 24.8147L58.4653 28.0536C56.7898 27.1752 54.7505 26.9353 52.4868 27.4112Z" fill="#CDDCFB"/>
<path d="M58.4653 28.0575L52.8931 24.8186C52.9859 24.865 53.0749 24.9153 53.1639 24.9695L58.7362 28.2084C58.651 28.1542 58.5582 28.1039 58.4653 28.0575Z" fill="#CDDCFB"/>
</g>
<path d="M32.9765 51.1977L27.4043 47.9588C29.0527 39.3374 35.07 30.1858 42.2519 26.0376L47.8241 29.2764C40.6383 33.4208 34.625 42.5762 32.9765 51.1977Z" fill="#CDDCFB"/>
<mask id="mask2_189_12210" style="mask-type:luminance" maskUnits="userSpaceOnUse" x="27" y="26" width="21" height="26">
<path d="M32.9765 51.1977L27.4043 47.9588C29.0527 39.3374 35.07 30.1858 42.2519 26.0376L47.8241 29.2764C40.6383 33.4208 34.625 42.5762 32.9765 51.1977Z" fill="white"/>
</mask>
<g mask="url(#mask2_189_12210)">
<path d="M32.9765 51.1977L27.4043 47.9589C27.8532 45.61 28.6271 43.2264 29.6564 40.9124L35.2286 44.1512C34.1954 46.4652 33.4254 48.8489 32.9765 51.1977Z" fill="#CDDCFB"/>
<path d="M35.2285 44.1511L29.6562 40.9123C30.9913 37.9211 32.7558 35.0498 34.8183 32.5385L40.3905 35.7773C38.328 38.2887 36.5635 41.1599 35.2285 44.1511Z" fill="#CDDCFB"/>
<path d="M40.3864 35.7774L34.8142 32.5385C37.0121 29.8608 39.5467 27.5932 42.2477 26.0376L47.8199 29.2764C45.1228 30.8359 42.5882 33.0996 40.3864 35.7774Z" fill="#CDDCFB"/>
</g>
<path d="M23.9796 76.2727L18.4073 73.0338C16.5693 71.9658 15.4316 69.6982 15.4239 66.471C15.4045 59.9778 19.9707 52.0684 25.6241 48.8063C26.2317 48.4542 26.8237 48.1717 27.4042 47.9589L32.9764 51.1977C32.3998 51.4144 31.8039 51.6969 31.1964 52.0452C25.5467 55.3072 20.9806 63.2167 20.9961 69.7099C21.0038 72.9371 22.1454 75.2085 23.9796 76.2727Z" fill="#CDDCFB"/>
<mask id="mask3_189_12210" style="mask-type:luminance" maskUnits="userSpaceOnUse" x="15" y="47" width="18" height="30">
<path d="M23.9796 76.2727L18.4073 73.0338C16.5693 71.9658 15.4316 69.6982 15.4239 66.471C15.4045 59.9778 19.9707 52.0684 25.6241 48.8063C26.2317 48.4542 26.8237 48.1717 27.4042 47.9589L32.9764 51.1977C32.3998 51.4144 31.8039 51.6969 31.1964 52.0452C25.5467 55.3072 20.9806 63.2167 20.9961 69.7099C21.0038 72.9371 22.1454 75.2085 23.9796 76.2727Z" fill="white"/>
</mask>
<g mask="url(#mask3_189_12210)">
<path d="M23.9796 76.2726L18.4074 73.0338C16.5693 71.9657 15.4316 69.6982 15.4239 66.4709C15.4162 63.9828 16.0817 61.2857 17.2233 58.724L22.7955 61.9628C21.6539 64.5245 20.9884 67.2216 20.9961 69.7098C21.0038 72.937 22.1454 75.2085 23.9796 76.2726Z" fill="#CDDCFB"/>
<path d="M22.7956 61.9667L17.2234 58.7279C18.1134 56.7312 19.2936 54.8157 20.6673 53.144L26.2395 56.3829C24.8658 58.0546 23.6856 59.97 22.7956 61.9667Z" fill="#CDDCFB"/>
<path d="M26.2395 56.3791L20.6672 53.1402C22.1338 51.3564 23.8248 49.8472 25.6242 48.8063C26.2317 48.4542 26.8238 48.1717 27.4042 47.9589L32.9764 51.1977C32.3998 51.4144 31.8039 51.6969 31.1964 52.0452C29.397 53.0861 27.706 54.5952 26.2395 56.3791Z" fill="#CDDCFB"/>
</g>
<path d="M47.8202 29.2763C55.0022 25.1281 61.0465 27.3183 62.7413 34.0127C63.3179 33.56 63.9138 33.1575 64.5214 32.8054C70.171 29.5433 74.768 32.1631 74.7874 38.6562C74.8029 44.7392 70.7978 52.0682 65.6435 55.6515L31.2622 75.5644C25.6126 78.8265 21.0155 76.2068 20.9962 69.7136C20.9768 63.2204 25.5429 55.311 31.1964 52.0489C31.8039 51.6968 32.396 51.4143 32.9764 51.2015C34.6249 42.5761 40.6382 33.4207 47.8202 29.2763Z" fill="#E6F1FE"/>
<path d="M105.721 55.4813L105.578 105.724L80.0305 120.572L80.1737 70.3251L105.721 55.4813Z" fill="#CDDCFB"/>
<path d="M80.9785 118.935L81.1139 70.8706L104.777 57.1219L104.637 105.182L80.9785 118.935ZM81.9188 71.3311L81.7873 117.526L103.832 104.714L103.964 58.5189L81.9188 71.3311Z" fill="#DAE8FD"/>
<path d="M80.1738 70.3251L80.0306 120.572L54.3171 105.724L54.4603 55.4813L80.1738 70.3251Z" fill="#DAE8FD"/>
<path d="M105.721 55.4812L80.1737 70.3249L54.4602 55.4812L80.0073 40.6335L105.721 55.4812Z" fill="#EFF6FE"/>
<path d="M72.3223 53.0589L71.7574 53.3839L63.3952 58.1938L59.3128 55.7753L58.7478 55.4425L67.675 50.3037L72.3223 53.0589Z" fill="#DAE8FD"/>
<path d="M71.7574 53.3838L63.3952 58.1937L59.3127 55.7752L67.6749 50.9653L71.7574 53.3838Z" fill="#15D9FD"/>
<path d="M84.2562 72.0896C84.2562 72.4959 83.9699 72.995 83.6177 73.1963C83.2656 73.4013 82.9792 73.235 82.9792 72.8286C82.9792 72.4223 83.2656 71.9232 83.6177 71.7219C83.9699 71.5169 84.2562 71.6832 84.2562 72.0896Z" fill="#15D9FD"/>
<path d="M87.0577 70.4721C87.0577 70.8784 86.7714 71.3776 86.4192 71.5788C86.0671 71.7839 85.7808 71.6175 85.7808 71.2112C85.7808 70.8049 86.0671 70.3096 86.4192 70.1045C86.7714 69.8994 87.0577 70.0658 87.0577 70.4721Z" fill="#15D9FD"/>
<path d="M89.8595 68.8544C89.8595 69.2608 89.5731 69.7561 89.221 69.9612C88.8689 70.1662 88.5825 69.9998 88.5825 69.5935C88.5825 69.1872 88.8689 68.6881 89.221 68.4868C89.5731 68.2817 89.8595 68.4481 89.8595 68.8544Z" fill="#15D9FD"/>
<path d="M66.9591 109.977V113.606C66.9513 115.971 65.3996 118.331 62.2924 120.134C56.043 123.764 45.8814 123.764 39.5933 120.134C36.428 118.308 34.8453 115.909 34.8531 113.514V109.884C34.8453 112.279 36.428 114.678 39.5933 116.505C45.8814 120.134 56.0468 120.134 62.2924 116.505C65.3996 114.702 66.9513 112.341 66.9591 109.977Z" fill="#D4E2FC"/>
<mask id="mask4_189_12210" style="mask-type:luminance" maskUnits="userSpaceOnUse" x="34" y="109" width="33" height="14">
<path d="M66.9591 109.977V113.606C66.9513 115.971 65.3996 118.331 62.2924 120.134C56.043 123.764 45.8814 123.764 39.5933 120.134C36.428 118.308 34.8453 115.909 34.8531 113.514V109.884C34.8453 112.279 36.428 114.678 39.5933 116.505C45.8814 120.134 56.0468 120.134 62.2924 116.505C65.3996 114.702 66.9513 112.341 66.9591 109.977Z" fill="white"/>
</mask>
<g mask="url(#mask4_189_12210)">
<path d="M66.9591 109.977V113.606C66.9513 115.971 65.3996 118.331 62.2923 120.134C61.0618 120.85 59.6804 121.423 58.2061 121.856V118.227C59.6804 117.793 61.0618 117.221 62.2923 116.505C65.3996 114.702 66.9513 112.341 66.9591 109.977Z" fill="#BECEF9"/>
<path d="M58.206 118.231V121.86C56.0468 122.495 53.6902 122.828 51.3181 122.859V119.229C53.6902 119.198 56.0468 118.865 58.206 118.231Z" fill="#CDDCFB"/>
<path d="M51.3181 119.229V122.859C47.0925 122.913 42.8282 122.007 39.5894 120.138C39.4307 120.046 39.276 119.953 39.1289 119.86V116.23C39.2798 116.323 39.4346 116.416 39.5894 116.509C42.8282 118.374 47.0925 119.283 51.3181 119.229Z" fill="#DAE8FD"/>
<path d="M39.1292 116.23V119.86C37.4497 118.807 36.2657 117.588 35.573 116.296V112.666C36.2657 113.955 37.4497 115.178 39.1292 116.23Z" fill="#CDDCFB"/>
<path d="M35.5767 112.666V116.296C35.093 115.39 34.8531 114.454 34.8531 113.517V109.888C34.8492 110.824 35.093 111.761 35.5767 112.666Z" fill="#CDDCFB"/>
</g>
<path d="M62.2189 103.356C68.507 106.986 68.5418 112.875 62.2924 116.505C56.043 120.134 45.8815 120.134 39.5934 116.505C33.3053 112.875 33.2705 106.986 39.5199 103.356C45.7654 99.7262 55.9308 99.7262 62.2189 103.356Z" fill="#E6F1FE"/>
<path d="M66.514 103.7L66.4985 108.936C66.4908 111.234 64.9816 113.529 61.9634 115.286C55.8881 118.815 46.009 118.815 39.8912 115.286C36.8149 113.51 35.2748 111.176 35.2825 108.847L35.298 103.611C35.2902 105.941 36.8303 108.274 39.9067 110.05C46.0206 113.579 55.9036 113.579 61.9788 110.05C64.9971 108.294 66.5063 105.999 66.514 103.7Z" fill="#1499FC"/>
<mask id="mask5_189_12210" style="mask-type:luminance" maskUnits="userSpaceOnUse" x="35" y="103" width="32" height="15">
<path d="M66.514 103.7L66.4985 108.936C66.4908 111.234 64.9816 113.529 61.9634 115.286C55.8881 118.815 46.009 118.815 39.8912 115.286C36.8149 113.51 35.2748 111.176 35.2825 108.847L35.298 103.611C35.2902 105.941 36.8303 108.274 39.9067 110.05C46.0206 113.579 55.9036 113.579 61.9788 110.05C64.9971 108.294 66.5063 105.999 66.514 103.7Z" fill="white"/>
</mask>
<g mask="url(#mask5_189_12210)">
<path d="M66.514 103.7L66.4985 108.936C66.4908 111.234 64.9816 113.529 61.9633 115.286C60.7676 115.982 59.4249 116.54 57.9893 116.961L58.0047 111.726C59.4365 111.304 60.7831 110.747 61.9788 110.05C64.9971 108.294 66.5062 105.999 66.514 103.7Z" fill="#1499FC"/>
<path d="M58.0048 111.722L57.9893 116.958C55.8881 117.577 53.5973 117.898 51.2949 117.929L51.3104 112.693C53.6128 112.666 55.9036 112.341 58.0048 111.722Z" fill="#13B7FD"/>
<path d="M51.3068 112.693L51.2913 117.929C47.1818 117.983 43.0374 117.101 39.8876 115.282C39.7328 115.193 39.5819 115.104 39.4387 115.011L39.4542 109.776C39.6012 109.869 39.7483 109.958 39.9031 110.047C43.0529 111.865 47.1973 112.747 51.3068 112.693Z" fill="#15D9FD"/>
<path d="M39.4578 109.779L39.4424 115.015C37.8094 113.993 36.6563 112.805 35.9868 111.552L36.0023 106.316C36.6717 107.57 37.8249 108.754 39.4578 109.779Z" fill="#13B7FD"/>
<path d="M35.9984 106.312L35.9829 111.548C35.5108 110.669 35.2786 109.756 35.2825 108.843L35.298 103.607C35.2941 104.521 35.5302 105.434 35.9984 106.312Z" fill="#13B7FD"/>
</g>
<path d="M61.9055 97.2652C68.0195 100.794 68.0504 106.521 61.9751 110.05C55.8999 113.579 46.0208 113.579 39.903 110.05C33.789 106.521 33.7542 100.794 39.8295 97.2652C45.9086 93.7322 55.7915 93.7322 61.9055 97.2652Z" fill="#15D9FD"/>
<path d="M66.9591 99.8153V103.445C66.9513 105.809 65.3996 108.17 62.2924 109.973C56.043 113.603 45.8814 113.603 39.5933 109.973C36.428 108.147 34.8453 105.747 34.8531 103.352V99.7224C34.8453 102.118 36.428 104.517 39.5933 106.343C45.8814 109.973 56.0468 109.973 62.2924 106.343C65.3996 104.54 66.9513 102.18 66.9591 99.8153Z" fill="#D4E2FC"/>
<mask id="mask6_189_12210" style="mask-type:luminance" maskUnits="userSpaceOnUse" x="34" y="99" width="33" height="14">
<path d="M66.9591 99.8153V103.445C66.9513 105.809 65.3996 108.17 62.2924 109.973C56.043 113.603 45.8814 113.603 39.5933 109.973C36.428 108.147 34.8453 105.747 34.8531 103.352V99.7224C34.8453 102.118 36.428 104.517 39.5933 106.343C45.8814 109.973 56.0468 109.973 62.2924 106.343C65.3996 104.54 66.9513 102.18 66.9591 99.8153Z" fill="white"/>
</mask>
<g mask="url(#mask6_189_12210)">
<path d="M66.9591 99.8153V103.445C66.9513 105.809 65.3996 108.17 62.2923 109.973C61.0618 110.689 59.6804 111.262 58.2061 111.695V108.065C59.6804 107.632 61.0618 107.059 62.2923 106.343C65.3996 104.54 66.9513 102.18 66.9591 99.8153Z" fill="#BECEF9"/>
<path d="M58.206 108.065V111.695C56.0468 112.33 53.6902 112.662 51.3181 112.693V109.064C53.6902 109.033 56.0468 108.7 58.206 108.065Z" fill="#CDDCFB"/>
<path d="M51.3181 109.064V112.693C47.0925 112.747 42.8282 111.842 39.5894 109.973C39.4307 109.88 39.276 109.787 39.1289 109.694V106.065C39.2798 106.158 39.4346 106.25 39.5894 106.343C42.8282 108.212 47.0925 109.122 51.3181 109.064Z" fill="#DAE8FD"/>
<path d="M39.1292 106.065V109.694C37.4497 108.642 36.2657 107.423 35.573 106.131V102.501C36.2657 103.793 37.4497 105.016 39.1292 106.065Z" fill="#CDDCFB"/>
<path d="M35.5767 102.505V106.134C35.093 105.229 34.8531 104.292 34.8531 103.356V99.7263C34.8492 100.659 35.093 101.599 35.5767 102.505Z" fill="#CDDCFB"/>
</g>
<path d="M62.2189 93.1944C68.507 96.8241 68.5418 102.714 62.2924 106.343C56.043 109.973 45.8815 109.973 39.5934 106.343C33.3053 102.714 33.2705 96.8241 39.5199 93.1944C45.7654 89.5647 55.9308 89.5647 62.2189 93.1944Z" fill="#E6F1FE"/>
<path d="M66.514 93.5697L66.4985 98.8053C66.4908 101.104 64.9816 103.398 61.9634 105.155C55.8881 108.684 46.009 108.684 39.8912 105.155C36.8149 103.379 35.2748 101.046 35.2825 98.7163L35.298 93.4807C35.2902 95.8102 36.8303 98.1397 39.9067 99.9197C46.0206 103.449 55.9036 103.449 61.9788 99.9197C64.9971 98.1668 66.5063 95.8682 66.514 93.5697Z" fill="#1499FC"/>
<mask id="mask7_189_12210" style="mask-type:luminance" maskUnits="userSpaceOnUse" x="35" y="93" width="32" height="15">
<path d="M66.514 93.5697L66.4985 98.8053C66.4908 101.104 64.9816 103.398 61.9634 105.155C55.8881 108.684 46.009 108.684 39.8912 105.155C36.8149 103.379 35.2748 101.046 35.2825 98.7163L35.298 93.4807C35.2902 95.8102 36.8303 98.1397 39.9067 99.9197C46.0206 103.449 55.9036 103.449 61.9788 99.9197C64.9971 98.1668 66.5063 95.8682 66.514 93.5697Z" fill="white"/>
</mask>
<g mask="url(#mask7_189_12210)">
<path d="M66.514 93.5697L66.4985 98.8053C66.4908 101.104 64.9816 103.398 61.9633 105.155C60.7676 105.852 59.4249 106.409 57.9893 106.831L58.0047 101.595C59.4365 101.173 60.7831 100.616 61.9788 99.9197C64.9971 98.1668 66.5062 95.8682 66.514 93.5697Z" fill="#1499FC"/>
<path d="M58.0048 101.595L57.9893 106.831C55.8881 107.45 53.5973 107.771 51.2949 107.802L51.3104 102.566C53.6128 102.536 55.9036 102.21 58.0048 101.595Z" fill="#13B7FD"/>
<path d="M51.3068 102.567L51.2913 107.802C47.1818 107.856 43.0374 106.974 39.8876 105.155C39.7328 105.066 39.5819 104.977 39.4387 104.884L39.4542 99.6489C39.6012 99.7418 39.7483 99.8308 39.9031 99.9198C43.0529 101.738 47.1973 102.621 51.3068 102.567Z" fill="#15D9FD"/>
<path d="M39.4578 99.6488L39.4424 104.884C37.8094 103.863 36.6563 102.675 35.9868 101.421L36.0023 96.1855C36.6717 97.4393 37.8249 98.6273 39.4578 99.6488Z" fill="#13B7FD"/>
<path d="M35.9984 96.1856L35.9829 101.421C35.5108 100.543 35.2786 99.6295 35.2825 98.7163L35.298 93.4807C35.2941 94.3939 35.5302 95.3072 35.9984 96.1856Z" fill="#13B7FD"/>
</g>
<path d="M61.9055 87.1346C68.0195 90.6637 68.0504 96.3907 61.9751 99.9197C55.8999 103.449 46.0208 103.449 39.903 99.9197C33.789 96.3907 33.7542 90.6637 39.8295 87.1346C45.9086 83.6055 55.7915 83.6055 61.9055 87.1346Z" fill="#15D9FD"/>
<path d="M66.9591 89.6847V93.3143C66.9513 95.6787 65.3996 98.0391 62.2924 99.8424C56.043 103.472 45.8814 103.472 39.5933 99.8424C36.428 98.0159 34.8453 95.6168 34.8531 93.2215V89.5918C34.8453 91.9871 36.428 94.3862 39.5933 96.2127C45.8814 99.8424 56.0468 99.8424 62.2924 96.2127C65.3996 94.4094 66.9513 92.049 66.9591 89.6847Z" fill="#D4E2FC"/>
<mask id="mask8_189_12210" style="mask-type:luminance" maskUnits="userSpaceOnUse" x="34" y="89" width="33" height="14">
<path d="M66.9591 89.6847V93.3143C66.9513 95.6787 65.3996 98.0391 62.2924 99.8424C56.043 103.472 45.8814 103.472 39.5933 99.8424C36.428 98.0159 34.8453 95.6168 34.8531 93.2215V89.5918C34.8453 91.9871 36.428 94.3862 39.5933 96.2127C45.8814 99.8424 56.0468 99.8424 62.2924 96.2127C65.3996 94.4094 66.9513 92.049 66.9591 89.6847Z" fill="white"/>
</mask>
<g mask="url(#mask8_189_12210)">
<path d="M66.9591 89.6847V93.3144C66.9513 95.6787 65.3996 98.0391 62.2923 99.8424C61.0618 100.558 59.6804 101.131 58.2061 101.564V97.9347C59.6804 97.5013 61.0618 96.9286 62.2923 96.2127C65.3996 94.4095 66.9513 92.049 66.9591 89.6847Z" fill="#BECEF9"/>
<path d="M58.206 97.9386V101.568C56.0468 102.203 53.6902 102.536 51.3181 102.567V98.9369C53.6902 98.906 56.0468 98.5732 58.206 97.9386Z" fill="#CDDCFB"/>
<path d="M51.3181 98.9369V102.567C47.0925 102.621 42.8282 101.715 39.5894 99.8463C39.4307 99.7534 39.276 99.6605 39.1289 99.5677V95.938C39.2798 96.0309 39.4346 96.1237 39.5894 96.2166C42.8282 98.0856 47.0925 98.9911 51.3181 98.9369Z" fill="#DAE8FD"/>
<path d="M39.1292 95.9379V99.5676C37.4497 98.5151 36.2657 97.2961 35.573 96.0037V92.374C36.2657 93.6626 37.4497 94.8854 39.1292 95.9379Z" fill="#CDDCFB"/>
<path d="M35.5767 92.3741V96.0038C35.093 95.0983 34.8531 94.1618 34.8531 93.2254V89.5957C34.8492 90.5321 35.093 91.4686 35.5767 92.3741Z" fill="#CDDCFB"/>
</g>
<path d="M62.2189 83.0677C68.507 86.6974 68.5418 92.5869 62.2924 96.2166C56.043 99.8462 45.8815 99.8462 39.5934 96.2166C33.3053 92.5869 33.2705 86.6974 39.5199 83.0677C45.7654 79.4341 55.9308 79.4341 62.2189 83.0677Z" fill="#E6F1FE"/>
<path d="M66.514 83.2224L66.4985 88.458C66.4908 90.7565 64.9816 93.0512 61.9634 94.808C55.8881 98.3371 46.009 98.3371 39.8912 94.808C36.8149 93.0318 35.2748 90.6985 35.2825 88.369L35.298 83.1334C35.2902 85.4629 36.8303 87.7924 39.9067 89.5724C46.0206 93.1015 55.9036 93.1015 61.9788 89.5724C64.9971 87.8156 66.5063 85.521 66.514 83.2224Z" fill="#1499FC"/>
<mask id="mask9_189_12210" style="mask-type:luminance" maskUnits="userSpaceOnUse" x="35" y="83" width="32" height="15">
<path d="M66.514 83.2224L66.4985 88.458C66.4908 90.7565 64.9816 93.0512 61.9634 94.808C55.8881 98.3371 46.009 98.3371 39.8912 94.808C36.8149 93.0318 35.2748 90.6985 35.2825 88.369L35.298 83.1334C35.2902 85.4629 36.8303 87.7924 39.9067 89.5724C46.0206 93.1015 55.9036 93.1015 61.9788 89.5724C64.9971 87.8156 66.5063 85.521 66.514 83.2224Z" fill="white"/>
</mask>
<g mask="url(#mask9_189_12210)">
<path d="M66.514 83.2224L66.4985 88.458C66.4908 90.7565 64.9816 93.0512 61.9633 94.808C60.7676 95.5045 59.4249 96.0617 57.9893 96.4835L58.0047 91.2479C59.4365 90.8262 60.7831 90.2689 61.9788 89.5724C64.9971 87.8156 66.5062 85.521 66.514 83.2224Z" fill="#1499FC"/>
<path d="M58.0048 91.2479L57.9893 96.4835C55.8881 97.1026 53.5973 97.4238 51.2949 97.4548L51.3104 92.2192C53.6128 92.1882 55.9036 91.8632 58.0048 91.2479Z" fill="#13B7FD"/>
<path d="M51.3068 92.2153L51.2913 97.4508C47.1818 97.505 43.0374 96.6227 39.8876 94.804C39.7328 94.715 39.5819 94.626 39.4387 94.5332L39.4542 89.2976C39.6012 89.3905 39.7483 89.4795 39.9031 89.5685C43.0529 91.3872 47.1973 92.2694 51.3068 92.2153Z" fill="#15D9FD"/>
<path d="M39.4578 89.3015L39.4424 94.5371C37.8094 93.5155 36.6563 92.3276 35.9868 91.0738L36.0023 85.8383C36.6717 87.092 37.8249 88.28 39.4578 89.3015Z" fill="#13B7FD"/>
<path d="M35.9984 85.8383L35.9829 91.0738C35.5108 90.1954 35.2786 89.2822 35.2825 88.369L35.298 83.1334C35.2941 84.0466 35.5302 84.956 35.9984 85.8383Z" fill="#13B7FD"/>
</g>
<path d="M61.9055 76.7873C68.0195 80.3163 68.0504 86.0434 61.9751 89.5724C55.8999 93.1015 46.0208 93.1015 39.903 89.5724C33.789 86.0434 33.7542 80.3163 39.8295 76.7873C45.9086 73.2543 55.7915 73.2543 61.9055 76.7873Z" fill="#15D9FD"/>
<path d="M66.9591 79.3374V82.9671C66.9513 85.3314 65.3996 87.6918 62.2924 89.4951C56.043 93.1247 45.8814 93.1247 39.5933 89.4951C36.428 87.6686 34.8453 85.2695 34.8531 82.8742V79.2445C34.8453 81.6398 36.428 84.0389 39.5933 85.8654C45.8814 89.4951 56.0468 89.4951 62.2924 85.8654C65.3996 84.0622 66.9513 81.7017 66.9591 79.3374Z" fill="#D4E2FC"/>
<mask id="mask10_189_12210" style="mask-type:luminance" maskUnits="userSpaceOnUse" x="34" y="79" width="33" height="14">
<path d="M66.9591 79.3374V82.9671C66.9513 85.3314 65.3996 87.6918 62.2924 89.4951C56.043 93.1247 45.8814 93.1247 39.5933 89.4951C36.428 87.6686 34.8453 85.2695 34.8531 82.8742V79.2445C34.8453 81.6398 36.428 84.0389 39.5933 85.8654C45.8814 89.4951 56.0468 89.4951 62.2924 85.8654C65.3996 84.0622 66.9513 81.7017 66.9591 79.3374Z" fill="white"/>
</mask>
<g mask="url(#mask10_189_12210)">
<path d="M66.9591 79.3373V82.967C66.9513 85.3313 65.3996 87.6917 62.2923 89.495C61.0618 90.2108 59.6804 90.7835 58.2061 91.2169V87.5873C59.6804 87.1539 61.0618 86.5812 62.2923 85.8653C65.3996 84.0621 66.9513 81.7016 66.9591 79.3373Z" fill="#BECEF9"/>
<path d="M58.206 87.5912V91.2209C56.0468 91.8555 53.6902 92.1883 51.3181 92.2192V88.5895C53.6902 88.5586 56.0468 88.2258 58.206 87.5912Z" fill="#CDDCFB"/>
<path d="M51.3181 88.5895V92.2192C47.0925 92.2734 42.8282 91.3679 39.5894 89.4989C39.4307 89.406 39.276 89.3131 39.1289 89.2203V85.5906C39.2798 85.6834 39.4346 85.7763 39.5894 85.8692C42.8282 87.7343 47.0925 88.6437 51.3181 88.5895Z" fill="#DAE8FD"/>
<path d="M39.1292 85.5906V89.2203C37.4497 88.1678 36.2657 86.9489 35.573 85.6564V82.0267C36.2657 83.3153 37.4497 84.5381 39.1292 85.5906Z" fill="#CDDCFB"/>
<path d="M35.5767 82.0268V85.6565C35.093 84.751 34.8531 83.8145 34.8531 82.8781V79.2484C34.8492 80.1849 35.093 81.1213 35.5767 82.0268Z" fill="#CDDCFB"/>
</g>
<path d="M62.2189 72.7165C68.507 76.3462 68.5418 82.2357 62.2924 85.8654C56.043 89.4951 45.8815 89.4951 39.5934 85.8654C33.3053 82.2357 33.2705 76.3462 39.5199 72.7165C45.7654 69.0868 55.9308 69.0868 62.2189 72.7165Z" fill="#E6F1FE"/>
<path d="M60.7988 74.245C66.2975 77.0311 66.3246 81.5508 60.8607 84.3369C55.3968 87.123 46.5123 87.123 41.0136 84.3369C35.5149 81.5508 35.4839 77.0311 40.9478 74.245C46.4116 71.4589 55.3001 71.4589 60.7988 74.245Z" fill="#DAE8FD"/>
<path d="M61.41 74.1211C58.6123 72.5037 54.8588 71.6136 50.8538 71.6136C46.9068 71.6136 43.0682 72.5269 40.3324 74.1173C37.8752 75.5413 36.4705 77.418 36.4744 79.2638C36.4744 79.3528 36.4782 79.4418 36.486 79.5347C36.6137 81.3109 38.03 83.0947 40.402 84.4646C43.2036 86.0782 46.9532 86.9682 50.9583 86.9682C54.9053 86.9682 58.7439 86.055 61.4797 84.4646C63.8169 83.1102 65.2022 81.3457 65.3299 79.585C65.3416 79.496 65.3416 79.4031 65.3416 79.3141C65.3377 77.4529 63.9021 75.5606 61.41 74.1211ZM64.0917 79.8598C64.0955 81.2489 62.9114 82.731 60.8528 83.9306C58.2989 85.4126 54.6924 86.2678 50.9583 86.2678C47.1661 86.2678 43.6409 85.4358 41.025 83.9267C38.9277 82.7155 37.7243 81.2141 37.7204 79.8056C37.7204 79.7166 37.7243 79.6276 37.7359 79.5386C37.7243 79.4534 37.7204 79.3528 37.7204 79.2677C37.7165 77.8785 38.9006 76.3926 40.9592 75.1969C43.5132 73.7148 47.1196 72.8597 50.8538 72.8597C54.646 72.8597 58.1751 73.6878 60.787 75.2008C62.8844 76.4119 64.0878 77.9133 64.0917 79.318C64.0917 79.407 64.0878 79.496 64.0762 79.585C64.0878 79.6701 64.0917 79.7708 64.0917 79.8598Z" fill="#98A4E0"/>
<path d="M61.4101 74.659C58.6124 73.0454 54.8589 72.1554 50.8539 72.1554C46.9069 72.1554 43.0683 73.0686 40.3325 74.659C37.9952 76.0134 36.6099 77.7818 36.4861 79.5347C36.6138 81.3109 38.0301 83.0947 40.4021 84.4646C43.2037 86.0782 46.9533 86.9682 50.9584 86.9682C54.9054 86.9682 58.744 86.055 61.4798 84.4646C63.817 83.1102 65.2023 81.3457 65.33 79.585C65.1985 77.8127 63.7822 76.0289 61.4101 74.659ZM60.8529 83.9306C58.299 85.4126 54.6925 86.2678 50.9584 86.2678C47.1662 86.2678 43.641 85.4358 41.0251 83.9267C38.9278 82.7155 37.7244 81.2141 37.7205 79.8056C37.7205 79.7166 37.7244 79.6276 37.736 79.5386C37.7244 79.4535 37.7205 79.3528 37.7205 79.2677C37.7166 77.8785 38.9007 76.3926 40.9593 75.1969C43.5133 73.7148 47.1197 72.8597 50.8539 72.8597C54.6461 72.8597 58.1752 73.6878 60.7871 75.2008C62.8845 76.412 64.0879 77.9134 64.0918 79.318C64.0918 79.407 64.0879 79.496 64.0763 79.585C64.0879 79.674 64.0918 79.7708 64.0918 79.8598C64.0956 81.2489 62.9154 82.731 60.8529 83.9306Z" fill="#15D9FD"/>
<path d="M42.8131 50.6366C42.7009 50.7024 42.5848 50.7488 42.4687 50.7681C41.9037 50.8765 41.598 50.3425 41.7915 49.5802C42.6622 46.0898 44.7556 42.6227 47.3947 40.3086C51.2527 36.9189 55.2113 36.8492 56.8017 40.1461C57.0416 40.6375 56.7901 41.5198 56.2445 42.108C55.6988 42.7 55.0604 42.7774 54.8243 42.286C53.6596 39.8752 50.7612 39.9294 47.9403 42.4098C46.0094 44.1047 44.477 46.6432 43.8385 49.201C43.6838 49.8046 43.2658 50.3773 42.8131 50.6366Z" fill="#CDDCFB"/>
<path d="M40.3557 49.9324L43.1147 53.6743L45.7383 46.7361L40.3557 49.9324Z" fill="#CDDCFB"/>
<path d="M49.6735 58.248C46.7094 59.9584 43.8768 59.6914 42.4838 57.3619C42.2129 56.9053 42.4219 56.0346 42.952 55.4155C43.4821 54.7964 44.1322 54.6609 44.4031 55.1175C45.653 57.2033 48.4816 57.0291 51.1323 54.7035C53.0981 52.9738 54.642 50.3928 55.2612 47.7963C55.443 47.0378 56.0506 46.322 56.6155 46.2059C57.1844 46.0859 57.4978 46.6083 57.3159 47.3667C56.4723 50.9113 54.3634 54.4404 51.674 56.8008C51.0123 57.3813 50.339 57.865 49.6735 58.248Z" fill="#CDDCFB"/>
<path d="M58.7402 47.2817L56.3913 43.0483L53.373 49.9324L58.7402 47.2817Z" fill="#CDDCFB"/>
<path d="M81.7795 81.5586L81.8221 101.522L104.614 88.3613L104.575 68.3981L81.7795 81.5586Z" fill="#10191B"/>
<path d="M119.257 88.961L119.984 88.5392L119.945 98.7162L119.214 99.138L119.257 88.961Z" fill="#0F76C2"/>
<path d="M102.099 79.0471L102.827 78.6215L119.984 88.5392L119.257 88.961L102.099 79.0471Z" fill="#37404A"/>
<path d="M119.256 88.961L119.214 99.1381L102.056 89.2242L102.099 79.0471L119.256 88.961Z" fill="#242A31"/>
<path d="M92.3011 81.9571L91.7168 81.6166L104.413 74.2876L104.993 74.6243L92.3011 81.9571Z" fill="#FFD438"/>
<path d="M84.3878 100.179L83.8073 99.8423L83.7532 84.3059L84.3336 84.6426L84.3878 100.179Z" fill="#FFB700"/>
<path d="M84.3336 84.6426L83.7532 84.306L90.881 80.1887L91.4614 80.5292L84.3336 84.6426Z" fill="#FFD438"/>
<path d="M91.4615 80.5293L92.3012 81.9571L104.994 74.6243L105.044 88.253L84.3879 100.179L84.3337 84.6426L91.4615 80.5293Z" fill="#FBC70E"/>
<path d="M86.3343 100.454L84.7826 99.5521L84.74 87.3474L86.2917 88.249L86.3343 100.454Z" fill="#D4E2FC"/>
<path d="M86.2917 88.2491L84.74 87.3475L104.483 75.9515L106.034 76.8531L86.2917 88.2491Z" fill="#ECF5FE"/>
<path d="M106.034 76.853L106.081 89.0577L86.3343 100.454L86.2917 88.249L106.034 76.853Z" fill="#B5B3C4"/>
<path d="M84.3837 98.1783V98.7743L84.3721 99.0181H83.8071V99.3857L86.3069 100.829L86.3108 99.3354L84.3837 98.1783Z" fill="#FBC70E"/>
<path d="M86.3071 101.286L85.7266 100.949L85.6841 88.4967L86.2645 88.8372L86.3071 101.286Z" fill="#FFB700"/>
<path d="M86.2645 88.8372L85.6841 88.4967L106.336 76.5745L106.92 76.9111L86.2645 88.8372Z" fill="#FFD438"/>
<path d="M106.921 76.9111L106.963 89.3596L86.3072 101.286L86.2646 88.8372L106.921 76.9111Z" fill="#FBC70E"/>
<path d="M86.3069 101.286L83.8071 99.8422V98.2905L86.3108 99.7919L86.3069 101.286Z" fill="#FFB700"/>
<path d="M95.5863 83.8417L95.002 83.505L107.698 76.1721L108.279 76.5126L95.5863 83.8417Z" fill="#FFD438"/>
<path d="M87.6729 102.068L87.0925 101.727L87.0383 86.1906L87.6188 86.5311L87.6729 102.068Z" fill="#FFB700"/>
<path d="M87.6188 86.5311L87.0383 86.1905L94.1661 82.0771L94.7466 82.4138L87.6188 86.5311Z" fill="#FFD438"/>
<path d="M94.7467 82.4138L95.5864 83.8417L108.279 76.5127L108.329 90.1414L87.6731 102.068L87.6189 86.5311L94.7467 82.4138Z" fill="#FBC70E"/>
<path d="M89.6197 102.342L88.068 101.437L88.0254 89.2319L89.5771 90.1374L89.6197 102.342Z" fill="#D4E2FC"/>
<path d="M89.5771 90.1375L88.0254 89.232L107.768 77.8361L109.32 78.7377L89.5771 90.1375Z" fill="#ECF5FE"/>
<path d="M109.32 78.7377L109.366 90.9424L89.6195 102.342L89.5769 90.1375L109.32 78.7377Z" fill="#B5B3C4"/>
<path d="M87.6691 100.067V100.663L87.6575 100.907H87.0925V101.27L89.5923 102.718L89.5962 101.224L87.6691 100.067Z" fill="#FBC70E"/>
<path d="M89.5924 103.174L89.012 102.834L88.9656 90.3851L89.5499 90.7218L89.5924 103.174Z" fill="#FFB700"/>
<path d="M89.5499 90.7219L88.9656 90.3852L109.621 78.4591L110.206 78.7996L89.5499 90.7219Z" fill="#FFD438"/>
<path d="M110.206 78.7996L110.248 91.248L89.5924 103.174L89.5498 90.7218L110.206 78.7996Z" fill="#F3AB05"/>
<path d="M89.5923 103.174L87.0925 101.727V100.175L89.5962 101.681L89.5923 103.174Z" fill="#FFB700"/>
<path d="M99.2277 67.1521L98.6472 66.8116L111.339 59.4825L111.924 59.8231L99.2277 67.1521Z" fill="#FFD438"/>
<path d="M91.3143 88.9494L90.7339 88.6128L90.6797 69.5009L91.264 69.8414L91.3143 88.9494Z" fill="#FFB700"/>
<path d="M91.264 69.8414L90.6797 69.5008L97.8075 65.3875L98.3918 65.7241L91.264 69.8414Z" fill="#FFD438"/>
<path d="M98.3917 65.7241L99.2275 67.152L111.924 59.823L111.97 77.0272L91.3142 88.9494L91.2639 69.8414L98.3917 65.7241Z" fill="#FBC70E"/>
<path d="M93.2649 89.2242L91.7093 88.3226L91.6667 72.5424L93.2185 73.444L93.2649 89.2242Z" fill="#D4E2FC"/>
<path d="M93.2185 73.4441L91.6667 72.5424L111.409 61.1465L112.965 62.0481L93.2185 73.4441Z" fill="#ECF5FE"/>
<path d="M112.965 62.048L113.007 77.8282L93.2647 89.2241L93.2183 73.4439L112.965 62.048Z" fill="#B5B3C4"/>
<path d="M91.3105 86.9528V87.5448L91.3027 87.7886H90.7339V88.1562L93.2375 89.5996L93.2414 88.1059L91.3105 86.9528Z" fill="#FBC70E"/>
<path d="M93.2377 90.0562L92.6534 89.7195L92.6108 73.6956L93.1913 74.0322L93.2377 90.0562Z" fill="#FFB700"/>
<path d="M93.1913 74.0322L92.6108 73.6955L113.267 61.7694L113.847 62.1061L93.1913 74.0322Z" fill="#FFD438"/>
<path d="M113.847 62.1061L113.893 78.1301L93.2376 90.0562L93.1912 74.0322L113.847 62.1061Z" fill="#FBC70E"/>
<path d="M93.2375 90.0561L90.7339 88.6127V87.061L93.2414 88.5624L93.2375 90.0561Z" fill="#FFB700"/>
<path d="M102.741 88.0711L102.157 87.7306L114.853 80.4016L115.437 80.7383L102.741 88.0711Z" fill="#FFD438"/>
<path d="M94.828 106.293L94.2475 105.956L94.1934 90.42L94.7738 90.7567L94.828 106.293Z" fill="#FFB700"/>
<path d="M94.7738 90.7566L94.1934 90.42L101.321 86.3027L101.905 86.6433L94.7738 90.7566Z" fill="#FFD438"/>
<path d="M101.905 86.6433L102.741 88.0712L115.437 80.7383L115.484 94.367L94.8279 106.293L94.7737 90.7567L101.905 86.6433Z" fill="#FBC70E"/>
<path d="M96.7742 106.568L95.2225 105.666L95.1799 93.4614L96.7316 94.363L96.7742 106.568Z" fill="#D4E2FC"/>
<path d="M96.7316 94.3631L95.1799 93.4615L114.923 82.0656L116.474 82.9672L96.7316 94.3631Z" fill="#ECF5FE"/>
<path d="M116.474 82.9672L116.521 95.1719L96.7743 106.568L96.7317 94.3631L116.474 82.9672Z" fill="#B5B3C4"/>
<path d="M94.8241 104.296V104.888L94.8164 105.132H94.2476V105.5L96.7512 106.943L96.755 105.449L94.8241 104.296Z" fill="#FBC70E"/>
<path d="M96.7511 107.4L96.1668 107.063L96.1243 94.6108L96.7047 94.9514L96.7511 107.4Z" fill="#FFB700"/>
<path d="M96.7047 94.9512L96.1243 94.6107L116.776 82.6885L117.361 83.0251L96.7047 94.9512Z" fill="#FFD438"/>
<path d="M117.36 83.0251L117.403 95.4736L96.751 107.4L96.7046 94.9512L117.36 83.0251Z" fill="#FBC70E"/>
<path d="M96.7512 107.4L94.2476 105.956V104.405L96.755 105.906L96.7512 107.4Z" fill="#FFB700"/>
<path d="M99.9242 100.125L100.652 99.6992L100.609 109.88L99.8816 110.302L99.9242 100.125Z" fill="#0F76C2"/>
<path d="M82.7664 90.2071L83.4938 89.7853L100.652 99.6992L99.9241 100.125L82.7664 90.2071Z" fill="#37404A"/>
<path d="M99.9242 100.125L99.8817 110.302L82.7239 100.388L82.7664 90.207L99.9242 100.125Z" fill="#242A31"/>
<path d="M100.183 97.8109L99.4946 97.4084L99.5372 110.542L100.222 110.94L100.183 97.8109Z" fill="#DAE8FD"/>
<path d="M120.046 86.353L119.361 85.9506L99.4946 97.4084L100.183 97.8109L120.046 86.353Z" fill="#EFF6FE"/>
<path d="M100.184 97.8108L100.222 110.94L120.089 99.4824L120.046 86.3529L100.184 97.8108Z" fill="#C6D5FA"/>
<path d="M112.853 91.9445L110.341 93.3956L113.41 94.866V91.6233L112.853 91.9445Z" fill="#D4E2FC"/>
<path d="M108.677 94.3553V97.6019L113.41 94.8661L110.341 93.3956L108.677 94.3553Z" fill="#F1F1F1"/>
<path d="M112.853 91.9446V94.5991L108.677 97.0099V94.3553L112.853 91.9446Z" fill="#10191B"/>
<path d="M87.6228 46.4768C87.971 45.6719 88.2961 44.6078 88.7527 43.2805C88.8765 42.9245 88.9462 42.5414 88.95 42.1622C88.9539 41.7791 88.834 41.4541 88.656 41.1097C88.5747 40.951 88.4625 40.7846 88.2845 40.7498C88.122 40.715 87.971 40.8078 87.8433 40.9007C87.081 41.4773 86.6631 42.4369 86.4851 43.3463C86.3226 44.1937 86.0401 45.0141 85.8853 45.8654C85.8544 46.0279 85.8118 46.1982 85.8157 46.3646C85.835 47.154 86.3535 47.6377 86.8837 47.3978C87.1468 47.2855 87.437 46.9141 87.6228 46.4768Z" fill="white"/>
<path d="M91.1481 64.2768C90.5521 64.8959 90.0259 65.5809 89.4996 66.2619C89.3487 66.4554 89.1746 66.5599 89.0546 66.7766C88.9579 66.9546 88.8572 67.2835 88.9153 67.4847C88.9927 67.7517 89.5847 67.7517 89.8053 67.7401C90.1149 67.7246 90.3935 67.6434 90.6605 67.4886C90.9236 67.3377 91.0591 67.1364 91.1635 66.8578C91.2603 66.6063 91.3415 66.3316 91.5505 66.1574C91.744 65.9949 92.0342 65.9291 92.1425 65.7008C92.2006 65.5847 92.1928 65.4493 92.1812 65.3177C92.1541 65.074 92.0574 64.8456 92.0303 64.6057C92.011 64.4316 92.0264 64.2343 91.9529 64.0679C91.891 63.9286 91.6937 63.8589 91.5466 63.8705C91.3841 63.8821 91.2332 63.975 91.121 64.0949L91.1481 64.2768Z" fill="#242A31"/>
<path d="M91.0358 64.1183C90.4476 64.7335 89.9291 65.4068 89.4106 66.0801C89.2635 66.2736 89.1126 66.4671 88.9965 66.6799C88.8998 66.8541 88.7759 67.0901 88.834 67.2913C88.9075 67.5545 89.4918 67.5545 89.7124 67.5428C90.0181 67.5274 90.2928 67.4461 90.556 67.2952C90.8152 67.1481 90.9468 66.9469 91.0513 66.6683C91.1441 66.4207 91.2293 66.1498 91.4305 65.9757C91.6201 65.8131 91.9064 65.7474 92.0148 65.5229C92.069 65.4068 92.0651 65.2714 92.0535 65.1476C92.0264 64.9077 91.9335 64.6793 91.9064 64.4433C91.8871 64.2692 91.9026 64.0757 91.8291 63.9132C91.7671 63.7739 91.5737 63.7081 91.4266 63.7197C91.2641 63.7313 91.117 63.8203 91.0087 63.9403L91.0358 64.1183Z" fill="#10191B"/>
<path d="M89.1938 63.1237C88.4934 63.6268 87.851 64.1995 87.2087 64.7722C87.0268 64.9347 86.8333 65.0082 86.6785 65.1978C86.5508 65.3526 86.3922 65.6583 86.4115 65.8712C86.4386 66.1459 87.0191 66.2542 87.2435 66.2852C87.5531 66.3278 87.8394 66.2968 88.1296 66.1962C88.416 66.0956 88.5862 65.9253 88.741 65.6661C88.8803 65.4339 89.0158 65.1824 89.2479 65.0469C89.4685 64.9231 89.7626 64.9115 89.9135 64.7064C89.9909 64.6019 90.0102 64.4665 90.0219 64.3388C90.0412 64.095 89.987 63.8512 90.0064 63.6113C90.018 63.4372 90.0683 63.2437 90.0257 63.0696C89.9909 62.9187 89.809 62.818 89.662 62.7987C89.4995 62.7793 89.3331 62.8413 89.2054 62.9419L89.1938 63.1237Z" fill="#242A31"/>
<path d="M89.1124 62.9457C88.4236 63.441 87.789 64.0098 87.1544 64.5748C86.9725 64.7373 86.7906 64.8998 86.6397 65.0894C86.5159 65.2442 86.3456 65.4532 86.3688 65.6583C86.3959 65.9291 86.9686 66.0375 87.1892 66.0684C87.4949 66.1071 87.7774 66.08 88.0637 65.9794C88.3462 65.8827 88.5126 65.7086 88.6674 65.457C88.8067 65.2287 88.9383 64.9772 89.1704 64.8456C89.3871 64.7218 89.6812 64.7102 89.8283 64.509C89.9057 64.4045 89.925 64.2729 89.9327 64.1452C89.9521 63.9053 89.8979 63.6616 89.9173 63.4255C89.9289 63.2514 89.9792 63.0618 89.9366 62.8915C89.9018 62.7445 89.7238 62.6439 89.5767 62.6245C89.4142 62.6052 89.2517 62.6671 89.124 62.7677L89.1124 62.9457Z" fill="#10191B"/>
<path d="M87.2397 53.237C87.4835 54.661 87.4526 58.844 88.834 58.4222C89.2674 58.2907 89.9949 57.4935 90.0297 56.5377C90.0491 56.0231 89.9949 55.2956 90.0026 54.7809C90.022 53.7168 90.9275 50.2651 88.7411 49.6886C88.4122 49.6034 87.886 48.9766 87.619 49.2165C87.5648 49.2668 87.3945 49.4951 87.2746 49.9865C87.2088 50.2651 87.1817 50.6908 87.143 51.0661C87.085 51.7085 87.1082 52.4515 87.2397 53.237Z" fill="#242A31"/>
<path d="M88.4121 63.592C88.474 63.89 88.6752 64.215 89.7007 64.1376C89.9793 64.1144 90.107 63.2979 90.1457 63.0773C90.3043 62.1332 90.0992 61.0265 90.1302 60.0668C90.1766 58.5422 89.9096 58.101 89.8168 57.4006C89.7781 57.1104 89.8129 56.7931 89.6426 56.5571C89.2247 55.9882 88.238 56.4913 87.9903 57.1878C87.8858 57.478 87.9361 57.6057 87.9942 57.896C88.2534 59.142 88.4121 63.5804 88.4121 63.592Z" fill="#242A31"/>
<path d="M89.6854 57.2885C89.6776 57.6135 89.697 57.9385 89.7086 58.2597C89.7318 58.7821 89.7589 59.3045 89.786 59.8269C89.9485 62.7601 89.9175 64.2537 90.1459 64.869C90.3355 65.3798 91.0049 65.3527 91.4383 65.2173C91.6279 65.1592 91.8098 65.0509 91.9259 64.8883C92.0381 64.7297 92.0729 64.5285 92.1039 64.3389C92.4057 62.4776 92.3554 60.6202 91.9491 58.7821C91.8523 58.3526 91.7324 57.9037 91.4925 57.5284C91.4073 57.3929 90.8617 58.2713 90.7263 58.1901C90.5792 58.1011 90.9236 57.8534 90.7534 57.8612C90.4283 57.8805 90.1149 58.0237 89.8943 58.2597L89.6854 57.2885Z" fill="#37404A"/>
<path d="M92.1928 49.8627C92.1928 49.8627 92.069 49.6847 92.0651 49.6885C91.5853 49.9207 91.0048 49.8472 90.4399 49.9052C89.2287 50.0252 89.1281 50.238 88.3426 49.6885C88.1684 50.5205 88.3542 51.306 88.3464 51.4918C88.2923 52.4476 89.1784 52.5443 89.2016 53.0473C89.2597 54.216 89.3641 56.5261 89.5189 57.687C89.577 58.1397 89.6544 58.6002 89.8865 58.9949C90.1574 59.4515 90.6411 59.703 91.1712 59.6644C91.3067 59.6527 91.446 59.614 91.5466 59.525C91.7865 59.3161 92.0342 59.378 92.0071 59.0607C91.9336 58.1397 92.0806 56.8473 92.2934 55.9495C92.7384 54.1308 92.9396 52.1303 92.1928 49.8627Z" fill="#37404A"/>
<path d="M92.2468 47.9084C92.2081 48.2103 92.1772 48.5237 92.1694 48.8294C92.1849 48.5198 92.2081 48.2103 92.2468 47.9084Z" fill="#F3A984"/>
<path d="M92.1695 48.8257C92.1618 49.0114 92.1541 49.201 92.1541 49.3868C92.1579 49.3868 92.1618 49.3829 92.1657 49.3829C92.1618 49.1972 92.1618 49.0114 92.1695 48.8257Z" fill="#F3A984"/>
<path d="M92.1696 48.8256C92.185 48.5199 92.2121 48.2104 92.2469 47.9047C92.2973 47.5138 92.363 47.1307 92.452 46.7476C92.6068 46.0666 92.7887 45.521 92.9744 44.8477C93.0789 44.4723 93.3033 43.9035 93.3343 43.6326C93.4078 43.0135 93.048 42.5337 92.2469 41.9919C91.7052 41.6243 90.6217 41.1406 89.5653 40.8117C88.0833 40.3473 87.8743 40.8891 87.4487 42.0693C87.0501 43.1683 87.1662 44.9831 87.3442 46.1556C87.437 46.7747 87.4951 47.4016 87.5183 48.0285C87.5377 48.5702 87.4757 49.081 87.3867 49.6111C88.6831 50.5282 90.4515 50.2961 91.9335 49.9362C92.0264 49.9207 92.1115 49.8936 92.1966 49.8549C92.1657 49.5183 92.1579 49.1739 92.1696 48.8256Z" fill="#F4F4F4"/>
<path d="M90.7223 44.4336C90.432 45.2617 90.8693 46.0859 90.8693 46.914C90.908 47.9936 90.8693 49.081 90.7997 50.1683C91.1866 50.1103 91.5658 50.029 91.9296 49.9439C92.0224 49.9284 92.1076 49.9013 92.1927 49.8626C92.1617 49.5182 92.154 49.1739 92.1656 48.8256C92.1811 48.5199 92.2082 48.2103 92.243 47.9046C92.2933 47.5138 92.3591 47.1307 92.4481 46.7476C92.6029 46.0666 92.7848 45.521 92.9705 44.8476C93.075 44.4723 93.2994 43.9035 93.3304 43.6326C93.3729 43.2611 93.2607 42.9438 92.9937 42.6304C92.1153 43.1295 91.1092 43.4275 90.7223 44.4336Z" fill="#D4E2FC"/>
<path d="M89.5421 48.8643C89.3796 48.9997 89.19 49.1661 89.0313 49.3015C88.803 48.9417 88.7953 48.9107 88.5825 48.5508C88.5747 46.4071 88.6676 44.3987 89.1784 42.344C89.3757 42.4833 89.4763 42.5568 89.6776 42.6961C89.4183 44.658 89.2558 46.7012 89.5421 48.8643Z" fill="#37404A"/>
<path d="M88.9655 42.2937C88.9617 42.3014 88.9617 42.313 88.9617 42.3246C88.9617 42.3866 89.0004 42.4601 89.0197 42.5181C89.0661 42.642 89.1203 42.758 89.1861 42.8703C89.2209 42.9322 89.2674 42.9941 89.3331 43.0212C89.4067 43.0521 89.4918 43.0289 89.5615 42.9902C89.6427 42.9438 89.7859 42.878 89.7704 42.7813C89.7549 42.6961 89.724 42.6071 89.6969 42.522C89.6388 42.3517 89.5615 42.1389 89.4028 42.0344C89.2248 41.9183 89.101 42.0925 89.0081 42.224C88.9888 42.255 88.9733 42.2705 88.9655 42.2937Z" fill="#283032"/>
<path d="M91.206 41.427C91.2447 42.6227 89.0004 42.642 89.0313 41.5198C89.0778 39.9527 89.1706 39.7708 89.9097 39.527C90.1109 39.4612 90.3238 39.4071 90.5366 39.4071C91.3182 39.3916 91.0164 39.7901 90.9855 40.0649C90.9003 40.8814 91.1906 40.9936 91.206 41.427Z" fill="#F5A783"/>
<path d="M91.206 41.427C91.1944 40.9975 90.9003 40.8814 90.9893 40.0649C91.0203 39.7901 91.3221 39.3916 90.5404 39.4071C90.3276 39.4109 90.1148 39.4612 89.9135 39.527C89.1861 39.7669 89.0816 39.9449 89.0352 41.4541C89.6543 41.396 90.2038 40.7072 90.8384 41.1174C91.0086 41.2451 91.1209 41.4076 91.1983 41.5856C91.2021 41.5353 91.206 41.4812 91.206 41.427Z" fill="#EE9C76"/>
<path d="M90.8346 41.1174C90.1999 40.7111 89.6543 41.396 89.0313 41.454C89.0313 41.4734 89.0313 41.4966 89.0274 41.5159C88.9965 42.5878 91.0358 42.6188 91.1944 41.5817C91.117 41.4037 91.0048 41.2412 90.8346 41.1174Z" fill="#F5A783"/>
<path d="M89.3988 42.1621C89.3601 42.2898 89.1898 42.3362 89.0776 42.4097C89.0273 42.4407 88.9421 42.5065 88.8802 42.491C88.8145 42.4755 88.7758 42.3904 88.7564 42.3362C88.5978 41.9493 88.5088 41.5275 88.5049 41.1096C88.5049 40.978 88.5242 40.831 88.6287 40.7342C88.7216 40.6491 88.8841 40.6336 88.9963 40.6839C89.1202 40.7381 89.1472 40.978 89.1047 41.0902C88.9422 41.4965 89.124 41.957 89.3988 42.1621Z" fill="white"/>
<path d="M89.3794 42.1698C89.3794 42.1698 89.5729 42.4794 89.8128 42.6883C89.8708 42.7425 89.9173 42.8044 89.9985 42.7812C90.3855 42.6574 91.1942 41.9763 91.3568 41.5468C91.4148 41.392 91.3026 41.1985 91.2136 41.0747C91.1981 41.0515 91.0743 40.8851 91.0511 40.8696C91.0356 40.8928 90.9504 41.2024 90.815 41.4036C90.5016 41.8602 89.9327 42.0924 89.3794 42.1698Z" fill="white"/>
<path d="M88.7836 48.8062C88.6675 48.7907 88.3308 48.7946 88.2147 48.8178C88.0986 48.841 88.4198 48.9842 88.3502 49.0809C88.2457 49.2241 88.0406 49.3247 88.0638 49.5027C88.0832 49.6459 88.1025 49.789 88.1567 49.9206C88.2109 50.0522 88.2999 50.176 88.4237 50.2457C88.4701 50.2727 88.5243 50.2921 88.5824 50.2921C88.621 50.2921 88.6559 50.2805 88.6946 50.2727C88.8997 50.2186 89.1047 50.1644 89.3098 50.1102C89.3563 50.0986 89.3988 50.087 89.4414 50.0638C89.4956 50.0367 89.542 49.9903 89.5807 49.94C89.7161 49.762 89.7394 49.5259 89.6891 49.3131C89.6658 49.2125 89.6233 49.0809 89.5459 49.0035C89.484 48.9377 89.3679 48.9339 89.2827 48.9106C89.1202 48.8719 88.9538 48.8294 88.7836 48.8062Z" fill="#FFBFA2"/>
<path d="M89.2557 48.872C89.07 48.7327 88.8804 48.5934 88.6947 48.458C88.6211 48.4038 88.5476 48.3497 88.4664 48.3187C88.4006 48.2955 88.3309 48.2877 88.2651 48.2684C88.2032 48.2529 88.1452 48.2297 88.0794 48.222C87.8898 48.191 87.704 48.2723 87.526 48.3497C87.4564 48.3806 87.3829 48.4154 87.3287 48.4735C87.2939 48.5083 87.2668 48.5664 87.2977 48.6089C87.3132 48.6283 87.3326 48.6399 87.3558 48.6476C87.4177 48.6747 87.4835 48.7018 87.5531 48.6979C87.6344 48.694 87.7118 48.6476 87.793 48.636C87.9362 48.6167 88.0717 48.7057 88.1607 48.8179C88.2497 48.9301 88.3038 49.0655 88.3812 49.1855C88.4586 49.3054 88.5708 49.4177 88.7101 49.437C88.7604 49.4447 88.8107 49.4409 88.8611 49.4331C88.9771 49.4177 89.0932 49.3906 89.1938 49.3287C89.279 49.2745 89.3486 49.1971 89.3796 49.1004C89.4144 48.9881 89.337 48.934 89.2557 48.872Z" fill="#FFBFA2"/>
<path d="M89.2828 50.0096C89.5072 50.2031 89.8632 50.176 90.138 50.1373C90.9738 50.0251 94.3945 49.7504 93.8876 48.3031C93.8102 48.0826 93.4387 48.0091 93.1911 47.9704C92.8854 47.9239 90.4862 48.3535 89.4221 48.8991C89.2828 48.9726 89.1357 49.0577 89.0622 49.1932C88.95 49.4137 89.1087 49.8587 89.2828 50.0096Z" fill="white"/>
<path d="M87.3248 46.4226L84.3491 44.7006L84.4923 44.6039L87.468 46.3259L87.3248 46.4226Z" fill="#37404A"/>
<path d="M87.4681 46.3258L88.7257 50.1644L88.482 50.0019L87.325 46.4225L87.4681 46.3258Z" fill="#242A31"/>
<path d="M88.5825 50.2613L85.6067 48.5355L84.3491 44.7007L87.3248 46.4227L88.5825 50.2613Z" fill="#10191B"/>
<path d="M88.42 49.6072C88.5438 49.5337 88.4548 49.1545 88.4045 49.0926C88.2845 48.9455 88.3077 49.1855 87.8666 49.1777C87.7389 49.1777 87.6073 49.1739 87.4913 49.1274C87.4061 49.0965 87.3055 49.0384 87.2281 49.0887C87.1662 49.1274 87.1546 49.2125 87.1856 49.2783C87.0656 49.2242 87.0463 49.4447 87.1314 49.5492C87.2978 49.7504 87.0037 49.7814 87.352 50.0523C87.3287 50.0677 87.3094 50.0793 87.2862 50.0948C87.3249 50.474 88.2536 50.3541 88.6328 50.2844C89.2945 50.1645 88.7218 49.6498 88.42 49.6072Z" fill="#FFBFA2"/>
<path d="M85.3009 47.2119C85.0919 47.3125 84.9836 47.0648 85.0726 46.9797C85.1616 46.8946 85.4905 46.8597 85.564 47.0339C85.6221 47.177 85.4363 47.1461 85.3009 47.2119Z" fill="#FFBFA2"/>
<path d="M84.7362 46.0394C84.6085 46.1284 84.7052 46.3683 84.771 46.3722C84.8097 46.376 84.8484 46.3451 84.8832 46.3296C84.9645 46.2948 85.0573 46.287 85.1502 46.3025C85.1889 46.3103 85.2276 46.3219 85.2624 46.318C85.2972 46.3141 85.3359 46.2987 85.3476 46.2561C85.4056 46.0936 85.1502 46.0007 85.0767 45.9813C84.8832 45.9272 84.7942 45.9968 84.7362 46.0394Z" fill="#FFBFA2"/>
<path d="M84.8173 46.6625C84.9179 46.7592 84.9528 46.5773 85.2391 46.6238C85.2778 46.6315 85.3165 46.6393 85.3513 46.6354C85.3862 46.6315 85.421 46.6122 85.4365 46.5696C85.4945 46.4071 85.2391 46.3181 85.1617 46.2987C84.8096 46.2136 84.6316 46.4845 84.8173 46.6625Z" fill="#FFBFA2"/>
<path d="M84.9413 46.945C85.0574 46.9914 85.0729 46.9372 85.2895 46.914C85.6262 46.8753 85.5024 46.5696 85.1038 46.6315C85.0806 46.6354 84.9684 46.6509 84.9413 46.6625C84.8136 46.7089 84.8213 46.8947 84.9413 46.945Z" fill="#FFBFA2"/>
<path d="M94.0579 48.0323C94.0811 47.1539 93.9921 46.0434 93.9263 44.6464C93.907 44.2711 93.8334 43.888 93.698 43.5359C93.5626 43.1799 93.3304 42.9206 93.0363 42.6652C92.9047 42.5491 92.7345 42.4369 92.5603 42.4679C92.3978 42.4949 92.2895 42.6381 92.2043 42.7736C91.709 43.59 91.6742 44.6387 91.8445 45.5481C92.007 46.3955 92.0496 47.2623 92.216 48.1097C92.2469 48.2723 92.274 48.4464 92.3359 48.6012C92.6455 49.3287 93.3033 49.5879 93.7096 49.17C93.9108 48.9572 94.0424 48.5083 94.0579 48.0323Z" fill="white"/>
<path d="M88.2574 37.6657C88.1026 37.9133 88.0098 38.1997 88.0136 38.5054C88.0136 38.6369 88.0368 38.7685 88.0794 38.8923C88.122 39.0084 88.1955 39.1206 88.1955 39.2483C88.1955 39.3992 88.091 39.5656 88.0407 39.7049C87.9981 39.8326 87.9711 39.9758 88.0214 40.0996C88.0484 40.1732 88.1026 40.2312 88.1452 40.297C88.3425 40.6066 88.1568 41.067 88.5012 41.2915C88.5863 41.3456 88.6908 41.3573 88.7914 41.365C88.9191 41.3727 89.4957 41.2102 89.7162 41.1135C89.9639 41.0051 90.2038 40.7265 90.3818 40.5214C90.5211 40.3628 90.7533 40.1615 90.8423 39.9719C90.8694 39.9139 90.8036 39.9023 90.8617 39.8752C90.8965 39.8559 90.9429 39.6275 90.9816 39.6237C91.028 39.6198 91.0938 39.5656 91.1325 39.5385C91.2099 39.4882 91.2486 39.674 91.2718 39.585C91.3802 39.2058 91.5156 38.8188 91.5001 38.4202C91.4847 38.0526 91.4924 37.7392 91.2563 37.4296C91.0783 37.1974 90.8268 37.0272 90.5521 36.9227C90.1342 36.764 89.6582 36.7563 89.2325 36.8995C88.8378 37.031 88.4818 37.3097 88.2574 37.6657Z" fill="#FFBFA2"/>
<path d="M91.5038 38.4163C91.4883 38.0487 91.4961 37.7353 91.26 37.4257C91.082 37.1935 90.8305 37.0233 90.5558 36.9188C90.3042 36.8221 90.0372 36.7834 89.7702 36.795C89.3717 37.5921 89.9482 38.6175 89.5148 39.4456C89.3678 39.6391 89.0776 39.7862 89.0776 40.03C88.9808 40.4672 89.4142 40.8542 89.1743 41.2914C89.3755 41.2373 89.5961 41.1676 89.7199 41.1134C89.9676 41.0051 90.2075 40.7265 90.3855 40.5214C90.5248 40.3627 90.757 40.1615 90.846 39.9719C90.8731 39.9139 90.8073 39.9023 90.8653 39.8752C90.9001 39.8558 90.9466 39.6275 90.9853 39.6236C91.0317 39.6198 91.0975 39.5656 91.1362 39.5385C91.2136 39.4882 91.2484 39.6739 91.2755 39.5849C91.3838 39.2057 91.5193 38.8188 91.5038 38.4163Z" fill="#F8B495"/>
<path d="M89.6466 38.0023C89.7511 37.9868 89.8556 37.9868 89.9484 38.0294C90.111 38.1029 90.2038 38.2771 90.2309 38.4512C90.289 38.8343 90.1535 39.2174 90.1458 39.6005C90.1458 39.6585 90.1458 39.7165 90.1767 39.7668C90.2541 39.9023 90.3973 39.8288 90.4786 39.7436C90.5327 39.6895 90.5714 39.6237 90.6217 39.5656C90.6721 39.5076 90.734 39.4573 90.8075 39.4457C90.9274 39.4224 91.0203 39.5192 91.0358 39.6275C91.0513 39.7281 91.0358 39.8288 91.0087 39.9255C91.001 39.9487 90.9507 40.1228 91.0242 40.1267C91.0977 40.1267 91.7323 39.4728 91.7633 38.3583C91.7904 37.2903 91.0513 37.093 91.0513 37.093C91.0513 37.093 90.7262 36.5396 89.8633 36.5822C89.4106 36.6054 88.9694 36.7524 88.5863 36.9885C88.5709 36.9962 88.5554 37.0078 88.5399 37.0194C88.3542 37.1394 88.18 37.2826 88.0601 37.4683C87.7312 37.9791 88.1762 38.3854 88.7102 38.3003C88.9617 38.2616 89.1939 38.1416 89.4338 38.0604C89.4996 38.0371 89.5731 38.0139 89.6466 38.0023Z" fill="#C99C83"/>
<path d="M89.6465 38.0022C89.751 37.9868 89.8554 37.9868 89.9483 38.0293C90.1108 38.1029 90.2037 38.277 90.2308 38.4511C90.2888 38.8342 90.1534 39.2173 90.1457 39.6004C90.1457 39.6584 90.1457 39.7165 90.1766 39.7668C90.254 39.9022 90.3972 39.8287 90.4784 39.7436C90.5326 39.6894 90.5713 39.6236 90.6216 39.5656C90.6719 39.5075 90.7338 39.4572 90.8074 39.4456C90.9273 39.4224 91.0202 39.5191 91.0357 39.6275C91.0511 39.7281 91.0357 39.8287 91.0086 39.9254C91.0008 39.9487 90.9505 40.1228 91.0241 40.1267C91.0976 40.1267 91.7322 39.4727 91.7632 38.3583C91.7902 37.2902 91.0511 37.0929 91.0511 37.0929C91.0511 37.0929 90.61 37.2593 90.3043 37.4528C89.9948 37.6462 89.6465 38.0022 89.6465 38.0022Z" fill="#B98C74"/>
<path d="M90.9195 39.1555C91.2368 39.1361 91.3181 39.527 91.0975 39.8327C91.0356 39.9217 90.9234 39.9991 90.8383 40.0726C90.2694 40.5563 90.1263 40.0339 90.3081 39.8675C90.7299 39.4805 90.521 39.1826 90.9195 39.1555Z" fill="#F8B495"/>
<path d="M90.73 39.9061C90.7648 39.8713 91.1286 39.6585 90.8809 39.5153C90.8113 39.4766 90.7378 39.5346 90.7261 39.6082C90.7223 39.6469 90.7339 39.6855 90.7261 39.7204C90.7223 39.7436 90.7145 39.7629 90.7029 39.7823C90.672 39.8365 90.5598 39.8868 90.583 39.9603C90.6023 40.0261 90.7068 39.9255 90.73 39.9061Z" fill="#F3A984"/>
<path opacity="0.1667" d="M79.2295 18.5151C94.8704 27.5467 94.8704 42.1892 79.2295 51.2209C63.5886 60.2525 38.2273 60.2525 22.5825 51.2209C6.94158 42.1892 6.94158 27.5467 22.5825 18.5151C38.2273 9.48342 63.5886 9.48342 79.2295 18.5151Z" fill="#929394"/>
<path opacity="0.3333" d="M75.6927 29.4119C89.3795 37.3136 89.3795 50.1297 75.6927 58.0314C62.006 65.9331 39.81 65.9331 26.1232 58.0314C12.4365 50.1297 12.4365 37.3136 26.1232 29.4119C39.81 21.5102 62.0021 21.5102 75.6927 29.4119Z" fill="#A4A7A9"/>
<path opacity="0.5" d="M50.908 69.9226C67.5027 69.9226 80.9554 62.1559 80.9554 52.5752C80.9554 42.9945 67.5027 35.2278 50.908 35.2278C34.3133 35.2278 20.8606 42.9945 20.8606 52.5752C20.8606 62.1559 34.3133 69.9226 50.908 69.9226Z" fill="#B7BBBF"/>
<path opacity="0.6667" d="M68.6153 51.2053C78.3976 56.8511 78.3976 66.0065 68.6153 71.6562C58.8329 77.3019 42.9753 77.3019 33.1969 71.6562C23.4145 66.0104 23.4145 56.855 33.1969 51.2053C42.9792 45.5557 58.8368 45.5557 68.6153 51.2053Z" fill="#CACED4"/>
<path opacity="0.8333" d="M65.0785 62.1022C72.9067 66.6219 72.9067 73.947 65.0785 78.4667C57.2503 82.9864 44.5619 82.9864 36.7337 78.4667C28.9055 73.947 28.9055 66.6219 36.7337 62.1022C44.5619 57.5825 57.2503 57.5825 65.0785 62.1022Z" fill="#DCE2E9"/>
<path d="M61.5415 72.999C67.4155 76.3887 67.4155 81.8874 61.5415 85.2772C55.6674 88.667 46.1482 88.667 40.2742 85.2772C34.4001 81.8874 34.4001 76.3887 40.2742 72.999C46.1444 69.6053 55.6674 69.6053 61.5415 72.999Z" fill="#EFF6FE"/>
<path d="M62.2187 72.7165C68.5068 76.3462 68.5416 82.2357 62.2922 85.8654C56.0428 89.4951 45.8812 89.4951 39.5931 85.8654C33.305 82.2357 33.2702 76.3462 39.5196 72.7165C45.7651 69.0868 55.9306 69.0868 62.2187 72.7165Z" fill="#E6F1FE"/>
<path d="M60.7988 74.245C66.2975 77.0311 66.3246 81.5508 60.8607 84.3369C55.3968 87.123 46.5123 87.123 41.0136 84.3369C35.5149 81.5508 35.4839 77.0311 40.9478 74.245C46.4116 71.4589 55.3001 71.4589 60.7988 74.245Z" fill="#DAE8FD"/>
<path d="M61.41 74.1211C58.6123 72.5037 54.8588 71.6136 50.8538 71.6136C46.9068 71.6136 43.0682 72.5269 40.3324 74.1173C37.8752 75.5413 36.4705 77.418 36.4744 79.2638C36.4744 79.3528 36.4782 79.4418 36.486 79.5347C36.6137 81.3109 38.03 83.0947 40.402 84.4646C43.2036 86.0782 46.9532 86.9682 50.9583 86.9682C54.9053 86.9682 58.7439 86.055 61.4797 84.4646C63.8169 83.1102 65.2022 81.3457 65.3299 79.585C65.3416 79.496 65.3416 79.4031 65.3416 79.3141C65.3377 77.4529 63.9021 75.5606 61.41 74.1211Z" fill="#CDDCFB"/>
<path d="M61.4101 74.659C58.6124 73.0454 54.8589 72.1554 50.8539 72.1554C46.9069 72.1554 43.0683 73.0686 40.3325 74.659C37.9952 76.0134 36.6099 77.7818 36.4861 79.5347C36.6138 81.3109 38.0301 83.0947 40.4021 84.4646C43.2037 86.0782 46.9533 86.9682 50.9584 86.9682C54.9054 86.9682 58.744 86.055 61.4798 84.4646C63.817 83.1102 65.2023 81.3457 65.33 79.585C65.1985 77.8127 63.7822 76.0289 61.4101 74.659ZM60.8529 83.9306C58.299 85.4126 54.6925 86.2678 50.9584 86.2678C47.1662 86.2678 43.641 85.4358 41.0251 83.9267C38.9278 82.7155 37.7244 81.2141 37.7205 79.8056C37.7205 79.7166 37.7244 79.6276 37.736 79.5386C37.7244 79.4535 37.7205 79.3528 37.7205 79.2677C37.7166 77.8785 38.9007 76.3926 40.9593 75.1969C43.5133 73.7148 47.1197 72.8597 50.8539 72.8597C54.6461 72.8597 58.1752 73.6878 60.7871 75.2008C62.8845 76.412 64.0879 77.9134 64.0918 79.318C64.0918 79.407 64.0879 79.496 64.0763 79.585C64.0879 79.674 64.0918 79.7708 64.0918 79.8598C64.0956 81.2489 62.9154 82.731 60.8529 83.9306Z" fill="#15D9FD"/>
<path d="M52.5408 69.3073C52.4557 69.8878 52.5253 70.4295 52.5137 71.0138C52.5021 71.633 52.4402 72.256 52.3086 72.8635C52.1926 73.4091 52.0223 73.9431 51.9642 74.4965C51.9023 75.0498 51.9642 75.6419 52.2699 76.1062C52.3473 76.2262 52.4441 76.3345 52.5679 76.4042C52.7343 76.4971 52.9355 76.5048 53.1213 76.47C53.6978 76.3694 54.166 75.9011 54.3905 75.3594C54.6111 74.8176 54.6227 74.2101 54.5491 73.6258C54.4795 73.0454 54.3324 72.4727 54.255 71.8922C54.1622 71.1841 54.2318 70.5185 54.2783 69.8143C54.2937 69.5898 54.2628 69.4466 54.4292 69.2725C54.6072 69.0829 54.8703 68.9591 55.1257 68.9165C55.3617 68.8778 55.6133 68.9088 55.8338 68.8198C56.1357 68.6998 56.3292 68.3554 56.2711 68.0342C56.2324 67.8059 56.0854 67.6163 55.9306 67.4461C55.5862 67.0746 55.1412 66.7573 54.6343 66.7225C54.1196 66.6876 53.6204 66.9624 53.2838 67.3532C52.9471 67.744 52.7614 68.2432 52.6414 68.7424C52.6066 68.9281 52.5679 69.1177 52.5408 69.3073Z" fill="#242A31"/>
<path d="M63.0006 86.7592C63.3875 87.0765 63.7203 89.0307 62.157 88.9881C61.3483 88.9649 60.6479 88.4193 59.9475 87.9781C59.5489 87.7266 59.7501 87.2932 59.3361 87.0804C57.4284 86.1014 54.9828 85.5712 55.3349 83.265C55.3736 83.0057 55.4433 81.9145 55.6406 81.7906C55.7838 81.7016 56.5925 81.988 56.7744 82.0151C58.5196 82.3053 58.7479 82.313 59.0342 82.5104C59.0807 83.8222 59.2935 84.0505 60.0094 84.48C60.3422 84.6774 62.7104 86.5193 63.0006 86.7592Z" fill="#FFBFA2"/>
<path d="M63.4377 94.746V93.3181H63.8286L63.728 94.7615C63.639 94.8234 63.5267 94.8427 63.4377 94.746Z" fill="#283032"/>
<path d="M66.0498 94.51C66.2433 94.746 66.4987 95.1214 66.6612 95.3806C66.7076 95.4503 66.7463 95.5354 66.7347 95.6167C66.7231 95.7018 66.6612 95.7753 66.5877 95.8179C66.5142 95.8605 66.429 95.8798 66.34 95.8914C66.0034 95.9417 65.659 95.9224 65.3301 95.8372C65.1521 95.7908 64.9702 95.7173 64.8386 95.5857C64.6529 95.3961 64.591 95.1214 64.5213 94.866C64.4517 94.6106 64.3394 94.3358 64.1034 94.2159C64.0376 94.1811 63.968 94.1617 63.9022 94.1308C63.4146 93.9063 63.314 93.2601 63.5887 92.8306C63.7358 92.5984 63.9331 92.6139 64.1614 92.7106C64.44 92.8267 64.591 93.0628 64.7999 93.264C64.8309 93.2911 64.858 93.322 64.8928 93.3452C65.1134 93.5232 64.796 92.5326 64.9237 92.7996C65.2914 93.5619 65.8138 94.2275 66.0498 94.51Z" fill="#283032"/>
<path d="M64.6491 84.6347C64.8077 84.7779 64.9238 84.9869 64.9586 85.2423C65.0825 86.1284 65.0438 87.0958 65.0283 87.9897C65.0128 88.8062 64.8503 89.6149 64.8503 90.4314C64.8503 90.946 64.9122 92.3894 65.0283 92.8924C65.0902 93.1594 64.5949 93.3491 64.3472 93.2252C64.177 93.1401 63.8403 92.9273 63.821 92.7377C63.7088 91.6658 63.1438 90.6945 62.8807 89.6497C62.6601 88.7829 62.6446 87.8233 62.811 86.9449C62.9503 86.2135 62.9929 85.2926 63.523 84.7199C63.8752 84.3368 64.3395 84.36 64.6491 84.6347Z" fill="#EE9C76"/>
<path d="M64.974 92.5674C64.9933 92.7493 65.032 92.9273 65.0823 93.1014C65.1055 93.1827 65.1133 93.2639 65.1442 93.3413C65.1791 93.4265 65.2216 93.5077 65.2681 93.5851C65.3532 93.7322 65.4422 93.8715 65.5428 94.0108C65.6357 94.1385 65.7595 94.2546 65.833 94.3977C65.8833 94.4984 65.9452 94.7034 65.8253 94.7808C65.7595 94.8234 65.6744 94.8195 65.597 94.804C65.3648 94.7537 65.1713 94.599 65.0049 94.4287C64.8385 94.2623 64.6838 94.0766 64.4903 93.9411C64.3626 93.8521 64.2194 93.7902 64.0917 93.7012C63.8441 93.5271 63.6312 93.2446 63.6622 92.9312C63.6777 92.7648 63.7821 92.6255 63.7937 92.4629C63.8015 92.3004 63.7937 92.1224 63.8827 91.9792L64.974 92.5674Z" fill="#EE9C76"/>
<path d="M64.7572 96.174C64.765 96.2205 64.7689 96.2669 64.7727 96.3133C64.7766 96.472 64.7224 96.6345 64.6063 96.7351C64.5096 96.8164 64.3819 96.8512 64.2542 96.8473C63.8131 96.8318 63.4455 96.4758 63.2288 96.116C62.9695 95.6864 62.8766 95.1215 62.5168 94.7616C62.4316 94.6804 62.3349 94.6107 62.2575 94.5217C62.1337 94.3824 62.0717 94.1967 62.0563 94.007C62.0447 93.8484 62.064 93.682 62.153 93.5466C62.3233 93.2834 62.6948 93.2718 62.9463 93.3995C63.1398 93.4924 63.4184 93.4382 63.5615 93.6046C63.7318 93.8097 63.7086 93.8445 63.8208 94.038C64.1226 94.5565 64.467 95.2879 64.6682 95.8528C64.7031 95.9612 64.7379 96.0657 64.7572 96.174Z" fill="#3A4648"/>
<path d="M62.6329 84.4297C62.9347 86.469 62.7838 88.9919 63.0663 91.0312C63.1437 91.5884 63.6351 93.856 63.8363 94.3823C63.9447 94.6648 63.1824 94.8273 62.896 94.7305C62.6987 94.6648 62.3504 93.8947 62.3001 93.6935C62.0138 92.5442 61.2553 91.5768 60.8103 90.4817C60.3498 89.3557 60.1796 87.6569 60.4195 86.4651C60.4698 86.2213 60.5588 85.9504 60.7871 85.8537L62.6329 84.4297Z" fill="#F8B495"/>
<path d="M63.3487 93.4807C63.4106 93.6123 63.6041 93.5929 63.6466 93.7322C63.6931 93.887 63.8246 94.2739 63.8904 94.421C63.9717 94.599 64.0568 94.8428 64.0762 95.0401C64.0916 95.2143 64.0452 95.3381 63.902 95.4387C63.7356 95.5587 63.5692 95.5587 63.4067 95.4387C63.2326 95.3149 63.0894 95.1524 62.9617 94.9821C62.8456 94.8273 62.7218 94.6725 62.6405 94.4984C62.4819 94.1617 62.2961 93.7825 62.2458 93.4072C62.242 93.3685 62.2304 92.8654 62.2613 92.877C62.3348 92.9041 62.4045 92.9428 62.4741 92.9815C62.745 93.1285 63.0159 93.2717 63.2906 93.4188C63.3912 93.4807 63.2984 93.3646 63.3487 93.4807Z" fill="#F8B495"/>
<path d="M59.0652 78.7608C58.6938 77.8979 58.3455 76.7564 57.8579 75.3401C57.7264 74.957 57.6528 74.5507 57.6451 74.1444C57.6412 73.7342 57.7689 73.386 57.9624 73.0183C58.0475 72.852 58.1714 72.6701 58.361 72.6314C58.5312 72.5966 58.6976 72.6933 58.8331 72.7939C59.6496 73.4092 59.7927 74.2527 59.9785 75.224C60.1526 76.1295 60.1294 77.3136 60.2029 78.2384C60.2184 78.4126 60.4273 80.0068 59.8585 79.7514C59.576 79.6276 59.2665 79.229 59.0652 78.7608Z" fill="#1499FC"/>
<path d="M59.251 77.8939C59.4484 77.743 59.6805 76.884 59.8044 77.0736C59.8895 77.2051 60.8453 78.7065 61.2438 79.2599C60.7137 79.6275 60.2494 80.057 59.8044 80.5059C59.2084 79.7823 58.6706 78.989 58.6783 78.486C58.6822 78.2267 58.9879 78.0951 59.251 77.8939Z" fill="#1499FC"/>
<path d="M53.47 79.647C53.5164 79.9952 53.5474 80.3512 53.5628 80.7034C53.5435 80.3474 53.5125 79.9952 53.47 79.647Z" fill="#F3A984"/>
<path d="M53.5625 80.7034C53.5741 80.9162 53.578 81.1329 53.578 81.3457C53.5741 81.3418 53.5702 81.3419 53.5664 81.338C53.5702 81.129 53.5702 80.9162 53.5625 80.7034Z" fill="#F3A984"/>
<path d="M63.7863 87.1887C63.4535 87.4132 63.113 87.6221 62.757 87.8001C62.1263 88.1136 61.2904 88.4347 60.5707 88.369C59.967 88.3109 59.5143 87.6608 58.9648 87.4403C57.2428 86.7553 56.5192 86.6044 55.4048 85.7183C54.3213 84.8592 54.2323 83.532 54.4142 82.2163C54.4529 81.9338 54.4799 81.6475 54.5341 81.3689C54.5651 81.2179 54.596 80.9161 54.7431 80.8232C54.9172 80.7149 55.8885 81.0593 56.1052 81.0941C58.2064 81.4424 58.9841 80.6646 59.3324 80.9006C60.234 81.512 61.1666 82.0693 62.1108 82.6149C62.846 83.0367 63.5503 83.4855 64.2661 83.9383C64.6338 84.1704 64.8698 84.5574 65.0594 84.9444C65.2181 85.2655 65.2916 85.8382 65.0865 86.1556C64.9781 86.3219 64.8156 86.4458 64.6531 86.5657C64.3706 86.7786 64.0804 86.9875 63.7863 87.1887Z" fill="#021B74"/>
<path d="M54.6345 73.057C55.1221 72.8364 55.6522 72.6971 56.1669 72.581C56.2481 72.5617 56.3333 72.5423 56.4145 72.5268C57.0375 72.3953 57.6992 72.4262 58.2758 72.6777C58.2835 72.6816 58.2874 72.6855 58.2952 72.6855V76.5086H54.6345V73.057Z" fill="#F3A984"/>
<path d="M52.9861 74.7209C53.0674 73.8425 54.0618 73.3588 54.7932 72.9138C54.8977 73.6335 55.215 74.2991 55.9463 74.5429C56.3333 74.7093 56.8325 74.5429 57.0569 74.2101C57.44 73.6993 57.3974 73.057 57.3317 72.4069C57.6606 72.4533 57.9856 72.5462 58.2797 72.6739C58.5661 72.8016 58.8098 73.0144 58.9917 73.2698C59.1233 73.4555 59.1078 73.7651 59.1581 73.9818C59.2239 74.2604 59.309 74.5313 59.4212 74.7905C59.5528 75.1117 59.7734 75.4019 59.8895 75.727C59.9978 76.0404 59.932 76.5357 59.8314 76.8453C59.7772 77.0117 59.6921 77.1703 59.6109 77.329C59.4832 77.5766 59.3671 77.8282 59.2587 78.0836C59.1581 78.3196 59.0652 78.5595 59.0381 78.811C59.0111 79.0355 59.0382 79.2599 59.073 79.4805C59.1658 80.088 59.5992 80.8929 59.0614 81.4075C58.7286 81.7248 58.3339 81.9725 57.9082 82.1428C57.7109 82.2202 57.5058 82.2859 57.2968 82.3246C56.4339 82.4833 55.4317 82.2472 54.7429 81.7094C54.6655 81.6513 54.6229 81.6204 54.6075 81.5391C54.5959 81.4888 54.6113 81.3766 54.6075 81.3185C54.5959 81.0941 54.6346 80.8658 54.6462 80.6414C54.6732 80.1693 54.6732 79.6933 54.5959 79.2251C54.3598 77.8127 53.4311 76.6092 53.0442 75.2278C52.9861 75.0498 52.9706 74.8795 52.9861 74.7209Z" fill="#13B7FD"/>
<path d="M53.2647 74.036C54.3443 74.2604 54.1857 76.261 54.7545 77.1356C55.1763 77.8205 56.0702 77.6618 56.8054 77.7121C56.3333 77.9753 56.016 78.397 56.016 78.9194C55.9541 80.0339 56.0431 81.187 56.2714 82.3169C55.718 82.2434 55.184 82.0577 54.739 81.7094C54.6616 81.6514 54.6191 81.6204 54.6036 81.5392C54.592 81.4888 54.6074 81.3766 54.6036 81.3186C54.592 81.0942 54.6307 80.8658 54.6423 80.6414C54.6694 80.1693 54.6694 79.6934 54.592 79.2251C54.3559 77.8127 53.4272 76.6093 53.0403 75.2278C52.9899 75.0421 52.9745 74.8718 52.9861 74.7132C53.0093 74.4617 53.1138 74.2372 53.2647 74.036Z" fill="#1499FC"/>
<path d="M56.6624 74.5312C56.7088 74.6782 57.3241 74.7866 57.3976 74.7711C57.4711 74.7556 57.5137 74.6589 57.5408 74.597C57.7226 74.1559 57.8232 73.676 57.831 73.2001C57.831 73.0492 57.8078 72.8789 57.6878 72.7744C57.5833 72.6777 57.3976 72.6583 57.2699 72.7164C57.1306 72.7783 57.1809 72.786 57.2312 72.9137C57.4092 73.3703 56.9758 74.2952 56.6624 74.5312Z" fill="#1499FC"/>
<path d="M54.9595 73.1654C54.9208 74.512 57.2696 74.5352 57.2348 73.2699C57.1883 71.5053 57.0877 71.3003 56.3138 71.0294C56.101 70.9559 55.8804 70.8978 55.656 70.8939C54.8395 70.8785 55.1568 71.3235 55.1878 71.633C55.2806 72.5501 54.9749 72.6778 54.9595 73.1654Z" fill="#F3A984"/>
<path d="M56.314 71.0255C56.1011 70.952 55.8806 70.8939 55.6561 70.89C54.8396 70.8746 55.1569 71.3196 55.1879 71.6291C55.2111 71.8845 55.2073 72.0741 55.1879 72.2328C55.691 72.9061 56.4223 73.3588 57.2078 73.5214C57.2272 73.444 57.2388 73.3588 57.2388 73.266C57.1885 71.5014 57.0879 71.3002 56.314 71.0255Z" fill="#EE9C76"/>
<path d="M55.9424 72.2792C55.8727 72.2212 55.8069 72.1631 55.7412 72.1051C55.5167 71.8961 55.2613 71.6524 55.1065 71.3892C54.6074 70.5379 54.5803 69.4002 55.2961 68.6612C55.8031 68.1349 56.6079 67.9182 57.3083 68.1194C57.4979 68.1736 57.6798 68.2549 57.854 68.3439C58.0049 68.4212 58.1558 68.5102 58.2719 68.6341C58.3493 68.7153 58.4073 68.8121 58.4615 68.9127C58.5195 69.0249 58.5776 69.1371 58.6085 69.2609C58.744 69.8104 58.3802 70.3754 58.5892 70.9171C58.6356 71.0371 58.7053 71.1454 58.744 71.2654C58.7865 71.3854 58.7981 71.5247 58.7324 71.633C58.6704 71.7336 58.5853 71.7878 58.5505 71.9C58.5002 72.0548 58.4653 72.2173 58.4228 72.3721C58.3763 72.5424 58.326 72.7126 58.2409 72.8674C58.032 73.2428 57.7263 73.2698 57.347 73.1189C56.8324 72.9138 56.3603 72.6314 55.9424 72.2792Z" fill="#FFBFA2"/>
<path d="M54.2515 69.6981C54.2902 68.6263 54.6036 68.4444 55.0099 68.1039C55.4046 67.7749 55.9348 67.624 56.4494 67.6395C56.9718 67.655 57.4865 67.8369 57.9276 68.1116C57.9469 68.1232 57.9624 68.1348 57.9818 68.1464C58.2101 68.2973 58.4152 68.4676 58.5351 68.7153C58.6009 68.8468 58.6473 68.99 58.6744 69.1332C58.7209 69.4079 58.4809 69.5201 58.2449 69.5975C57.9237 69.6981 57.4671 69.5588 57.1382 69.524C56.9834 69.5085 56.8248 69.4892 56.6777 69.5317C56.5268 69.5704 56.3875 69.6788 56.3527 69.8297C56.3178 69.9884 56.403 70.1431 56.4378 70.3018C56.5074 70.6152 56.3488 70.9519 56.0895 71.126C55.9347 71.2305 55.8264 71.2382 55.66 71.1608C55.5091 71.0912 55.3582 70.9751 55.1918 71.0796C55.0409 71.1724 55.095 71.3737 55.1337 71.5168C55.1415 71.5439 55.2963 71.7684 55.2111 71.7684C55.1144 71.7645 54.205 70.9828 54.2515 69.6981Z" fill="#37404A"/>
<path d="M56.345 69.8259C56.3101 69.9846 56.3953 70.1393 56.4301 70.298C56.4997 70.6114 56.3411 70.9481 56.0818 71.1222C55.927 71.2267 55.8187 71.2344 55.6523 71.157C55.5014 71.0874 55.3505 70.9713 55.1841 71.0758C55.0332 71.1687 55.1415 71.3505 55.1763 71.4937C55.1841 71.5208 55.2847 71.7646 55.2034 71.7646C55.1183 71.7646 54.2089 70.9868 54.2554 69.6982C54.2786 69.0713 54.3947 68.7463 54.5688 68.5219C54.5688 68.5219 55.0564 68.7115 55.4937 69.021C55.8961 69.3035 56.345 69.8259 56.345 69.8259Z" fill="#242A31"/>
<path d="M55.2692 70.6732C54.9055 70.65 54.8126 71.1027 55.0603 71.451C55.1338 71.5516 55.2615 71.6445 55.3582 71.7257C56.0122 72.283 56.1786 71.6793 55.9696 71.4897C55.4898 71.0524 55.7297 70.7042 55.2692 70.6732Z" fill="#FFBFA2"/>
<path d="M66.3205 83.946L66.3167 84.4955L59.9783 88.1794V87.6299L66.3205 83.946Z" fill="#37404A"/>
<path d="M59.9783 87.63V88.1795L56.043 85.908V85.3585L59.9783 87.63Z" fill="#30383A"/>
<path d="M66.3206 83.946L59.9783 87.6299L56.043 85.3584L62.3852 81.6746L66.3206 83.946Z" fill="#37404A"/>
<path d="M61.3676 83.594L59.6456 84.5885L58.7053 84.0467L60.4312 83.0522L61.3676 83.594Z" fill="#0D1315"/>
<path d="M57.7688 85.9699L63.5616 82.6034L65.6318 83.803L59.839 87.1656L57.7688 85.9699Z" fill="#0D1315"/>
<path d="M52.7384 80.2931C52.5565 79.3527 52.4559 78.1416 52.2818 76.6208C52.2353 76.2106 52.2508 75.7889 52.3321 75.3825C52.4172 74.9724 52.6184 74.6551 52.8932 74.33C53.017 74.183 53.1757 74.0282 53.373 74.0321C53.551 74.0359 53.6942 74.1675 53.8064 74.2991C54.4836 75.0923 54.708 76.2145 54.6809 77.2245C54.6577 78.1648 54.7661 79.1051 54.7312 80.0493C54.7235 80.2273 54.7312 80.4208 54.6887 80.5988C54.4836 81.4385 53.818 81.8332 53.3072 81.4539C53.0596 81.2682 52.839 80.8077 52.7384 80.2931Z" fill="#15D9FD"/>
<path d="M61.7354 82.518C61.7857 82.6225 61.9714 82.8934 62.0527 82.9746C62.1339 83.0559 62.0759 82.7154 62.192 82.7193C62.3661 82.727 62.5596 82.8392 62.6911 82.7231C62.7956 82.6303 62.9001 82.5374 62.9814 82.4213C63.0588 82.3052 63.1129 82.1659 63.1013 82.0266C63.0975 81.9724 63.082 81.9182 63.051 81.8718C63.0317 81.8409 63.0007 81.8176 62.9736 81.7906C62.8188 81.6512 62.6602 81.5158 62.5054 81.3765C62.4706 81.3455 62.4358 81.3146 62.3971 81.2952C62.3429 81.2643 62.281 81.2527 62.2191 81.2488C62.0024 81.2372 61.7934 81.3417 61.6502 81.5003C61.5806 81.5777 61.4993 81.6822 61.4761 81.7828C61.4567 81.8679 61.5187 81.9647 61.5457 82.0459C61.6038 82.2085 61.6618 82.3671 61.7354 82.518Z" fill="#F8B495"/>
<path d="M61.5341 82.1001C61.5225 82.3284 61.5109 82.5567 61.4993 82.785C61.4954 82.874 61.4915 82.963 61.5109 83.0481C61.5263 83.1139 61.5573 83.1758 61.5805 83.2416C61.5999 83.2997 61.6153 83.3616 61.6424 83.4196C61.7198 83.5899 61.8901 83.6982 62.0487 83.7988C62.1145 83.8375 62.1803 83.8801 62.2577 83.8956C62.3041 83.9033 62.366 83.8956 62.3854 83.8491C62.3931 83.8259 62.3893 83.8027 62.3854 83.7795C62.3738 83.7137 62.3583 83.644 62.3196 83.5899C62.2693 83.5241 62.1919 83.4893 62.1377 83.4274C62.0449 83.3229 62.0449 83.1642 62.0874 83.0288C62.13 82.8972 62.2113 82.7773 62.2654 82.6496C62.3196 82.5219 62.3506 82.371 62.2887 82.2433C62.2693 82.1968 62.2345 82.1581 62.2035 82.1233C62.1261 82.0382 62.041 81.9569 61.9365 81.9105C61.8475 81.8718 61.743 81.8563 61.6502 81.8834C61.5379 81.9066 61.538 81.9995 61.5341 82.1001Z" fill="#F8B495"/>
<path d="M62.5865 82.3826C62.4589 82.3245 62.1996 82.6031 62.1764 82.6767C62.1222 82.8547 62.3041 82.7076 62.5401 83.0675C62.6059 83.172 62.6755 83.2803 62.7065 83.4003C62.7259 83.4893 62.7375 83.5976 62.8187 83.6363C62.8806 83.6634 62.958 83.6286 62.9967 83.5667C63.0161 83.6944 63.2057 83.5899 63.2444 83.4622C63.3179 83.2145 63.5036 83.439 63.5346 83.0094C63.5578 83.0211 63.581 83.0288 63.6042 83.0404C63.8945 82.8044 63.2908 82.1117 63.0277 81.8408C62.5633 81.3649 62.4589 82.1117 62.5865 82.3826Z" fill="#F8B495"/>
<path d="M59.8042 80.5059C60.2492 80.0532 60.7174 79.6236 61.2437 79.2599C61.7196 79.9177 62.1492 80.6375 62.4046 81.2024C62.6406 81.7248 61.6306 82.2163 61.3869 81.9454C61.1856 81.721 60.3421 81.1599 59.8042 80.5059Z" fill="#1499FC"/>
<path d="M58.6938 84.4761C58.8061 84.5341 59.104 84.7547 59.193 84.8476C59.282 84.9404 58.9028 84.8669 58.9028 84.9946C58.9028 85.1881 59.0189 85.4048 58.8873 85.548C58.7828 85.6641 58.6706 85.7763 58.5391 85.8575C58.4075 85.9427 58.2488 85.993 58.0941 85.9775C58.0321 85.9698 57.9741 85.9543 57.9238 85.9195C57.889 85.8962 57.8657 85.8614 57.8387 85.8305C57.6916 85.6525 57.5446 85.4745 57.3975 85.2926C57.3666 85.2539 57.3317 85.2152 57.3085 85.1688C57.2776 85.1068 57.266 85.0372 57.266 84.9714C57.2621 84.7276 57.3859 84.5032 57.5678 84.3484C57.6529 84.2749 57.7767 84.1859 57.889 84.1665C57.9857 84.1472 58.0902 84.2207 58.1792 84.2517C58.3533 84.3174 58.5274 84.3871 58.6938 84.4761Z" fill="#FFBFA2"/>
<path d="M58.2331 84.2324C58.4885 84.2285 58.74 84.2246 58.9954 84.2208C59.0922 84.2208 59.1928 84.2169 59.2857 84.244C59.3592 84.2633 59.425 84.302 59.4985 84.3291C59.5643 84.3562 59.63 84.3717 59.692 84.4026C59.8777 84.4955 59.9938 84.689 60.0983 84.867C60.1408 84.9405 60.1834 85.0179 60.195 85.103C60.2028 85.1572 60.1873 85.223 60.137 85.2423C60.1138 85.2501 60.0867 85.2462 60.0596 85.2385C59.9861 85.223 59.9125 85.2036 59.8506 85.1572C59.781 85.0992 59.7423 85.0102 59.6765 84.9483C59.5643 84.8399 59.3863 84.8322 59.2354 84.8747C59.0844 84.9173 58.9529 85.0024 58.8058 85.0605C58.6588 85.1185 58.4924 85.1456 58.3531 85.0721C58.3028 85.045 58.2602 85.0102 58.2215 84.9715C58.1286 84.8825 58.0435 84.7857 57.9932 84.6658C57.9506 84.5652 57.939 84.4491 57.9739 84.3446C58.0203 84.2324 58.1248 84.2324 58.2331 84.2324Z" fill="#FFBFA2"/>
<path d="M57.4359 84.9753C57.1186 85.041 56.7936 84.8321 56.5498 84.6502C55.9577 84.213 53.071 81.8138 52.8737 80.6994C52.8234 80.4169 53.1445 80.2698 53.3922 80.0415C53.5818 79.8713 54.5685 80.0725 54.7427 80.2814C55.0213 80.6065 57.1457 82.7619 57.877 83.8415C57.9738 83.9847 58.0667 84.1433 58.0667 84.3097C58.0667 84.5806 57.6836 84.925 57.4359 84.9753Z" fill="#15D9FD"/>
<path d="M58.5078 85.4165C58.4459 85.2733 58.7671 84.9947 58.8522 84.9715C59.0534 84.9173 58.8793 85.1147 59.2701 85.3894C59.3824 85.4707 59.5023 85.5519 59.6339 85.5868C59.7306 85.6139 59.8544 85.6293 59.8931 85.7222C59.9241 85.7957 59.8777 85.8809 59.8119 85.9196C59.9512 85.9466 59.8312 86.1556 59.688 86.1904C59.4094 86.2639 59.6532 86.4806 59.1734 86.4961C59.185 86.5232 59.1927 86.5503 59.2044 86.5774C58.9296 86.8908 58.1828 86.1904 57.8887 85.8886C57.374 85.3507 58.2137 85.2617 58.5078 85.4165Z" fill="#FFBFA2"/>
<path d="M67.23 80.1539L67.706 80.4286C67.6711 80.4093 67.6286 80.4132 67.5783 80.4402L67.1023 80.1655C67.1526 80.1384 67.199 80.1384 67.23 80.1539Z" fill="#3A4648"/>
<mask id="mask11_189_12210" style="mask-type:luminance" maskUnits="userSpaceOnUse" x="67" y="80" width="1" height="1">
<path d="M67.23 80.1539L67.706 80.4286C67.6711 80.4093 67.6286 80.4132 67.5783 80.4402L67.1023 80.1655C67.1526 80.1384 67.199 80.1384 67.23 80.1539Z" fill="white"/>
</mask>
<g mask="url(#mask11_189_12210)">
<path d="M67.5783 80.4441L67.1023 80.1693C67.1216 80.1577 67.141 80.15 67.1565 80.1461L67.6324 80.4209C67.6169 80.4247 67.5976 80.4325 67.5783 80.4441Z" fill="#3A4648"/>
<path d="M67.6325 80.4209L67.1565 80.1461C67.1836 80.1422 67.2068 80.1422 67.2261 80.1539L67.7021 80.4286C67.6828 80.4209 67.6595 80.417 67.6325 80.4209Z" fill="#3A4648"/>
</g>
<path d="M61.5959 83.9189L61.1238 83.6442L67.1023 80.1693L67.5783 80.4441L61.5959 83.9189Z" fill="#3A4648"/>
<path d="M61.4139 84.2323L60.938 83.9576C60.938 83.8415 61.0193 83.7022 61.1199 83.6442L61.5958 83.9189C61.4952 83.977 61.4139 84.1163 61.4139 84.2323Z" fill="#3A4648"/>
<mask id="mask12_189_12210" style="mask-type:luminance" maskUnits="userSpaceOnUse" x="60" y="83" width="2" height="2">
<path d="M61.4139 84.2323L60.938 83.9576C60.938 83.8415 61.0193 83.7022 61.1199 83.6442L61.5958 83.9189C61.4952 83.977 61.4139 84.1163 61.4139 84.2323Z" fill="white"/>
</mask>
<g mask="url(#mask12_189_12210)">
<path d="M61.5067 83.9963L61.0308 83.7216C61.0578 83.6906 61.0888 83.6635 61.1198 83.6442L61.5957 83.9189C61.5648 83.9383 61.5338 83.9653 61.5067 83.9963Z" fill="#353F41"/>
<path d="M61.4489 84.0969L60.9729 83.8222C60.9884 83.7873 61.0077 83.7525 61.0348 83.7216L61.5108 83.9963C61.4837 84.0273 61.4643 84.0621 61.4489 84.0969Z" fill="#353F41"/>
</g>
<path d="M67.5782 80.4441C67.6788 80.386 67.76 80.4324 67.76 80.5485L66.3205 83.946L59.9783 87.6299L61.3945 84.2246C61.3945 84.2246 61.4332 84.0157 61.5996 83.919L67.5782 80.4441Z" fill="#37404A"/>
<path d="M59.9784 87.63L59.5024 87.3552L60.9729 83.8223L61.4488 84.097L59.9784 87.63Z" fill="#30383A"/>
<path d="M56.6621 74.5314C56.6621 74.5314 56.3216 74.9222 56.0082 75.108C55.9308 75.1544 55.8611 75.2163 55.7799 75.1699C55.3774 74.9454 54.6229 74.0013 54.5377 73.4827C54.5068 73.297 54.5996 73.0455 54.7273 72.9294C54.7506 72.91 55.0021 72.8094 55.033 72.7939C55.0446 72.8249 55.0717 73.1886 55.1762 73.444C55.42 74.0245 56.0585 74.3224 56.6621 74.5314Z" fill="#1499FC"/>
<path opacity="0.0909" d="M102.741 70.6115C102.741 76.2882 98.1401 80.8891 92.4634 80.8891C86.7867 80.8891 82.1858 76.2882 82.1858 70.6115C82.1858 64.9348 86.7867 60.3339 92.4634 60.3339C98.1401 60.3339 102.741 64.9348 102.741 70.6115Z" fill="#8B8779"/>
<path opacity="0.1818" d="M101.843 70.6115C101.843 75.7929 97.6448 79.9914 92.4634 79.9914C87.282 79.9914 83.0835 75.7929 83.0835 70.6115C83.0835 65.4301 87.282 61.2316 92.4634 61.2316C97.6448 61.2316 101.843 65.4301 101.843 70.6115Z" fill="#968E72"/>
<path opacity="0.2727" d="M100.946 70.6114C100.946 75.2936 97.1494 79.0936 92.4634 79.0936C87.7811 79.0936 83.9812 75.2975 83.9812 70.6114C83.9812 65.9292 87.7773 62.1293 92.4634 62.1293C97.1494 62.1293 100.946 65.9253 100.946 70.6114Z" fill="#A2966C"/>
<path opacity="0.3636" d="M100.048 70.6114C100.048 74.7983 96.6543 78.1958 92.4636 78.1958C88.2767 78.1958 84.8792 74.8022 84.8792 70.6114C84.8792 66.4245 88.2728 63.027 92.4636 63.027C96.6543 63.027 100.048 66.4206 100.048 70.6114Z" fill="#AE9E65"/>
<path opacity="0.4545" d="M99.1502 70.6114C99.1502 74.303 96.159 77.298 92.4674 77.298C88.7758 77.298 85.7808 74.3068 85.7808 70.6114C85.7808 66.9198 88.772 63.9286 92.4674 63.9286C96.1552 63.9247 99.1502 66.9198 99.1502 70.6114Z" fill="#B9A65F"/>
<path opacity="0.5455" d="M98.2525 70.6113C98.2525 73.8076 95.6598 76.3964 92.4674 76.3964C89.2711 76.3964 86.6824 73.8038 86.6824 70.6113C86.6824 67.4151 89.275 64.8263 92.4674 64.8263C95.6598 64.8224 98.2525 67.4151 98.2525 70.6113Z" fill="#C5AD58"/>
<path opacity="0.6364" d="M97.3547 70.6113C97.3547 73.3123 95.1645 75.4986 92.4674 75.4986C89.7664 75.4986 87.5801 73.3084 87.5801 70.6113C87.5801 67.9103 89.7703 65.724 92.4674 65.724C95.1645 65.7201 97.3547 67.9103 97.3547 70.6113Z" fill="#D0B552"/>
<path opacity="0.7273" d="M96.4569 70.6115C96.4569 72.8172 94.6691 74.6011 92.4673 74.6011C90.2617 74.6011 88.4778 72.8133 88.4778 70.6115C88.4778 68.4058 90.2655 66.622 92.4673 66.622C94.6691 66.6181 96.4569 68.4058 96.4569 70.6115Z" fill="#DCBD4B"/>
<path opacity="0.8182" d="M95.5591 70.6115C95.5591 72.318 94.1738 73.7033 92.4673 73.7033C90.7608 73.7033 89.3755 72.318 89.3755 70.6115C89.3755 68.905 90.7608 67.5197 92.4673 67.5197C94.1738 67.5197 95.5591 68.9011 95.5591 70.6115Z" fill="#E8C545"/>
<path opacity="0.9091" d="M94.6577 70.6114C94.6577 71.8226 93.6748 72.8055 92.4636 72.8055C91.2524 72.8055 90.2695 71.8226 90.2695 70.6114C90.2695 69.4002 91.2524 68.4174 92.4636 68.4174C93.6786 68.4174 94.6577 69.4002 94.6577 70.6114Z" fill="#F3CC3E"/>
<path d="M93.7599 70.6114C93.7599 71.3273 93.1794 71.9077 92.4636 71.9077C91.7477 71.9077 91.1672 71.3273 91.1672 70.6114C91.1672 69.8955 91.7477 69.3151 92.4636 69.3151C93.1794 69.3151 93.7599 69.8955 93.7599 70.6114Z" fill="#FFD438"/>
<path opacity="0.4" d="M115.139 45.4591L116.42 44.72V43.2379L115.139 43.9809V45.4591Z" fill="#EFF6FE"/>
<path d="M27.4041 96.294L28.6849 95.5549V94.0729L27.4041 94.812V96.294Z" fill="#EFF6FE"/>
<path d="M31.1963 119.063L32.4771 118.323V116.841L31.1963 117.584V119.063Z" fill="#EFF6FE"/>
<path d="M40.3557 127.247L41.6365 126.508V125.03L40.3557 125.769V127.247Z" fill="#EFF6FE"/>
<path d="M123.923 91.3176L125.204 90.5785V89.1003L123.923 89.8394V91.3176Z" fill="#EFF6FE"/>
<path opacity="0.5" d="M113.146 57.4394L114.427 56.6964V55.2183L113.146 55.9573V57.4394Z" fill="#EFF6FE"/>
<path opacity="0.5" d="M71.1421 119.094L72.4268 118.355V116.876L71.1421 117.615V119.094Z" fill="#EFF6FE"/>
<path opacity="0.2" d="M78.9819 38.2036L80.2628 37.4645V35.9824L78.9819 36.7215V38.2036Z" fill="#EFF6FE"/>
<path opacity="0.1667" d="M44.8638 88.6515C44.8638 88.9688 44.6046 89.2281 44.2873 89.2281C43.97 89.2281 43.7107 88.9688 43.7107 88.6515C43.7107 88.3342 43.97 88.075 44.2873 88.075C44.6046 88.075 44.8638 88.3303 44.8638 88.6515Z" fill="#929394"/>
<path opacity="0.3333" d="M44.8715 95.9302C44.8715 96.2552 44.6084 96.5145 44.2872 96.5145C43.9621 96.5145 43.7029 96.2514 43.7029 95.9302C43.7029 95.6051 43.966 95.3459 44.2872 95.3459C44.6122 95.342 44.8715 95.6051 44.8715 95.9302Z" fill="#A4A7A9"/>
<path opacity="0.5" d="M44.883 103.205C44.883 103.534 44.616 103.801 44.2871 103.801C43.9582 103.801 43.6912 103.534 43.6912 103.205C43.6912 102.876 43.9582 102.609 44.2871 102.609C44.616 102.613 44.883 102.88 44.883 103.205Z" fill="#B7BBBF"/>
<path opacity="0.6667" d="M44.8909 110.484C44.8909 110.816 44.62 111.087 44.2872 111.087C43.9545 111.087 43.6836 110.816 43.6836 110.484C43.6836 110.151 43.9545 109.88 44.2872 109.88C44.62 109.884 44.8909 110.151 44.8909 110.484Z" fill="#CACED4"/>
<path opacity="0.8333" d="M44.8986 117.763C44.8986 118.099 44.6238 118.374 44.2872 118.374C43.9505 118.374 43.6758 118.099 43.6758 117.763C43.6758 117.426 43.9505 117.151 44.2872 117.151C44.6238 117.151 44.8986 117.426 44.8986 117.763Z" fill="#DCE2E9"/>
<path d="M44.9062 125.041C44.9062 125.386 44.6276 125.66 44.2871 125.66C43.9427 125.66 43.668 125.382 43.668 125.041C43.668 124.697 43.9466 124.422 44.2871 124.422C44.6276 124.422 44.9062 124.701 44.9062 125.041Z" fill="#EFF6FE"/>
<path opacity="0.1667" d="M119.125 38.8537C119.125 39.171 118.866 39.4302 118.549 39.4302C118.231 39.4302 117.972 39.171 117.972 38.8537C117.972 38.5364 118.231 38.2771 118.549 38.2771C118.866 38.2771 119.125 38.5325 119.125 38.8537Z" fill="#929394"/>
<path opacity="0.3333" d="M119.137 46.1323C119.137 46.4574 118.874 46.7166 118.553 46.7166C118.228 46.7166 117.968 46.4535 117.968 46.1323C117.968 45.8073 118.231 45.548 118.553 45.548C118.874 45.5441 119.137 45.8073 119.137 46.1323Z" fill="#A4A7A9"/>
<path opacity="0.5" d="M119.144 53.4111C119.144 53.74 118.877 54.007 118.549 54.007C118.22 54.007 117.953 53.74 117.953 53.4111C117.953 53.0822 118.22 52.8152 118.549 52.8152C118.877 52.8152 119.144 53.0822 119.144 53.4111Z" fill="#B7BBBF"/>
<path opacity="0.6667" d="M119.152 60.6897C119.152 61.0225 118.882 61.2934 118.549 61.2934C118.216 61.2934 117.945 61.0225 117.945 60.6897C117.945 60.3569 118.216 60.0861 118.549 60.0861C118.882 60.0861 119.152 60.3569 119.152 60.6897Z" fill="#CACED4"/>
<path opacity="0.8333" d="M119.16 67.9685C119.16 68.3051 118.885 68.5799 118.549 68.5799C118.212 68.5799 117.937 68.3051 117.937 67.9685C117.937 67.6318 118.212 67.3571 118.549 67.3571C118.885 67.3532 119.16 67.628 119.16 67.9685Z" fill="#DCE2E9"/>
<path d="M119.172 75.2434C119.172 75.5878 118.893 75.8625 118.552 75.8625C118.208 75.8625 117.933 75.5839 117.933 75.2434C117.933 74.899 118.212 74.6243 118.552 74.6243C118.893 74.6243 119.172 74.9029 119.172 75.2434Z" fill="#EFF6FE"/>
<path opacity="0.1667" d="M20.6673 28.7771C20.6673 29.0944 20.408 29.3537 20.0907 29.3537C19.7734 29.3537 19.5142 29.0944 19.5142 28.7771C19.5142 28.4598 19.7734 28.2006 20.0907 28.2006C20.408 28.2006 20.6673 28.456 20.6673 28.7771Z" fill="#929394"/>
<path opacity="0.3333" d="M20.6747 36.056C20.6747 36.3811 20.4116 36.6403 20.0904 36.6403C19.7654 36.6403 19.5061 36.3772 19.5061 36.056C19.5061 35.731 19.7692 35.4717 20.0904 35.4717C20.4116 35.4679 20.6747 35.731 20.6747 36.056Z" fill="#A4A7A9"/>
<path opacity="0.5" d="M20.6826 43.3346C20.6826 43.6635 20.4156 43.9305 20.0866 43.9305C19.7577 43.9305 19.4907 43.6635 19.4907 43.3346C19.4907 43.0056 19.7577 42.7386 20.0866 42.7386C20.4156 42.7386 20.6826 43.0056 20.6826 43.3346Z" fill="#B7BBBF"/>
<path opacity="0.6667" d="M20.6941 50.6133C20.6941 50.9461 20.4233 51.217 20.0905 51.217C19.7577 51.217 19.4868 50.9461 19.4868 50.6133C19.4868 50.2805 19.7577 50.0096 20.0905 50.0096C20.4233 50.0096 20.6941 50.2805 20.6941 50.6133Z" fill="#CACED4"/>
<path opacity="0.8333" d="M20.7018 57.8919C20.7018 58.2286 20.4271 58.5033 20.0904 58.5033C19.7537 58.5033 19.479 58.2286 19.479 57.8919C19.479 57.5553 19.7537 57.2806 20.0904 57.2806C20.4271 57.2767 20.7018 57.5514 20.7018 57.8919Z" fill="#DCE2E9"/>
<path d="M20.7097 65.1669C20.7097 65.5113 20.4311 65.786 20.0906 65.786C19.7462 65.786 19.4714 65.5074 19.4714 65.1669C19.4714 64.8225 19.75 64.5477 20.0906 64.5477C20.4311 64.5477 20.7097 64.8263 20.7097 65.1669Z" fill="#EFF6FE"/>
</g>
<defs>
<filter id="filter0_d_189_12210" x="-6" y="-2" width="162" height="162" filterUnits="userSpaceOnUse" color-interpolation-filters="sRGB">
<feFlood flood-opacity="0" result="BackgroundImageFix"/>
<feColorMatrix in="SourceAlpha" type="matrix" values="0 0 0 0 0 0 0 0 0 0 0 0 0 0 0 0 0 0 127 0" result="hardAlpha"/>
<feOffset dx="-4" dy="4"/>
<feGaussianBlur stdDeviation="3"/>
<feComposite in2="hardAlpha" operator="out"/>
<feColorMatrix type="matrix" values="0 0 0 0 0 0 0 0 0 0 0 0 0 0 0 0 0 0 0.25 0"/>
<feBlend mode="normal" in2="BackgroundImageFix" result="effect1_dropShadow_189_12210"/>
<feBlend mode="normal" in="SourceGraphic" in2="effect1_dropShadow_189_12210" result="shape"/>
</filter>
</defs>
</svg>
