<svg width="41" height="41" viewBox="0 0 41 41" fill="none" xmlns="http://www.w3.org/2000/svg">
<path d="M27.5804 20.2374C27.5804 20.4241 27.5287 20.8857 26.9753 21.1691C26.8937 21.2141 18.7637 25.7141 16.4887 26.6974C16.2437 26.8041 15.9754 26.8091 15.7304 26.7191C15.4887 26.6241 15.2987 26.4441 15.1954 26.2074C15.082 25.9507 15.0854 25.6624 15.1354 25.5424C15.427 25.0474 17.172 21.6541 17.5187 20.9807C17.7637 20.5024 17.7637 19.9374 17.5187 19.4591C17.5187 19.4591 15.2354 14.9974 15.147 14.8324C15.072 14.6524 15.102 14.2441 15.3937 13.9541C15.5954 13.7574 15.8487 13.6541 16.102 13.6541C16.217 13.6541 16.3337 13.6757 16.442 13.7207C17.2287 14.1374 26.987 19.3207 27.0204 19.3391C27.5237 19.5907 27.5804 20.0541 27.5804 20.2407V20.2374ZM40.1104 20.2174C40.1104 31.2457 31.1387 40.2174 20.1104 40.2174C9.08202 40.2174 0.110352 31.2457 0.110352 20.2174C0.110352 9.18907 9.08202 0.217407 20.1104 0.217407C31.1387 0.217407 40.1104 9.18907 40.1104 20.2174ZM30.9137 20.2257C30.9087 18.5774 29.9887 17.0941 28.5487 16.3724C20.0454 11.8557 18.2887 10.9224 17.857 10.7074L17.8603 10.7007C16.2437 9.96074 14.362 10.2991 13.0554 11.5757C11.8404 12.7841 11.4437 14.6041 12.1187 16.2207C12.2237 16.4291 13.5004 18.9241 14.1604 20.2141C13.3604 21.7674 12.4037 23.6074 12.1954 23.9724C11.6554 25.1007 11.637 26.4057 12.1437 27.5507C12.6087 28.6041 13.457 29.4107 14.5304 29.8257C15.0354 30.0191 15.5604 30.1157 16.0854 30.1157C16.677 30.1157 17.2687 29.9924 17.822 29.7474C20.2337 28.7041 28.2487 24.2707 28.537 24.1091C30.0087 23.3607 30.9187 21.8724 30.9137 20.2224V20.2257Z" fill="url(#paint0_linear_297_52)"/>
<defs>
<linearGradient id="paint0_linear_297_52" x1="20.1104" y1="0.217407" x2="20.1104" y2="40.2174" gradientUnits="userSpaceOnUse">
<stop stop-color="#1D86C4"/>
<stop offset="1" stop-color="#87BC48"/>
</linearGradient>
</defs>
</svg>
