<svg width="23" height="23" viewBox="0 0 23 23" fill="none" xmlns="http://www.w3.org/2000/svg">
<path d="M18.2258 12.9602C18.2178 16.849 15.0476 20.0242 11.1767 20.0202C7.26005 20.0162 4.07587 16.824 4.09481 12.9203C4.11275 9.03352 7.29095 5.87525 11.1688 5.88921C15.0785 5.90316 18.2338 9.06441 18.2258 12.9592V12.9602ZM6.25148 14.1342C6.23952 14.1113 6.22756 14.0893 6.2166 14.0664C6.42489 13.904 6.63318 13.7415 6.84148 13.5791C7.13448 13.3518 7.40356 13.1067 7.53811 12.7459C7.79025 12.0642 7.5122 11.3536 6.88533 11.0865C6.32623 10.8484 5.63757 11.1334 5.34456 11.7234C5.22896 11.9566 5.2758 12.1699 5.46615 12.2855C5.65949 12.4021 5.86978 12.3413 6.01628 12.126C6.05515 12.0692 6.09103 12.0094 6.13488 11.9576C6.25148 11.8191 6.394 11.7323 6.57737 11.8111C6.75577 11.8878 6.83849 12.0323 6.84048 12.2297C6.84347 12.4938 6.70494 12.6781 6.51459 12.8326C6.27141 13.0309 6.01528 13.2133 5.77909 13.4196C5.47313 13.6867 5.29274 14.0266 5.2748 14.4391C5.26085 14.7481 5.41433 14.9135 5.72627 14.9165C6.20863 14.9215 6.69099 14.9215 7.17335 14.9165C7.44841 14.9135 7.61784 14.7621 7.62182 14.5298C7.62581 14.2847 7.45938 14.1372 7.16537 14.1342C6.86041 14.1312 6.55545 14.1342 6.25048 14.1342H6.25148ZM9.57518 14.1332C9.63498 14.7601 9.7187 14.9345 9.97981 14.9105C10.4701 14.8667 10.3545 14.4611 10.3884 14.1451C10.7033 14.1063 11.1458 14.2269 11.1468 13.7365C11.1468 13.2382 10.6954 13.3827 10.3924 13.3349C10.3446 13.024 10.4851 12.5775 9.9828 12.5775C9.47652 12.5775 9.63099 13.0289 9.57917 13.3319H9.19448C9.19448 13.2332 9.19448 13.1505 9.19448 13.0678C9.19448 12.5316 9.19647 11.9955 9.19448 11.4603C9.19249 11.1663 9.04598 10.9949 8.8058 10.9949C8.56562 10.9949 8.41313 11.1683 8.41114 11.4603C8.40815 12.1958 8.40715 12.9303 8.41114 13.6658C8.41313 13.9827 8.56163 14.1272 8.87855 14.1332C9.10678 14.1382 9.335 14.1332 9.57518 14.1332ZM15.5449 11.7762C15.5 11.8569 15.4801 11.8968 15.4562 11.9337C14.9698 12.712 14.4805 13.4894 13.9962 14.2697C13.8526 14.5009 13.8955 14.7302 14.0928 14.8527C14.2922 14.9773 14.5084 14.9165 14.6589 14.6863C14.7925 14.481 14.92 14.2717 15.0496 14.0644C15.5519 13.2602 16.0572 12.4559 16.5565 11.6496C16.7488 11.3387 16.6232 11.0098 16.2874 10.9998C15.6147 10.9799 14.94 10.9849 14.2662 11.0018C14.0001 11.0088 13.8417 11.2759 13.9334 11.5151C14.0091 11.7144 14.1736 11.7782 14.3749 11.7772C14.7496 11.7762 15.1243 11.7772 15.5449 11.7772V11.7762ZM11.5604 14.8498C11.5555 15.0959 11.677 15.2584 11.8634 15.2942C12.0767 15.3351 12.265 15.2315 12.3179 15.0082C12.4115 14.6136 12.4853 14.2149 12.565 13.8173C12.7464 12.9093 12.9288 12.0014 13.1042 11.0915C13.15 10.8533 13.0245 10.671 12.8092 10.6201C12.6029 10.5713 12.4135 10.6969 12.3468 10.9281C12.3358 10.965 12.3258 11.0018 12.3189 11.0397C12.1654 11.8051 12.0119 12.5705 11.8594 13.3359C11.7568 13.8541 11.6551 14.3724 11.5614 14.8498H11.5604Z" fill="url(#paint0_linear_297_37)"/>
<path d="M2.52116 10.1895H1.73184C1.7159 6.89367 2.94073 4.19684 5.59272 2.22853C8.69518 -0.0746434 12.8849 -0.243071 16.09 1.795C19.1427 3.73541 20.5778 6.57476 20.5967 10.1875H19.8074C19.8293 7.18767 18.7141 4.71508 16.3063 2.88729C14.6858 1.65747 12.8291 1.09837 10.8 1.19006C8.4251 1.2967 6.40895 2.23351 4.79842 3.98356C3.19387 5.72764 2.47731 7.81953 2.52116 10.1895Z" fill="url(#paint1_linear_297_37)"/>
<path d="M3.3075 13.7563C3.3075 14.4997 3.30849 15.2432 3.3075 15.9867C3.3075 16.3534 3.17395 16.484 2.80919 16.486C2.34178 16.488 1.87437 16.489 1.40696 16.486C0.678434 16.481 0.175144 15.9837 0.172154 15.2602C0.168168 14.2486 0.169165 13.237 0.172154 12.2255C0.174148 11.5039 0.652522 11.0106 1.37507 10.9927C1.8654 10.9807 2.35573 10.9857 2.84607 10.9917C3.17196 10.9956 3.3055 11.1322 3.3065 11.4581C3.30949 12.2245 3.3065 12.9909 3.3075 13.7573V13.7563Z" fill="url(#paint2_linear_297_37)"/>
<path d="M19.0131 13.7263C19.0131 12.9908 19.0131 12.2543 19.0131 11.5188C19.0131 11.1072 19.1317 10.9906 19.5503 10.9886C19.9868 10.9876 20.4243 10.9856 20.8608 10.9886C21.6701 10.9936 22.1485 11.472 22.1495 12.2773C22.1505 13.2579 22.1515 14.2396 22.1495 15.2203C22.1475 15.9916 21.6551 16.483 20.8838 16.485C20.4243 16.487 19.9639 16.487 19.5045 16.485C19.1516 16.484 19.0151 16.3514 19.0141 16.0016C19.0121 15.2432 19.0141 14.4838 19.0141 13.7253L19.0131 13.7263Z" fill="url(#paint3_linear_297_37)"/>
<path d="M19.7765 17.2793H20.5758C20.512 17.6082 20.4722 17.9251 20.3894 18.2291C19.8024 20.3818 17.872 21.9026 15.6426 21.9684C14.9918 21.9873 14.341 21.9743 13.6902 21.9753C13.6384 21.9753 13.5876 21.9644 13.5248 21.9574V21.19C13.6215 21.19 13.7102 21.192 13.7998 21.19C14.5722 21.1741 15.3536 21.2269 16.116 21.1282C18.0354 20.8811 19.5204 19.3293 19.7606 17.4108C19.7656 17.374 19.7706 17.3361 19.7785 17.2793H19.7765Z" fill="url(#paint4_linear_297_37)"/>
<path d="M11.3432 20.8054C11.6571 20.8054 11.9701 20.8024 12.284 20.8054C12.58 20.8094 12.7215 20.9479 12.7265 21.2389C12.7305 21.4761 12.7315 21.7133 12.7265 21.9505C12.7205 22.2126 12.574 22.3681 12.3129 22.3701C11.6631 22.3761 11.0123 22.3801 10.3625 22.3691C9.91405 22.3621 9.58616 22.0053 9.59414 21.5658C9.60211 21.1373 9.93199 20.8144 10.3795 20.8064C10.7004 20.8004 11.0223 20.8054 11.3432 20.8054Z" fill="url(#paint5_linear_297_37)"/>
<defs>
<linearGradient id="paint0_linear_297_37" x1="11.1603" y1="5.88916" x2="11.1603" y2="20.0202" gradientUnits="userSpaceOnUse">
<stop stop-color="#1D86C4"/>
<stop offset="1" stop-color="#87BC48"/>
</linearGradient>
<linearGradient id="paint1_linear_297_37" x1="11.1642" y1="0.375977" x2="11.1642" y2="10.1895" gradientUnits="userSpaceOnUse">
<stop stop-color="#1D86C4"/>
<stop offset="1" stop-color="#87BC48"/>
</linearGradient>
<linearGradient id="paint2_linear_297_37" x1="1.73873" y1="10.9854" x2="1.73873" y2="16.4879" gradientUnits="userSpaceOnUse">
<stop stop-color="#1D86C4"/>
<stop offset="1" stop-color="#87BC48"/>
</linearGradient>
<linearGradient id="paint3_linear_297_37" x1="20.5819" y1="10.9871" x2="20.5819" y2="16.4865" gradientUnits="userSpaceOnUse">
<stop stop-color="#1D86C4"/>
<stop offset="1" stop-color="#87BC48"/>
</linearGradient>
<linearGradient id="paint4_linear_297_37" x1="17.0503" y1="17.2793" x2="17.0503" y2="21.9787" gradientUnits="userSpaceOnUse">
<stop stop-color="#1D86C4"/>
<stop offset="1" stop-color="#87BC48"/>
</linearGradient>
<linearGradient id="paint5_linear_297_37" x1="11.1619" y1="20.8035" x2="11.1619" y2="22.376" gradientUnits="userSpaceOnUse">
<stop stop-color="#1D86C4"/>
<stop offset="1" stop-color="#87BC48"/>
</linearGradient>
</defs>
</svg>
