<svg width="21" height="23" viewBox="0 0 21 23" fill="none" xmlns="http://www.w3.org/2000/svg">
<path d="M0.847595 4.34764C4.51228 3.89467 7.93978 2.91339 10.7664 0.381592C13.5773 2.85479 16.9555 3.95978 20.6248 4.33183C20.7699 4.91036 20.4118 9.59911 20.1625 10.3023C19.89 9.60284 19.6249 8.92384 19.3598 8.24485C19.1617 7.73608 18.9655 7.22637 18.7646 6.71852C18.5757 6.2423 18.2037 6.08139 17.7238 6.26648C17.135 6.49343 16.5481 6.72224 15.9602 6.95198C15.2878 7.21521 15.1687 7.45146 15.3733 8.17323C15.1901 8.19742 15.0087 8.25416 14.8339 8.23834C14.0609 8.16579 13.2899 8.07836 12.5188 7.98442C12.0909 7.93233 11.6668 7.8542 11.2399 7.79188C10.7767 7.72492 10.3702 7.85234 10.0233 8.16393C9.74794 8.41135 9.48007 8.6662 9.20289 8.91082C9.14522 8.96198 9.05779 9.01407 8.9871 9.01035C8.09604 8.95733 7.22545 8.8206 6.44601 8.34159C6.41996 8.32577 6.39485 8.30996 6.37253 8.29601C6.36881 8.27369 6.35857 8.25509 6.36416 8.24485C6.62924 7.75375 6.44136 7.27567 5.86468 7.05337C5.26196 6.82177 4.6797 6.53808 4.08814 6.2795C3.62215 6.07581 3.23522 6.22463 3.02873 6.69155C2.50879 7.86629 1.99258 9.04197 1.47357 10.2176C1.4438 10.2855 1.41032 10.3525 1.35637 10.4167C0.994554 8.40669 0.861546 6.38182 0.846664 4.34764H0.847595Z" fill="url(#paint0_linear_297_49)"/>
<path d="M2.56926 14.8123C3.24546 14.9891 3.36172 14.9137 3.8612 13.9566C4.02211 14.0431 4.22023 14.0961 4.33835 14.2226C4.56996 14.4719 4.80714 14.7119 4.67227 15.1444C4.53182 15.5946 4.87224 16.1219 5.35033 16.3322C5.47869 16.3889 5.52798 16.4494 5.53914 16.5954C5.57542 17.0697 5.9763 17.4743 6.44973 17.5302C6.57623 17.545 6.64692 17.572 6.69436 17.7106C6.87759 18.2529 7.40776 18.5375 7.98072 18.4333C8.04025 18.4221 8.13326 18.4445 8.17232 18.4873C8.67645 19.0304 9.13779 19.1169 9.81306 18.7747C9.92746 18.8677 10.0512 18.9588 10.1637 19.063C10.7692 19.6276 11.3989 19.409 11.8342 19.0063C11.891 18.9542 11.9542 18.9021 11.9895 18.836C12.1002 18.6286 12.2565 18.5598 12.4983 18.5458C12.9094 18.5217 13.1773 18.2519 13.3522 17.8901C13.3782 17.8352 13.4015 17.7794 13.4247 17.7264C14.3018 17.8194 14.5865 17.6715 14.9473 16.9358C15.4877 17.0874 15.9137 16.9033 16.2188 16.4456C16.5016 16.0206 16.4886 15.5927 16.1444 15.1639C16.6457 14.8895 16.9304 14.4356 17.2085 13.9715C17.2754 13.859 17.3982 13.7799 17.5219 13.6599C17.6252 13.9231 17.7098 14.1426 17.7972 14.3622C17.9935 14.8579 18.3144 15.0095 18.8241 14.8505C18.852 14.8421 18.879 14.8347 18.9627 14.8105C18.772 15.2169 18.6111 15.5862 18.4288 15.9452C16.8085 19.1309 14.2451 21.2125 10.8901 22.3621C10.8102 22.3891 10.705 22.3873 10.6251 22.3603C6.84039 21.0683 4.14024 18.6082 2.59902 14.9016C2.59065 14.8802 2.58414 14.8588 2.57019 14.8151L2.56926 14.8123Z" fill="url(#paint1_linear_297_49)"/>
<path d="M4.09001 13.4015C4.76249 11.8743 5.42195 10.3768 6.09071 8.85693C6.83294 9.29409 7.61425 9.52755 8.50158 9.58801C8.36672 9.73032 8.26812 9.8531 8.15093 9.95448C7.73516 10.3135 7.5603 10.7553 7.60681 11.3078C7.64959 11.8212 7.64122 12.3393 7.66168 12.8555C7.66633 12.9783 7.68401 13.102 7.71377 13.2211C7.85329 13.7866 8.36579 14.0191 9.00106 13.8015C9.46798 13.6424 9.78795 13.3066 9.96188 12.862C10.0949 12.5216 10.1674 12.1552 10.2437 11.7961C10.3283 11.3962 10.4102 11.358 10.7255 11.611C12.3411 12.9095 13.9568 14.207 15.5715 15.5055C15.8282 15.7119 15.857 15.9249 15.6663 16.1603C15.485 16.3844 15.2487 16.416 15.0227 16.2356C14.4758 15.7975 13.9316 15.3548 13.3866 14.9139C13.3503 14.8851 13.315 14.8553 13.2787 14.8265C13.0759 14.6702 12.8936 14.6711 12.7727 14.8283C12.6537 14.9837 12.6871 15.1455 12.8825 15.3045C13.3001 15.6459 13.7131 15.9928 14.1419 16.3193C14.4572 16.5593 14.3381 16.9295 14.0833 17.0876C13.8907 17.2076 13.7196 17.1592 13.5531 17.0253C13.1094 16.6672 12.663 16.3137 12.2174 15.9575C12.1877 15.9333 12.1598 15.9063 12.1281 15.884C11.9635 15.7687 11.7765 15.7798 11.6742 15.9194C11.5515 16.0849 11.5849 16.2412 11.7375 16.3667C12.0342 16.6114 12.3383 16.8486 12.636 17.0932C12.8406 17.2606 12.8815 17.4457 12.7718 17.6652C12.6388 17.9321 12.3616 18.014 12.116 17.8429C11.851 17.6578 11.5998 17.4531 11.3394 17.2615C11.1469 17.1201 10.9673 17.135 10.8539 17.2941C10.7478 17.442 10.785 17.6159 10.9618 17.7545C11.1794 17.9247 11.4026 18.0893 11.6221 18.2558C11.2529 18.9153 10.8241 18.9227 10.2335 18.2875C10.5376 17.6038 10.453 17.0755 9.92746 16.7397C9.69586 16.5918 9.59355 16.4402 9.54332 16.1714C9.45403 15.6943 9.10244 15.4338 8.64854 15.3064C8.52019 14.6451 8.24301 14.2796 7.71377 14.2414C7.40218 14.2191 7.20964 14.1093 6.98734 13.9103C6.55484 13.5224 5.81818 13.5922 5.40613 14.007C5.33079 14.0833 5.2629 14.1679 5.16337 14.2814C4.91224 13.8619 4.60623 13.5159 4.08815 13.4024L4.09001 13.4015Z" fill="url(#paint2_linear_297_49)"/>
<path d="M15.6431 8.81783C16.1825 10.2065 16.7425 11.6454 17.3108 13.1094C16.8978 13.2424 16.7276 13.5819 16.5118 13.8926C16.3267 14.1586 16.0765 14.3809 15.844 14.6125C15.7128 14.7436 15.5873 14.7288 15.4301 14.6013C14.0135 13.4498 12.5895 12.3077 11.1627 11.1692C11.0092 11.0464 10.8343 10.932 10.6511 10.8697C10.2391 10.7292 9.84561 10.9367 9.72191 11.3533C9.64564 11.6101 9.63634 11.8882 9.54983 12.1402C9.45496 12.4193 9.32289 12.6899 9.17407 12.9448C9.10989 13.0536 8.97223 13.1364 8.84945 13.1903C8.4774 13.3522 8.30812 13.2499 8.29045 12.8518C8.26348 12.2667 8.2551 11.6817 8.23278 11.0966C8.22441 10.8753 8.29138 10.6958 8.45415 10.5395C9.05873 9.95723 9.6661 9.37684 10.2558 8.77877C10.5944 8.43462 10.9794 8.36207 11.4371 8.43741C12.3476 8.58716 13.2601 8.7397 14.1772 8.84016C14.6432 8.89131 15.1222 8.82992 15.644 8.81876L15.6431 8.81783Z" fill="url(#paint3_linear_297_49)"/>
<path d="M20.6927 13.4043C20.649 13.4369 20.6034 13.4871 20.5467 13.5094C19.903 13.7633 19.2557 14.008 18.6139 14.2656C18.4251 14.341 18.4065 14.207 18.3627 14.0954C17.8465 12.7709 17.3312 11.4455 16.815 10.1201C16.5276 9.38247 16.2495 8.64116 15.9491 7.90822C15.8644 7.70174 15.9174 7.62826 16.11 7.55757C16.7081 7.3362 17.3024 7.10181 17.894 6.86369C18.053 6.79952 18.1377 6.80975 18.2065 6.9874C19.0129 9.07367 19.8258 11.1571 20.6369 13.2415C20.6536 13.2843 20.6667 13.329 20.6918 13.4043H20.6927ZM19.0296 13.1281C19.2064 13.1318 19.3701 12.9569 19.3701 12.7644C19.3701 12.5933 19.238 12.4547 19.0706 12.4519C18.8994 12.4491 18.7255 12.6323 18.7246 12.8146C18.7246 12.9783 18.8659 13.1244 19.0296 13.1271V13.1281Z" fill="url(#paint4_linear_297_49)"/>
<path d="M3.71144 6.79956C3.78864 6.83025 3.83143 6.84607 3.87422 6.86467C4.47973 7.13161 5.08338 7.40321 5.69168 7.66271C5.85259 7.73061 5.87491 7.80595 5.80608 7.96035C4.90386 10.001 4.00536 12.0436 3.11151 14.088C3.03896 14.2545 2.9599 14.2843 2.79527 14.2099C2.19999 13.9392 1.60099 13.6769 0.999204 13.4202C0.849455 13.356 0.800158 13.2918 0.872708 13.1272C1.77958 11.08 2.67901 9.03 3.58402 6.98186C3.61471 6.91304 3.67145 6.85537 3.71144 6.80049V6.79956ZM2.28463 12.4528C2.10791 12.4566 1.94979 12.6361 1.95537 12.8277C1.96002 12.997 2.10233 13.1337 2.26696 13.129C2.43438 13.1244 2.60925 12.9291 2.60181 12.7542C2.5953 12.5914 2.44648 12.4501 2.28463 12.4528Z" fill="url(#paint5_linear_297_49)"/>
<path d="M8.0421 15.2086C7.96862 15.3509 7.93606 15.4467 7.87654 15.522C7.56215 15.922 7.24405 16.3182 6.92223 16.7117C6.72411 16.9544 6.53344 16.9879 6.32695 16.827C6.12232 16.667 6.11209 16.4457 6.30556 16.2038C6.62738 15.8001 6.95106 15.3983 7.27661 14.9974C7.39752 14.8486 7.56401 14.7854 7.72678 14.8821C7.85142 14.9556 7.93606 15.096 8.04117 15.2095L8.0421 15.2086Z" fill="url(#paint6_linear_297_49)"/>
<path d="M8.96013 16.4494C8.93967 16.4959 8.92107 16.5824 8.87177 16.6457C8.60203 16.9908 8.33137 17.3358 8.04861 17.6697C7.86166 17.8911 7.57797 17.8865 7.38264 17.68C7.23847 17.5274 7.22545 17.3405 7.36776 17.1582C7.6654 16.7768 7.9742 16.4029 8.27463 16.0225C8.37694 15.8932 8.496 15.9025 8.62529 15.9583C8.8234 16.0439 8.95083 16.1843 8.96199 16.4494H8.96013Z" fill="url(#paint7_linear_297_49)"/>
<path d="M6.22835 14.2451C6.3874 14.3056 6.51204 14.3288 6.60877 14.3949C6.74364 14.4879 6.78829 14.6153 6.66365 14.766C6.40973 15.0739 6.15766 15.3836 5.91397 15.6998C5.82654 15.8142 5.73725 15.8254 5.6154 15.7742C5.27405 15.6301 5.18103 15.2785 5.41078 14.9836C5.5382 14.8199 5.6554 14.6441 5.80515 14.5046C5.92606 14.3921 6.0907 14.327 6.22835 14.2451Z" fill="url(#paint8_linear_297_49)"/>
<path d="M9.81584 17.5991C9.7498 17.9423 9.57401 18.1627 9.32752 18.3134C9.13592 18.4306 8.93966 18.3525 8.77503 18.2185C8.63272 18.1022 8.57877 17.9758 8.73224 17.813C8.8792 17.6576 9.00384 17.4809 9.13871 17.3144C9.30613 17.1079 9.43449 17.0912 9.62051 17.2837C9.71073 17.3768 9.76096 17.5088 9.81584 17.5991Z" fill="url(#paint9_linear_297_49)"/>
<defs>
<linearGradient id="paint0_linear_297_49" x1="10.7525" y1="0.381592" x2="10.7525" y2="10.4167" gradientUnits="userSpaceOnUse">
<stop stop-color="#1D86C4"/>
<stop offset="1" stop-color="#87BC48"/>
</linearGradient>
<linearGradient id="paint1_linear_297_49" x1="10.766" y1="13.6599" x2="10.766" y2="22.3815" gradientUnits="userSpaceOnUse">
<stop stop-color="#1D86C4"/>
<stop offset="1" stop-color="#87BC48"/>
</linearGradient>
<linearGradient id="paint2_linear_297_49" x1="9.93901" y1="8.85693" x2="9.93901" y2="18.7573" gradientUnits="userSpaceOnUse">
<stop stop-color="#1D86C4"/>
<stop offset="1" stop-color="#87BC48"/>
</linearGradient>
<linearGradient id="paint3_linear_297_49" x1="12.7714" y1="8.4104" x2="12.7714" y2="14.7041" gradientUnits="userSpaceOnUse">
<stop stop-color="#1D86C4"/>
<stop offset="1" stop-color="#87BC48"/>
</linearGradient>
<linearGradient id="paint4_linear_297_49" x1="18.3014" y1="6.82764" x2="18.3014" y2="14.2876" gradientUnits="userSpaceOnUse">
<stop stop-color="#1D86C4"/>
<stop offset="1" stop-color="#87BC48"/>
</linearGradient>
<linearGradient id="paint5_linear_297_49" x1="3.34127" y1="6.79956" x2="3.34127" y2="14.2483" gradientUnits="userSpaceOnUse">
<stop stop-color="#1D86C4"/>
<stop offset="1" stop-color="#87BC48"/>
</linearGradient>
<linearGradient id="paint6_linear_297_49" x1="7.10441" y1="14.8359" x2="7.10441" y2="16.9259" gradientUnits="userSpaceOnUse">
<stop stop-color="#1D86C4"/>
<stop offset="1" stop-color="#87BC48"/>
</linearGradient>
<linearGradient id="paint7_linear_297_49" x1="8.11475" y1="15.9194" x2="8.11475" y2="17.8353" gradientUnits="userSpaceOnUse">
<stop stop-color="#1D86C4"/>
<stop offset="1" stop-color="#87BC48"/>
</linearGradient>
<linearGradient id="paint8_linear_297_49" x1="6.01079" y1="14.2451" x2="6.01079" y2="15.8034" gradientUnits="userSpaceOnUse">
<stop stop-color="#1D86C4"/>
<stop offset="1" stop-color="#87BC48"/>
</linearGradient>
<linearGradient id="paint9_linear_297_49" x1="9.22783" y1="17.1489" x2="9.22783" y2="18.3707" gradientUnits="userSpaceOnUse">
<stop stop-color="#1D86C4"/>
<stop offset="1" stop-color="#87BC48"/>
</linearGradient>
</defs>
</svg>
