<svg width="472" height="394" viewBox="0 0 472 394" fill="none" xmlns="http://www.w3.org/2000/svg">
<g filter="url(#filter0_d_38_3906)">
<path fill-rule="evenodd" clip-rule="evenodd" d="M285.224 288.637C360.552 288.637 422 227.064 422 151.554C422 76.0728 360.552 14.5 285.224 14.5C209.891 14.5 148.443 76.0728 148.443 151.554C148.443 227.064 209.891 288.637 285.224 288.637Z" fill="#FF313A"/>
<path fill-rule="evenodd" clip-rule="evenodd" d="M285.224 262.756C346.337 262.756 396.2 212.82 396.2 151.554C396.2 90.3161 346.341 40.3521 285.224 40.3521C224.106 40.3521 174.247 90.312 174.247 151.554C174.243 212.82 224.106 262.756 285.224 262.756Z" fill="#FDFDFD"/>
<path fill-rule="evenodd" clip-rule="evenodd" d="M285.224 238.203C332.844 238.203 371.668 199.271 371.668 151.554C371.668 103.836 332.84 64.9297 285.224 64.9297C237.603 64.9297 198.775 103.836 198.775 151.554C198.775 199.271 237.603 238.203 285.224 238.203Z" fill="#FF313A"/>
<path fill-rule="evenodd" clip-rule="evenodd" d="M285.224 211.129C317.965 211.129 344.65 184.362 344.65 151.55C344.65 118.77 317.965 91.999 285.224 91.999C252.482 91.999 225.793 118.766 225.793 151.55C225.793 184.362 252.478 211.129 285.224 211.129Z" fill="#FDFDFD"/>
<path fill-rule="evenodd" clip-rule="evenodd" d="M146.674 170.037H343.048C347.059 170.037 350.32 173.334 350.32 177.324V311.748H139.402V177.324C139.402 173.334 142.663 170.037 146.674 170.037Z" fill="#34465C"/>
<path fill-rule="evenodd" clip-rule="evenodd" d="M106.741 336.354H244.875H383.009C383.755 336.354 383.616 335.746 382.679 335.027L353.007 312.193C352.065 311.47 350.683 310.89 349.937 310.89H244.875H139.817C139.043 310.89 137.661 311.474 136.719 312.193L107.071 335.027C106.134 335.746 105.967 336.354 106.741 336.354Z" fill="#34404F"/>
<path fill-rule="evenodd" clip-rule="evenodd" d="M107.817 334.663C199.186 334.663 290.556 334.663 381.9 334.663C383.975 334.663 384.195 336.383 382.345 338.462L378.639 342.702C376.784 344.781 373.605 346.472 371.505 346.472C287.074 346.472 202.647 346.472 118.22 346.472C116.146 346.472 112.937 344.781 111.111 342.702L107.377 338.462C105.551 336.383 105.747 334.663 107.817 334.663Z" fill="#34465C"/>
<path fill-rule="evenodd" clip-rule="evenodd" d="M223.331 323.61H234.973H254.773H266.39L272.86 330.73H248.275H241.443H216.858L223.331 323.61Z" fill="#6E7F8F"/>
<path d="M343.708 179.126H146.038V304.542H343.708V179.126Z" fill="#FFE8AE"/>
<path fill-rule="evenodd" clip-rule="evenodd" d="M221.146 142.993L327.781 98.1833C328.776 97.7667 329.938 98.2405 330.354 99.2658L350.65 147.759C351.066 148.756 350.597 149.92 349.599 150.337L242.967 195.142C241.973 195.559 240.811 195.085 240.367 194.088L220.099 145.594C219.654 144.569 220.152 143.405 221.146 142.993Z" fill="#6BC06F"/>
<path fill-rule="evenodd" clip-rule="evenodd" d="M226.678 145.068L325.376 103.612C326.232 103.252 327.227 103.669 327.59 104.527L344.956 146.036C345.314 146.893 344.927 147.894 344.071 148.254L245.372 189.738C244.516 190.097 243.518 189.681 243.159 188.823L225.765 147.286C225.406 146.428 225.822 145.431 226.678 145.068Z" fill="#A8DAAA"/>
<path fill-rule="evenodd" clip-rule="evenodd" d="M241.638 142.355L277.287 127.393L312.96 112.402C313.045 112.68 313.155 112.958 313.265 113.235C316.363 120.661 323.856 124.57 329.995 121.993C330.382 121.826 330.741 121.662 331.1 121.466L335.192 131.249C334.805 131.359 334.418 131.498 334.031 131.637C327.892 134.214 325.429 142.335 328.528 149.732C328.666 150.01 328.776 150.288 328.915 150.565L293.27 165.528L257.598 180.519C257.512 180.241 257.402 179.934 257.292 179.661C254.194 172.263 246.701 168.354 240.562 170.932C240.175 171.071 239.816 171.263 239.458 171.459L235.365 161.676C235.752 161.566 236.139 161.427 236.527 161.288C242.666 158.682 245.128 150.59 242.03 143.193C241.887 142.907 241.777 142.633 241.638 142.355Z" fill="#6BC06F"/>
<path fill-rule="evenodd" clip-rule="evenodd" d="M289.178 163.441L295.011 161.002L294.045 158.645C296.784 156.153 297.918 152.297 296.479 148.862C295.676 146.951 294.294 145.509 292.496 144.622C290.144 143.43 287.16 143.266 284.421 144.402C283.259 144.9 281.958 144.43 281.518 143.348C281.078 142.265 281.628 140.991 282.79 140.493C283.952 139.994 285.305 140.493 285.749 141.575L292.276 138.83C290.865 135.424 287.327 133.512 283.622 133.732L282.46 130.988L276.622 133.455L277.727 136.085C274.686 138.552 273.524 142.596 274.992 146.117C276.842 150.553 282.154 152.494 286.964 150.467C288.126 149.969 289.479 150.467 289.924 151.521C290.368 152.604 289.757 153.874 288.595 154.377C287.433 154.846 286.133 154.405 285.664 153.294L279.109 156.035C280.629 159.723 284.363 161.631 288.236 161.218L289.178 163.441Z" fill="#FDFDFD"/>
<path d="M376.536 256.408H290.364V367.5H376.536V256.408Z" fill="#44B9CA"/>
<path fill-rule="evenodd" clip-rule="evenodd" d="M377.09 256.408H333.452H289.838C288.097 256.408 286.687 254.995 286.687 253.275V248.619C286.687 246.899 288.097 245.486 289.838 245.486H321.308C321.251 245.045 321.227 244.628 321.227 244.158C321.227 237.398 326.701 231.937 333.448 231.937C340.194 231.937 345.673 237.394 345.673 244.158C345.673 244.628 345.644 245.045 345.591 245.486H377.09C378.802 245.486 380.217 246.899 380.217 248.619V253.275C380.217 254.995 378.802 256.408 377.09 256.408ZM333.452 239.453C330.855 239.453 328.752 241.56 328.752 244.162C328.752 246.768 330.855 248.901 333.452 248.901C336.053 248.901 338.152 246.768 338.152 244.162C338.152 241.556 336.049 239.453 333.452 239.453Z" fill="#F16858"/>
<path fill-rule="evenodd" clip-rule="evenodd" d="M377.09 256.409H333.452H289.838C288.098 256.409 286.687 254.995 286.687 253.276V253.247H380.213V253.276C380.217 254.995 378.802 256.409 377.09 256.409Z" fill="#C02729"/>
<path fill-rule="evenodd" clip-rule="evenodd" d="M361.575 265.497H305.329C300.987 265.497 297.42 269.071 297.42 273.45V350.459C297.42 354.837 300.987 358.412 305.329 358.412H361.579C365.921 358.412 369.516 354.837 369.516 350.459V273.45C369.512 269.075 365.917 265.497 361.575 265.497Z" fill="#CFFFFF"/>
<path d="M359.557 282.457H307.346V286.807H359.557V282.457Z" fill="#666666"/>
<path d="M359.557 299.249H307.346V303.628H359.557V299.249Z" fill="#666666"/>
<path d="M359.557 316.07H307.346V320.42H359.557V316.07Z" fill="#666666"/>
<path d="M359.557 332.89H307.346V337.241H359.557V332.89Z" fill="#666666"/>
<path fill-rule="evenodd" clip-rule="evenodd" d="M362.46 367.5L376.536 353.396L362.46 353.563V367.5Z" fill="#3796A4"/>
<path fill-rule="evenodd" clip-rule="evenodd" d="M105.135 32.4564L159.698 55.8699L161.414 93.3879L133.124 118.023L78.5894 94.6093L106.851 69.9744L105.135 32.4564Z" fill="#1B7D9A"/>
<path fill-rule="evenodd" clip-rule="evenodd" d="M106.713 65.5139L287.461 150.308L282.704 152.052L103.59 72.8296L106.713 65.5139Z" fill="#145C71"/>
<path fill-rule="evenodd" clip-rule="evenodd" d="M108.233 320.559V258.708C108.233 256.159 110.308 254.08 112.823 254.08H157.346C159.861 254.08 161.936 256.159 161.936 258.708V320.559C161.936 323.107 159.861 325.187 157.346 325.187H112.823C110.308 325.187 108.233 323.107 108.233 320.559Z" fill="#C02729"/>
<path fill-rule="evenodd" clip-rule="evenodd" d="M105.111 318.038V256.106C105.111 253.586 107.157 251.507 109.672 251.507H153.808C156.298 251.507 158.369 253.586 158.369 256.106V318.038C158.369 320.559 156.294 322.609 153.808 322.609H109.672C107.157 322.609 105.111 320.559 105.111 318.038Z" fill="#F16858"/>
<path fill-rule="evenodd" clip-rule="evenodd" d="M106.492 268.989C106.492 267.715 107.487 266.718 108.759 266.718C110.002 266.718 111.025 267.715 111.025 268.989C111.025 270.235 110.002 271.26 108.759 271.26C107.516 271.264 106.492 270.239 106.492 268.989ZM106.492 314.187C106.492 312.912 107.516 311.915 108.759 311.915C110.002 311.915 111.025 312.912 111.025 314.187C111.025 315.432 110.002 316.458 108.759 316.458C107.516 316.458 106.492 315.432 106.492 314.187ZM106.492 305.151C106.492 303.877 107.516 302.851 108.759 302.851C110.002 302.851 111.025 303.877 111.025 305.151C111.025 306.397 110.002 307.422 108.759 307.422C107.516 307.426 106.492 306.401 106.492 305.151ZM106.492 296.12C106.492 294.845 107.516 293.82 108.759 293.82C110.002 293.82 111.025 294.845 111.025 296.12C111.025 297.366 110.002 298.391 108.759 298.391C107.516 298.391 106.492 297.366 106.492 296.12ZM106.492 287.056C106.492 285.81 107.516 284.785 108.759 284.785C110.002 284.785 111.025 285.81 111.025 287.056C111.025 288.33 110.002 289.356 108.759 289.356C107.516 289.36 106.492 288.334 106.492 287.056ZM106.492 278.025C106.492 276.779 107.516 275.749 108.759 275.749C110.002 275.749 111.025 276.775 111.025 278.025C111.025 279.299 110.002 280.296 108.759 280.296C107.516 280.296 106.492 279.299 106.492 278.025ZM106.492 259.958C106.492 258.684 107.487 257.658 108.759 257.658C110.002 257.658 111.025 258.684 111.025 259.958C111.025 261.204 110.002 262.229 108.759 262.229C107.487 262.229 106.492 261.204 106.492 259.958Z" fill="#FEFEFE"/>
<path fill-rule="evenodd" clip-rule="evenodd" d="M101.071 314.101C101.071 313.186 101.817 312.41 102.758 312.41H107.516C108.429 312.41 109.203 313.186 109.203 314.101C109.203 315.044 108.429 315.82 107.516 315.82H102.758C101.817 315.82 101.071 315.044 101.071 314.101ZM101.071 259.872C101.071 258.929 101.817 258.181 102.758 258.181H107.516C108.429 258.181 109.203 258.929 109.203 259.872C109.203 260.816 108.429 261.592 107.516 261.592H102.758C101.817 261.592 101.071 260.816 101.071 259.872ZM101.071 268.908C101.071 267.964 101.817 267.217 102.758 267.217H107.516C108.429 267.217 109.203 267.964 109.203 268.908C109.203 269.851 108.429 270.623 107.516 270.623H102.758C101.817 270.623 101.071 269.851 101.071 268.908ZM101.071 277.967C101.071 277.024 101.817 276.248 102.758 276.248H107.516C108.429 276.248 109.203 277.024 109.203 277.967C109.203 278.882 108.429 279.659 107.516 279.659H102.758C101.817 279.659 101.071 278.882 101.071 277.967ZM101.071 287.003C101.071 286.059 101.817 285.287 102.758 285.287H107.516C108.429 285.287 109.203 286.063 109.203 287.003C109.203 287.946 108.429 288.694 107.516 288.694H102.758C101.817 288.694 101.071 287.946 101.071 287.003ZM101.071 296.038C101.071 295.095 101.817 294.319 102.758 294.319H107.516C108.429 294.319 109.203 295.095 109.203 296.038C109.203 296.982 108.429 297.729 107.516 297.729H102.758C101.817 297.725 101.071 296.978 101.071 296.038ZM101.071 305.069C101.071 304.126 101.817 303.378 102.758 303.378H107.516C108.429 303.378 109.203 304.126 109.203 305.069C109.203 306.013 108.429 306.789 107.516 306.789H102.758C101.817 306.789 101.071 306.013 101.071 305.069Z" fill="#BBBDBF"/>
<path fill-rule="evenodd" clip-rule="evenodd" d="M118.383 260.26H146.98C148.251 260.26 149.303 261.314 149.303 262.589V272.923C149.303 274.226 148.251 275.28 146.98 275.28H118.383C117.083 275.28 116.031 274.226 116.031 272.923V262.589C116.031 261.314 117.083 260.26 118.383 260.26Z" fill="#C02729"/>
<path fill-rule="evenodd" clip-rule="evenodd" d="M67.0001 344.944V283.094C67.0001 280.545 69.075 278.466 71.5902 278.466H116.084C118.628 278.466 120.703 280.545 120.703 283.094V344.944C120.703 347.493 118.628 349.572 116.084 349.572H71.5943C69.075 349.572 67.0001 347.493 67.0001 344.944Z" fill="#92CADA"/>
<path fill-rule="evenodd" clip-rule="evenodd" d="M63.8775 342.425V280.464C63.8775 277.968 65.9238 275.893 68.439 275.893H112.546C115.061 275.893 117.136 277.972 117.136 280.464V342.425C117.136 344.945 115.061 346.995 112.546 346.995H68.439C65.9238 346.995 63.8775 344.945 63.8775 342.425Z" fill="#43ACC4"/>
<path fill-rule="evenodd" clip-rule="evenodd" d="M69.9067 345.97V276.942C69.9067 276.362 70.3755 275.888 70.9584 275.888H80.9701C81.5489 275.888 82.0218 276.358 82.0218 276.942V345.97C82.0218 346.525 81.553 346.995 80.9701 346.995H70.9584C70.3755 346.995 69.9067 346.525 69.9067 345.97Z" fill="#F7D33D"/>
<path fill-rule="evenodd" clip-rule="evenodd" d="M94.3774 346.995H103.949V356.696L99.2446 352.011L94.3774 356.859V346.995Z" fill="#C02729"/>
<path d="M109.203 259.872C108.262 260.399 107.075 260.064 106.55 259.153C106.024 258.21 106.358 257.021 107.296 256.494L125.024 235.903C124.747 235.045 124.608 234.102 124.608 233.158C124.608 228.085 128.701 223.984 133.76 223.984C136.112 223.984 138.268 224.899 139.899 226.369L179.387 198.103C178.918 196.996 178.641 195.746 178.641 194.472C178.641 189.403 182.734 185.298 187.793 185.298C192.852 185.298 196.944 189.399 196.944 194.472C196.944 194.778 196.916 195.081 196.887 195.387L234.578 208.854C236.209 206.277 239.087 204.561 242.348 204.561C244.891 204.561 247.186 205.586 248.846 207.249L268.893 194.366C269.448 194.006 270.112 193.978 270.691 194.227L306.837 209.328C308.496 206.971 311.235 205.419 314.329 205.419C316.376 205.419 318.255 206.085 319.775 207.22L417.341 121.123C417.618 120.845 418.058 120.429 418.421 120.375C418.78 121.817 419.085 123.259 419.363 124.726L322.36 210.161C323.077 211.464 323.493 212.988 323.493 214.593C323.493 219.662 319.4 223.763 314.337 223.763C309.279 223.763 305.182 219.662 305.182 214.593C305.182 214.013 305.239 213.486 305.349 212.931L270.145 198.218L250.957 210.521C251.316 211.517 251.507 212.6 251.507 213.735C251.507 218.78 247.415 222.91 242.352 222.91C237.317 222.91 233.2 218.78 233.2 213.735C233.2 213.319 233.229 212.931 233.282 212.543L195.701 199.104C194.099 201.82 191.168 203.65 187.793 203.65C185.441 203.65 183.284 202.735 181.654 201.265L142.161 229.531C142.63 230.638 142.907 231.884 142.907 233.158C142.907 238.231 138.786 242.328 133.752 242.328C131.041 242.328 128.607 241.164 126.92 239.281L109.203 259.872Z" fill="#ADD477"/>
<path fill-rule="evenodd" clip-rule="evenodd" d="M133.76 239.951C137.465 239.951 140.506 236.904 140.506 233.162C140.506 229.421 137.465 226.374 133.76 226.374C130.026 226.374 126.985 229.421 126.985 233.162C126.985 236.904 130.026 239.951 133.76 239.951Z" fill="#FDFDFD"/>
<path fill-rule="evenodd" clip-rule="evenodd" d="M187.797 201.265C191.531 201.265 194.572 198.218 194.572 194.476C194.572 190.735 191.531 187.687 187.797 187.687C184.063 187.687 181.022 190.735 181.022 194.476C181.022 198.218 184.063 201.265 187.797 201.265Z" fill="#FDFDFD"/>
<path fill-rule="evenodd" clip-rule="evenodd" d="M242.356 220.496C246.09 220.496 249.131 217.449 249.131 213.736C249.131 209.994 246.09 206.947 242.356 206.947C238.65 206.947 235.609 209.994 235.609 213.736C235.609 217.449 238.65 220.496 242.356 220.496Z" fill="#FDFDFD"/>
<path fill-rule="evenodd" clip-rule="evenodd" d="M314.341 221.382C318.075 221.382 321.117 218.335 321.117 214.593C321.117 210.852 318.075 207.804 314.341 207.804C310.607 207.804 307.595 210.852 307.595 214.593C307.595 218.335 310.607 221.382 314.341 221.382Z" fill="#FDFDFD"/>
<path d="M197.67 211.129H177.924V304.542H197.67V211.129Z" fill="#43ACC4"/>
<path d="M251.512 228.922H233.233V304.547H251.512V228.922Z" fill="#F16858"/>
<path fill-rule="evenodd" clip-rule="evenodd" d="M82.1848 126.613C107.793 116.997 136.332 130.019 145.899 155.68C155.495 181.368 142.5 209.937 116.887 219.552C91.2508 229.139 62.7402 216.145 53.1443 190.457C43.5769 164.801 56.5766 136.204 82.1848 126.613ZM87.4393 140.717C105.278 134.039 125.158 143.099 131.823 160.973C138.488 178.848 129.447 198.74 111.608 205.448C93.77 212.126 73.9137 203.066 67.2243 185.192C60.5593 167.321 69.6008 147.396 87.4393 140.717Z" fill="#ADD477"/>
<path fill-rule="evenodd" clip-rule="evenodd" d="M87.5779 140.664L87.4393 140.721C69.6008 147.4 60.5593 167.321 67.2242 185.196C69.2706 190.653 72.5358 195.281 76.6 198.912L64.1832 207.837C59.4831 203.042 55.6676 197.197 53.1483 190.461C43.6625 165.021 56.3565 136.702 81.5203 126.866L87.5779 140.664Z" fill="white"/>
<path fill-rule="evenodd" clip-rule="evenodd" d="M80.9129 186.054H83.6237L89.93 163.886V161.476H78.8421V163.943H87.1662L80.9129 186.054ZM92.3595 180.094C92.3595 183.864 94.2102 186.303 97.9728 186.303C101.735 186.303 103.615 183.864 103.615 180.094V167.431C103.615 163.665 101.735 161.227 97.9728 161.227C94.2102 161.227 92.3595 163.665 92.3595 167.431V180.094ZM95.0418 167.264C95.0418 165.021 96.0079 163.69 97.9728 163.69C99.9621 163.69 100.875 165.021 100.875 167.264V180.261C100.875 182.479 99.9621 183.807 97.9728 183.807C96.0079 183.807 95.0418 182.475 95.0418 180.261V167.264ZM109.562 161.337C107.186 161.337 106.048 162.971 106.048 165.299V173.085C106.048 175.466 107.181 177.047 109.562 177.047C111.939 177.047 113.076 175.466 113.076 173.085V165.299C113.072 162.971 111.939 161.337 109.562 161.337ZM119.517 161.476L109.839 186.054H111.498L121.151 161.476H119.517ZM109.562 162.971C110.781 162.971 111.303 163.886 111.303 165.213V173.223C111.303 174.551 110.777 175.413 109.562 175.413C108.29 175.413 107.821 174.555 107.821 173.223V165.213C107.817 163.886 108.29 162.971 109.562 162.971ZM121.62 170.536C119.24 170.536 118.106 172.112 118.106 174.469V182.202C118.106 184.583 119.24 186.164 121.62 186.164C124.025 186.164 125.13 184.583 125.13 182.202V174.469C125.13 172.112 124.025 170.536 121.62 170.536ZM121.62 172.17C122.835 172.17 123.361 173.027 123.361 174.359V182.341C123.361 183.672 122.835 184.583 121.62 184.583C120.401 184.583 119.88 183.668 119.88 182.341V174.359C119.875 173.027 120.401 172.17 121.62 172.17Z" fill="#ADD477"/>
</g>
<defs>
<filter id="filter0_d_38_3906" x="-26" y="-0.5" width="512" height="395" filterUnits="userSpaceOnUse" color-interpolation-filters="sRGB">
<feFlood flood-opacity="0" result="BackgroundImageFix"/>
<feColorMatrix in="SourceAlpha" type="matrix" values="0 0 0 0 0 0 0 0 0 0 0 0 0 0 0 0 0 0 127 0" result="hardAlpha"/>
<feOffset dx="-6" dy="6"/>
<feGaussianBlur stdDeviation="10"/>
<feComposite in2="hardAlpha" operator="out"/>
<feColorMatrix type="matrix" values="0 0 0 0 0 0 0 0 0 0 0 0 0 0 0 0 0 0 0.1 0"/>
<feBlend mode="normal" in2="BackgroundImageFix" result="effect1_dropShadow_38_3906"/>
<feBlend mode="normal" in="SourceGraphic" in2="effect1_dropShadow_38_3906" result="shape"/>
</filter>
</defs>
</svg>
